<svg width="16" height="16" viewBox="0 0 16 16" fill="none" xmlns="http://www.w3.org/2000/svg">
<path d="M3 2C2.44772 2 2 2.44772 2 3V5V6V7V10V11V13C2 13.5523 2.44772 14 3 14H13C13.5523 14 14 13.5523 14 13V11V10V7V6V5V3C14 2.44772 13.5523 2 13 2H3ZM11 3.5005C11 3.22408 11.2241 3 11.5005 3H12.4995C12.7759 3 13 3.22408 13 3.5005V3.5005C13 3.77692 12.7759 4.001 12.4995 4.001H11.5005C11.2241 4.001 11 3.77692 11 3.5005V3.5005ZM3 6.5C3 6.22386 3.22386 6 3.5 6H12.5C12.7761 6 13 6.22386 13 6.5V6.5C13 6.77614 12.7761 7 12.5 7H3.5C3.22386 7 3 6.77614 3 6.5V6.5ZM11 8.5C11 8.22386 11.2239 8 11.5 8H12.5C12.7761 8 13 8.22386 13 8.5V8.5C13 8.77614 12.7761 9 12.5 9H11.5C11.2239 9 11 8.77614 11 8.5V8.5ZM3 10.5C3 10.2239 3.22386 10 3.5 10H12.5C12.7761 10 13 10.2239 13 10.5V10.5C13 10.7761 12.7761 11 12.5 11H3.5C3.22386 11 3 10.7761 3 10.5V10.5ZM11 12.5C11 12.2239 11.2239 12 11.5 12H12.5C12.7761 12 13 12.2239 13 12.5V12.5C13 12.7761 12.7761 13 12.5 13H11.5C11.2239 13 11 12.7761 11 12.5V12.5Z" fill="url(#paint0_linear)"/>
<defs>
<linearGradient id="paint0_linear" x1="8" y1="14" x2="8" y2="2" gradientUnits="userSpaceOnUse">
<stop stop-color="#FDA700"/>
<stop offset="1" stop-color="#FFDE00"/>
</linearGradient>
</defs>
</svg>
