<?xml version="1.0" encoding="UTF-8" ?>
<!DOCTYPE svg PUBLIC "-//W3C//DTD SVG 1.1//EN" "http://www.w3.org/Graphics/SVG/1.1/DTD/svg11.dtd">
<svg width="192pt" height="192pt" viewBox="0 0 192 192" version="1.1" xmlns="http://www.w3.org/2000/svg">
<g id="#ff3660ff">
<path fill="#ff3660" opacity="1.00" d=" M 84.52 13.81 C 102.58 11.57 121.43 14.79 137.44 23.53 C 155.51 33.48 169.29 50.42 176.65 69.56 C 183.32 86.93 182.88 106.45 177.26 124.04 C 171.16 144.42 156.26 161.47 137.98 171.99 C 133.91 173.64 129.18 169.35 130.28 165.13 C 130.86 161.85 134.27 160.50 136.64 158.69 C 150.62 149.46 161.71 135.49 166.18 119.23 C 170.96 103.96 170.90 87.02 164.82 72.12 C 158.14 55.93 146.19 41.62 130.58 33.42 C 116.69 26.11 100.46 23.73 84.97 25.83 C 67.35 28.49 50.75 37.67 39.33 51.37 C 27.88 64.74 21.53 82.44 22.25 100.06 C 22.67 123.51 35.47 146.20 55.22 158.81 C 58.09 160.27 60.30 163.63 58.96 166.86 C 57.89 170.07 54.02 171.50 50.98 170.25 C 35.91 161.12 23.75 147.20 16.96 130.92 C 8.75 111.56 8.04 89.09 15.25 69.32 C 21.16 53.22 31.98 38.94 45.97 29.01 C 57.33 20.91 70.69 15.64 84.52 13.81 Z" />
<path fill="#ff3660" opacity="1.00" d=" M 111.37 65.43 C 113.03 63.93 115.80 65.93 115.11 67.99 C 113.61 80.07 111.14 92.00 108.71 103.92 C 106.74 113.24 95.95 118.49 87.13 116.05 C 80.38 113.98 75.70 107.05 75.72 100.08 C 75.95 94.11 79.56 88.66 84.36 85.28 C 93.36 78.65 102.32 71.97 111.37 65.43 Z" />
</g>
</svg>
