<svg width="192" height="192" viewBox="0 0 192 192" fill="none" xmlns="http://www.w3.org/2000/svg">
<path d="M13.0435 21.2559C12.4976 16.2685 17.1732 11.518 22.193 12.0393C42.0109 12.0511 61.8407 12.0511 81.6586 12.0393C86.1206 11.6128 90.9742 15.4629 90.6419 20.1068C90.6182 32.7707 90.6538 45.4465 90.6181 58.1104C91.0335 61.0009 88.4583 62.9201 86.2511 64.1876C82.1926 65.9172 77.1491 62.3277 77.3034 57.9682C77.2678 47.1761 77.244 36.3839 77.339 25.5917C60.4048 25.5443 43.4705 25.5562 26.5363 25.5917C26.6075 42.473 26.6194 59.3661 26.5244 76.2592C37.2997 76.3659 48.0868 76.1645 58.862 76.3422C63.146 76.2948 66.6587 81.2822 64.9142 85.2626C63.6682 87.3357 61.8881 89.8472 59.135 89.5629C46.4373 89.6576 33.7396 89.5866 21.0419 89.5866C16.4019 89.9183 12.6163 85.0257 13.0554 80.6188C13.091 60.8232 13.091 41.0396 13.0435 21.2559Z" fill="url(#paint0_linear)"/>
<path d="M107.054 12.5961C108.739 11.9445 110.602 12.1104 112.37 12.0393C132.212 12.134 152.042 11.9919 171.872 12.1222C176.037 12.1104 179.585 15.9842 179.431 20.0949C179.478 40.6486 179.514 61.2023 179.419 81.756C179.478 86.2932 175.052 90.0367 170.578 89.5155C150.416 89.5036 130.254 89.5747 110.092 89.4918C105.879 89.7169 101.999 85.9615 102.034 81.756C101.927 61.5695 102.034 41.3831 101.987 21.1966C101.643 17.6071 103.624 13.9229 107.054 12.5961ZM115.444 25.4969C115.503 42.3663 115.385 59.2358 115.503 76.1052C132.331 76.0934 149.17 76.1289 166.009 76.0934C166.021 59.2239 166.021 42.3545 166.021 25.4851C149.158 25.4614 132.295 25.4614 115.444 25.4969Z" fill="url(#paint1_linear)"/>
<path d="M132.438 101.291C146.025 100.959 159.637 101.113 173.236 101.208C175.657 103.494 179.739 105.212 179.597 109.086C179.68 129.959 179.621 150.857 179.633 171.73C180.119 175.249 176.737 177.215 174.648 179.454C152.137 179.75 129.601 179.774 107.078 179.442C104.906 177.298 101.927 175.142 102.046 171.754C101.999 159.09 102.022 146.426 102.034 133.762C102.01 129.77 106.105 126.382 110.056 127.33C113.284 127.519 115.527 130.741 115.515 133.786C115.574 144.531 115.515 155.264 115.527 166.008C132.438 166.008 149.336 166.02 166.247 165.997C166.247 149.163 166.175 132.317 166.282 115.483C155.839 115.412 145.396 115.483 134.953 115.459C130.456 115.886 126.195 111.017 127.762 106.646C128.688 104.383 130.895 103.08 132.438 101.291Z" fill="url(#paint2_linear)"/>
<path d="M17.909 102.487C19.6416 101.753 21.5759 101.8 23.4153 101.753C42.806 101.8 62.1967 101.729 81.5874 101.788C86.3223 101.338 90.8318 105.378 90.5114 110.176C90.547 130.327 90.5232 150.478 90.5232 170.617C90.8911 175.024 87.2361 179.324 82.7266 179.277C62.1848 179.359 41.6312 179.336 21.0894 179.288C16.5087 179.442 12.6638 175.13 13.0673 170.64C13.0673 150.454 13.0317 130.267 13.091 110.081C12.9486 106.871 14.9185 103.719 17.909 102.487ZM26.5007 115.293C26.5245 132.163 26.4889 149.044 26.5245 165.914C43.3756 165.914 60.2268 165.925 77.0779 165.914C77.161 149.08 76.9474 132.246 77.1847 115.412C60.298 115.104 43.3993 115.341 26.5007 115.293Z" fill="url(#paint3_linear)"/>
<defs>
<linearGradient id="paint0_linear" x1="51.8313" y1="89.6122" x2="51.8313" y2="12" gradientUnits="userSpaceOnUse">
<stop stop-color="#FD3A84"/>
<stop offset="1" stop-color="#FFA68D"/>
</linearGradient>
<linearGradient id="paint1_linear" x1="140.713" y1="89.5641" x2="140.713" y2="12.0393" gradientUnits="userSpaceOnUse">
<stop stop-color="#02AA93"/>
<stop offset="1" stop-color="#67FF80"/>
</linearGradient>
<linearGradient id="paint2_linear" x1="140.849" y1="179.684" x2="140.849" y2="101.088" gradientUnits="userSpaceOnUse">
<stop stop-color="#5570FF"/>
<stop offset="1" stop-color="#4DD3FF"/>
</linearGradient>
<linearGradient id="paint3_linear" x1="51.7935" y1="179.331" x2="51.7935" y2="101.753" gradientUnits="userSpaceOnUse">
<stop stop-color="#FDA700"/>
<stop offset="1" stop-color="#FFDE00"/>
</linearGradient>
</defs>
</svg>
