<svg width="128" height="128" viewBox="0 0 128 128" fill="none" xmlns="http://www.w3.org/2000/svg">
<path d="M43.6242 8.43695C56.4275 3.4331 71.412 3.40226 84.2237 8.39069C96.7261 13.1787 107.047 22.585 112.388 34.0653C117.577 45.0059 118.079 57.7276 113.917 69.0229C110.19 79.2927 102.576 88.2442 92.7898 94.1887C93.3915 95.137 93.9849 96.093 94.5783 97.0491C96.7344 95.9157 99.0912 94.3043 101.732 95.0368C104.916 95.6536 106.061 98.7839 107.582 101.051C109.02 103.487 110.75 105.792 111.978 108.329C113.014 110.804 111.711 113.772 109.17 114.975C104.732 117.342 100.328 119.771 95.8402 122.045C93.1492 123.487 89.3717 122.431 87.9593 119.894C85.9703 116.81 84.0649 113.68 82.1176 110.573C80.981 108.923 80.6969 106.741 81.6998 104.975C82.6107 103.225 84.6332 102.392 86.3297 101.428C84.8588 98.9612 83.1038 96.6327 81.8669 94.0653C80.839 91.8679 82.3266 89.339 84.5997 88.4523C95.7566 82.8856 104.014 72.6081 106.37 61.0969C108.384 51.706 106.629 41.6598 101.389 33.3945C95.1466 23.3637 83.9896 16.0314 71.6126 14.0807C59.9208 12.107 47.3933 14.8363 37.9663 21.5364C27.3276 28.8841 20.7588 40.9736 20.834 53.2403C20.6752 64.1038 25.7146 74.8826 34.2808 82.3151C42.17 89.3467 53.0512 93.2866 63.9991 93.3097C66.6734 93.194 69.072 95.4608 68.7962 97.928C68.7544 100.21 66.4729 102.138 64.0159 102.061C52.3157 102.091 40.6574 98.3752 31.4811 91.6752C22.7896 85.3837 16.3127 76.5171 13.3292 66.7021C9.81917 55.3066 10.9558 42.7238 16.6052 32.0684C22.121 21.521 31.9073 12.9474 43.6242 8.43695ZM92.0042 108.722C92.7731 110.087 93.5503 111.459 94.712 112.585C96.9434 111.336 99.2333 110.179 101.398 108.838C100.612 107.581 99.8517 106.317 99.1162 105.037C96.5756 105.977 94.2858 107.357 92.0042 108.722Z" fill="#C45AF0" stroke="#C45AF0" stroke-width="2"/>
<path d="M57.6978 19.8171C68.3115 18.09 79.7943 20.8733 87.8591 27.5272C90.5501 29.9481 88.6697 34.7207 84.9173 34.9828C82.5271 35.3837 80.839 33.541 79.0087 32.4925C72.5319 28.3136 64.0994 27.3344 56.5278 29.1386C53.0345 29.9558 49.8921 26.2858 51.2126 23.2789C52.0817 20.7191 55.2157 20.1871 57.6978 19.8171Z" fill="#C45AF0" stroke="#C45AF0" stroke-width="2"/>
<path d="M38.309 29.4161C41.911 27.5349 46.4573 31.1817 45.0951 34.7438C43.9836 36.8101 42.2703 38.6066 40.4902 40.218C37.1055 42.5927 31.9324 39.1617 33.186 35.4377C34.2139 33.063 36.1194 30.9582 38.309 29.4161Z" fill="#C45AF0" stroke="#C45AF0" stroke-width="2"/>
</svg>
