<svg width="128" height="128" viewBox="0 0 128 128" fill="none" xmlns="http://www.w3.org/2000/svg">
<path d="M5.06723 22.2067C5.41419 13.1347 13.4977 5.23357 22.6 5.08629C31.4882 4.99057 40.3763 5.07893 49.2571 5.04948C47.0056 7.79611 44.8795 10.6532 43.0413 13.7017C36.3235 13.7533 29.5983 13.6207 22.8805 13.7386C18.3774 13.8564 14.2728 17.575 13.8225 22.0521C13.4682 33.3406 13.948 44.6511 13.6084 55.9396C13.4387 58.8408 10.2569 60.1884 7.70268 59.5919C6.18933 58.6641 4.90482 57.1177 5.03032 55.2474C5.02294 44.2387 4.97126 33.2227 5.06723 22.2067Z" fill="#088AFF"/>
<path d="M49.2571 5.04948C55.1777 5.04948 61.0982 5.04211 67.0187 5.04948C64.9296 7.92129 62.8109 10.7784 60.7808 13.7017C54.8676 13.7091 48.9545 13.6944 43.0413 13.7017C44.8795 10.6532 47.0056 7.79611 49.2571 5.04948Z" fill="#0D97FF"/>
<path d="M67.0187 5.04951C73.1976 5.04951 79.3839 5.04215 85.5629 5.05687C83.6066 7.92133 81.3993 10.6238 79.7678 13.6944C73.4413 13.7165 67.1073 13.6944 60.7808 13.7018C62.8109 10.7784 64.9296 7.92133 67.0187 5.04951Z" fill="#12A0FF"/>
<path d="M85.5629 5.0569C90.9666 5.02745 96.3704 5.07899 101.774 5.02008C99.7958 7.84035 97.8026 10.6533 96.1859 13.6944C90.7083 13.7092 85.238 13.7018 79.7678 13.6944C81.3993 10.6238 83.6066 7.92135 85.5629 5.0569Z" fill="#17AAFF"/>
<path d="M101.774 5.02005C107.156 4.76969 112.471 6.87569 116.258 10.6827C114.28 12.8844 112.478 15.2481 110.899 17.7518C110.662 17.5088 110.182 17.0228 109.939 16.7798C106.506 12.7666 100.851 13.7901 96.1858 13.6944C97.8025 10.6532 99.7957 7.84032 101.774 5.02005Z" fill="#1BB3FF"/>
<path d="M87.0983 25.3069C87.8882 24.2539 89.313 24.4453 90.472 24.3422C93.4692 24.3349 96.4664 24.2391 99.4414 23.8857C101.139 24.3275 102.099 25.8886 102.771 27.376C102.468 29.4526 101.597 31.9489 99.1904 32.295C93.543 32.6926 87.8587 32.3391 82.1965 32.457C83.732 30.0122 85.0977 27.4202 87.0983 25.3069Z" fill="#1BB3FF"/>
<path d="M110.899 17.7517C112.478 15.2481 114.28 12.8843 116.258 10.6826C117.853 12.5603 119.292 14.6074 120.185 16.9196C121.736 21.5587 121.204 26.485 121.256 31.2861C117.646 34.2978 115.653 38.6571 112.582 42.1401C112.56 35.9252 112.604 29.7102 112.567 23.5027C112.663 21.4482 111.829 19.5337 110.899 17.7517Z" fill="#20BEFF"/>
<path opacity="0.26" d="M22.8805 13.7386C29.5983 13.6208 36.3235 13.7533 43.0413 13.7018C48.9545 13.6944 54.8676 13.7091 60.7808 13.7018C67.1073 13.6944 73.4413 13.7165 79.7678 13.6944C85.238 13.7018 90.7083 13.7091 96.1859 13.6944C100.851 13.7901 106.506 12.7666 109.939 16.7798C105.569 15.3291 100.94 15.8446 96.4221 15.7783C72.3044 15.7857 48.1867 15.7636 24.0764 15.7857C19.5216 15.366 15.4614 19.9167 15.5721 24.3054C15.5057 35.13 15.6828 45.9619 15.5057 56.7864C15.5869 60.5713 9.70325 63.5757 7.70267 59.5919C10.2569 60.1884 13.4386 58.8409 13.6084 55.9396C13.948 44.6511 13.4682 33.3406 13.8225 22.0521C14.2728 17.575 18.3773 13.8564 22.8805 13.7386Z" fill="black"/>
<path opacity="0.26" d="M102.771 27.376L103.029 26.4556C105.886 29.3568 103.14 34.3199 99.3676 34.2389C84.5958 34.3126 69.8166 34.261 55.0374 34.261C53.5536 34.5408 52.5201 33.5026 51.7966 32.3612C61.925 32.5747 72.0682 32.398 82.1966 32.4569C87.8587 32.3391 93.543 32.6926 99.1904 32.2949C101.597 31.9488 102.468 29.4526 102.771 27.376Z" fill="black"/>
<path opacity="0.24" d="M120.185 16.9197C122.548 18.0463 122.983 21.22 123.293 23.5764C123.36 49.8425 123.271 76.1159 123.33 102.382C123.825 110.629 118.495 118.987 110.714 121.888C105.827 123.251 100.674 123.486 95.647 122.971C85.8139 123.611 75.9512 122.963 66.1107 123.214C59.954 122.794 53.7751 123.692 47.6257 123.022C45.4406 122.676 43.2554 123.089 41.0703 123.206C33.5257 122.831 25.7817 124.09 18.4143 121.851C16.9305 121.196 14.7306 120.806 14.5681 118.832C16.554 119.775 18.6579 120.489 20.8283 120.85C26.9481 121.203 33.0754 120.938 39.2026 121.012C46.0976 121.019 52.9852 121.027 59.8802 121.012C68.2737 121.012 76.6673 121.027 85.0683 121.005C91.5498 120.946 98.0388 121.167 104.52 120.916C113.327 120.364 120.924 112.595 121.219 103.796C121.359 95.8284 121.234 87.8609 121.263 79.8935C121.293 72.0512 121.271 64.2016 121.263 56.3593C121.285 48.0016 121.278 39.6439 121.256 31.2861C121.204 26.485 121.736 21.5588 120.185 16.9197Z" fill="black"/>
<path d="M49.5303 25.3511C50.9698 23.385 53.6274 23.7237 55.7609 23.7016C70.3186 23.8489 84.8985 23.4439 99.4414 23.8857C96.4664 24.2392 93.4692 24.3349 90.4721 24.3423C89.313 24.4454 87.8883 24.2539 87.0984 25.3069C85.0978 27.4203 83.7321 30.0123 82.1966 32.457C72.0682 32.3981 61.925 32.5748 51.7966 32.3613C48.8585 31.6175 47.5445 27.6633 49.5303 25.3511Z" fill="#14A5FF"/>
<path d="M112.582 42.1401C115.653 38.6571 117.646 34.2979 121.256 31.2861C121.278 39.6439 121.285 48.0016 121.263 56.3593C117.735 59.4226 115.417 63.5168 112.574 67.1618C112.582 58.8188 112.567 50.4831 112.582 42.1401Z" fill="#25C8FF"/>
<path d="M68.665 49.6363C65.1437 48.0384 65.1215 42.3537 69.0193 41.2712C74.7405 40.719 80.5282 41.1829 86.2789 41.0356C84.4334 43.716 82.861 46.6761 80.4027 48.8558C76.5566 49.6437 72.5333 48.7969 68.665 49.6363Z" fill="#19B0FF"/>
<path d="M86.2789 41.0356C90.3908 41.0872 94.5175 40.9252 98.6294 41.1019C100.372 41.1755 101.663 42.5304 102.498 43.9369C103.044 46.5583 101.435 49.6879 98.5113 49.7321C88.8775 49.8131 79.2215 49.8425 69.5878 49.6952C69.3515 49.6805 68.8938 49.6511 68.665 49.6363C72.5333 48.7969 76.5566 49.6437 80.4027 48.8558C82.861 46.6762 84.4334 43.716 86.2789 41.0356Z" fill="#1EBAFF"/>
<path opacity="0.23" d="M102.498 43.9368C105.458 45.4685 104.203 49.57 101.811 51.028C100.165 51.9043 98.2455 51.8822 96.4294 51.9043C88.7815 51.8306 81.1335 51.8896 73.4782 51.8822C71.8615 51.9779 70.0011 51.4919 69.5877 49.6952C79.2215 49.8425 88.8775 49.813 98.5112 49.732C101.435 49.6878 103.044 46.5583 102.498 43.9368Z" fill="#000203"/>
<path d="M112.574 67.1617C115.417 63.5167 117.735 59.4225 121.263 56.3593C121.271 64.2015 121.293 72.0512 121.263 79.8934C117.602 82.6033 115.712 86.8889 112.582 90.1068C112.567 82.456 112.582 74.8125 112.574 67.1617Z" fill="#29D1FF"/>
<path d="M87.0614 58.4874C90.8928 58.3402 94.7463 58.3917 98.5851 58.4506C101.973 58.5169 103.959 63.156 101.553 65.5933C99.3749 68.1412 95.6248 66.8893 92.7162 67.1765C89.8445 66.9703 86.0575 68.0675 84.1381 65.2472C82.2704 62.8025 83.9683 58.7746 87.0614 58.4874Z" fill="#21C1FF"/>
<path d="M20.2967 60.4976C24.5784 59.0544 29.2292 59.2237 33.5699 60.3577L33.4887 60.424C30.1298 62.611 28.5426 66.8893 24.6891 68.3399C20.9537 69.1867 17.4841 71.4032 15.6016 74.7905C13.7487 77.8685 13.5272 81.6386 14.3467 85.0701C11.3199 88.6709 8.78784 92.6473 5.84234 96.3144C5.59873 95.0994 5.35512 93.8844 5.1115 92.6694C5.87187 92.176 6.63224 91.6826 7.39999 91.1893C5.74637 87.5664 4.77192 83.5753 5.17056 79.5842C5.71685 70.9393 12.0139 63.0528 20.2967 60.4976Z" fill="#0F9AFF"/>
<path d="M24.6891 68.3399C28.5427 66.8892 30.1298 62.6109 33.4887 60.424C36.4269 61.3591 39.1583 62.8908 41.4911 64.8937C42.6648 66.035 43.7648 67.2574 44.7761 68.5534C42.8937 70.8582 40.7824 72.9789 38.3093 74.6579C38.2134 74.5106 38.014 74.2087 37.9181 74.0614C35.135 69.7316 29.7386 67.5299 24.6891 68.3399Z" fill="#13A3FF"/>
<path d="M5.84236 96.3143C8.78786 92.6473 11.32 88.6709 14.3467 85.0701C15.3211 87.7504 16.9378 90.2025 19.278 91.8814C20.7766 92.8829 22.4302 93.634 24.165 94.1273C22.3268 96.5353 20.6363 99.0536 19.182 101.712C17.2479 100.924 15.4466 99.8489 13.6896 98.737C13.6749 101.815 13.5051 105.055 15.0775 107.838C12.4273 109.466 10.9066 112.205 9.59252 114.915C7.03827 111.771 5.21487 107.934 5.06722 103.84C4.97125 100.114 4.97125 96.388 5.11152 92.6693C5.35513 93.8843 5.59874 95.0993 5.84236 96.3143Z" fill="#13A3FF"/>
<path opacity="0.21" d="M41.4911 64.8937C44.6211 65.6006 46.1271 68.7744 47.8841 71.1381C52.1879 77.6255 51.5161 85.9317 49.3162 93.0376C48.423 92.3969 47.5223 91.771 46.6217 91.1451C50.1282 83.9803 49.5081 75.0261 44.7761 68.5535C43.7648 67.2575 42.6648 66.0351 41.4911 64.8937Z" fill="black"/>
<path opacity="0.22" d="M15.6016 74.7905C17.4841 71.4032 20.9537 69.1867 24.6891 68.3399C29.7386 67.5299 35.135 69.7316 37.918 74.0615C35.098 72.6845 32.47 70.6079 29.2292 70.3796C22.312 69.9599 15.7419 76.2337 16.1479 83.1997C16.1184 86.3882 18.1559 89.017 19.278 91.8815C16.9378 90.2026 15.3211 87.7505 14.3466 85.0701C13.5272 81.6386 13.7487 77.8685 15.6016 74.7905Z" fill="black"/>
<path d="M44.7761 68.5535C49.5081 75.0261 50.1282 83.9803 46.6217 91.1451C47.5223 91.771 48.4229 92.3969 49.3162 93.0376C51.6933 94.7238 53.7603 96.793 55.7018 98.9506C53.214 100.6 51.1027 102.728 49.3679 105.143C48.7182 104.378 48.0538 103.626 47.3378 102.92C45.4996 101.012 43.344 99.4586 41.0998 98.0669C35.0759 103.015 26.483 104.54 19.182 101.712C20.6363 99.0536 22.3268 96.5353 24.165 94.1274C28.8822 95.0478 34.0572 93.4205 37.0839 89.6282C40.6273 85.534 41.0481 79.2823 38.3093 74.6579C40.7824 72.979 42.8937 70.8583 44.7761 68.5535Z" fill="#19AEFF"/>
<path d="M112.582 90.1069C115.712 86.8889 117.602 82.6033 121.263 79.8935C121.234 87.8609 121.359 95.8284 121.219 103.796C120.924 112.595 113.327 120.364 104.52 120.916C98.0388 121.167 91.5498 120.946 85.0682 121.005C86.8474 117.632 90.0512 115.408 92.2954 112.382C96.0973 112.293 99.9139 112.47 103.716 112.293C108.418 112.036 112.486 107.838 112.545 103.133C112.641 98.7959 112.537 94.4514 112.582 90.1069Z" fill="#2DD9FF"/>
<path opacity="0.22" d="M15.0775 107.839C13.5051 105.055 13.6749 101.815 13.6897 98.737C15.4466 99.849 17.2479 100.924 19.182 101.712C26.483 104.54 35.0759 103.015 41.0998 98.067C43.344 99.4587 45.4996 101.012 47.3378 102.92C45.7727 102.227 44.2003 101.469 42.5024 101.16C39.0918 102.014 36.2423 104.562 32.6324 104.864C28.9118 105.129 24.9697 105.482 21.4262 104.039C19.6988 103.361 17.9344 102.78 16.1258 102.367C16.1258 104.989 16.5023 107.596 17.1519 110.136C16.4285 109.407 15.7345 108.634 15.0775 107.839Z" fill="black"/>
<path d="M49.3679 105.143C51.1027 102.728 53.214 100.6 55.7018 98.9506C58.9352 102.912 61.4599 107.433 62.9511 112.323C64.0954 112.338 65.2396 112.352 66.3839 112.367C63.9773 115.055 61.423 117.698 59.8801 121.012C52.9852 121.027 46.0976 121.019 39.2026 121.012C40.9152 117.824 43.3661 115.158 45.6251 112.36C48.3048 112.367 50.9846 112.367 53.6643 112.345C52.4758 109.812 51.1322 107.33 49.3679 105.143Z" fill="#21BFFF"/>
<path d="M9.5925 114.915C10.9065 112.205 12.4273 109.466 15.0775 107.838C15.7345 108.634 16.4284 109.407 17.1519 110.136C20.4001 112.853 24.7851 112.374 28.7198 112.374C26.328 115.416 23.3972 117.971 20.8282 120.85C18.6579 120.489 16.5539 119.775 14.5681 118.832C12.7078 117.809 11.1206 116.373 9.5925 114.915Z" fill="#18ACFF"/>
<path d="M28.7198 112.374C34.3525 112.352 39.9851 112.36 45.6251 112.36C43.3661 115.158 40.9152 117.824 39.2026 121.012C33.0753 120.938 26.9481 121.203 20.8282 120.85C23.3973 117.971 26.328 115.416 28.7198 112.374Z" fill="#1CB6FF"/>
<path d="M66.3839 112.367C75.021 112.367 83.6582 112.338 92.2954 112.382C90.0512 115.408 86.8473 117.632 85.0682 121.005C76.6673 121.027 68.2737 121.012 59.8801 121.012C61.423 117.698 63.9773 115.055 66.3839 112.367Z" fill="#27CCFF"/>
</svg>
