<svg width="64" height="64" viewBox="0 0 64 64" fill="none" xmlns="http://www.w3.org/2000/svg">
<path d="M32 4H6.8C5.2488 4 4 5.2488 4 6.8V32" stroke="url(#paint0_linear)" stroke-width="5"/>
<path d="M32 4H57.2C58.7512 4 60 5.2488 60 6.8V32" stroke="url(#paint1_linear)" stroke-width="5"/>
<path d="M32 60H6.8C5.2488 60 4 58.7512 4 57.2V32" stroke="url(#paint2_linear)" stroke-width="5"/>
<path d="M32 60H57.2C58.7512 60 60 58.7512 60 57.2V32" stroke="url(#paint3_linear)" stroke-width="5"/>
<path opacity="0.2" d="M18.0005 46.9998H34.0005" stroke="black" stroke-width="4" stroke-linecap="round"/>
<path d="M18.0005 46H34.0005" stroke="url(#paint4_linear)" stroke-width="5" stroke-linecap="round"/>
<path opacity="0.2" d="M22.0005 34.9995V18.9995V34.9995ZM18.0005 34.9995H26.0005H18.0005ZM18.0005 18.9995H26.0005H18.0005Z" stroke="black" stroke-width="4" stroke-linecap="round"/>
<path d="M22.0005 33.9998V17.9998V33.9998ZM18.0005 33.9998H26.0005H18.0005ZM18.0005 17.9998H26.0005H18.0005Z" stroke="url(#paint5_linear)" stroke-width="5" stroke-linecap="round"/>
<path opacity="0.2" d="M34.0005 32.9995V34.9995H36.0005C43.8321 34.7694 41.9989 21.2235 42.0005 18.9995" stroke="black" stroke-width="4" stroke-linecap="round" stroke-linejoin="round"/>
<path d="M34.0005 31.9998V33.9998H36.0005C43.8321 33.7697 41.9989 20.2238 42.0005 17.9998" stroke="url(#paint6_linear)" stroke-width="5" stroke-linecap="round" stroke-linejoin="round"/>
<defs>
<linearGradient id="paint0_linear" x1="31.917" y1="4.17751" x2="4.13853" y2="31.7248" gradientUnits="userSpaceOnUse">
<stop stop-color="#FE7970"/>
<stop offset="1" stop-color="#DC3282"/>
</linearGradient>
<linearGradient id="paint1_linear" x1="46" y1="4" x2="46" y2="32" gradientUnits="userSpaceOnUse">
<stop stop-color="#44BCFF"/>
<stop offset="1" stop-color="#0F6596"/>
</linearGradient>
<linearGradient id="paint2_linear" x1="18" y1="60" x2="18" y2="32" gradientUnits="userSpaceOnUse">
<stop stop-color="#FD2E00"/>
<stop offset="1" stop-color="#FF9900"/>
</linearGradient>
<linearGradient id="paint3_linear" x1="46" y1="60" x2="46" y2="32" gradientUnits="userSpaceOnUse">
<stop stop-color="#A93AFF"/>
<stop offset="1" stop-color="#FF81FF"/>
</linearGradient>
<linearGradient id="paint4_linear" x1="-nan" y1="-nan" x2="-nan" y2="-nan" gradientUnits="userSpaceOnUse">
<stop stop-color="#BB63FF"/>
<stop offset="1" stop-color="#B300F2"/>
</linearGradient>
<linearGradient id="paint5_linear" x1="22.0005" y1="33.9998" x2="22.0005" y2="17.9998" gradientUnits="userSpaceOnUse">
<stop stop-color="#BB63FF"/>
<stop offset="1" stop-color="#B300F2"/>
</linearGradient>
<linearGradient id="paint6_linear" x1="38.0931" y1="33.9998" x2="38.0931" y2="17.9998" gradientUnits="userSpaceOnUse">
<stop stop-color="#BB63FF"/>
<stop offset="1" stop-color="#B300F2"/>
</linearGradient>
</defs>
</svg>
