<svg width="180" height="192" viewBox="0 0 180 192" fill="none" xmlns="http://www.w3.org/2000/svg">
<path d="M22.1017 10.0666C26.3318 7.53973 31.3459 6.88586 36.1834 7.02993C48.0231 7.16292 59.8738 6.83044 71.7135 7.18509C68.6431 11.463 65.5838 15.7409 62.5466 20.041C52.6728 20.2183 42.788 19.8748 32.9143 20.1629C26.895 20.3513 22.1238 25.3274 20.4671 30.8577C19.9812 33.4399 19.8266 36.0776 19.8045 38.7042C19.8597 54.1313 19.7272 69.5695 19.5173 85.0076C15.3867 88.9641 12.4599 93.9624 8.26301 97.8524C7.73287 77.0613 8.19674 56.237 8.03107 35.4348C7.76601 25.2942 13.0453 14.9097 22.1017 10.0666Z" fill="#078AFF"/>
<path d="M71.7135 7.18508C84.9448 6.94127 98.2092 6.94127 111.44 7.18508C109.187 11.5073 106.857 15.7963 104.438 20.0299C90.4781 20.1186 76.5068 20.0742 62.5466 20.041C65.5839 15.7409 68.6432 11.463 71.7135 7.18508Z" fill="#0F9AFF"/>
<path d="M111.44 7.18509C119.481 6.83045 127.543 7.15184 135.584 7.04102C141.481 7.18509 147.556 6.39822 153.244 8.32661C147.28 9.31297 144.85 15.4084 141.978 19.9634C129.465 20.1962 116.952 20.041 104.438 20.0299C106.857 15.7963 109.187 11.5073 111.44 7.18509Z" fill="#16A9FF"/>
<path d="M141.979 19.9634C144.85 15.4084 147.28 9.31296 153.244 8.32661C162.466 11.4408 169.06 20.0964 170.716 29.5832C170.959 32.8747 171.014 36.1774 170.959 39.4689C166.365 42.7937 164.233 48.2797 160.169 52.081C159.418 45.3982 160.92 38.4936 158.976 31.9549C158.446 30.37 157.805 28.8074 157.021 27.3334C154.393 21.6258 147.854 19.4869 141.979 19.9634Z" fill="#1EBAFF"/>
<path d="M104.604 61.9889C108.514 58.4979 114.091 58.387 119.039 58.2319C124.241 58.2762 129.885 58.0546 134.501 60.8807C138.532 63.4629 139.736 68.5942 139.758 73.1048C139.825 84.1986 139.736 95.2924 139.814 106.386C139.703 108.536 140.134 111.008 138.621 112.781C134.512 113.246 130.172 113.368 126.87 110.52C119.282 115.352 107.995 114.975 101.412 108.514C99.0927 103.671 99.5124 98.196 99.6339 92.9872C99.667 88.5984 102.229 84.1543 106.415 82.5473C112.578 80.0093 119.403 81.3171 125.876 80.774L126.914 80.6632C126.858 77.0281 128.029 72.1074 124.793 69.5362C121.601 68.6607 116.974 67.9514 114.61 70.8551C114.301 71.9412 114.047 73.0383 113.837 74.1577C110.977 78.4245 104.858 76.7067 100.738 75.5098C100.484 70.7886 100.959 65.4245 104.604 61.9889ZM112.744 95.3256C112.556 98.0409 112.236 102.219 115.803 102.773C119.138 103.039 123.501 103.992 126.041 101.188C127.267 98.0076 127.223 94.4501 126.638 91.1253C123.048 90.9369 119.426 90.815 115.869 91.2693C113.959 91.5575 112.556 93.3861 112.744 95.3256Z" fill="#1EBAFF"/>
<path opacity="0.24" d="M20.4671 30.8577C22.1238 25.3274 26.895 20.3513 32.9143 20.1629C42.788 19.8748 52.6728 20.2183 62.5466 20.041C76.5068 20.0742 90.478 20.1186 104.438 20.0299C116.952 20.041 129.465 20.1962 141.978 19.9634C147.854 19.4869 154.392 21.6258 157.021 27.3334C153.067 25.1944 149.224 22.1578 144.463 22.4792C107.995 22.5124 71.5257 22.5014 35.0679 22.4903C30.6281 22.5568 25.8237 24.1305 23.2945 28.0094C21.2292 30.769 21.4612 34.3709 21.4059 37.6292C21.5164 71.9855 21.417 106.342 21.4501 140.698C21.3507 146.76 21.8146 152.856 21.0525 158.896C19.7713 154.806 20.2021 150.462 20.1469 146.228C20.18 109.656 20.1469 73.0827 20.1469 36.5209C20.18 34.6258 20.2683 32.7417 20.4671 30.8577Z" fill="black"/>
<path opacity="0.24" d="M38.6685 143.967C43.3071 144.876 48.0563 144.621 52.7502 144.632C61.8729 144.566 70.9956 144.71 80.1294 144.566C95.9892 144.655 111.86 144.655 127.731 144.588C137.991 144.699 148.252 144.511 158.512 144.655C159.517 149.287 159.296 154.197 158.181 158.796C158.026 155.072 158.236 151.315 157.54 147.647C119.691 147.126 81.7971 147.769 43.9367 147.337C41.772 147.204 39.0881 146.483 38.6685 143.967Z" fill="black"/>
<path opacity="0.27" d="M170.716 29.5832C171.379 30.7025 171.71 31.9106 171.71 33.1961C171.622 59.7946 171.644 86.4041 171.677 112.991C171.865 114.41 170.915 115.396 169.987 116.294C170.849 113.058 171.114 109.7 171.069 106.353C170.948 84.0545 171.136 61.7673 170.959 39.4689C171.014 36.1774 170.959 32.8747 170.716 29.5832Z" fill="#06222C"/>
<path d="M19.8043 38.7042C19.8264 36.0776 19.981 33.4399 20.467 30.8577C20.2682 32.7417 20.1798 34.6258 20.1467 36.5209C20.1467 73.0827 20.1798 109.656 20.1467 146.228C20.2019 150.462 19.7712 154.806 21.0523 158.896C22.709 163.938 27.3918 168.106 32.7926 168.372C46.1674 168.682 59.5754 168.117 72.9503 168.626C64.9541 170.012 56.3836 168.726 48.8623 172.295C46.068 174.267 44.6764 177.626 42.1583 179.897C38.3038 180.851 34.2725 180.862 30.3297 181.161C21.3284 180.141 13.7077 173.381 10.3723 165.102C12.0732 161.035 14.9447 157.677 17.6506 154.274C19.6165 152.091 19.2852 148.988 19.3956 146.284C19.2079 125.858 19.8816 105.433 19.5171 85.0076C19.727 69.5695 19.8595 54.1313 19.8043 38.7042Z" fill="#18ACFF"/>
<path d="M158.976 31.9549C160.919 38.4936 159.417 45.3981 160.168 52.081C164.233 48.2796 166.364 42.7937 170.959 39.4689C171.136 61.7673 170.948 84.0545 171.069 106.353C171.113 109.7 170.848 113.058 169.987 116.294C166.552 120.106 159.296 118.267 159.119 112.836C158.843 85.8832 159.185 58.919 158.976 31.9549Z" fill="#26CAFF"/>
<path d="M56.3174 51.0947C57.0132 48.3462 57.9962 44.4451 61.5856 44.6002C65.8378 44.7775 70.7636 43.4254 74.5739 45.7196C77.1915 49.4101 77.6553 54.2311 78.7598 58.5533C77.4345 56.8355 76.1202 55.0955 74.5518 53.6104C70.5537 55.1509 68.9523 59.85 68.0135 63.7289C67.5386 63.7732 66.5998 63.8619 66.1249 63.9062C64.9652 68.9932 63.8166 74.0912 62.2814 79.0895C61.7734 76.5959 61.2212 74.1023 60.4039 71.6863C57.1126 75.6317 55.2019 80.497 51.9659 84.4868C49.4809 87.5012 48.0672 91.3913 44.8533 93.7519C47.9899 79.3887 52.5402 65.3248 56.3174 51.0947Z" fill="#109CFF"/>
<path d="M68.0136 63.7289C68.9523 59.85 70.5538 55.1509 74.5519 53.6104C76.1202 55.0955 77.4345 56.8355 78.7598 58.5533C81.4547 65.7681 82.769 73.4484 85.0883 80.7962C87.7942 91.2693 91.5383 101.488 93.5815 112.116C89.0643 113.413 84.1606 113.479 79.6986 111.927C79.5882 111.407 79.3673 110.365 79.2568 109.844C78.5831 106.608 78.1966 103.239 76.6503 100.28C70.0678 100.113 63.4301 99.8252 56.8697 100.457C56.1628 102.396 55.7321 104.424 55.3456 106.453C55.2462 106.94 55.0694 107.904 54.9811 108.392C54.2522 109.855 53.8325 111.684 52.3746 112.603C48.4759 113.346 44.4888 112.925 40.557 112.781C39.3973 110.199 40.5791 107.472 41.2307 104.945C42.3793 101.321 43.1635 97.5975 44.4447 94.0178L44.8533 93.7519C48.0672 91.3913 49.4809 87.5012 51.9659 84.4867C55.202 80.497 57.1127 75.6317 60.4039 71.6863C61.2212 74.1023 61.7734 76.5959 62.2815 79.0895C61.5305 82.2813 60.6027 85.4399 60.183 88.6982C64.6781 88.9531 69.2064 88.9752 73.7125 88.676C72.3209 80.2532 69.0517 72.2293 68.0136 63.7289Z" fill="#14A5FF"/>
<path opacity="0.22" d="M114.61 70.8551C116.973 67.9514 121.601 68.6607 124.793 69.5362C128.029 72.1074 126.858 77.0281 126.914 80.6632L125.875 80.774C125.61 78.081 126.439 75.1108 125.003 72.6615C121.656 71.2319 118.012 72.451 114.544 72.451C114.555 72.052 114.588 71.254 114.61 70.8551Z" fill="black"/>
<path opacity="0.21" d="M113.837 74.1577C115.25 76.8175 112.136 80.5746 109.132 79.9096C106.128 79.965 100.042 79.9872 100.738 75.5098C104.858 76.7067 110.976 78.4245 113.837 74.1577Z" fill="black"/>
<path d="M8.26283 97.8524C12.4597 93.9624 15.3865 88.9641 19.5171 85.0076C19.8816 105.433 19.2079 125.858 19.3957 146.284C19.2852 148.988 19.6165 152.091 17.6506 154.274C14.9447 157.677 12.0732 161.035 10.3723 165.102C10.1293 164.537 9.63235 163.395 9.38937 162.83C7.35719 156.391 8.20761 149.553 8.04194 142.915C8.19657 127.898 7.7327 112.847 8.26283 97.8524Z" fill="#0F9BFF"/>
<path opacity="0.23" d="M56.8698 100.457C63.4303 99.8252 70.068 100.113 76.6505 100.28C78.1967 103.239 78.5833 106.608 79.257 109.844C77.8764 107.783 77.28 105.156 75.524 103.394C70.2005 102.784 64.7777 102.973 59.4322 103.239C57.4 103.15 56.5606 105.234 55.3457 106.453C55.7323 104.424 56.163 102.396 56.8698 100.457Z" fill="black"/>
<path opacity="0.22" d="M52.3745 112.604C53.8323 111.684 54.252 109.855 54.981 108.392C55.8093 112.249 52.993 115.895 49.039 115.884C46.1785 116.017 40.6011 117.003 40.5569 112.781C44.4887 112.925 48.4758 113.346 52.3745 112.604Z" fill="black"/>
<path opacity="0.22" d="M79.6985 111.927C84.1605 113.479 89.0642 113.413 93.5814 112.116C93.0734 116.272 88.1807 116.294 84.9999 115.973C82.7358 115.817 78.9586 115.031 79.6985 111.927Z" fill="black"/>
<path opacity="0.24" d="M101.412 108.514C107.995 114.975 119.282 115.352 126.87 110.52C130.172 113.368 134.512 113.246 138.621 112.781C139.759 115.673 136.357 115.418 134.479 115.651C130.989 115.74 127.565 113.335 124.142 114.842C118.752 116.87 112.622 117.136 107.255 114.898C104.516 113.734 101.854 111.673 101.412 108.514Z" fill="black"/>
<path d="M36.2827 136.453C36.8791 132.94 40.6011 131.134 43.8924 131.466C58.7472 131.566 73.6241 131.233 88.4789 131.632C85.8061 136.01 82.7026 140.111 80.1293 144.566C70.9955 144.71 61.8728 144.566 52.75 144.632C48.0561 144.621 43.307 144.876 38.6683 143.967C37.0006 141.917 35.1783 139.18 36.2827 136.453Z" fill="#19B0FF"/>
<path d="M88.479 131.632C104.571 131.3 120.707 131.433 136.821 131.566C133.618 135.788 130.713 140.21 127.731 144.588C111.86 144.655 95.9892 144.655 80.1294 144.566C82.7028 140.111 85.8062 136.01 88.479 131.632Z" fill="#22C3FF"/>
<path d="M136.821 131.566C145.987 131.355 155.165 131.455 164.332 131.511C168.121 131.322 171.103 134.758 171.08 138.415C171.025 148.877 172.616 160.314 166.696 169.624C162.609 175.52 156.358 180.252 149.113 181.161C132.16 180.629 115.195 180.862 98.2422 180.363C100.065 176.761 102.207 172.505 106.404 171.353C113.119 169.413 120.21 169.757 127.068 168.615C133.607 168.139 140.178 168.715 146.716 168.338C152.073 167.973 156.502 163.75 158.181 158.796C159.296 154.197 159.517 149.287 158.512 144.655C148.252 144.511 137.991 144.699 127.731 144.588C130.713 140.21 133.618 135.788 136.821 131.566Z" fill="#2BD5FF"/>
<path opacity="0.2" d="M10.7259 170.776C9.65454 168.416 7.90951 165.302 9.38947 162.83C9.63245 163.395 10.1294 164.537 10.3724 165.102C13.7079 173.381 21.3285 180.141 30.3298 181.161C32.2515 181.371 34.1843 181.46 36.1171 181.482C69.2726 181.482 102.428 181.504 135.584 181.516C140.09 181.482 144.618 181.704 149.113 181.161C156.358 180.252 162.609 175.52 166.696 169.624C166.519 174.29 162.631 177.326 159.418 180.152C155.607 183.411 150.538 184.907 145.568 184.718C107.983 184.652 70.3991 184.707 32.8258 184.696C23.5264 184.785 15.2541 178.601 10.7259 170.776Z" fill="black"/>
<path d="M72.9504 168.626C90.975 168.316 109.033 168.305 127.068 168.615C120.21 169.757 113.119 169.413 106.404 171.353C102.207 172.505 100.065 176.761 98.2423 180.363C115.196 180.862 132.16 180.629 149.113 181.161C144.618 181.704 140.09 181.482 135.584 181.516C102.428 181.504 69.2726 181.482 36.1171 181.482C34.1844 181.46 32.2516 181.371 30.3298 181.161C34.2727 180.862 38.3039 180.851 42.1585 179.897C44.6766 177.626 46.0682 174.267 48.8624 172.295C56.3837 168.726 64.9542 170.012 72.9504 168.626Z" fill="#21BFFF"/>
</svg>
