<svg width="128" height="128" viewBox="0 0 128 128" fill="none" xmlns="http://www.w3.org/2000/svg">
<path d="M61.1785 10.2324C59.909 8.43483 61.4841 22.4009 59.5798 22.4966C76.9065 22.5605 94.2409 22.4541 111.575 22.5392C111.787 49.546 111.638 76.5634 111.654 103.57C111.912 105.144 110.706 106.325 109.663 106.197C78.6697 106.283 47.6683 106.123 16.6668 106.112C16.8784 90.455 16.5493 75.638 16.6668 59.9806C13.4147 50.786 9.55125 54.5453 7.56077 59.9806C7.47456 77.3611 7.53726 94.7416 7.52942 112.122C7.38053 116.185 10.5622 119.451 13.4147 118.94C46.0853 118.94 78.7637 118.962 111.426 118.834C113.268 117.706 115.274 116.962 116.873 115.239C119.882 111.984 121.089 106.485 120.995 101.422C120.956 75.5316 121.003 49.6523 120.979 23.7624C120.901 16.8272 116.724 10.3069 111.474 10.2218C94.7111 10.1367 77.9409 10.1154 61.1785 10.2324Z" fill="url(#paint0_linear)"/>
<path d="M26.8173 57.2032C27.1428 56.9836 27.804 56.5443 28.1295 56.3247C33.4901 56.1388 38.9931 55.8178 44.3028 56.5274C44.4859 56.8146 44.8419 57.3806 45.0148 57.6678C45.32 62.2041 45.2894 66.7827 44.9029 71.3274C41.709 71.6822 38.4845 71.6484 35.2702 71.6738C32.4322 71.6653 29.5841 71.6316 26.7767 71.3105C26.5427 66.6222 26.2579 61.8747 26.8173 57.2032ZM31.9541 60.4977C30.5911 62.3815 31.415 64.7468 31.1506 66.8418L31.3133 66.2589C33.012 68.8946 37.7012 67.7204 40.5494 67.0192C40.2035 64.8651 41.1292 62.39 39.6949 60.4555C37.2435 59.8388 34.375 59.7628 31.9541 60.4977Z" fill="url(#paint1_linear)"/>
<path d="M54.5966 37.9429C55.7155 36.5406 57.9635 37.0221 59.6724 36.8869C72.5907 36.9714 85.5089 36.8109 98.4272 36.9545C100.228 36.794 101.062 38.4159 100.848 39.6662C100.736 41.3134 101.458 43.5774 99.4342 44.5995C84.7664 44.8023 70.0782 44.3461 55.4307 44.8107C54.0677 42.6988 54.1287 40.2491 54.5966 37.9429Z" fill="url(#paint2_linear)"/>
<path d="M26.5325 83.6186C26.7563 82.2501 25.9731 80.0115 28.0888 79.4709C32.5237 79.133 36.9892 79.3526 41.4343 79.3188C42.9092 79.2513 45.2284 79.4709 45.0555 81.1266C45.2081 85.3926 45.4115 89.7008 44.9131 93.9499C44.6486 94.0851 44.0993 94.3554 43.8349 94.4906C38.3014 94.6933 32.7577 94.6088 27.2242 94.5328C25.7798 91.0609 26.8885 87.2257 26.5325 83.6186ZM31.7812 83.9734C31.0488 86.1022 29.9503 90.9848 34.1309 90.875C36.267 90.799 40.4578 91.5931 40.3968 88.8476C40.5595 86.8118 41.1698 82.7485 37.335 83.1878C35.5855 83.3736 32.9103 82.6303 31.7812 83.9734Z" fill="url(#paint3_linear)"/>
<path opacity="0.25" d="M55.4309 44.8107C70.0783 44.3461 84.7665 44.8023 99.4343 44.5995L101.225 44.5826C99.9327 45.7315 98.4985 47.0662 96.3929 46.7706C84.4918 46.8043 72.5908 46.703 60.6897 46.8043C58.34 46.9142 56.0615 46.4158 53.9865 45.5203L55.4309 44.8107Z" fill="black"/>
<path opacity="0.25" d="M55.1258 69.6211C54.7596 68.7932 54.4239 67.9654 54.1899 67.1122C61.9918 68.4638 70.0275 67.5008 77.9311 67.788C85.5498 67.5008 93.3007 68.4638 100.818 67.1375C100.767 67.9316 100.716 68.7256 100.665 69.5197C85.4989 69.9168 70.3022 69.7394 55.1258 69.6211Z" fill="black"/>
<path opacity="0.24" d="M31.9541 60.4978C34.375 59.7628 37.2435 59.8389 39.6949 60.4555C41.1291 62.39 40.2035 64.8651 40.5493 67.0192C39.8881 65.0256 39.6339 61.8831 36.267 62.0099C32.9408 61.4016 31.6083 64.0204 31.3133 66.259L31.1505 66.8418C31.415 64.7469 30.5911 62.3816 31.9541 60.4978Z" fill="url(#paint4_linear)"/>
<path d="M55.919 60.1937C67.6574 59.8473 79.4364 60.1683 91.195 60.05C94.0635 60.1176 97.0032 59.7966 99.8208 60.3288C101.682 62.2042 100.492 64.9158 100.818 67.1375C93.3006 68.4638 85.5497 67.5008 77.9309 67.788C70.0274 67.5008 61.9916 68.4638 54.1898 67.1122C54.8408 64.9158 53.2133 61.5537 55.919 60.1937Z" fill="url(#paint5_linear)"/>
<path d="M56.092 83.2892C69.8443 82.9428 83.6475 83.23 97.4202 83.1456C99.1495 82.9259 101.052 83.7707 100.807 85.4095C100.818 87.2595 101.713 91.0186 98.234 90.8835C84.4206 90.9257 70.6072 90.9511 56.7938 90.8581C54.7595 91.1369 54.139 89.1433 54.3221 87.8339C54.5052 86.3303 53.7219 83.796 56.092 83.2892Z" fill="url(#paint6_linear)"/>
<path opacity="0.45" d="M27.2242 94.5328C32.7577 94.6088 38.3013 94.6933 43.8348 94.4905L43.9467 95.7999C38.932 95.6816 33.8969 96.0533 28.9025 95.6479C28.4753 95.3691 27.6412 94.8115 27.2242 94.5328Z" fill="#0F182B"/>
<path d="M31.0105 45.9998C29.8201 46.001 28.6917 45.6793 27.9293 45.1225L17.9257 37.8112C16.5113 36.7742 16.7434 35.2364 18.4459 34.375C20.1484 33.5135 22.6734 33.6549 24.0878 34.6918L31.0103 39.7121L43.9548 29.8543C45.3892 28.8307 47.9163 28.7101 49.5967 29.5837C51.2033 30.4196 51.4675 31.8721 50.1969 32.9006L34.1912 45.0858C33.4191 45.6731 32.2449 46.0095 31.0105 45.9998Z" fill="url(#paint7_linear)"/>
<defs>
<linearGradient id="paint0_linear" x1="64" y1="118.993" x2="64" y2="9" gradientUnits="userSpaceOnUse">
<stop stop-color="#FD2E00"/>
<stop offset="1" stop-color="#FF9900"/>
</linearGradient>
<linearGradient id="paint1_linear" x1="35.8569" y1="71.6738" x2="35.8569" y2="56.0888" gradientUnits="userSpaceOnUse">
<stop stop-color="#02AA93"/>
<stop offset="1" stop-color="#67FF80"/>
</linearGradient>
<linearGradient id="paint2_linear" x1="77.5903" y1="44.8107" x2="77.5903" y2="36.8869" gradientUnits="userSpaceOnUse">
<stop stop-color="#5570FF"/>
<stop offset="1" stop-color="#4DD3FF"/>
</linearGradient>
<linearGradient id="paint3_linear" x1="35.8433" y1="94.6168" x2="35.8433" y2="79.2795" gradientUnits="userSpaceOnUse">
<stop stop-color="#5570FF"/>
<stop offset="1" stop-color="#4DD3FF"/>
</linearGradient>
<linearGradient id="paint4_linear" x1="35.8448" y1="67.0192" x2="35.8448" y2="59.9697" gradientUnits="userSpaceOnUse">
<stop stop-color="#02AA93"/>
<stop offset="1" stop-color="#67FF80"/>
</linearGradient>
<linearGradient id="paint5_linear" x1="77.5436" y1="67.8601" x2="77.5436" y2="60.0148" gradientUnits="userSpaceOnUse">
<stop stop-color="#FD2E00"/>
<stop offset="1" stop-color="#FF9900"/>
</linearGradient>
<linearGradient id="paint6_linear" x1="77.6048" y1="90.9215" x2="77.6048" y2="83.1113" gradientUnits="userSpaceOnUse">
<stop stop-color="#FD2E00"/>
<stop offset="1" stop-color="#FF9900"/>
</linearGradient>
<linearGradient id="paint7_linear" x1="34" y1="46" x2="34" y2="29" gradientUnits="userSpaceOnUse">
<stop stop-color="#FD2E00"/>
<stop offset="1" stop-color="#FF9900"/>
</linearGradient>
</defs>
</svg>
