<svg width="64" height="64" viewBox="0 0 64 64" fill="none" xmlns="http://www.w3.org/2000/svg">
<g clip-path="url(#clip0)">
<path d="M59.1474 0.757495C60.3223 -0.649794 62.7345 0.0305253 63.1599 1.75659C63.1834 2.82178 63.1716 3.88696 63.1677 4.95215C61.5245 6.79873 60.4043 9.06517 58.5619 10.7407C58.5385 9.78825 58.5307 8.83969 58.5619 7.89113C57.2544 9.15847 55.9741 10.4569 54.6782 11.7359C55.1076 12.1752 55.5369 12.6145 55.9741 13.0499C56.4932 13.5708 57.0202 14.0801 57.5666 14.5777C56.7938 15.3397 56.0248 16.1094 55.252 16.8752C54.2957 15.9228 53.3394 14.9742 52.3714 14.0334C51.622 14.7915 50.8687 15.5457 50.1154 16.3038C50.4705 16.6575 50.8296 17.0152 51.1887 17.3728C51.5752 17.7538 51.9616 18.1348 52.348 18.5158C51.5908 19.2855 50.8257 20.0514 50.0802 20.8289C49.3191 20.098 48.5736 19.3555 47.8242 18.6169C47.0747 19.3594 46.3292 20.1019 45.5798 20.8405C46.3253 21.583 47.0669 22.3372 47.7695 23.1225C47.0123 23.8728 46.2551 24.6231 45.4861 25.3578C44.7562 24.6076 44.0068 23.8767 43.1949 23.2158C42.5002 23.9311 41.7976 24.6348 41.0794 25.3229C42.4143 26.9712 44.0341 28.3629 45.4978 29.8907L45.412 29.9801C44.6743 30.7071 43.9443 31.4341 43.2105 32.161C41.7039 30.6721 40.209 29.1676 38.6984 27.6787C37.9451 28.4368 37.1918 29.191 36.4345 29.949C36.6843 30.1978 36.9381 30.4505 37.1879 30.6993C37.6758 31.1892 38.1715 31.6712 38.6672 32.1533C38.6008 32.2194 38.4642 32.3554 38.3979 32.4215C37.707 33.1096 37.0122 33.7977 36.3213 34.4897C35.6383 33.7083 34.885 32.9852 34.1472 32.2543C33.3939 33.0046 32.6406 33.7549 31.8873 34.5052C32.6289 35.2439 33.3627 35.9825 34.1043 36.7172L34.0341 36.7911C33.2885 37.522 32.5508 38.2567 31.8092 38.9914C31.0637 38.2528 30.3221 37.5142 29.5766 36.7794C28.8193 37.5375 28.0621 38.2956 27.3049 39.0536C27.5547 39.2986 27.8006 39.5435 28.0465 39.7923C29.3033 41.0441 30.5602 42.292 31.8131 43.5438C31.0598 44.3213 30.2909 45.0871 29.518 45.8452C28.066 44.4457 26.7116 42.9373 25.1971 41.6039C24.1394 41.8255 23.5968 42.9334 22.8006 43.5749C23.4992 44.3407 24.2252 45.0871 24.9668 45.8141C24.2057 46.5799 23.4524 47.3458 22.6835 48.0999C21.9458 47.3574 21.2041 46.6227 20.4664 45.8802C19.7014 46.6344 18.9403 47.3924 18.183 48.1505C18.4602 48.4304 18.7373 48.7103 19.0183 48.9902C19.4828 49.4528 19.9551 49.9193 20.4352 50.3703C19.6585 51.1167 18.8934 51.8786 18.1284 52.6406C17.3868 51.902 16.6413 51.1711 15.8918 50.4402C15.1385 51.1905 14.3813 51.9447 13.628 52.695C13.9129 52.9866 14.1978 53.282 14.4828 53.5775C15.1112 54.2189 15.7513 54.8565 16.4227 55.4552C15.6576 56.2327 14.8887 57.0063 14.1159 57.776C13.1908 56.843 12.2618 55.9139 11.3329 54.9848C10.2907 56.0344 9.22903 57.0685 8.20639 58.1415C8.14003 58.2114 8.00732 58.3475 7.94097 58.4175C11.3836 58.468 14.8263 58.4214 18.2689 58.4447C17.3048 60.0075 16.2314 61.4964 15.2751 63.0592C11.0323 63.0514 6.78951 63.0864 2.5467 63.0514C1.68799 63.1097 0.942477 62.6549 0.31796 62.1184C-0.224588 61.061 -0.0879753 59.712 0.844896 58.9267C20.2791 39.5357 39.7015 20.1369 59.1474 0.757495Z" fill="#1AB2FF"/>
<path opacity="0.25" d="M63.1598 1.75659C63.7453 2.15701 63.6829 2.8762 63.7024 3.49432C63.6907 18.9201 63.7024 34.3458 63.6985 49.7716C63.6829 51.1439 63.7883 52.5317 63.6048 53.8963C63.0584 56.1433 59.038 55.91 58.8858 53.5503C59.3386 53.9157 59.8109 54.2617 60.3378 54.5183C61.3761 54.5649 62.6017 54.3744 63.0154 53.2665C63.1481 52.625 63.1716 51.9642 63.1794 51.3111C63.1598 43.6176 63.1755 35.9242 63.1637 28.2307C63.1794 20.4712 63.1637 12.7117 63.1676 4.95215C63.1715 3.88696 63.1833 2.82178 63.1598 1.75659Z" fill="black"/>
<path opacity="0.25" d="M52.3714 14.0334C53.3394 14.9742 54.2956 15.9228 55.2519 16.8752C56.0248 16.1094 56.7937 15.3397 57.5666 14.5777C58.2184 15.6934 57.106 16.7003 56.2668 17.3029C54.7289 17.8316 53.9053 16.0433 52.8788 15.2619C52.0123 15.6973 51.3409 16.3815 51.1887 17.3728C50.8296 17.0152 50.4705 16.6575 50.1153 16.3038C50.8686 15.5457 51.6219 14.7915 52.3714 14.0334Z" fill="black"/>
<path opacity="0.25" d="M36.4344 29.9491C37.1917 29.191 37.945 28.4368 38.6983 27.6788C40.2089 29.1677 41.7038 30.6722 43.2104 32.1611C43.9443 31.4341 44.6742 30.7072 45.4119 29.9802C46.2862 31.2281 44.6664 32.1883 43.792 32.8414C43.6749 32.8414 43.4368 32.8414 43.3197 32.8414C41.8326 31.6635 40.646 30.1551 39.2057 28.9228C38.4212 29.3815 37.7694 30.0113 37.1878 30.6994C36.938 30.4506 36.6843 30.1979 36.4344 29.9491Z" fill="black"/>
<path opacity="0.25" d="M27.3047 39.0537C28.062 38.2956 28.8192 37.5376 29.5764 36.7795C30.3219 37.5142 31.0636 38.2529 31.8091 38.9915C32.5507 38.2567 33.2884 37.522 34.0339 36.7911C34.3657 37.9846 33.6631 39.1587 32.4843 39.5085C31.2939 39.8623 30.7864 38.0118 29.6545 38.2645C29.0417 38.6844 28.5655 39.2636 28.0464 39.7923C27.8005 39.5435 27.5546 39.2986 27.3047 39.0537Z" fill="black"/>
<path opacity="0.25" d="M24.9667 45.8141L25.1424 45.6392C25.8255 46.9687 24.3461 48.0067 23.4484 48.757C22.3047 49.0135 21.6763 47.719 20.8722 47.1553C20.2321 47.7462 19.6154 48.3566 19.0182 48.9902C18.7372 48.7103 18.4601 48.4304 18.1829 48.1505C18.9401 47.3924 19.7013 46.6344 20.4663 45.8802C21.204 46.6227 21.9456 47.3575 22.6833 48.1C23.4523 47.3458 24.2056 46.5799 24.9667 45.8141Z" fill="black"/>
<path opacity="0.25" d="M13.6279 52.695C14.3812 51.9448 15.1384 51.1906 15.8917 50.4403C16.6412 51.1711 17.3867 51.902 18.1283 52.6406C18.8933 51.8787 19.6584 51.1167 20.4351 50.3703C20.6654 51.7115 19.6974 53.2976 18.2142 53.1732C17.4882 52.7534 16.8675 52.1819 16.2196 51.6571C15.5365 52.1936 14.955 52.8467 14.4827 53.5775C14.1977 53.2821 13.9128 52.9866 13.6279 52.695Z" fill="black"/>
<path opacity="0.25" d="M63.3121 60.2213C64.3035 60.9794 64.1591 62.41 63.2887 63.1992C62.7266 64.0933 61.6142 63.9806 60.7008 64C41.3135 63.9728 21.9261 64.0117 2.54271 63.9767C1.41077 64.1283 0.446678 63.1914 0.317871 62.1184C0.942388 62.6549 1.6879 63.1098 2.54661 63.0514C6.78942 63.0864 11.0322 63.0514 15.275 63.0592C18.9129 63.0631 22.5507 63.067 26.1846 63.0592C30.0878 63.0631 33.9871 63.067 37.8865 63.0592C40.931 63.0631 43.9755 63.0592 47.02 63.0631C51.3292 63.0631 55.6344 63.0553 59.9436 63.0709C60.8179 63.0359 61.864 63.1331 62.5236 62.4372C63.1755 61.8891 63.2613 61.0105 63.3121 60.2213Z" fill="black"/>
<path d="M58.5619 10.7407C60.4042 9.06517 61.5244 6.79873 63.1677 4.95215C63.1638 12.7117 63.1794 20.4712 63.1638 28.2307C61.4073 29.9607 60.3183 32.2232 58.558 33.9493C58.5423 26.2131 58.5423 18.4769 58.5619 10.7407Z" fill="#23C4FF"/>
<path opacity="0.23" d="M54.6782 11.7359C55.9741 10.4569 57.2544 9.15845 58.5619 7.89111C58.4097 8.71138 58.5112 9.73381 57.793 10.3247C56.9928 11.1022 55.9741 11.8136 55.9741 13.0499C55.5369 12.6145 55.1076 12.1752 54.6782 11.7359Z" fill="black"/>
<path d="M58.558 33.9493C60.3184 32.2232 61.4074 29.9607 63.1639 28.2307C63.1756 35.9242 63.16 43.6176 63.1795 51.311C63.1717 51.9641 63.1482 52.625 63.0155 53.2665C62.391 54.1334 61.4113 54.5999 60.3379 54.5183C59.811 54.2617 59.3387 53.9157 58.8859 53.5503C58.64 52.9632 58.5268 52.3296 58.5424 51.6959C58.558 45.7791 58.5424 39.8661 58.558 33.9493Z" fill="#2AD4FF"/>
<path opacity="0.28" d="M36.3214 34.4897C37.0122 33.7977 37.707 33.1096 38.3979 32.4215C38.6789 33.5022 37.4025 35.1972 36.3214 34.4897Z" fill="#000203"/>
<path opacity="0.24" d="M8.20636 58.1415C9.22901 57.0685 10.2907 56.0344 11.3328 54.9848C12.2618 55.9139 13.1908 56.843 14.1158 57.7761C14.8887 57.0063 15.6576 56.2327 16.4227 55.4552C17.3321 56.4971 15.9504 57.7916 15.0097 58.1765C13.4328 58.7635 12.8434 56.6137 11.5241 56.5243C10.5132 57.224 9.65446 58.7946 8.20636 58.1415Z" fill="black"/>
<path d="M18.2689 58.4447C21.9067 58.4408 25.5484 58.4369 29.1901 58.4447C28.2455 60.0191 27.1643 61.5042 26.1846 63.0592C22.5507 63.067 18.9129 63.0631 15.2751 63.0592C16.2314 61.4964 17.3048 60.0075 18.2689 58.4447Z" fill="#1FBBFF"/>
<path d="M29.1901 58.4447C33.1012 58.4447 37.0083 58.433 40.9154 58.4486C39.9318 59.9997 38.796 61.4575 37.8865 63.0592C33.9872 63.067 30.0879 63.0631 26.1846 63.0592C27.1643 61.5042 28.2455 60.0191 29.1901 58.4447Z" fill="#24C7FF"/>
<path d="M40.9154 58.4486C44.0341 58.4409 47.1528 58.4409 50.2715 58.4448C49.2254 60.0075 48.1364 61.5431 47.0201 63.0631C43.9756 63.0593 40.9311 63.0632 37.8865 63.0593C38.796 61.4576 39.9318 59.9998 40.9154 58.4486Z" fill="#29D2FF"/>
<path d="M50.2715 58.4447C53.8781 58.4603 57.4846 58.4097 61.0912 58.4603C62.1568 58.4408 62.9335 59.3155 63.3122 60.2213C63.2614 61.0105 63.1755 61.8891 62.5237 62.4372C61.8641 63.1331 60.818 63.0359 59.9437 63.0709C55.6345 63.0554 51.3292 63.0631 47.0201 63.0631C48.1364 61.5431 49.2254 60.0075 50.2715 58.4447Z" fill="#2DDAFF"/>
</g>
<defs>
<clipPath id="clip0">
<rect width="64" height="64" fill="white"/>
</clipPath>
</defs>
</svg>
