<?xml version="1.0" encoding="UTF-8" ?>
<!DOCTYPE svg PUBLIC "-//W3C//DTD SVG 1.1//EN" "http://www.w3.org/Graphics/SVG/1.1/DTD/svg11.dtd">
<svg width="192pt" height="192pt" viewBox="0 0 192 192" version="1.1" xmlns="http://www.w3.org/2000/svg">
<g id="#ff4d3eff">
<path fill="#ff4d3e" opacity="1.00" d=" M 79.66 10.67 C 81.74 8.27 85.17 8.77 88.01 8.70 C 95.33 8.85 102.67 8.48 109.98 8.88 C 114.52 9.21 116.63 15.43 113.55 18.62 C 110.69 21.96 105.89 20.15 102.11 20.83 C 102.02 23.42 101.89 26.01 102.13 28.60 L 101.51 28.37 C 101.23 27.84 100.68 26.79 100.40 26.26 C 96.00 30.14 92.74 35.24 90.05 40.41 C 77.58 41.87 65.25 46.42 55.61 54.59 C 54.27 55.51 56.13 56.67 56.66 57.43 C 59.06 59.79 61.58 62.07 63.41 64.92 C 63.04 67.09 63.19 69.77 61.12 71.15 C 59.18 72.85 56.50 72.20 54.19 72.01 C 47.35 64.79 40.13 57.92 33.20 50.78 C 31.92 49.55 31.05 47.90 31.25 46.08 C 31.12 41.88 36.36 38.81 39.96 41.04 C 42.19 42.68 44.00 44.82 46.04 46.69 C 58.57 36.72 73.74 29.70 89.88 28.69 C 90.02 26.06 89.98 23.43 89.89 20.80 C 87.38 20.65 84.85 20.77 82.36 20.48 C 78.25 19.52 76.66 13.61 79.66 10.67 Z" />
<path fill="#ff4d3e" opacity="1.00" d=" M 27.63 70.60 C 30.01 66.10 37.02 67.28 38.58 71.90 C 38.51 74.04 38.07 76.16 37.12 78.09 C 30.95 91.08 29.57 106.27 32.94 120.23 C 34.06 124.94 35.94 129.40 37.74 133.88 C 34.70 136.61 32.47 140.17 28.99 142.40 C 16.45 120.77 16.14 92.74 27.63 70.60 Z" />
</g>
<g id="#ff593dff">
<path fill="#ff593d" opacity="1.00" d=" M 90.05 40.41 C 92.74 35.24 96.00 30.14 100.40 26.26 C 100.68 26.79 101.23 27.84 101.51 28.37 L 102.13 28.60 C 112.66 29.56 123.11 32.47 132.31 37.75 C 129.90 40.92 127.76 44.29 126.01 47.86 C 115.10 41.85 102.42 39.55 90.05 40.41 Z" />
</g>
<g id="#ff6a3bff">
<path fill="#ff6a3b" opacity="1.00" d=" M 132.31 37.75 C 136.89 39.79 140.67 43.11 144.80 45.87 C 147.64 43.31 149.97 40.12 153.18 38.01 C 157.52 35.85 162.82 40.33 161.37 44.98 C 159.93 48.82 156.07 51.07 153.50 54.12 C 155.42 57.09 157.87 59.68 159.71 62.72 C 156.08 64.92 153.90 68.64 151.58 72.05 C 147.70 66.50 143.68 60.97 138.45 56.61 C 134.72 53.14 130.50 50.24 126.01 47.86 C 127.76 44.29 129.90 40.92 132.31 37.75 Z" />
</g>
<g id="#0000003b">
<path fill="#000000" opacity="0.23" d=" M 55.61 54.59 C 65.25 46.42 77.58 41.87 90.05 40.41 C 102.42 39.55 115.10 41.85 126.01 47.86 C 130.50 50.24 134.72 53.14 138.45 56.61 C 135.47 56.88 133.66 54.02 131.25 52.76 C 121.10 46.35 109.04 42.69 97.00 42.95 C 82.49 42.84 67.43 47.43 56.66 57.43 C 56.13 56.67 54.27 55.51 55.61 54.59 Z" />
</g>
<g id="#ff7e38ff">
<path fill="#ff7e38" opacity="1.00" d=" M 151.58 72.05 C 153.90 68.64 156.08 64.92 159.71 62.72 C 166.75 73.12 171.09 85.33 172.29 97.84 C 173.49 112.63 170.76 127.75 163.82 140.91 C 154.47 158.81 137.83 172.86 118.44 178.66 C 101.57 184.03 82.78 183.06 66.51 176.11 C 67.98 172.23 70.31 168.58 73.98 166.46 C 85.89 170.57 98.98 171.47 111.24 168.37 C 127.48 164.51 141.95 153.93 150.78 139.79 C 159.68 125.74 162.87 108.18 159.29 91.92 C 157.91 84.89 154.93 78.32 151.58 72.05 Z" />
</g>
<g id="#11060442">
<path fill="#110604" opacity="0.26" d=" M 63.41 64.92 C 65.18 67.91 64.70 71.71 61.62 73.63 C 59.38 75.54 55.27 74.89 54.19 72.01 C 56.50 72.20 59.18 72.85 61.12 71.15 C 63.19 69.77 63.04 67.09 63.41 64.92 Z" />
</g>
<g id="#01000042">
<path fill="#010000" opacity="0.26" d=" M 38.58 71.90 C 40.05 74.33 40.22 77.47 38.88 79.99 C 35.30 87.15 33.62 95.07 32.75 102.98 C 32.26 108.73 33.11 114.48 32.94 120.23 C 29.57 106.27 30.95 91.08 37.12 78.09 C 38.07 76.16 38.51 74.04 38.58 71.90 Z" />
<path fill="#010000" opacity="0.26" d=" M 172.29 97.84 C 172.96 98.77 173.28 99.82 173.25 100.98 C 173.77 113.62 172.83 126.73 167.32 138.31 C 163.35 146.82 158.31 154.95 151.34 161.35 C 133.30 180.78 104.37 188.73 78.78 182.22 C 69.54 179.71 60.53 175.93 52.83 170.17 C 52.01 169.55 51.49 168.74 51.25 167.72 C 56.10 170.93 61.09 173.97 66.51 176.11 C 82.78 183.06 101.57 184.03 118.44 178.66 C 137.83 172.86 154.47 158.81 163.82 140.91 C 170.76 127.75 173.49 112.63 172.29 97.84 Z" />
</g>
<g id="#ff623bff">
<path fill="#ff623b" opacity="1.00" d=" M 28.99 142.40 C 32.47 140.17 34.70 136.61 37.74 133.88 C 45.19 148.79 58.32 160.69 73.98 166.46 C 70.31 168.58 67.98 172.23 66.51 176.11 C 61.09 173.97 56.10 170.93 51.25 167.72 C 42.13 161.04 34.28 152.44 28.99 142.40 Z" />
</g>
</svg>
