<svg width="128" height="128" viewBox="0 0 128 128" fill="none" xmlns="http://www.w3.org/2000/svg">
<path d="M25.1612 11.4401C27.6771 4.69403 34.5852 -0.0904541 41.8003 0.0204163C56.5973 -0.0051692 71.3942 -0.00516939 86.1912 0.0118876C93.1931 -0.0648688 100.186 4.4467 102.592 11.0904C103.794 15.5508 97.6279 18.9366 94.498 15.619C92.6984 12.8558 90.3958 9.79406 86.737 9.75995C71.7866 9.64055 56.819 9.70878 41.8686 9.72583C37.502 9.62349 33.5533 13.5637 33.6983 17.9388C33.6727 38.68 33.7153 59.4299 33.6812 80.1711C33.9456 82.8405 31.7964 85.51 29.0587 85.5526C26.5428 85.7573 24.0355 83.6422 24.0013 81.0837C23.7796 65.2719 24.2146 49.443 23.7967 33.6397C20.4194 33.9297 16.6839 32.9574 13.6563 34.8934C11.0124 36.4712 9.52847 39.567 9.70757 42.6031C9.73316 57.1272 9.68199 71.6426 9.74169 86.1581C9.69051 90.0301 12.7778 93.6376 16.6071 94.1834C21.2722 94.6696 26.0482 93.7485 30.6536 94.6781C34.4914 96.0256 34.6534 102.055 30.8753 103.59C27.5236 104.622 23.9331 103.906 20.4876 104.128C15.5837 104.324 10.441 103.283 6.62025 100.051C2.48393 96.7334 -0.0405105 91.4884 0.00213203 86.1752C0.00213203 71.3783 -0.00639628 56.5813 0.0106607 41.7844C-0.0916813 34.5437 4.73545 27.6101 11.5241 25.1198C15.4728 23.4823 19.8224 24.1134 23.9758 23.8661C24.0269 19.7127 23.5408 15.3717 25.1612 11.4401Z" fill="#30D9DC"/>
<path d="M95.5896 25.6826C97.2015 23.5676 100.076 23.9769 102.404 23.9514C107.308 24.1475 112.493 23.2947 117.116 25.3841C123.589 28.0706 128.083 34.8252 127.981 41.8441C128.006 56.6325 128.006 71.4124 127.981 86.1922C128.083 93.3903 123.316 100.29 116.595 102.823C112.613 104.486 108.22 103.863 104.033 104.153C103.973 108.315 104.468 112.648 102.83 116.596C100.289 123.334 93.3807 128.084 86.1742 127.999C71.3943 127.999 56.6144 127.99 41.843 127.999C35.0543 128.067 28.3424 123.888 25.6559 117.62C24.2402 114.123 28.0012 110.14 31.5747 111.377C33.6471 111.795 34.4744 113.876 35.6854 115.343C37.3144 117.466 40.0861 118.387 42.6958 118.276C57.1943 118.259 71.6928 118.319 86.1912 118.251C89.3809 118.276 92.417 116.204 93.6537 113.279C94.5918 111.172 94.2592 108.818 94.3103 106.584C94.3189 87.2583 94.2762 67.9328 94.3445 48.6157C94.1995 46.0316 96.4169 43.618 99.0266 43.618C101.713 43.4304 104.203 45.8525 104.007 48.556C104.058 63.7964 104.016 79.0368 104.033 94.2773C107.095 94.1408 110.318 94.7975 113.252 93.6632C116.484 92.3413 118.54 88.8617 118.293 85.3991C118.275 70.8921 118.318 56.3852 118.275 41.8782C118.369 37.7846 114.915 33.9723 110.822 33.725C106.591 33.5033 102.344 33.9297 98.1226 33.5288C94.7538 32.7869 93.2699 28.2412 95.5896 25.6826Z" fill="#30D9DC"/>
<path d="M58.5588 47.6435C59.0449 45.9634 60.546 44.5817 62.354 44.6585C70.2599 44.6329 78.1744 44.5391 86.0718 44.7182C90.3104 45.0167 90.3957 51.9759 86.1315 52.3512C79.1296 52.5729 72.1106 52.3938 65.1002 52.4365C61.3817 62.0054 57.8254 71.6426 54.0387 81.186C52.9385 83.8384 48.7766 84.0089 47.3524 81.5613C44.5209 76.7512 41.6724 71.9241 38.9944 67.0287C37.2376 63.7623 41.4506 60.0524 44.5124 62.0651C47.0453 64.1802 47.8129 67.6769 49.9791 70.1246C52.7935 62.611 55.6932 55.1315 58.5588 47.6435Z" fill="#30D9DC"/>
<path d="M63.7869 62.2613C62.5759 58.9779 66.6525 55.7626 69.5437 57.6986C71.9061 59.6942 73.7653 62.2101 75.9401 64.402C78.1063 62.2187 79.974 59.7198 82.3108 57.7242C85.202 55.737 89.2701 58.9693 88.0846 62.2528C86.2937 65.2633 83.4707 67.5234 81.2533 70.2269C83.411 72.7599 85.9355 74.9943 87.8544 77.7235C89.6112 80.8961 85.7052 84.6486 82.5667 82.9173C80.0423 80.9643 78.183 78.2863 75.9401 76.0263C73.6971 78.3034 71.8293 80.9899 69.2878 82.9429C66.1579 84.623 62.2774 80.879 64.0343 77.7149C65.9617 75.0029 68.4606 72.7514 70.6353 70.2269C68.4094 67.5319 65.6035 65.2633 63.7869 62.2613Z" fill="#30D9DC"/>
</svg>
