<svg width="192" height="192" viewBox="0 0 192 192" fill="none" xmlns="http://www.w3.org/2000/svg">
<path d="M13.6575 26.6017C17.1827 17.8947 25.7738 11.4377 35.1937 11.051C44.4969 10.9573 53.7883 11.0276 63.0915 11.0158C67.7022 15.2815 73.4919 18.7385 76.5502 24.3752C63.1966 24.3986 49.843 24.3752 36.4777 24.3869C31.4234 24.3634 26.7193 28.2306 25.6337 33.1759C25.4003 34.4298 25.3186 35.6954 25.3653 36.9728C23.7428 36.1056 21.6183 35.461 21.4316 33.2814C20.7896 29.6603 16.8792 28.5822 14.0777 27.1056L13.6575 26.6017Z" fill="url(#paint0_linear)"/>
<path d="M63.0914 11.0157C77.1104 11.004 91.1293 11.004 105.137 11.0157C106.024 12.8556 106.654 15.0118 108.545 16.0899C111.627 18.0118 112.677 21.7032 114.918 24.3868C102.125 24.3868 89.3434 24.3985 76.5501 24.3751C73.4918 18.7384 67.7022 15.2814 63.0914 11.0157Z" fill="url(#paint1_linear)"/>
<path d="M105.137 11.0157C118.49 11.004 131.832 11.0157 145.174 11.004C148.034 10.8986 150.87 12.879 151.606 15.6798C152.96 19.4063 150.193 23.918 146.26 24.3047C135.813 24.4922 125.365 24.3399 114.918 24.3868C112.677 21.7032 111.627 18.0118 108.545 16.0899C106.654 15.0118 106.024 12.8556 105.137 11.0157Z" fill="url(#paint2_linear)"/>
<path d="M165.706 45.1405C165.671 41.7655 168.589 38.707 171.951 38.5898C175.546 38.2148 178.932 41.3319 179.048 44.9179C179.037 58.7576 179.048 72.5974 179.037 86.4372C176.644 86.0036 176.725 83.5895 176.364 81.7028C176.013 82.0544 175.301 82.7575 174.939 83.1091C172.208 80.9997 170.982 77.6599 169.033 74.9177C168.204 74.7185 166.523 74.3083 165.683 74.0974C165.683 64.4412 165.636 54.785 165.706 45.1405Z" fill="url(#paint3_linear)"/>
<path opacity="0.11" d="M25.6337 33.1757C26.7193 28.2304 31.4234 24.3633 36.4777 24.3867C49.843 24.375 63.1965 24.3984 76.5501 24.375C89.3434 24.3984 102.125 24.3867 114.918 24.3867C125.365 24.3398 135.813 24.4922 146.26 24.3047L146.82 25.2656C146.411 25.5937 145.571 26.2617 145.162 26.5898C111.697 26.8359 78.2077 26.6601 44.742 26.707C40.0029 26.8476 34.7618 25.6406 30.688 28.7578C28.2251 29.6601 28.3301 32.9531 26.2991 34.2773L25.6337 33.1757Z" fill="url(#paint4_linear)"/>
<path opacity="0.11" d="M127.361 54.8084C133.373 50.7185 142.419 53.5193 145.139 60.2458C146.727 63.1169 145.443 66.8083 147.66 69.3864C149.75 72.152 153.882 72.5856 156.718 70.7341L157.746 70.945C157.034 72.4684 156.216 73.9567 155.294 75.3629C153.532 74.7419 151.664 74.8473 149.948 75.5387C145.139 71.6833 145.011 65.0036 141.952 60.0583C137.657 53.7185 126.801 55.4529 124.467 62.695C123.626 67.2888 121.595 72.1638 117.136 74.2145C110.389 75.8083 104.635 68.0856 106.934 61.8044C107.354 61.7107 108.195 61.5349 108.615 61.4411C108.066 64.6989 108.137 68.7536 111.265 70.7341C115.012 73.5348 121.058 70.9216 121.548 66.2575C121.478 61.781 123.498 57.2224 127.361 54.8084Z" fill="url(#paint5_linear)"/>
<path opacity="0.11" d="M159.391 80.0271C160.967 81.1052 160.71 83.2029 160.792 84.8552C160.675 98.1559 160.85 111.457 160.629 124.757C161.049 136.382 152.224 147.07 141.334 150.21C137.575 150.855 133.77 151.511 129.976 151.663C118.595 150.14 108.954 140.706 106.794 129.433C106.012 120.492 106.911 111.492 106.304 102.55C105.639 98.6832 104.109 94.1716 100.082 92.7067C95.5533 90.445 89.3434 92.4723 87.4641 97.3004C85.0245 102.175 85.8416 107.742 85.7248 112.992C85.5964 123.175 85.9233 133.371 85.5731 143.542C85.3046 150.339 76.4217 154.242 71.3324 149.683C69.6748 147.128 68.1691 144.246 68.2624 141.105C68.2274 128.226 68.3208 115.359 68.2157 102.48C67.9706 98.6598 66.2197 94.2653 62.2977 92.9997C56.1111 89.1794 47.9169 95.6247 48.232 102.363C47.9169 115.64 48.2904 128.941 48.0219 142.218C48.2437 143.402 46.4578 145.535 45.8625 143.46C45.9792 136.417 45.8975 129.375 45.9092 122.343C45.9442 115.277 45.8975 108.211 45.9325 101.144C45.8391 97.5583 47.3099 94.0192 49.9246 91.57C56.8699 84.4919 70.1651 89.8239 70.5036 99.7145C70.5269 113.929 70.4569 128.156 70.527 142.371C70.5853 145.921 73.912 149.027 77.4605 148.722C80.8106 148.675 83.8105 145.652 83.7638 142.289C83.7988 135.738 83.7872 129.175 83.7755 122.625C83.7988 115.488 83.7638 108.339 83.7988 101.203C83.6938 97.8278 84.9544 94.4528 87.3006 92.027C92.1215 86.7771 101.343 87.2107 105.627 92.9177C109.024 96.7614 108.323 102.14 108.37 106.875C108.393 112.781 108.288 118.699 108.417 124.605C108.86 134.226 115.292 143.214 124.186 146.788C133.128 150.62 144.135 148.652 151.22 141.972C159.193 135.175 160.185 124.113 159.508 114.316C159.45 102.89 159.672 91.4528 159.391 80.0271Z" fill="url(#paint6_linear)"/>
<path d="M13.4008 27.0353L14.0778 27.1056C16.8792 28.5821 20.7896 29.6603 21.4316 33.2813C21.6184 35.461 23.7428 36.1055 25.3653 36.9727C25.412 56.8593 25.377 76.7342 25.3886 96.6091C22.774 94.3357 19.1321 93.0584 17.8481 89.5545C17.2528 87.7615 15.2684 87.492 13.8443 86.6248C13.7509 85.2069 13.8326 83.6014 12.0234 83.285C12.0117 67.4062 12.0234 51.5273 12.0117 35.6485C11.9767 32.7188 12.7121 29.8595 13.4008 27.0353Z" fill="url(#paint7_linear)"/>
<path d="M119.132 44.4492C130.805 35.004 150.1 39.8321 156.602 53.2851C158.971 58.4999 161.866 66.328 156.718 70.7343C153.882 72.5858 149.75 72.1522 147.66 69.3866C145.443 66.8085 146.727 63.1171 145.139 60.246C142.419 53.5195 133.373 50.7187 127.361 54.8086C126.673 52.9687 124.688 52.8398 123.439 51.7148C122.225 49.1719 121.233 46.4414 119.132 44.4492Z" fill="url(#paint8_linear)"/>
<path d="M118.934 44.2852L119.132 44.4492C121.233 46.4414 122.226 49.1719 123.439 51.7148C124.688 52.8398 126.673 52.9687 127.362 54.8085C123.498 57.2226 121.478 61.7812 121.548 66.2577C121.058 70.9217 115.012 73.535 111.265 70.7342C108.137 68.7538 108.066 64.6991 108.615 61.4413C109.526 54.5976 113.506 48.4336 118.934 44.2852Z" fill="url(#paint9_linear)"/>
<path d="M132.743 62.0155C136.898 60.8553 140.995 65.8358 138.812 69.6678C137.283 73.4529 131.377 73.8162 129.404 70.2772C127.21 67.3241 129.194 62.66 132.743 62.0155Z" fill="url(#paint10_linear)"/>
<path d="M165.683 74.0975C166.524 74.3085 168.204 74.7186 169.033 74.9178C170.983 77.66 172.208 80.9998 174.94 83.1092C175.301 82.7577 176.014 82.0545 176.364 81.703C176.726 83.5897 176.644 86.0037 179.037 86.4373C179.06 97.7459 179.013 109.043 179.06 120.351C177.344 119.25 175.488 118.382 173.842 117.175C173.866 116.379 173.901 115.582 173.947 114.785C173.434 114.808 172.43 114.855 171.916 114.879C169.745 113.484 168.333 111 165.683 110.332C165.66 98.2498 165.671 86.1795 165.683 74.0975Z" fill="url(#paint11_linear)"/>
<path d="M39.7344 82.9685C49.2476 72.0584 67.7839 72.5389 77.2505 83.2849C78.4411 83.7771 80.0636 83.742 80.7523 85.0427C82.5966 87.6794 85.2697 89.5544 87.3007 92.0271C84.9545 94.4529 83.6938 97.8278 83.7989 101.203C83.7639 108.34 83.7989 115.488 83.7756 122.625C80.834 122.027 79.9119 118.957 78.3244 116.824C77.0521 114.586 74.6825 113.425 72.7565 111.855C70.5504 108.175 72.6631 103.453 70.5037 99.7145C70.1652 89.824 56.8699 84.492 49.9247 91.5701C46.0727 89.2498 43.2829 85.6638 39.7344 82.9685Z" fill="url(#paint12_linear)"/>
<path d="M77.2505 83.2849C83.5304 76.113 94.0709 73.2068 103.164 75.9255C113.273 78.7146 121.082 88.3122 121.583 98.8473C121.747 107.191 121.607 115.535 121.665 123.867C119.996 121.253 120.906 117.937 119.599 115.218C118.607 112.769 115.245 113.566 113.716 111.761C112.187 109.863 110.576 108.011 108.37 106.875C108.323 102.14 109.024 96.7614 105.627 92.9176C101.343 87.2106 92.1215 86.777 87.3007 92.027C85.2696 89.5544 82.5966 87.6794 80.7523 85.0427C80.0636 83.7419 78.4411 83.7771 77.2505 83.2849Z" fill="url(#paint13_linear)"/>
<path d="M149.948 75.5388C151.664 74.8474 153.532 74.742 155.294 75.363C157.337 76.1248 158.784 77.9529 159.391 80.0271C159.672 91.4528 159.45 102.89 159.508 114.316C155.633 113.168 154.36 109.066 151.559 106.582C149.715 104.847 147.812 103.16 146.19 101.203C146.178 94.5934 146.19 87.9841 146.19 81.363C146.225 78.8904 147.8 76.6638 149.948 75.5388Z" fill="url(#paint14_linear)"/>
<path d="M12.0233 83.2849C13.8326 83.6013 13.7509 85.2068 13.8443 86.6247C15.2684 87.4919 17.2527 87.7615 17.848 89.5544C19.132 93.0583 22.7739 94.3356 25.3886 96.6091C25.3653 112.98 25.4236 129.363 25.3536 145.746C25.3536 149.109 22.4354 152.156 19.0737 152.226C15.4551 152.613 12.0934 149.425 12 145.828C12.0467 124.98 12 104.132 12.0233 83.2849Z" fill="url(#paint15_linear)"/>
<path d="M32.6024 110.308C32.2055 100.828 32.2872 89.9411 39.7344 82.9685C43.2829 85.6638 46.0727 89.2497 49.9247 91.57C47.31 94.0192 45.8392 97.5583 45.9326 101.144C45.8976 108.211 45.9443 115.277 45.9093 122.343C41.2752 119.8 36.3026 116.707 34.8785 111.234C34.3183 111 33.1743 110.543 32.6024 110.308Z" fill="url(#paint16_linear)"/>
<path d="M70.5036 99.7146C72.6631 103.453 70.5503 108.175 72.7564 111.855C74.6824 113.425 77.052 114.586 78.3243 116.824C79.9118 118.957 80.834 122.027 83.7755 122.625C83.7872 129.175 83.7988 135.738 83.7638 142.289C83.8105 145.652 80.8106 148.675 77.4605 148.722C73.912 149.027 70.5853 145.921 70.5269 142.371C70.4569 128.156 70.5269 113.929 70.5036 99.7146Z" fill="url(#paint17_linear)"/>
<path d="M146.19 101.203C147.812 103.16 149.715 104.847 151.559 106.582C154.361 109.066 155.633 113.168 159.508 114.316C160.185 124.113 159.193 135.175 151.221 141.972C149.446 140.953 148.629 139.101 147.555 137.46C145.618 136.007 143.785 134.414 142.711 132.175L142.571 131.847C144.614 129.574 146.085 126.679 146.143 123.562C146.248 116.109 146.143 108.656 146.19 101.203Z" fill="url(#paint18_linear)"/>
<path d="M165.683 110.332C168.333 111 169.745 113.484 171.916 114.879C172.43 114.855 173.434 114.808 173.947 114.785C173.901 115.582 173.866 116.379 173.842 117.175C175.488 118.382 177.344 119.25 179.06 120.351C179.013 131.554 179.048 142.757 179.048 153.96C179.06 160.945 175.99 167.941 170.691 172.488C170.2 172.874 169.22 173.648 168.73 174.034C164.411 172.171 162.602 167.472 160.314 163.699L160.302 163.675C163.442 161.554 165.73 157.956 165.671 154.078C165.683 139.488 165.66 124.91 165.683 110.332Z" fill="url(#paint19_linear)"/>
<path d="M108.37 106.875C110.576 108.011 112.187 109.863 113.716 111.761C115.245 113.566 118.607 112.769 119.599 115.218C120.906 117.937 119.996 121.254 121.665 123.867C121.864 133.605 135.299 139.382 141.952 132.047L142.711 132.175C143.785 134.414 145.618 136.007 147.555 137.461C148.629 139.101 149.446 140.953 151.22 141.972C144.135 148.652 133.128 150.621 124.186 146.789C115.292 143.214 108.86 134.226 108.417 124.605C108.288 118.699 108.393 112.781 108.37 106.875Z" fill="url(#paint20_linear)"/>
<path d="M32.6024 110.308C33.1743 110.543 34.3182 111 34.8785 111.234C36.3026 116.707 41.2752 119.8 45.9093 122.343C45.8976 129.375 45.9793 136.417 45.8626 143.46C45.2439 146.226 42.851 148.558 39.9678 148.722C36.2442 149.238 32.5907 146.015 32.6374 142.23C32.5673 131.589 32.6257 120.949 32.6024 110.308Z" fill="url(#paint21_linear)"/>
<path d="M154.617 165.269C156.66 165.363 158.493 164.472 160.314 163.699C162.601 167.472 164.411 172.171 168.73 174.034C164.633 176.988 159.59 178.64 154.536 178.616C131.26 178.616 107.985 178.628 84.7094 178.616C83.0169 177.503 81.3126 176.437 79.6901 175.242C78.4879 173.531 78.7913 170.894 76.7603 169.816C75.5346 168.878 73.9472 168.749 72.5464 168.245C72.2313 167.507 71.6243 166.019 71.3208 165.269C99.0785 165.245 126.848 165.269 154.617 165.269Z" fill="url(#paint22_linear)"/>
<path d="M41.3569 177.374C36.5477 174.07 38.8589 165.574 44.7303 165.327C53.5899 165.175 62.4495 165.292 71.3208 165.269C71.6243 166.019 72.2313 167.507 72.5464 168.245C73.9471 168.749 75.5346 168.878 76.7603 169.816C78.7913 170.894 78.4878 173.53 79.6901 175.241C81.3126 176.437 83.0168 177.503 84.7094 178.616C71.741 178.628 58.7843 178.616 45.8276 178.628C44.1934 178.827 42.7226 178.159 41.3569 177.374Z" fill="url(#paint23_linear)"/>
<path opacity="0.13" d="M168.73 174.035C169.22 173.648 170.2 172.874 170.691 172.488L171.823 172.933C170.399 176.566 166.127 177.234 163.103 179.027C158.423 180.445 153.508 181.499 148.583 181.171C115.14 181.136 81.6978 181.218 48.2555 181.159C45.6408 180.527 41.2869 180.644 40.3181 177.667L41.3569 177.374C42.7226 178.16 44.1934 178.827 45.8276 178.628C58.7843 178.617 71.741 178.628 84.7094 178.617C107.985 178.628 131.26 178.617 154.536 178.617C159.59 178.64 164.633 176.988 168.73 174.035Z" fill="url(#paint24_linear)"/>
<defs>
<linearGradient id="paint0_linear" x1="45.1038" y1="36.9728" x2="45.1038" y2="11.0015" gradientUnits="userSpaceOnUse">
<stop stop-color="#5570FF"/>
<stop offset="1" stop-color="#4DD3FF"/>
</linearGradient>
<linearGradient id="paint1_linear" x1="89.0049" y1="24.3897" x2="89.0049" y2="11.007" gradientUnits="userSpaceOnUse">
<stop stop-color="#5570FF"/>
<stop offset="1" stop-color="#4DD3FF"/>
</linearGradient>
<linearGradient id="paint2_linear" x1="128.545" y1="24.4011" x2="128.545" y2="11" gradientUnits="userSpaceOnUse">
<stop stop-color="#5570FF"/>
<stop offset="1" stop-color="#4DD3FF"/>
</linearGradient>
<linearGradient id="paint3_linear" x1="172.358" y1="86.4372" x2="172.358" y2="38.5591" gradientUnits="userSpaceOnUse">
<stop stop-color="#5570FF"/>
<stop offset="1" stop-color="#4DD3FF"/>
</linearGradient>
<linearGradient id="paint4_linear" x1="86.2268" y1="34.2773" x2="86.2268" y2="24.3047" gradientUnits="userSpaceOnUse">
<stop stop-color="#5570FF"/>
<stop offset="1" stop-color="#4DD3FF"/>
</linearGradient>
<linearGradient id="paint5_linear" x1="132.082" y1="75.5387" x2="132.082" y2="52.9017" gradientUnits="userSpaceOnUse">
<stop stop-color="#5570FF"/>
<stop offset="1" stop-color="#4DD3FF"/>
</linearGradient>
<linearGradient id="paint6_linear" x1="103.327" y1="151.663" x2="103.327" y2="80.0271" gradientUnits="userSpaceOnUse">
<stop stop-color="#5570FF"/>
<stop offset="1" stop-color="#4DD3FF"/>
</linearGradient>
<linearGradient id="paint7_linear" x1="18.7005" y1="96.6091" x2="18.7005" y2="27.0353" gradientUnits="userSpaceOnUse">
<stop stop-color="#5570FF"/>
<stop offset="1" stop-color="#4DD3FF"/>
</linearGradient>
<linearGradient id="paint8_linear" x1="139.358" y1="71.8563" x2="139.358" y2="39.5337" gradientUnits="userSpaceOnUse">
<stop stop-color="#5570FF"/>
<stop offset="1" stop-color="#4DD3FF"/>
</linearGradient>
<linearGradient id="paint9_linear" x1="117.857" y1="71.8875" x2="117.857" y2="44.2852" gradientUnits="userSpaceOnUse">
<stop stop-color="#5570FF"/>
<stop offset="1" stop-color="#4DD3FF"/>
</linearGradient>
<linearGradient id="paint10_linear" x1="133.952" y1="72.7311" x2="133.952" y2="61.8444" gradientUnits="userSpaceOnUse">
<stop stop-color="#5570FF"/>
<stop offset="1" stop-color="#4DD3FF"/>
</linearGradient>
<linearGradient id="paint11_linear" x1="172.365" y1="120.351" x2="172.365" y2="74.0975" gradientUnits="userSpaceOnUse">
<stop stop-color="#5570FF"/>
<stop offset="1" stop-color="#4DD3FF"/>
</linearGradient>
<linearGradient id="paint12_linear" x1="63.5175" y1="122.625" x2="63.5175" y2="75.0029" gradientUnits="userSpaceOnUse">
<stop stop-color="#5570FF"/>
<stop offset="1" stop-color="#4DD3FF"/>
</linearGradient>
<linearGradient id="paint13_linear" x1="99.4583" y1="123.867" x2="99.4583" y2="74.9199" gradientUnits="userSpaceOnUse">
<stop stop-color="#5570FF"/>
<stop offset="1" stop-color="#4DD3FF"/>
</linearGradient>
<linearGradient id="paint14_linear" x1="152.861" y1="114.316" x2="152.861" y2="74.9531" gradientUnits="userSpaceOnUse">
<stop stop-color="#5570FF"/>
<stop offset="1" stop-color="#4DD3FF"/>
</linearGradient>
<linearGradient id="paint15_linear" x1="18.6947" y1="152.258" x2="18.6947" y2="83.2849" gradientUnits="userSpaceOnUse">
<stop stop-color="#5570FF"/>
<stop offset="1" stop-color="#4DD3FF"/>
</linearGradient>
<linearGradient id="paint16_linear" x1="41.1997" y1="122.343" x2="41.1997" y2="82.9685" gradientUnits="userSpaceOnUse">
<stop stop-color="#5570FF"/>
<stop offset="1" stop-color="#4DD3FF"/>
</linearGradient>
<linearGradient id="paint17_linear" x1="77.141" y1="148.743" x2="77.141" y2="99.7146" gradientUnits="userSpaceOnUse">
<stop stop-color="#5570FF"/>
<stop offset="1" stop-color="#4DD3FF"/>
</linearGradient>
<linearGradient id="paint18_linear" x1="151.127" y1="141.972" x2="151.127" y2="101.203" gradientUnits="userSpaceOnUse">
<stop stop-color="#5570FF"/>
<stop offset="1" stop-color="#4DD3FF"/>
</linearGradient>
<linearGradient id="paint19_linear" x1="169.681" y1="174.034" x2="169.681" y2="110.332" gradientUnits="userSpaceOnUse">
<stop stop-color="#5570FF"/>
<stop offset="1" stop-color="#4DD3FF"/>
</linearGradient>
<linearGradient id="paint20_linear" x1="129.786" y1="148.728" x2="129.786" y2="106.875" gradientUnits="userSpaceOnUse">
<stop stop-color="#5570FF"/>
<stop offset="1" stop-color="#4DD3FF"/>
</linearGradient>
<linearGradient id="paint21_linear" x1="39.2639" y1="148.777" x2="39.2639" y2="110.308" gradientUnits="userSpaceOnUse">
<stop stop-color="#5570FF"/>
<stop offset="1" stop-color="#4DD3FF"/>
</linearGradient>
<linearGradient id="paint22_linear" x1="120.025" y1="178.622" x2="120.025" y2="163.699" gradientUnits="userSpaceOnUse">
<stop stop-color="#5570FF"/>
<stop offset="1" stop-color="#4DD3FF"/>
</linearGradient>
<linearGradient id="paint23_linear" x1="61.736" y1="178.664" x2="61.736" y2="165.248" gradientUnits="userSpaceOnUse">
<stop stop-color="#5570FF"/>
<stop offset="1" stop-color="#4DD3FF"/>
</linearGradient>
<linearGradient id="paint24_linear" x1="106.07" y1="181.231" x2="106.07" y2="172.488" gradientUnits="userSpaceOnUse">
<stop stop-color="#5570FF"/>
<stop offset="1" stop-color="#4DD3FF"/>
</linearGradient>
</defs>
</svg>
