<svg width="192" height="192" viewBox="0 0 192 192" fill="none" xmlns="http://www.w3.org/2000/svg">
<path d="M68.2247 20.2736C74.3713 17.4359 80.9355 15.6048 87.6389 14.6839C86.4931 19.4812 90.5944 23.1328 92.6933 26.9878C87.6175 27.3626 82.6167 28.5191 77.8301 30.2538C74.1571 27.4161 70.6126 24.3107 68.2247 20.2736Z" fill="url(#paint0_linear)"/>
<path d="M87.6389 14.6839C96.1092 13.8808 104.708 14.3733 112.932 16.6114C112.086 18.6353 111.037 20.6163 110.512 22.758C110.341 24.9211 111.037 27.0199 111.401 29.1294C105.351 27.2983 98.9898 26.6451 92.6933 26.9878C90.5944 23.1328 86.4931 19.4812 87.6389 14.6839Z" fill="url(#paint1_linear)"/>
<path d="M112.932 16.6114C121.884 19.1171 130.258 23.4861 137.572 29.2044C134.424 31.9886 131.682 35.1904 129.648 38.874C124.261 34.505 118.051 31.1212 111.401 29.1294C111.037 27.0199 110.341 24.9211 110.512 22.758C111.037 20.6163 112.086 18.6353 112.932 16.6114Z" fill="url(#paint2_linear)"/>
<path d="M57.0666 26.9664C60.5789 24.4071 64.3161 22.1797 68.2247 20.2736C70.6126 24.3107 74.1571 27.4161 77.8301 30.2538C73.9858 31.753 70.3235 33.6912 66.8861 35.9828C63.8449 32.7167 60.172 30.1574 57.0666 26.9664Z" fill="url(#paint3_linear)"/>
<path d="M50.8236 32.2027C52.8368 30.3823 54.9249 28.6369 57.0666 26.9664C60.172 30.1574 63.8449 32.7167 66.8861 35.9828C64.5303 37.6212 62.2601 39.3773 60.1613 41.3263C56.0064 39.5058 53.1152 35.9935 50.8236 32.2027Z" fill="url(#paint4_linear)"/>
<path d="M129.648 38.874C131.682 35.1904 134.424 31.9886 137.572 29.2044C146.76 36.5718 153.656 46.4234 158.175 57.2389L157.886 57.3031C153.72 58.3418 149.501 59.1664 145.325 60.1837C142.455 53.234 138.182 46.8089 132.657 41.6796C131.661 40.7373 130.676 39.7735 129.648 38.874Z" fill="url(#paint5_linear)"/>
<path d="M46.6259 36.5075C48.0287 35.0726 49.4208 33.6377 50.8236 32.2027C53.1152 35.9935 56.0064 39.5058 60.1613 41.3263C57.7305 43.6071 55.5031 46.1022 53.5007 48.7579C48.8211 46.4556 47.7396 41.1014 46.6259 36.5075Z" fill="url(#paint6_linear)"/>
<path d="M39.9332 45.6203C41.9571 42.4399 44.2058 39.4095 46.6259 36.5075C47.7396 41.1014 48.8211 46.4556 53.5007 48.7579C51.691 51.2208 50.0847 53.8336 48.6605 56.5321C45.3838 53.2018 42.878 49.229 39.9332 45.6203Z" fill="url(#paint7_linear)"/>
<path d="M86.9322 46.4341C91.6867 44.8814 96.8053 45.1491 101.71 45.6739C101.196 46.0808 100.168 46.8946 99.6537 47.3015C104.055 51.8954 108.167 56.7463 112.054 61.7899C111.754 62.5074 111.144 63.9423 110.844 64.6598C107.481 61.0403 102.802 59.0272 98.0153 58.117C94.8242 53.8336 89.9198 51.3172 86.7073 47.0659L86.9322 46.4341Z" fill="url(#paint8_linear)"/>
<path d="M39.9332 45.6203C42.878 49.229 45.3838 53.2018 48.6605 56.5321C47.0864 59.7125 45.8121 63.0321 44.8698 66.4481C41.6251 63.8352 38.1235 61.5543 34.3756 59.7232L34.0757 59.0486C34.9431 54.2405 37.6095 49.8929 39.9332 45.6203Z" fill="url(#paint9_linear)"/>
<path d="M99.6537 47.3015C100.168 46.8946 101.196 46.0808 101.71 45.6739C114.538 47.9547 125.236 58.0741 128.834 70.5065C129.262 72.4983 129.626 74.5007 129.883 76.5139C124.154 71.3632 118.393 66.2018 112.054 61.7899C108.167 56.7463 104.055 51.8954 99.6537 47.3015Z" fill="url(#paint10_linear)"/>
<path d="M76.9306 50.3748C79.8432 48.9827 82.7238 47.1088 85.9898 46.7875L86.7073 47.0659C89.9198 51.3172 94.8242 53.8336 98.0153 58.117C94.8242 57.9885 91.601 58.224 88.5063 59.0807C84.9297 55.8147 80.9248 53.0947 76.9306 50.3748Z" fill="url(#paint11_linear)"/>
<path d="M71.1909 54.9152C72.9792 53.2554 74.8853 51.7134 76.9306 50.3748C80.9248 53.0947 84.9297 55.8147 88.5063 59.0807C86.0541 60.0873 83.6982 61.3402 81.5459 62.8929C78.0014 60.355 74.4462 57.8171 71.1909 54.9152Z" fill="url(#paint12_linear)"/>
<path d="M71.041 54.7867L71.1909 54.9152C74.4462 57.8171 78.0014 60.355 81.5459 62.8929C79.8432 64.4563 78.2584 66.1803 76.8663 68.0329C73.4075 65.3772 69.5846 63.2356 65.4726 61.7685C67.1752 59.327 69.0492 57.0033 71.041 54.7867Z" fill="url(#paint13_linear)"/>
<path d="M157.886 57.3031C158.689 57.5815 159.053 58.3525 158.989 59.6054C162.051 70.635 163.144 82.35 160.531 93.5937C155.433 89.985 151.878 84.7272 149.223 79.1589C148.955 72.6803 147.788 66.2125 145.325 60.1837C149.501 59.1664 153.72 58.3418 157.886 57.3031Z" fill="url(#paint14_linear)"/>
<path d="M33.6795 60.0123L34.3756 59.7232C38.1235 61.5543 41.6251 63.8352 44.8698 66.4481C44.4735 67.9472 44.1095 69.4464 43.7989 70.967C39.6762 70.1853 35.5642 69.3821 31.4522 68.5576C32.1054 65.6985 32.3945 62.7001 33.6795 60.0123Z" fill="url(#paint15_linear)"/>
<path d="M65.4726 61.7685C69.5846 63.2356 73.4075 65.3772 76.8663 68.0329C75.5599 70.2495 74.5426 72.6268 73.8251 75.1004C70.9553 71.9736 67.1538 70.0568 63.3202 68.3756L62.999 67.6688C63.0954 65.5164 64.6588 63.7174 65.4726 61.7685Z" fill="url(#paint16_linear)"/>
<path d="M112.054 61.7899C118.393 66.2018 124.154 71.3632 129.883 76.5139C130.333 80.2832 130.14 84.1061 129.391 87.8219C125 84.1383 121.37 79.6729 117.055 75.9142C116.027 71.9843 114.26 68.1935 111.422 65.2594L110.844 64.6598C111.144 63.9423 111.754 62.5074 112.054 61.7899Z" fill="url(#paint17_linear)"/>
<path d="M31.4522 68.5576C35.5642 69.3821 39.6762 70.1853 43.7989 70.967C43.21 74.3187 42.9637 77.7347 43.0065 81.1399C39.8047 79.2981 36.0675 78.9554 32.4802 78.3986C31.7092 79.0732 30.9489 79.7478 30.1779 80.4332C30.4242 76.4604 30.8311 72.4983 31.4522 68.5576Z" fill="url(#paint18_linear)"/>
<path d="M62.6135 68.5683L63.3202 68.3756C67.1538 70.0568 70.9553 71.9736 73.8251 75.1004C72.9899 79.1375 73.0756 83.3994 74.5533 87.2758C75.6563 90.3919 77.6266 93.1226 79.8325 95.5534C78.5582 96.485 77.2732 97.4059 75.9775 98.3161C71.3301 95.7782 67.186 92.3194 62.153 90.5097C60.2469 83.4101 59.6152 75.4324 62.6135 68.5683Z" fill="url(#paint19_linear)"/>
<path d="M117.055 75.9142C121.37 79.6729 125 84.1383 129.391 87.8219C128.727 90.574 127.752 93.2618 126.521 95.8104C122.944 92.5764 120.16 88.6036 116.734 85.2305C117.344 82.1572 117.462 79.0089 117.055 75.9142Z" fill="url(#paint20_linear)"/>
<path d="M30.1779 80.4332C30.9489 79.7478 31.7092 79.0732 32.4802 78.3986C36.0675 78.9554 39.8047 79.2981 43.0065 81.1399C43.1136 86.8046 44.1095 92.4479 46.1119 97.7486C47.686 102.246 49.9455 106.487 52.644 110.406C50.9521 111.166 49.1531 111.787 47.2898 111.263C46.7009 111.862 46.1226 112.483 45.5444 113.094C45.373 112.612 45.0304 111.637 44.859 111.155C40.7792 112.237 36.6136 110.909 32.7051 109.742C31.3344 109.485 30.8632 108.093 30.2743 107.022C30.0922 98.1555 29.8138 89.289 30.1779 80.4332Z" fill="url(#paint21_linear)"/>
<path d="M149.223 79.1589C151.878 84.7272 155.433 89.985 160.531 93.5937C159.535 98.1019 158.078 102.503 156.247 106.733C151.589 105.277 149.448 100.436 146.342 97.0847C148.323 91.3236 149.169 85.2305 149.223 79.1589Z" fill="url(#paint22_linear)"/>
<path d="M116.734 85.2305C120.16 88.6036 122.944 92.5764 126.521 95.8104C124.454 99.7403 121.681 103.274 118.35 106.197C115.577 102.889 112.857 99.5369 110.169 96.153C113.253 93.144 115.502 89.3532 116.734 85.2305Z" fill="url(#paint23_linear)"/>
<path d="M62.153 90.5097C67.186 92.3194 71.3301 95.7782 75.9775 98.3161C77.2732 97.4059 78.5582 96.485 79.8325 95.5534C82.6702 98.2519 86.1505 100.179 89.8555 101.4C92.8003 105.748 96.6875 109.303 100.307 113.062C99.7929 113.576 99.2789 114.1 98.7649 114.614C87.0607 115.728 75.1208 110.652 67.8499 101.411C65.312 98.1555 63.4916 94.4076 62.153 90.5097Z" fill="url(#paint24_linear)"/>
<path d="M104.44 100.051C106.475 98.9479 108.402 97.6522 110.169 96.153C112.857 99.5369 115.577 102.889 118.35 106.197C116.744 107.525 115.042 108.746 113.275 109.849C110.373 106.551 107.428 103.274 104.44 100.051Z" fill="url(#paint25_linear)"/>
<path d="M142.091 106.412C143.751 103.413 145.196 100.308 146.342 97.0847C149.448 100.436 151.589 105.277 156.247 106.733C154.855 109.795 153.238 112.751 151.461 115.599C148.302 112.58 145.153 109.538 142.091 106.412Z" fill="url(#paint26_linear)"/>
<path d="M89.8555 101.4C94.7171 102.503 99.8786 102.107 104.44 100.051C107.428 103.274 110.373 106.551 113.275 109.849C108.852 112.462 103.862 114.047 98.7649 114.614C99.2789 114.1 99.7929 113.576 100.307 113.062C96.6875 109.303 92.8003 105.748 89.8555 101.4Z" fill="url(#paint27_linear)"/>
<path d="M30.2743 107.022C30.8632 108.093 31.3344 109.485 32.7051 109.742C36.6136 110.909 40.7792 112.237 44.859 111.155C45.0304 111.637 45.373 112.612 45.5444 113.094C46.1226 112.483 46.7009 111.862 47.2898 111.263C49.1531 111.787 50.9521 111.166 52.644 110.406C57.0344 116.595 62.7099 121.853 69.2205 125.751C68.2568 126.522 67.293 127.293 66.3293 128.064C64.798 127.132 63.2988 125.922 61.4249 125.879C56.4348 125.612 51.6267 123.963 46.6152 123.995C44.9019 122.624 43.1885 121.275 41.4859 119.904C41.4859 123.181 41.4752 126.468 41.4859 129.745C38.1877 127.978 34.7718 126.404 31.238 125.173C30.9382 127.475 30.6491 129.788 30.4777 132.101L30.3814 131.276C30.1672 123.192 30.5527 115.107 30.2743 107.022Z" fill="url(#paint28_linear)"/>
<path d="M134.531 116.542C137.422 113.468 139.971 110.052 142.091 106.412C145.153 109.538 148.302 112.58 151.461 115.599C149.34 118.887 146.942 121.982 144.297 124.862C140.795 122.388 137.476 119.658 134.531 116.542Z" fill="url(#paint29_linear)"/>
<path d="M129.926 120.825C131.522 119.465 133.074 118.041 134.531 116.542C137.476 119.658 140.795 122.388 144.297 124.862C143.162 126.083 141.962 127.261 140.752 128.407C136.769 126.468 133.064 123.973 129.926 120.825Z" fill="url(#paint30_linear)"/>
<path d="M120.846 126.918C124.037 125.151 127.078 123.117 129.926 120.825C133.064 123.973 136.769 126.468 140.752 128.407C137.808 131.105 134.595 133.504 131.222 135.635C127.881 132.594 124.369 129.745 120.846 126.918Z" fill="url(#paint31_linear)"/>
<path d="M46.6152 123.995C51.6267 123.963 56.4348 125.612 61.4249 125.879C63.2988 125.922 64.798 127.132 66.3293 128.064C67.293 127.293 68.2568 126.522 69.2205 125.751C75.2172 129.274 81.9099 131.608 88.7954 132.594C90.3803 135.613 92.1257 138.622 94.6957 140.935C94.3745 141.471 94.0532 142.017 93.7427 142.563C94.3852 143.559 95.0384 144.555 95.6809 145.551C88.2172 145.315 80.8605 143.966 73.536 142.595C73.536 146.161 73.5253 149.716 73.5253 153.271C68.8672 151.29 62.8919 149.363 62.3779 143.42C62.3137 141.631 62.2922 139.854 62.1637 138.076C61.2214 135.678 59.0476 134.189 57.1308 132.615C53.5864 129.799 50.1061 126.875 46.6152 123.995Z" fill="url(#paint32_linear)"/>
<path d="M31.238 125.173C34.7718 126.404 38.1877 127.978 41.4859 129.745C41.4966 134.114 41.4859 138.494 41.4752 142.863C36.9456 140.475 30.4456 138.29 30.4777 132.101C30.6491 129.788 30.9382 127.475 31.238 125.173Z" fill="url(#paint33_linear)"/>
<path d="M109.816 131.287C113.617 130.206 117.333 128.76 120.846 126.918C124.369 129.745 127.881 132.594 131.222 135.635C127.538 137.926 123.619 139.854 119.561 141.396C116.466 137.873 112.857 134.853 109.816 131.287Z" fill="url(#paint34_linear)"/>
<path d="M30.3814 131.276L30.4777 132.101C30.4456 138.29 36.9456 140.475 41.4752 142.863C41.4966 147.125 41.4859 151.387 41.4752 155.649C38.2413 153.186 35.0395 150.659 31.752 148.271C31.3986 148.688 30.6812 149.534 30.3278 149.952C30.3171 143.73 30.2529 137.498 30.3814 131.276Z" fill="url(#paint35_linear)"/>
<path d="M88.7954 132.594C95.7987 133.482 102.973 133.097 109.816 131.287C112.857 134.853 116.466 137.873 119.561 141.396C111.947 144.266 103.819 145.797 95.6809 145.551C95.0384 144.555 94.3852 143.559 93.7427 142.563C94.0532 142.017 94.3745 141.471 94.6957 140.935C92.1257 138.622 90.3803 135.613 88.7954 132.594Z" fill="url(#paint36_linear)"/>
<path d="M62.3779 143.42C62.8919 149.363 68.8672 151.29 73.5253 153.271C73.3433 159.868 74.1035 166.55 72.7543 173.06C68.8993 171.465 66.4042 167.781 62.4207 166.4C62.3458 158.743 62.3886 151.076 62.3779 143.42Z" fill="url(#paint37_linear)"/>
<path d="M31.752 148.271C35.0395 150.659 38.2413 153.186 41.4752 155.649C41.9464 162.074 39.8154 169.741 44.9447 174.838C48.2643 177.344 52.644 177.911 56.5419 176.498C58.4908 179.721 60.9323 182.602 63.7486 185.118C54.4751 191.35 41.1111 188.63 34.4719 179.807C28.229 171.09 31.0131 159.911 30.3278 149.952C30.6812 149.534 31.3986 148.688 31.752 148.271Z" fill="url(#paint38_linear)"/>
<path d="M62.4207 166.4C66.4042 167.781 68.8993 171.465 72.7543 173.06C71.2016 177.954 67.9891 182.227 63.7486 185.118C60.9323 182.602 58.4908 179.721 56.5419 176.498C60.1827 174.452 62.4529 170.597 62.4207 166.4Z" fill="url(#paint39_linear)"/>
<defs>
<linearGradient id="paint0_linear" x1="96" y1="188.503" x2="96" y2="14.3229" gradientUnits="userSpaceOnUse">
<stop stop-color="#5570FF"/>
<stop offset="1" stop-color="#4DD3FF"/>
</linearGradient>
<linearGradient id="paint1_linear" x1="96" y1="188.503" x2="96" y2="14.3229" gradientUnits="userSpaceOnUse">
<stop stop-color="#5570FF"/>
<stop offset="1" stop-color="#4DD3FF"/>
</linearGradient>
<linearGradient id="paint2_linear" x1="96" y1="188.503" x2="96" y2="14.3229" gradientUnits="userSpaceOnUse">
<stop stop-color="#5570FF"/>
<stop offset="1" stop-color="#4DD3FF"/>
</linearGradient>
<linearGradient id="paint3_linear" x1="96" y1="188.503" x2="96" y2="14.3229" gradientUnits="userSpaceOnUse">
<stop stop-color="#5570FF"/>
<stop offset="1" stop-color="#4DD3FF"/>
</linearGradient>
<linearGradient id="paint4_linear" x1="96" y1="188.503" x2="96" y2="14.3229" gradientUnits="userSpaceOnUse">
<stop stop-color="#5570FF"/>
<stop offset="1" stop-color="#4DD3FF"/>
</linearGradient>
<linearGradient id="paint5_linear" x1="96" y1="188.503" x2="96" y2="14.3229" gradientUnits="userSpaceOnUse">
<stop stop-color="#5570FF"/>
<stop offset="1" stop-color="#4DD3FF"/>
</linearGradient>
<linearGradient id="paint6_linear" x1="96" y1="188.503" x2="96" y2="14.3229" gradientUnits="userSpaceOnUse">
<stop stop-color="#5570FF"/>
<stop offset="1" stop-color="#4DD3FF"/>
</linearGradient>
<linearGradient id="paint7_linear" x1="96" y1="188.503" x2="96" y2="14.3229" gradientUnits="userSpaceOnUse">
<stop stop-color="#5570FF"/>
<stop offset="1" stop-color="#4DD3FF"/>
</linearGradient>
<linearGradient id="paint8_linear" x1="96" y1="188.503" x2="96" y2="14.3229" gradientUnits="userSpaceOnUse">
<stop stop-color="#5570FF"/>
<stop offset="1" stop-color="#4DD3FF"/>
</linearGradient>
<linearGradient id="paint9_linear" x1="96" y1="188.503" x2="96" y2="14.3229" gradientUnits="userSpaceOnUse">
<stop stop-color="#5570FF"/>
<stop offset="1" stop-color="#4DD3FF"/>
</linearGradient>
<linearGradient id="paint10_linear" x1="96" y1="188.503" x2="96" y2="14.3229" gradientUnits="userSpaceOnUse">
<stop stop-color="#5570FF"/>
<stop offset="1" stop-color="#4DD3FF"/>
</linearGradient>
<linearGradient id="paint11_linear" x1="96" y1="188.503" x2="96" y2="14.3229" gradientUnits="userSpaceOnUse">
<stop stop-color="#5570FF"/>
<stop offset="1" stop-color="#4DD3FF"/>
</linearGradient>
<linearGradient id="paint12_linear" x1="96" y1="188.503" x2="96" y2="14.3229" gradientUnits="userSpaceOnUse">
<stop stop-color="#5570FF"/>
<stop offset="1" stop-color="#4DD3FF"/>
</linearGradient>
<linearGradient id="paint13_linear" x1="96" y1="188.503" x2="96" y2="14.3229" gradientUnits="userSpaceOnUse">
<stop stop-color="#5570FF"/>
<stop offset="1" stop-color="#4DD3FF"/>
</linearGradient>
<linearGradient id="paint14_linear" x1="96" y1="188.503" x2="96" y2="14.3229" gradientUnits="userSpaceOnUse">
<stop stop-color="#5570FF"/>
<stop offset="1" stop-color="#4DD3FF"/>
</linearGradient>
<linearGradient id="paint15_linear" x1="96" y1="188.503" x2="96" y2="14.3229" gradientUnits="userSpaceOnUse">
<stop stop-color="#5570FF"/>
<stop offset="1" stop-color="#4DD3FF"/>
</linearGradient>
<linearGradient id="paint16_linear" x1="96" y1="188.503" x2="96" y2="14.3229" gradientUnits="userSpaceOnUse">
<stop stop-color="#5570FF"/>
<stop offset="1" stop-color="#4DD3FF"/>
</linearGradient>
<linearGradient id="paint17_linear" x1="96" y1="188.503" x2="96" y2="14.3229" gradientUnits="userSpaceOnUse">
<stop stop-color="#5570FF"/>
<stop offset="1" stop-color="#4DD3FF"/>
</linearGradient>
<linearGradient id="paint18_linear" x1="96" y1="188.503" x2="96" y2="14.3229" gradientUnits="userSpaceOnUse">
<stop stop-color="#5570FF"/>
<stop offset="1" stop-color="#4DD3FF"/>
</linearGradient>
<linearGradient id="paint19_linear" x1="96" y1="188.503" x2="96" y2="14.3229" gradientUnits="userSpaceOnUse">
<stop stop-color="#5570FF"/>
<stop offset="1" stop-color="#4DD3FF"/>
</linearGradient>
<linearGradient id="paint20_linear" x1="96" y1="188.503" x2="96" y2="14.3229" gradientUnits="userSpaceOnUse">
<stop stop-color="#5570FF"/>
<stop offset="1" stop-color="#4DD3FF"/>
</linearGradient>
<linearGradient id="paint21_linear" x1="96" y1="188.503" x2="96" y2="14.3229" gradientUnits="userSpaceOnUse">
<stop stop-color="#5570FF"/>
<stop offset="1" stop-color="#4DD3FF"/>
</linearGradient>
<linearGradient id="paint22_linear" x1="96" y1="188.503" x2="96" y2="14.3229" gradientUnits="userSpaceOnUse">
<stop stop-color="#5570FF"/>
<stop offset="1" stop-color="#4DD3FF"/>
</linearGradient>
<linearGradient id="paint23_linear" x1="96" y1="188.503" x2="96" y2="14.3229" gradientUnits="userSpaceOnUse">
<stop stop-color="#5570FF"/>
<stop offset="1" stop-color="#4DD3FF"/>
</linearGradient>
<linearGradient id="paint24_linear" x1="96" y1="188.503" x2="96" y2="14.3229" gradientUnits="userSpaceOnUse">
<stop stop-color="#5570FF"/>
<stop offset="1" stop-color="#4DD3FF"/>
</linearGradient>
<linearGradient id="paint25_linear" x1="96" y1="188.503" x2="96" y2="14.3229" gradientUnits="userSpaceOnUse">
<stop stop-color="#5570FF"/>
<stop offset="1" stop-color="#4DD3FF"/>
</linearGradient>
<linearGradient id="paint26_linear" x1="96" y1="188.503" x2="96" y2="14.3229" gradientUnits="userSpaceOnUse">
<stop stop-color="#5570FF"/>
<stop offset="1" stop-color="#4DD3FF"/>
</linearGradient>
<linearGradient id="paint27_linear" x1="96" y1="188.503" x2="96" y2="14.3229" gradientUnits="userSpaceOnUse">
<stop stop-color="#5570FF"/>
<stop offset="1" stop-color="#4DD3FF"/>
</linearGradient>
<linearGradient id="paint28_linear" x1="96" y1="188.503" x2="96" y2="14.3229" gradientUnits="userSpaceOnUse">
<stop stop-color="#5570FF"/>
<stop offset="1" stop-color="#4DD3FF"/>
</linearGradient>
<linearGradient id="paint29_linear" x1="96" y1="188.503" x2="96" y2="14.3229" gradientUnits="userSpaceOnUse">
<stop stop-color="#5570FF"/>
<stop offset="1" stop-color="#4DD3FF"/>
</linearGradient>
<linearGradient id="paint30_linear" x1="96" y1="188.503" x2="96" y2="14.3229" gradientUnits="userSpaceOnUse">
<stop stop-color="#5570FF"/>
<stop offset="1" stop-color="#4DD3FF"/>
</linearGradient>
<linearGradient id="paint31_linear" x1="96" y1="188.503" x2="96" y2="14.3229" gradientUnits="userSpaceOnUse">
<stop stop-color="#5570FF"/>
<stop offset="1" stop-color="#4DD3FF"/>
</linearGradient>
<linearGradient id="paint32_linear" x1="96" y1="188.503" x2="96" y2="14.3229" gradientUnits="userSpaceOnUse">
<stop stop-color="#5570FF"/>
<stop offset="1" stop-color="#4DD3FF"/>
</linearGradient>
<linearGradient id="paint33_linear" x1="96" y1="188.503" x2="96" y2="14.3229" gradientUnits="userSpaceOnUse">
<stop stop-color="#5570FF"/>
<stop offset="1" stop-color="#4DD3FF"/>
</linearGradient>
<linearGradient id="paint34_linear" x1="96" y1="188.503" x2="96" y2="14.3229" gradientUnits="userSpaceOnUse">
<stop stop-color="#5570FF"/>
<stop offset="1" stop-color="#4DD3FF"/>
</linearGradient>
<linearGradient id="paint35_linear" x1="96" y1="188.503" x2="96" y2="14.3229" gradientUnits="userSpaceOnUse">
<stop stop-color="#5570FF"/>
<stop offset="1" stop-color="#4DD3FF"/>
</linearGradient>
<linearGradient id="paint36_linear" x1="96" y1="188.503" x2="96" y2="14.3229" gradientUnits="userSpaceOnUse">
<stop stop-color="#5570FF"/>
<stop offset="1" stop-color="#4DD3FF"/>
</linearGradient>
<linearGradient id="paint37_linear" x1="96" y1="188.503" x2="96" y2="14.3229" gradientUnits="userSpaceOnUse">
<stop stop-color="#5570FF"/>
<stop offset="1" stop-color="#4DD3FF"/>
</linearGradient>
<linearGradient id="paint38_linear" x1="96" y1="188.503" x2="96" y2="14.3229" gradientUnits="userSpaceOnUse">
<stop stop-color="#5570FF"/>
<stop offset="1" stop-color="#4DD3FF"/>
</linearGradient>
<linearGradient id="paint39_linear" x1="96" y1="188.503" x2="96" y2="14.3229" gradientUnits="userSpaceOnUse">
<stop stop-color="#5570FF"/>
<stop offset="1" stop-color="#4DD3FF"/>
</linearGradient>
</defs>
</svg>
