<svg width="192" height="192" viewBox="0 0 192 192" fill="none" xmlns="http://www.w3.org/2000/svg">
<path d="M32.8178 12.512C45.4086 11.5025 58.1053 12.3476 70.7431 12.0659C73.7555 11.7373 76.8385 13.9087 77.368 16.9135C78.2506 20.4113 75.4265 24.2377 71.814 24.3551C59.5644 24.5899 47.2913 24.1204 35.0536 24.5899C37.4658 23.9091 39.9487 23.51 42.3845 22.9114C41.4078 17.923 35.2536 16.6905 32.8178 12.512Z" fill="#3480FF"/>
<path d="M114.47 20.2822C112.846 16.5966 116.046 11.9955 120.059 12.0777C132.262 12.1246 144.476 11.9603 156.69 12.1598C168.61 12.9228 178.742 23.5335 179.024 35.4354C179.024 48.4406 179.047 61.434 179.012 74.4392C177.082 71.1644 173.599 69.5212 170.787 67.1854C169.41 65.636 168.539 63.7111 167.504 61.9387C167.092 52.7247 167.433 43.4638 166.516 34.2733C165.468 29.0149 160.797 24.719 155.396 24.4256C143.652 24.3551 131.92 24.449 120.188 24.3786C117.682 24.3669 115.176 22.7119 114.47 20.2822Z" fill="#1E8CFF"/>
<path d="M13.0138 35.1771C13.461 24.2847 22.0274 14.4017 32.8178 12.512C35.2536 16.6905 41.4078 17.923 42.3845 22.9114C39.9487 23.51 37.4658 23.9091 35.0536 24.5899C29.4877 25.7871 25.1221 31.0573 25.3692 36.7969C25.4752 76.3407 25.1692 115.908 25.5222 155.44C24.8515 150.393 25.0986 145.287 24.9927 140.216C25.1457 121.049 24.4514 101.893 24.5809 82.7259C24.7103 71.6926 24.4396 60.6593 24.475 49.6378C25.2163 42.5131 18.0972 38.581 13.0138 35.1771Z" fill="#3F7BFF"/>
<path d="M166.516 34.2733C167.433 43.4638 167.092 52.7248 167.504 61.9387C166.939 74.4627 167.363 87.0218 167.633 99.5575C167.28 108.361 167.751 117.164 167.551 125.955C167.586 128.831 167.327 131.777 168.022 134.594C170.599 139.336 175.823 141.777 179.024 146.038C179.377 153.585 179.118 161.802 174.105 167.964C172.14 170.347 169.881 172.53 167.198 174.114C165.386 170.44 163.232 166.872 160.42 163.891C164.197 161.649 166.81 157.459 166.668 153.01C166.563 113.431 166.869 73.8406 166.516 34.2733Z" fill="#3A7DFF"/>
<path d="M13.0138 35.1771C18.0972 38.581 25.2163 42.5131 24.4749 49.6378C24.4396 60.6593 24.7103 71.6926 24.5809 82.7259C22.2157 76.8336 17.6971 72.2795 13.0138 68.23C13.002 57.2085 13.0138 46.1987 13.0138 35.1771Z" fill="#4875FF"/>
<path d="M167.504 61.9387C168.539 63.7111 169.41 65.636 170.787 67.1854C173.599 69.5211 177.082 71.1644 179.012 74.4392C179.047 86.5406 179.036 98.642 179.012 110.755C174.788 107.433 171.728 102.985 167.633 99.5575C167.363 87.0218 166.939 74.4626 167.504 61.9387Z" fill="#2887FF"/>
<path d="M13.0138 68.23C17.6971 72.2795 22.2157 76.8337 24.5808 82.7259C24.4514 101.893 25.1457 121.049 24.9927 140.216C22.8982 137.81 19.2857 137.024 17.8148 134.054C16.3792 132.305 13.6139 131.812 13.0256 129.336C12.9903 108.971 13.0138 88.5947 13.0138 68.23Z" fill="#546FFF"/>
<path d="M45.8558 87.2096C43.82 82.7142 48.3268 77.3031 53.1278 78.7351C66.4717 83.9583 79.6861 89.4867 93.0065 94.7803C94.7598 95.4494 95.8541 97.2452 96.2542 99.0059C96.6543 101.635 95.5246 104.722 92.8888 105.731C86.5817 108.279 80.2627 110.826 73.9438 113.384C70.8961 110.368 67.3425 107.551 65.9069 103.349C68.4721 102.328 71.0138 101.271 73.5673 100.238C65.5774 97.0105 57.5993 93.7827 49.6212 90.5431C47.9268 90.0149 46.8089 88.6181 45.8558 87.2096Z" fill="#4477FF"/>
<path opacity="0.11" d="M46.9619 92.1394C45.3262 91.1769 44.0201 88.6064 45.8557 87.2096C46.8089 88.6181 47.9268 90.0149 49.6212 90.5431C57.5993 93.7826 65.5774 97.0104 73.5673 100.238C71.0138 101.271 68.4721 102.328 65.9069 103.349C65.3068 102.175 65.2009 100.579 63.9535 99.8627C58.5877 96.6701 52.1511 95.6841 46.9619 92.1394Z" fill="black"/>
<path opacity="0.11" d="M96.2542 99.0059C98.2075 99.4871 97.6192 102.058 97.5604 103.525C95.5599 108.748 89.6764 110.262 84.9696 112.081C74.8499 116.096 64.9537 120.709 54.6222 124.183C49.3976 126.213 42.914 121.213 44.0436 115.673L45.3968 115.65C45.3262 119.535 49.2447 122.845 53.0807 121.753C60.0939 119.089 66.9894 116.166 73.9438 113.384C80.2627 110.826 86.5817 108.279 92.8888 105.731C95.5246 104.722 96.6543 101.635 96.2542 99.0059Z" fill="black"/>
<path d="M167.633 99.5575C171.728 102.985 174.788 107.433 179.012 110.755C179.036 122.516 179.036 134.277 179.024 146.038C175.823 141.777 170.599 139.336 168.022 134.594C167.327 131.777 167.586 128.831 167.551 125.955C167.751 117.164 167.28 108.361 167.633 99.5575Z" fill="#3182FF"/>
<path d="M49.0211 110.192C54.634 107.868 60.2704 105.602 65.9069 103.349C67.3425 107.551 70.8961 110.368 73.9438 113.384C66.9894 116.166 60.0939 119.089 53.0807 121.753C49.2447 122.845 45.3262 119.535 45.3968 115.65C45.5145 113.373 46.8677 111.084 49.0211 110.192Z" fill="#4C73FF"/>
<path d="M13.0256 129.336C13.6139 131.812 16.3792 132.305 17.8148 134.054C19.2857 137.024 22.8982 137.81 24.9927 140.216C25.0986 145.287 24.8515 150.393 25.5222 155.44C26.5695 160.734 31.2881 165.053 36.7363 165.311C41.6314 165.382 46.5382 165.276 51.4334 165.346C57.1169 167.577 59.4114 173.844 63.8947 177.6C54.787 177.589 45.6793 177.612 36.5598 177.589C29.3112 177.436 22.3922 173.68 17.9678 167.999C14.6965 163.703 12.9314 158.327 13.002 152.94C13.0256 145.064 12.9903 137.2 13.0256 129.336Z" fill="#5F69FF"/>
<path d="M98.0546 141.038C95.1952 137.012 98.8077 130.944 103.715 131.448C117.847 131.531 132.003 131.214 146.123 131.601C152.301 132.587 152.56 142.259 146.476 143.608C132.203 143.796 117.917 143.667 103.632 143.679C101.385 143.949 99.4902 142.611 98.0546 141.038Z" fill="#4279FF"/>
<path opacity="0.2" d="M98.0546 141.038C99.4902 142.611 101.385 143.949 103.632 143.679C117.917 143.667 132.203 143.796 146.476 143.608C146.241 144.019 145.758 144.817 145.511 145.228C131.579 145.322 117.647 145.24 103.715 145.263C101.138 145.51 97.8075 144.066 98.0546 141.038Z" fill="#060A17"/>
<path d="M154.372 165.335C156.49 165.429 158.49 164.689 160.42 163.891C163.232 166.872 165.386 170.44 167.198 174.114C163.327 176.438 158.808 177.706 154.278 177.6C147.217 177.589 140.145 177.6 133.073 177.6C130.873 176.028 129.673 173.645 128.473 171.321C127.39 170.969 126.249 170.898 125.154 170.675C124.342 168.973 123.977 167.119 123.436 165.346C133.744 165.311 144.052 165.335 154.372 165.335Z" fill="#4577FF"/>
<path d="M51.4334 165.346C63.9653 165.311 76.4973 165.323 89.0292 165.346C89.547 171.344 94.9951 174.232 99.1724 177.589C87.4171 177.612 75.6618 177.6 63.8947 177.6C59.4114 173.844 57.1169 167.577 51.4334 165.346Z" fill="#576DFF"/>
<path d="M89.0292 165.346C100.502 165.323 111.963 165.323 123.436 165.346C123.977 167.119 124.342 168.973 125.154 170.675C126.249 170.898 127.39 170.969 128.473 171.321C129.673 173.645 130.873 176.028 133.073 177.6C121.777 177.589 110.469 177.624 99.1724 177.589C94.9951 174.232 89.547 171.344 89.0292 165.346Z" fill="#4E72FF"/>
<path opacity="0.13" d="M17.9677 167.999C22.3922 173.68 29.3112 177.436 36.5598 177.589C45.6792 177.612 54.787 177.589 63.8947 177.6C75.6618 177.6 87.4171 177.612 99.1724 177.589C110.469 177.624 121.777 177.589 133.073 177.6C140.145 177.6 147.217 177.589 154.278 177.6C158.808 177.706 163.327 176.438 167.198 174.114C169.881 172.53 172.14 170.347 174.105 167.964C174.953 171.133 172.446 173.281 170.022 174.713C165.374 177.835 159.997 180.23 154.301 180.3C115.47 180.206 76.6267 180.276 37.7953 180.265C30.9704 179.983 24.4161 177.013 19.2974 172.588C17.7912 171.497 17.4147 169.724 17.9677 167.999Z" fill="#010103"/>
</svg>
