<?xml version="1.0" encoding="UTF-8" ?>
<!DOCTYPE svg PUBLIC "-//W3C//DTD SVG 1.1//EN" "http://www.w3.org/Graphics/SVG/1.1/DTD/svg11.dtd">
<svg width="192pt" height="192pt" viewBox="0 0 192 192" version="1.1" xmlns="http://www.w3.org/2000/svg">
<g id="#ff6b3bff">
<path fill="#ff6b3b" opacity="1.00" d=" M 92.88 17.79 C 93.78 15.62 94.61 12.87 97.10 12.07 C 99.99 10.98 103.37 12.58 104.34 15.50 C 109.86 29.76 115.12 44.12 120.50 58.43 C 122.02 61.72 119.76 66.26 116.02 66.46 C 106.29 66.77 96.54 66.25 86.82 66.72 C 84.38 72.48 82.55 78.47 80.32 84.31 C 96.97 84.37 113.61 84.36 130.25 84.45 C 134.38 95.48 138.57 106.49 142.64 117.54 C 144.26 120.90 141.58 125.39 137.85 125.49 C 113.56 125.69 89.27 125.49 64.98 125.55 C 63.41 129.99 61.55 134.33 59.81 138.71 C 91.53 138.80 123.26 138.69 154.98 138.72 C 158.83 138.78 163.05 138.20 166.45 140.45 C 172.26 144.20 175.18 151.31 175.48 158.02 C 175.84 165.90 170.84 173.70 163.46 176.54 C 157.88 178.65 151.82 178.09 145.98 178.20 C 110.63 178.16 75.29 178.24 39.94 178.24 C 33.98 178.32 27.60 177.14 23.19 172.82 C 16.20 166.45 15.43 155.12 20.26 147.28 C 22.86 143.90 28.79 145.03 30.03 149.09 C 31.59 152.59 27.72 155.49 28.48 159.03 C 28.52 163.09 32.26 166.32 36.23 166.25 C 75.49 166.31 114.76 166.22 154.03 166.27 C 156.34 166.27 158.82 166.17 160.81 164.82 C 165.39 162.04 165.32 154.15 160.54 151.59 C 157.98 150.00 154.86 150.43 151.99 150.36 C 118.34 150.39 84.68 150.27 51.03 150.31 C 47.70 150.81 44.57 147.28 45.66 144.05 C 48.71 135.38 52.05 126.81 55.22 118.18 C 55.95 115.65 58.29 113.61 61.02 113.76 C 83.67 113.69 106.33 113.76 128.99 113.72 C 126.80 107.95 124.87 102.09 122.57 96.37 C 115.47 94.99 108.21 96.40 101.04 96.13 C 91.34 96.09 81.66 95.66 71.95 95.79 C 68.08 96.10 65.03 91.67 66.52 88.12 C 70.07 78.43 73.75 68.79 77.37 59.13 C 78.11 56.79 80.34 54.94 82.87 55.05 C 90.93 54.96 99.00 55.16 107.07 55.07 C 104.42 48.04 101.80 41.01 99.01 34.04 C 97.48 37.78 96.69 41.99 94.25 45.26 C 90.63 49.15 83.27 45.31 84.65 40.03 C 87.17 32.54 90.18 25.22 92.88 17.79 Z" />
</g>
</svg>
