<svg width="64" height="64" viewBox="0 0 64 64" fill="none" xmlns="http://www.w3.org/2000/svg">
<path d="M8.24717 5.28688C10.8404 4.80099 13.5052 5.09747 16.1297 5.01923C18.8839 5.09747 21.902 4.61569 24.37 6.03631C26.7218 7.40752 28.2688 9.63522 30.3702 11.2823C31.1437 11.8341 32.1453 12.04 33.1155 12.0235C42.5183 12.0235 51.921 12.0359 61.3238 12.0894C62.9423 11.9617 64.3418 13.5059 63.926 14.9471C63.6979 16.063 62.522 16.8907 61.2969 16.8166C51.7466 16.8289 42.1963 16.7836 32.646 16.7754C30.4597 16.763 28.2778 16.0177 26.6547 14.663C24.6696 13.1765 23.3506 10.8953 21.0033 9.87817C17.7483 9.63934 14.462 9.84523 11.1981 9.77522C8.9536 9.63934 6.7091 10.8252 5.75228 12.7029C5.09503 13.893 5.21128 15.2601 5.20234 16.5489C5.22469 27.3992 5.19339 38.2494 5.21575 49.1038C5.17998 51.138 6.62415 53.0815 8.66745 53.8392C9.88359 54.3169 11.2339 54.2263 12.526 54.2345C26.1093 54.2139 39.6925 54.2428 53.2713 54.218C55.3727 54.2263 57.3847 53.0157 58.2611 51.2656C58.963 49.9521 58.7618 48.4532 58.7886 47.0408C58.7976 41.0124 58.7574 34.9841 58.8065 28.9557C58.7708 27.6009 60.206 26.4603 61.6546 26.6374C63.0765 26.7239 64.1406 28.0086 63.9796 29.2975C63.9796 36.0341 64.0109 42.7707 63.9662 49.5115C63.9036 54.498 59.1016 58.8917 53.696 58.974C39.384 59.0234 25.0675 58.9864 10.7555 58.9905C6.61521 59.0317 2.60462 56.6516 0.945834 53.1557C0.163389 51.6362 -0.0243975 49.9356 0.00242917 48.272C0.0381981 37.01 -0.0243977 25.7397 0.0337268 14.4777C0.114207 10.1664 3.70004 6.22985 8.24717 5.28688Z" fill="url(#paint0_linear)"/>
<path d="M31.6651 21.2079C32.6692 20.9035 33.8048 20.9088 34.7541 21.3887C35.8805 21.942 36.6838 23.0218 36.9705 24.2161C37.1914 25.7937 36.4775 27.484 35.0554 28.2988C33.7737 29.1081 32.096 29.0025 30.7943 28.297C30.1827 27.8798 29.6715 27.3229 29.332 26.6711C29.2735 26.5708 29.1585 26.3685 29.1019 26.2664C28.6857 26.3935 28.2694 26.5207 27.8623 26.6711C27.8495 25.799 28.64 25.2565 29.0764 24.5832C29.761 23.5715 30.6336 22.6672 31.1156 21.5373C31.1886 21.301 31.468 21.2849 31.6651 21.2079ZM31.4387 23.8652C31.0371 24.3719 31.0718 25.038 31.1686 25.6379L31.289 25.6361C31.6396 26.7606 33.2699 27.1205 34.1352 26.3362C34.9969 25.7041 35.0535 24.3397 34.2575 23.6342C33.5036 22.8391 32.0503 22.9663 31.4387 23.8652Z" fill="url(#paint1_linear)"/>
<path d="M28.9084 24.0586C29.4251 23.0934 29.9034 21.8238 31.1156 21.5373C30.6336 22.6672 29.761 23.5715 29.0764 24.5832C28.64 25.2565 27.8495 25.799 27.8623 26.6711C26.8619 27.1814 25.8687 27.7383 25.0581 28.5173C23.3274 30.1378 22.232 32.3653 21.8742 34.677C21.7756 35.173 21.8066 35.7156 21.5547 36.1704C21.2626 36.6396 20.651 36.5841 20.169 36.6091C19.8222 36.2761 19.5155 35.8589 19.6159 35.3503C19.8514 32.163 21.3137 29.0294 23.7126 26.8502C25.1731 25.4983 27.0353 24.6907 28.9084 24.0586Z" fill="url(#paint2_linear)"/>
<path d="M31.4387 23.8652C32.0503 22.9663 33.5036 22.8391 34.2575 23.6342C33.5127 23.5017 32.6326 23.3459 32.0028 23.8741C31.435 24.277 31.1375 24.9557 31.289 25.6361L31.1686 25.6379C31.0718 25.038 31.0371 24.3719 31.4387 23.8652Z" fill="url(#paint3_linear)"/>
<path d="M36.9705 24.2161C37.2772 25.3496 37.1475 26.6908 36.3953 27.6434C35.2087 29.2961 32.5761 29.819 30.9184 28.553C30.8874 28.4886 30.8253 28.3614 30.7943 28.297C32.096 29.0025 33.7737 29.1081 35.0554 28.2988C36.4775 27.484 37.1914 25.7937 36.9705 24.2161Z" fill="url(#paint4_linear)"/>
<path d="M39.0188 27.5843C38.4583 26.9594 39.0005 25.8206 39.8695 25.9065C40.7075 26.0068 41.2789 26.7338 41.9069 27.2208C41.4286 27.7437 40.3679 28.2111 40.775 29.058C40.22 28.5334 39.5683 28.1144 39.0188 27.5843Z" fill="url(#paint5_linear)"/>
<path d="M27.8623 26.6711C28.2694 26.5207 28.6857 26.3935 29.1019 26.2664C29.1585 26.3685 29.2735 26.5708 29.332 26.6711C27.0755 27.2298 25.1786 28.7232 23.8349 30.5479C22.7103 32.2239 22.0823 34.1846 21.8705 36.1704C21.7957 36.9547 20.5725 37.3003 20.169 36.6091C20.651 36.5841 21.2626 36.6396 21.5547 36.1704C21.8066 35.7156 21.7756 35.173 21.8742 34.677C22.232 32.3653 23.3274 30.1378 25.0581 28.5173C25.8687 27.7383 26.8619 27.1814 27.8623 26.6711Z" fill="url(#paint6_linear)"/>
<path d="M40.775 29.058C40.3679 28.2111 41.4286 27.7437 41.9069 27.2208C43.9553 29.0025 45.4651 31.4431 45.927 34.104C45.0781 34.1756 44.6271 34.9725 43.99 35.4201C43.7234 33.0046 42.4912 30.7806 40.775 29.058Z" fill="url(#paint7_linear)"/>
<path d="M43.99 35.4201C44.6271 34.9725 45.0781 34.1756 45.927 34.104L46.011 34.0861C46.0566 35.0423 46.2082 35.9985 46.1297 36.9583C46.095 37.9611 45.8248 38.9334 45.6952 39.9236C45.7645 40.0042 45.9033 40.1617 45.9745 40.2405C46.44 40.7688 46.7048 41.4367 46.8545 42.1135C47.0498 43.777 46.1753 45.5336 44.6126 46.2624C43.3602 46.9124 41.8358 46.7029 40.6308 46.0529C39.5062 45.3152 38.776 44.0223 38.807 42.6883C38.7942 41.0857 39.8969 39.5583 41.4323 39.0175C42.1461 38.7239 42.933 38.7847 43.6906 38.7919C43.9407 37.6835 44.0356 36.5518 43.99 35.4201ZM42.2757 41.0875C41.0343 41.2093 40.587 43.0106 41.3994 43.8684C42.1699 44.9123 43.9973 44.6634 44.5231 43.5066C45.1457 42.3732 44.1123 40.7759 42.7887 40.9496C42.5259 40.7616 42.3542 40.8064 42.2757 41.0875Z" fill="url(#paint8_linear)"/>
<path d="M46.011 34.0861C46.6135 34.9725 46.2958 36.1328 46.3798 37.1392C46.4802 38.1956 46.137 39.2091 45.9745 40.2405C45.9033 40.1617 45.7645 40.0042 45.6952 39.9236C45.8248 38.9334 46.095 37.9611 46.1297 36.9583C46.2082 35.9985 46.0566 35.0423 46.011 34.0861Z" fill="url(#paint9_linear)"/>
<path d="M18.1462 40.5754C18.5241 39.0856 19.8751 37.8966 21.4214 37.6674C22.3306 37.5331 23.2708 37.7337 24.0741 38.1652C23.6761 38.7382 23.2598 39.2969 22.8418 39.8573C22.0567 39.6622 21.1183 39.7678 20.5999 40.4411C19.9901 41.1341 20.1252 42.1816 20.682 42.862C20.2402 43.4189 19.8021 43.9776 19.3584 44.5327C18.2776 43.5586 17.7135 41.9792 18.1462 40.5754Z" fill="url(#paint10_linear)"/>
<path d="M24.0741 38.1652C25.6076 38.9835 26.3963 40.853 25.9873 42.5039C25.8376 43.179 25.4305 43.7556 25.0325 44.3107C25.6587 44.9893 26.4236 45.5158 27.1868 46.0333C26.6738 46.5418 26.0695 47.0736 26.1498 47.8633C25.7427 47.6233 25.341 47.3709 24.9485 47.1112C24.2712 46.6206 23.6888 46.0189 23.0736 45.4603C21.7719 45.6304 20.3516 45.4459 19.3584 44.5327C19.8021 43.9776 20.2402 43.4189 20.682 42.862C21.1859 43.2488 21.8413 43.521 22.4857 43.3563C23.4771 43.1432 24.1306 42.0437 23.8367 41.0911C23.7126 40.5485 23.258 40.1904 22.8418 39.8573C23.2598 39.2969 23.6761 38.7382 24.0741 38.1652Z" fill="url(#paint11_linear)"/>
<path d="M42.7887 40.9496C42.5259 40.7616 42.3542 40.8064 42.2757 41.0875C42.4711 41.1341 42.6427 41.0875 42.7887 40.9496Z" fill="url(#paint12_linear)"/>
<path d="M46.8545 42.1135C47.1575 43.2345 47.0115 44.5935 46.1863 45.4852C45.4214 46.4343 44.2347 47.129 42.9677 47.0001C42.1443 46.9518 41.0453 46.8659 40.6308 46.0529C41.8358 46.7029 43.3602 46.9124 44.6126 46.2624C46.1753 45.5336 47.0498 43.777 46.8545 42.1135Z" fill="url(#paint13_linear)"/>
<path d="M27.1868 46.0333C30.0786 47.7129 33.7372 47.6967 36.8006 46.4791C37.5053 46.1138 38.3196 46.6098 38.4729 47.3332C38.3597 47.6824 38.2776 48.1086 37.907 48.2894C37.2844 48.6404 36.5852 48.8302 35.8988 49.0164C32.6601 49.8544 29.0544 49.568 26.1498 47.8633C26.0695 47.0736 26.6738 46.5418 27.1868 46.0333Z" fill="url(#paint14_linear)"/>
<path d="M24.9485 47.1112C25.341 47.3709 25.7427 47.6233 26.1498 47.8633C29.0544 49.568 32.6601 49.8544 35.8988 49.0164C36.5852 48.8302 37.2844 48.6404 37.907 48.2894C38.2776 48.1086 38.3597 47.6824 38.4729 47.3332C38.6701 47.8901 38.5076 48.5867 37.896 48.8069C35.1648 49.9708 32.0101 50.2126 29.1329 49.4516C27.7819 49.0379 26.4875 48.4309 25.321 47.643C25.1147 47.5284 25.0416 47.3046 24.9485 47.1112Z" fill="url(#paint15_linear)"/>
<path d="M36.9705 24.2161C36.6838 23.0218 35.8805 21.942 34.7541 21.3887C33.8048 20.9088 32.6692 20.9035 31.6651 21.2079C31.468 21.2849 31.1886 21.301 31.1156 21.5373M36.9705 24.2161C37.1914 25.7937 36.4775 27.484 35.0554 28.2988C33.7737 29.1081 32.096 29.0025 30.7943 28.297M36.9705 24.2161C37.2772 25.3496 37.1475 26.6908 36.3953 27.6434C35.2087 29.2961 32.5761 29.819 30.9184 28.553C30.8874 28.4886 30.8253 28.3614 30.7943 28.297M30.7943 28.297C30.1827 27.8798 29.6715 27.3229 29.332 26.6711M29.332 26.6711C29.2735 26.5708 29.1585 26.3685 29.1019 26.2664C28.6857 26.3935 28.2694 26.5207 27.8623 26.6711M29.332 26.6711C27.0755 27.2298 25.1786 28.7232 23.8349 30.5479C22.7103 32.2239 22.0823 34.1846 21.8705 36.1704C21.7957 36.9547 20.5725 37.3003 20.169 36.6091M27.8623 26.6711C27.8495 25.799 28.64 25.2565 29.0764 24.5832C29.761 23.5715 30.6336 22.6672 31.1156 21.5373M27.8623 26.6711C26.8619 27.1814 25.8687 27.7383 25.0581 28.5173C23.3274 30.1378 22.232 32.3653 21.8742 34.677C21.7756 35.173 21.8066 35.7156 21.5547 36.1704C21.2626 36.6396 20.651 36.5841 20.169 36.6091M31.1156 21.5373C29.9034 21.8238 29.4251 23.0934 28.9084 24.0586C27.0353 24.6907 25.1731 25.4983 23.7126 26.8502C21.3137 29.0294 19.8514 32.163 19.6159 35.3503C19.5155 35.8589 19.8222 36.2761 20.169 36.6091M31.289 25.6361L31.1686 25.6379C31.0718 25.038 31.0371 24.3719 31.4387 23.8652C32.0503 22.9663 33.5036 22.8391 34.2575 23.6342M31.289 25.6361C31.6396 26.7606 33.2699 27.1205 34.1352 26.3362C34.9969 25.7041 35.0535 24.3397 34.2575 23.6342M31.289 25.6361C31.1375 24.9557 31.435 24.277 32.0028 23.8741C32.6326 23.3459 33.5127 23.5017 34.2575 23.6342M41.9069 27.2208C41.2789 26.7338 40.7075 26.0068 39.8695 25.9065C39.0005 25.8206 38.4583 26.9594 39.0188 27.5843C39.5683 28.1144 40.22 28.5334 40.775 29.058M41.9069 27.2208C41.4286 27.7437 40.3679 28.2111 40.775 29.058M41.9069 27.2208C43.9553 29.0025 45.4651 31.4431 45.927 34.104M40.775 29.058C42.4912 30.7806 43.7234 33.0046 43.99 35.4201M45.927 34.104C45.0781 34.1756 44.6271 34.9725 43.99 35.4201M45.927 34.104L46.011 34.0861M43.99 35.4201C44.0356 36.5518 43.9407 37.6835 43.6906 38.7919C42.933 38.7847 42.1461 38.7239 41.4323 39.0175C39.8969 39.5583 38.7942 41.0857 38.807 42.6883C38.776 44.0223 39.5062 45.3152 40.6308 46.0529M46.011 34.0861C46.0566 35.0423 46.2082 35.9985 46.1297 36.9583C46.095 37.9611 45.8248 38.9334 45.6952 39.9236C45.7645 40.0042 45.9033 40.1617 45.9745 40.2405M46.011 34.0861C46.6135 34.9725 46.2958 36.1328 46.3798 37.1392C46.4802 38.1956 46.137 39.2091 45.9745 40.2405M45.9745 40.2405C46.44 40.7688 46.7048 41.4367 46.8545 42.1135M46.8545 42.1135C47.0498 43.777 46.1753 45.5336 44.6126 46.2624C43.3602 46.9124 41.8358 46.7029 40.6308 46.0529M46.8545 42.1135C47.1575 43.2345 47.0115 44.5935 46.1863 45.4852C45.4214 46.4343 44.2347 47.129 42.9677 47.0001C42.1443 46.9518 41.0453 46.8659 40.6308 46.0529M42.2757 41.0875C41.0343 41.2093 40.587 43.0106 41.3994 43.8684C42.1699 44.9123 43.9973 44.6634 44.5231 43.5066C45.1457 42.3732 44.1123 40.7759 42.7887 40.9496M42.2757 41.0875C42.3542 40.8064 42.5259 40.7616 42.7887 40.9496M42.2757 41.0875C42.4711 41.1341 42.6427 41.0875 42.7887 40.9496M24.0741 38.1652C23.2708 37.7337 22.3306 37.5331 21.4214 37.6674C19.8751 37.8966 18.5241 39.0856 18.1462 40.5754C17.7135 41.9792 18.2776 43.5586 19.3584 44.5327M24.0741 38.1652C23.6761 38.7382 23.2598 39.2969 22.8418 39.8573M24.0741 38.1652C25.6076 38.9835 26.3963 40.853 25.9873 42.5039C25.8376 43.179 25.4305 43.7556 25.0325 44.3107C25.6587 44.9893 26.4236 45.5158 27.1868 46.0333M22.8418 39.8573C22.0567 39.6622 21.1183 39.7678 20.5999 40.4411C19.9901 41.1341 20.1252 42.1816 20.682 42.862M22.8418 39.8573C23.258 40.1904 23.7126 40.5485 23.8367 41.0911C24.1306 42.0437 23.4771 43.1432 22.4857 43.3563C21.8413 43.521 21.1859 43.2488 20.682 42.862M20.682 42.862C20.2402 43.4189 19.8021 43.9776 19.3584 44.5327M19.3584 44.5327C20.3516 45.4459 21.7719 45.6304 23.0736 45.4603C23.6888 46.0189 24.2712 46.6206 24.9485 47.1112M27.1868 46.0333C26.6738 46.5418 26.0695 47.0736 26.1498 47.8633M27.1868 46.0333C30.0786 47.7129 33.7372 47.6967 36.8006 46.4791C37.5053 46.1138 38.3196 46.6098 38.4729 47.3332M26.1498 47.8633C25.7427 47.6233 25.341 47.3709 24.9485 47.1112M26.1498 47.8633C29.0544 49.568 32.6601 49.8544 35.8988 49.0164C36.5852 48.8302 37.2844 48.6404 37.907 48.2894C38.2776 48.1086 38.3597 47.6824 38.4729 47.3332M24.9485 47.1112C25.0416 47.3046 25.1147 47.5284 25.321 47.643C26.4875 48.4309 27.7819 49.0379 29.1329 49.4516C32.0101 50.2126 35.1648 49.9708 37.896 48.8069C38.5076 48.5867 38.6701 47.8901 38.4729 47.3332" stroke="url(#paint16_linear)"/>
<defs>
<linearGradient id="paint0_linear" x1="32" y1="59" x2="32" y2="5" gradientUnits="userSpaceOnUse">
<stop stop-color="#5570FF"/>
<stop offset="1" stop-color="#4DD3FF"/>
</linearGradient>
<linearGradient id="paint1_linear" x1="32.5" y1="49.8892" x2="32.5" y2="21" gradientUnits="userSpaceOnUse">
<stop stop-color="#5558FF"/>
<stop offset="1" stop-color="#00C0FF"/>
</linearGradient>
<linearGradient id="paint2_linear" x1="32.5" y1="49.8892" x2="32.5" y2="21" gradientUnits="userSpaceOnUse">
<stop stop-color="#5558FF"/>
<stop offset="1" stop-color="#00C0FF"/>
</linearGradient>
<linearGradient id="paint3_linear" x1="32.5" y1="49.8892" x2="32.5" y2="21" gradientUnits="userSpaceOnUse">
<stop stop-color="#5558FF"/>
<stop offset="1" stop-color="#00C0FF"/>
</linearGradient>
<linearGradient id="paint4_linear" x1="32.5" y1="49.8892" x2="32.5" y2="21" gradientUnits="userSpaceOnUse">
<stop stop-color="#5558FF"/>
<stop offset="1" stop-color="#00C0FF"/>
</linearGradient>
<linearGradient id="paint5_linear" x1="32.5" y1="49.8892" x2="32.5" y2="21" gradientUnits="userSpaceOnUse">
<stop stop-color="#5558FF"/>
<stop offset="1" stop-color="#00C0FF"/>
</linearGradient>
<linearGradient id="paint6_linear" x1="32.5" y1="49.8892" x2="32.5" y2="21" gradientUnits="userSpaceOnUse">
<stop stop-color="#5558FF"/>
<stop offset="1" stop-color="#00C0FF"/>
</linearGradient>
<linearGradient id="paint7_linear" x1="32.5" y1="49.8892" x2="32.5" y2="21" gradientUnits="userSpaceOnUse">
<stop stop-color="#5558FF"/>
<stop offset="1" stop-color="#00C0FF"/>
</linearGradient>
<linearGradient id="paint8_linear" x1="32.5" y1="49.8892" x2="32.5" y2="21" gradientUnits="userSpaceOnUse">
<stop stop-color="#5558FF"/>
<stop offset="1" stop-color="#00C0FF"/>
</linearGradient>
<linearGradient id="paint9_linear" x1="32.5" y1="49.8892" x2="32.5" y2="21" gradientUnits="userSpaceOnUse">
<stop stop-color="#5558FF"/>
<stop offset="1" stop-color="#00C0FF"/>
</linearGradient>
<linearGradient id="paint10_linear" x1="32.5" y1="49.8892" x2="32.5" y2="21" gradientUnits="userSpaceOnUse">
<stop stop-color="#5558FF"/>
<stop offset="1" stop-color="#00C0FF"/>
</linearGradient>
<linearGradient id="paint11_linear" x1="32.5" y1="49.8892" x2="32.5" y2="21" gradientUnits="userSpaceOnUse">
<stop stop-color="#5558FF"/>
<stop offset="1" stop-color="#00C0FF"/>
</linearGradient>
<linearGradient id="paint12_linear" x1="32.5" y1="49.8892" x2="32.5" y2="21" gradientUnits="userSpaceOnUse">
<stop stop-color="#5558FF"/>
<stop offset="1" stop-color="#00C0FF"/>
</linearGradient>
<linearGradient id="paint13_linear" x1="32.5" y1="49.8892" x2="32.5" y2="21" gradientUnits="userSpaceOnUse">
<stop stop-color="#5558FF"/>
<stop offset="1" stop-color="#00C0FF"/>
</linearGradient>
<linearGradient id="paint14_linear" x1="32.5" y1="49.8892" x2="32.5" y2="21" gradientUnits="userSpaceOnUse">
<stop stop-color="#5558FF"/>
<stop offset="1" stop-color="#00C0FF"/>
</linearGradient>
<linearGradient id="paint15_linear" x1="32.5" y1="49.8892" x2="32.5" y2="21" gradientUnits="userSpaceOnUse">
<stop stop-color="#5558FF"/>
<stop offset="1" stop-color="#00C0FF"/>
</linearGradient>
<linearGradient id="paint16_linear" x1="32.5" y1="49.8892" x2="32.5" y2="21" gradientUnits="userSpaceOnUse">
<stop stop-color="#5558FF"/>
<stop offset="1" stop-color="#00C0FF"/>
</linearGradient>
</defs>
</svg>
