<svg width="64" height="64" viewBox="0 0 64 64" fill="none" xmlns="http://www.w3.org/2000/svg">
<path d="M8.25837 5.28518C10.8473 4.80758 13.5077 5.09167 16.1324 5.01756C18.8823 5.09167 21.9004 4.62643 24.3641 6.03862C26.7116 7.40552 28.2542 9.62468 30.3467 11.2633C31.1158 11.8356 32.1219 12.0332 33.0877 12.0209C42.4998 12.0209 51.912 12.0456 61.3241 12.095C63.0814 11.9468 64.5122 13.7707 63.8236 15.2652C63.4346 16.4057 62.0753 16.945 60.8502 16.8256C51.4559 16.8092 42.0572 16.7968 32.6584 16.7762C30.0248 16.7968 27.494 15.6605 25.7502 13.8654C24.1674 12.5726 23.0227 10.7034 21.0419 9.8923C17.6392 9.63703 14.1963 9.83878 10.7802 9.78937C7.80229 9.71938 5.12396 12.1856 5.21339 14.9276C5.20892 26.3157 5.20892 37.7038 5.21786 49.0878C5.13291 51.8093 7.77546 54.2508 10.7221 54.2096C24.7531 54.2343 38.7886 54.2096 52.8197 54.2261C54.957 54.3372 57.1032 53.2832 58.1137 51.5334C58.9722 50.1624 58.771 48.5279 58.7889 47.0128C58.7978 40.9976 58.7576 34.9783 58.8112 28.959C58.771 27.5797 60.2555 26.4187 61.7265 26.6451C63.144 26.7686 64.1321 28.0614 63.9801 29.3336C63.9846 36.0611 64.0159 42.7886 63.9622 49.516C63.8996 54.5019 59.1019 58.8867 53.7005 58.9732C39.3788 59.0267 25.0527 58.9814 10.731 58.9938C5.16421 59.1008 0.0713589 54.646 0.0221743 49.4996C-0.0180677 37.9673 0.00875997 26.431 0.00875997 14.8988C-0.0940807 10.4316 3.54111 6.2486 8.25837 5.28518Z" fill="url(#paint0_linear)"/>
<path d="M30.6529 22.4759C31.4329 21.8109 32.6945 21.8476 33.4329 22.5559C37.0429 25.8443 40.6545 29.1293 44.2579 32.4243C44.7512 32.8843 44.4879 33.7843 43.8545 33.9593C43.5362 34.1126 43.1529 33.9776 42.9079 33.7526C39.2662 30.4776 35.6562 27.1659 31.9962 23.9126C28.1445 27.1993 24.3362 30.5376 20.4829 33.8193C20.0062 34.1976 19.2162 33.9209 19.0529 33.3426C18.9112 32.9926 19.0695 32.5859 19.3462 32.3509C23.1145 29.0593 26.8812 25.7643 30.6529 22.4759Z" fill="url(#paint1_linear)" stroke="url(#paint2_linear)"/>
<path d="M23.5246 34.2059C28.9079 34.1476 34.2962 34.1943 39.6812 34.1826C40.6512 34.1809 41.4979 35.0459 41.5062 36.0093C41.5362 39.0043 41.5096 42.0009 41.5179 44.9959C41.5096 45.5409 41.5762 46.1293 41.3112 46.6293C41.0162 47.2493 40.3629 47.6593 39.6812 47.6843C38.4529 47.6776 37.2229 47.6876 35.9946 47.6793C35.2579 47.6026 34.8996 46.6076 35.4262 46.0859C35.7296 45.7126 36.2462 45.7693 36.6762 45.7709C37.3196 45.7659 37.9629 45.7826 38.6046 45.7643C39.1562 45.7209 39.6079 45.2109 39.6062 44.6609C39.6112 42.1643 39.6146 39.6659 39.6046 37.1693C39.5996 36.5893 39.0812 36.0776 38.5012 36.0859C34.0012 36.0826 29.5029 36.0826 25.0046 36.0859C24.3596 36.0776 23.8096 36.6843 23.8629 37.3243C23.8629 39.7776 23.8579 42.2293 23.8646 44.6809C23.8679 45.2209 24.3162 45.7126 24.8529 45.7643C25.7912 45.8043 26.7362 45.7209 27.6712 45.8076C28.5629 46.0059 28.5862 47.4359 27.6879 47.6359C26.4212 47.7426 25.1262 47.6509 23.8479 47.6826C22.8529 47.7076 21.9579 46.8276 21.9579 45.8326C21.9479 42.6109 21.9546 39.3893 21.9546 36.1676C21.9012 35.2426 22.6029 34.3409 23.5246 34.2059Z" fill="url(#paint3_linear)" stroke="url(#paint4_linear)"/>
<defs>
<linearGradient id="paint0_linear" x1="32" y1="59" x2="32" y2="5" gradientUnits="userSpaceOnUse">
<stop stop-color="#02AA93"/>
<stop offset="1" stop-color="#67FF80"/>
</linearGradient>
<linearGradient id="paint1_linear" x1="31.7573" y1="34.0248" x2="31.7573" y2="22" gradientUnits="userSpaceOnUse">
<stop stop-color="#02AA93"/>
<stop offset="1" stop-color="#67FF80"/>
</linearGradient>
<linearGradient id="paint2_linear" x1="31.7573" y1="34.0248" x2="31.7573" y2="22" gradientUnits="userSpaceOnUse">
<stop stop-color="#02AA93"/>
<stop offset="1" stop-color="#67FF80"/>
</linearGradient>
<linearGradient id="paint3_linear" x1="31.7363" y1="47.6893" x2="31.7363" y2="34.1759" gradientUnits="userSpaceOnUse">
<stop stop-color="#02AA93"/>
<stop offset="1" stop-color="#67FF80"/>
</linearGradient>
<linearGradient id="paint4_linear" x1="31.7363" y1="47.6893" x2="31.7363" y2="34.1759" gradientUnits="userSpaceOnUse">
<stop stop-color="#02AA93"/>
<stop offset="1" stop-color="#67FF80"/>
</linearGradient>
</defs>
</svg>
