<svg width="128" height="128" viewBox="0 0 128 128" fill="none" xmlns="http://www.w3.org/2000/svg">
<path d="M76.318 2.2429C75.7395 2.02627 75.1171 1.95298 74.504 2.02931C73.891 2.10563 73.3056 2.32928 72.7979 2.68115C72.2901 3.03302 71.8751 3.50263 71.5884 4.04982C71.3017 4.59701 71.1518 5.2055 71.1515 5.82325V67.6736C67.6171 64.8439 63.2419 63.2703 58.7149 63.2006C54.1879 63.1309 49.7663 64.5691 46.1465 67.2888C42.5268 70.0084 39.9146 73.8548 38.7213 78.2223C37.528 82.5898 37.8215 87.2301 39.5556 91.4125C41.2896 95.5948 44.3656 99.0815 48.2992 101.323C52.2327 103.565 56.8003 104.435 61.2824 103.795C65.7646 103.156 69.9067 101.044 73.0563 97.7911C76.206 94.5386 78.1842 90.3308 78.6794 85.8304C78.7602 85.5189 78.8013 85.1985 78.8018 84.8767V36.8428L114.437 50.2054C115.016 50.422 115.638 50.4953 116.251 50.419C116.864 50.3427 117.449 50.119 117.957 49.7671C118.465 49.4153 118.88 48.9457 119.167 48.3985C119.453 47.8513 119.603 47.2428 119.604 46.625V29.9626C119.604 26.5875 118.575 23.2925 116.653 20.5182C114.731 17.7439 112.007 15.6225 108.847 14.4375L76.318 2.2429V2.2429Z" fill="url(#paint0_linear)"/>
<path fill-rule="evenodd" clip-rule="evenodd" d="M108.118 68C105.356 68 103.149 70.2468 102.814 72.9878C102.036 79.3534 99.7768 85.4733 96.1883 90.8439C91.6702 97.6057 85.2485 102.876 77.7352 105.988C70.2218 109.1 61.9544 109.914 53.9783 108.328C46.0022 106.741 38.6757 102.825 32.9253 97.0747C27.1748 91.3243 23.2587 83.9978 21.6722 76.0217C20.0857 68.0456 20.8999 59.7782 24.0121 52.2649C27.1242 44.7516 32.3944 38.3298 39.1562 33.8117C44.5267 30.2232 50.6466 27.9637 57.0122 27.1857C59.7532 26.8508 62 24.6435 62 21.8821V15C62 12.2386 59.7574 9.97761 57.0062 10.2153C54.6466 10.4193 52.307 10.7671 50 11.2549C42.8139 12.7746 35.9451 15.6534 29.777 19.7748C20.2389 26.1479 12.8049 35.2062 8.41501 45.8044C4.02513 56.4025 2.87654 68.0643 5.11448 79.3152C7.35242 90.5661 12.8764 100.901 20.9878 109.012C29.0993 117.124 39.4339 122.648 50.6848 124.886C61.9357 127.123 73.5975 125.975 84.1957 121.585C94.7938 117.195 103.852 109.761 110.225 100.223C114.347 94.055 117.225 87.1861 118.745 80C119.233 77.6931 119.581 75.3535 119.785 72.9938C120.022 70.2427 117.761 68 115 68H108.118Z" fill="url(#paint1_linear)"/>
<defs>
<linearGradient id="paint0_linear" x1="78.8018" y1="104" x2="78.8018" y2="2" gradientUnits="userSpaceOnUse">
<stop stop-color="#FD2E00"/>
<stop offset="1" stop-color="#FF9900"/>
</linearGradient>
<linearGradient id="paint1_linear" x1="62" y1="126" x2="62" y2="10" gradientUnits="userSpaceOnUse">
<stop stop-color="#FD5900"/>
<stop offset="1" stop-color="#FFDE00"/>
</linearGradient>
</defs>
</svg>
