<?xml version="1.0" encoding="UTF-8" ?>
<!DOCTYPE svg PUBLIC "-//W3C//DTD SVG 1.1//EN" "http://www.w3.org/Graphics/SVG/1.1/DTD/svg11.dtd">
<svg width="192pt" height="192pt" viewBox="0 0 192 192" version="1.1" xmlns="http://www.w3.org/2000/svg">
<g id="#ff623cff">
<path fill="#ff623c" opacity="1.00" d=" M 70.78 20.63 C 79.16 18.70 87.14 14.40 95.95 14.76 C 104.31 14.85 111.92 18.74 119.90 20.59 C 126.64 19.62 133.25 17.93 139.99 16.96 C 145.07 16.28 150.26 18.63 153.42 22.61 C 161.79 32.68 169.90 43.05 176.56 54.35 C 181.20 62.08 180.39 72.59 174.35 79.33 C 166.95 87.20 159.55 95.07 152.08 102.87 C 154.38 107.87 156.17 113.39 155.26 118.96 C 153.66 129.23 146.37 137.85 137.44 142.78 C 136.28 146.41 134.57 150.06 131.31 152.27 C 122.78 158.04 114.79 164.57 107.07 171.37 C 103.52 174.58 98.82 176.80 93.94 176.25 C 89.54 175.88 85.71 173.35 82.57 170.41 C 75.65 164.21 68.34 158.45 60.61 153.30 C 56.93 150.92 54.57 147.05 53.46 142.88 C 45.86 138.46 39.20 131.74 36.60 123.17 C 33.43 113.94 36.78 103.31 43.69 96.70 C 47.19 93.77 51.93 98.18 51.55 102.01 C 50.97 106.92 46.90 110.88 47.23 115.99 C 47.49 122.59 52.26 127.83 57.36 131.49 C 60.64 128.46 64.82 126.78 68.71 124.70 C 74.95 121.44 81.38 118.56 87.98 116.11 C 90.04 115.42 92.21 114.08 92.76 111.83 C 93.05 110.07 91.95 108.51 90.54 107.60 C 83.98 103.11 77.27 98.83 70.72 94.32 C 69.12 93.32 67.71 91.36 68.61 89.43 C 71.16 83.64 74.75 78.36 77.35 72.59 C 79.03 68.87 77.04 64.31 73.33 62.76 C 64.04 58.85 54.26 56.07 45.17 51.70 C 50.06 50.72 55.07 50.64 60.01 50.00 C 66.45 49.01 72.64 51.58 78.77 53.12 C 81.33 53.92 85.63 54.34 85.29 57.99 C 83.89 68.05 81.56 77.97 80.03 88.01 C 79.70 89.86 79.32 92.78 81.70 93.41 C 88.37 95.44 95.53 97.20 102.45 95.26 C 105.25 94.32 108.94 94.44 110.90 91.95 C 111.14 89.91 110.73 87.88 110.43 85.88 C 108.86 77.20 107.20 68.54 105.66 59.86 C 105.37 58.17 105.07 55.93 106.81 54.89 C 109.45 53.47 112.49 53.04 115.33 52.17 C 119.78 51.06 124.25 49.18 128.93 49.85 C 134.42 50.45 139.94 50.74 145.41 51.53 C 143.48 53.18 140.92 53.72 138.62 54.68 C 131.62 57.37 124.53 59.86 117.56 62.65 C 114.07 64.04 111.69 68.16 113.16 71.82 C 114.97 76.40 117.68 80.56 119.92 84.94 C 120.97 87.18 122.86 89.40 122.27 92.04 C 121.47 93.31 120.22 94.17 119.02 95.01 C 113.01 98.99 107.04 103.04 101.04 107.03 C 99.72 108.00 97.99 109.08 98.09 110.96 C 97.95 113.28 100.05 115.00 102.04 115.75 C 111.28 119.28 120.26 123.48 128.98 128.16 C 130.60 129.02 132.02 130.21 133.42 131.39 C 138.25 128.28 142.23 123.52 143.46 117.81 C 144.55 112.38 140.69 107.84 139.38 102.85 C 138.69 100.51 140.13 98.30 141.66 96.67 C 149.42 88.42 157.30 80.28 165.03 72.01 C 168.18 68.85 168.58 63.68 166.17 59.97 C 160.05 49.66 152.63 40.20 145.03 30.96 C 144.13 30.13 143.46 28.68 142.07 28.65 C 134.35 29.44 126.85 32.02 119.08 32.41 C 110.23 31.16 102.10 25.73 92.91 26.62 C 85.41 27.74 78.53 31.52 71.01 32.52 C 63.28 31.84 55.76 29.31 48.04 28.74 C 45.83 30.26 44.43 32.64 42.72 34.65 C 35.92 43.02 29.42 51.67 24.01 61.01 C 22.53 64.38 22.71 68.85 25.37 71.60 C 28.95 75.66 32.88 79.41 36.38 83.53 C 39.30 86.92 36.49 92.93 32.00 92.77 C 28.44 93.19 26.41 89.86 24.24 87.68 C 21.16 84.14 17.63 81.00 14.82 77.24 C 10.54 70.96 10.13 62.30 13.58 55.56 C 20.03 44.04 28.33 33.72 36.57 23.45 C 39.61 19.25 44.74 16.47 50.00 16.97 C 56.98 17.84 63.80 19.73 70.78 20.63 M 91.74 129.77 C 84.75 136.22 75.86 139.86 67.28 143.64 C 75.71 149.06 83.50 155.42 90.98 162.09 C 92.40 163.23 93.96 164.79 95.96 164.43 C 97.56 164.10 98.73 162.85 99.97 161.88 C 107.37 155.34 115.09 149.14 123.18 143.46 C 116.77 140.43 109.97 138.07 104.23 133.82 C 101.29 131.79 98.83 129.16 95.92 127.10 C 94.07 126.96 93.07 128.83 91.74 129.77 Z" />
</g>
</svg>
