<svg width="128" height="128" viewBox="0 0 128 128" fill="none" xmlns="http://www.w3.org/2000/svg">
<path d="M124.935 33.8904L94.1097 3.06496C92.6898 1.64501 90.3919 1.64501 88.9722 3.06496L70.6436 21.3935L68.0748 18.8248C66.6548 17.4049 64.3569 17.4049 62.9372 18.8248L11.5614 70.2007C-1.18713 82.9494 -1.18713 103.69 11.5614 116.439C24.3099 129.188 45.0509 129.188 57.7997 116.439L109.175 65.0629C110.595 63.6432 110.595 61.3453 109.175 59.9254L106.606 57.3565L124.935 39.028C126.355 37.6083 126.355 35.3104 124.935 33.8904ZM52.6619 111.302C42.7479 121.215 26.6127 121.215 16.6989 111.302C6.78496 101.387 6.78496 85.252 16.6989 75.3382L65.5058 26.5313L101.469 62.4942L52.6619 111.302ZM112.091 41.5968L109.522 39.0282C108.103 37.6083 105.805 37.6083 104.385 39.0282C102.965 40.4479 102.965 42.7457 104.385 44.1657L106.954 46.7344L101.469 52.219L75.7812 26.5313L81.2658 21.0467L83.8346 23.6156C85.2546 25.0353 87.5525 25.0353 88.9722 23.6156C90.3921 22.1956 90.3921 19.8977 88.9722 18.478L86.4032 15.9089L91.5408 10.7714L117.228 36.4593L112.091 41.5968ZM62.9372 39.375L57.7997 44.5126C57.1174 45.1947 56.736 46.118 56.736 47.0812V66.1264L44.6956 78.1665C37.6467 73.5046 28.0387 74.2731 21.8364 80.4752C14.7546 87.5571 14.7546 99.0818 21.8364 106.163C28.9183 113.245 40.4426 113.245 47.5243 106.163C53.7266 99.9614 54.495 90.3526 49.8332 83.304L56.7357 76.4014H75.7809C76.7441 76.4014 77.6673 76.0202 78.3498 75.3378L83.4873 70.2002C84.9073 68.7803 84.9073 66.4824 83.4873 65.0627C82.0674 63.643 79.7695 63.643 78.3498 65.0627L74.2759 69.137H64.0009L78.35 54.7878C79.77 53.3681 79.77 51.07 78.35 49.6503C76.9301 48.2303 74.6322 48.2303 73.2125 49.6503L64.0009 58.8617V48.5866L68.0748 44.5127C69.4947 43.0928 69.4947 40.795 68.0748 39.3753C66.6548 37.9553 64.3569 37.9553 62.9372 39.375ZM42.3868 101.026C38.1374 105.276 31.2236 105.276 26.974 101.026C22.7246 96.7767 22.7246 89.8629 26.974 85.6133C31.2236 81.3639 38.1371 81.3639 42.3868 85.6133C46.6363 89.8629 46.6363 96.7767 42.3868 101.026Z" fill="url(#paint0_linear)" stroke="url(#paint1_linear)" stroke-width="2"/>
<defs>
<linearGradient id="paint0_linear" x1="64" y1="126" x2="64" y2="2" gradientUnits="userSpaceOnUse">
<stop stop-color="#02AA93"/>
<stop offset="1" stop-color="#67FF80"/>
</linearGradient>
<linearGradient id="paint1_linear" x1="64" y1="126" x2="64" y2="2" gradientUnits="userSpaceOnUse">
<stop stop-color="#02AA93"/>
<stop offset="1" stop-color="#67FF80"/>
</linearGradient>
</defs>
</svg>
