<svg width="128" height="128" viewBox="0 0 128 128" fill="none" xmlns="http://www.w3.org/2000/svg">
<path d="M24.165 5.00053L24.1592 5.00056C22.6663 5.00807 21.15 5.10543 19.6404 5.40706C11.0139 7.01781 4.07753 14.9708 4.03832 23.7584L4.03831 23.7597C4.00135 35.7368 3.97175 47.7184 4.04566 59.6935C4.01736 61.8204 5.41723 63.4543 7.08434 64.2373C8.73854 65.0143 10.8761 65.0598 12.5149 63.7792C14.5147 62.4645 14.876 60.0604 14.8543 58.2785C14.867 53.339 14.8633 48.4051 14.8597 43.4724C14.8549 36.897 14.85 30.3238 14.8838 23.7422C14.9379 19.3963 19.08 15.6195 23.4955 15.6983L23.505 15.6985H23.5145C36.99 15.6831 50.4589 15.6879 63.9276 15.6928C76.0499 15.6972 88.1721 15.7016 100.299 15.6912C100.65 15.6912 100.996 15.688 101.337 15.6848C103.586 15.6642 105.601 15.6456 107.396 16.5573L107.416 16.5676L107.437 16.5769C110.679 18.0428 112.69 21.6301 112.45 25.168L112.448 25.2015V25.2351C112.442 35.4016 112.444 45.5669 112.446 55.7319C112.45 71.7039 112.453 87.6749 112.426 103.647V103.66V103.672C112.531 108.161 108.53 112.291 103.977 112.277L103.965 112.278C97.5037 112.333 91.0731 112.324 84.6368 112.316C79.063 112.309 73.4849 112.302 67.8788 112.336C65.9212 112.226 64.253 113.308 63.2998 114.758C62.3498 116.204 62.02 118.153 62.902 119.89C63.4438 121.239 64.5 122.086 65.6618 122.563C66.8122 123.036 68.1027 123.166 69.2517 123.085C74.2675 123.054 79.3008 123.064 84.3389 123.074C91.1903 123.087 98.0507 123.101 104.889 123.012H104.904L104.92 123.011C114.657 122.586 123.15 114.025 123.197 104.299V104.295C123.218 89.8072 123.213 75.3133 123.209 60.8206C123.206 48.9763 123.202 37.1328 123.212 25.294C123.963 14.6939 114.656 4.8955 103.954 5.0152C89.3249 4.99506 74.6946 4.99929 60.0663 5.00352C48.0973 5.00698 36.1296 5.01044 24.165 5.00053Z" fill="url(#paint0_linear)"/>
<path d="M102.195 97.5164H102.194C101.278 98.1668 100.186 98.5 98.8936 98.5H63.1489C61.799 98.5 60.6969 98.1644 59.8131 97.5201C58.9341 96.8793 58.5425 96.1374 58.5425 95.2778C58.5425 94.4182 58.9341 93.6762 59.8131 93.0355C60.6969 92.3911 61.799 92.0556 63.1489 92.0556H98.8936C100.244 92.0556 101.346 92.3911 102.229 93.0355C103.108 93.6762 103.5 94.4182 103.5 95.2778C103.5 96.1315 103.101 96.8731 102.195 97.5164Z" fill="url(#paint1_linear)" stroke="url(#paint2_linear)"/>
<path d="M98.8936 73.6111H63.1489C61.799 73.6111 60.6969 73.2755 59.8131 72.6312C58.9341 71.9904 58.5425 71.2485 58.5425 70.3889C58.5425 69.5293 58.9341 68.7873 59.8131 68.1466C60.6969 67.5022 61.799 67.1667 63.1489 67.1667H98.8936C100.244 67.1667 101.346 67.5022 102.229 68.1466C103.108 68.7873 103.5 69.5293 103.5 70.3889C103.5 71.2485 103.108 71.9904 102.229 72.6312C101.346 73.2755 100.244 73.6111 98.8936 73.6111Z" fill="url(#paint3_linear)" stroke="url(#paint4_linear)"/>
<path d="M63.1489 55.2222H98.8936C100.33 55.2222 101.54 54.8539 102.524 54.1172C103.508 53.3805 104 52.4984 104 51.4708C104 50.4435 103.508 49.571 102.524 48.8536C101.54 48.1363 100.33 47.7778 98.8936 47.7778H63.1489C61.7128 47.7778 60.5025 48.1363 59.5185 48.8536C58.5345 49.571 58.0425 50.4435 58.0425 51.4708C58.0425 52.4984 58.5345 53.3805 59.5185 54.1172C60.5025 54.8539 61.7128 55.2222 63.1489 55.2222Z" fill="url(#paint5_linear)"/>
<path d="M63.1489 40.3333H98.8936C100.33 40.3333 101.54 39.965 102.524 39.2283C103.508 38.4916 104 37.6095 104 36.582C104 35.5545 103.508 34.6821 102.524 33.9648C101.54 33.2475 100.33 32.8889 98.8936 32.8889H63.1489C61.7128 32.8889 60.5025 33.2475 59.5185 33.9648C58.5345 34.6821 58.0425 35.5545 58.0425 36.582C58.0425 37.6095 58.5345 38.4916 59.5185 39.2283C60.5025 39.965 61.7128 40.3333 63.1489 40.3333Z" fill="url(#paint6_linear)"/>
<path d="M31.9433 79.1111H43.2908C44.0591 79.1111 44.724 78.8178 45.2855 78.2315C45.8469 77.6452 46.1277 76.9506 46.1277 76.1482V64.2963C46.1277 63.463 45.8469 62.7608 45.2855 62.1898C44.724 61.6188 44.0591 61.3333 43.2908 61.3333H31.9433C31.1454 61.3333 30.4731 61.6188 29.9264 62.1898C29.3797 62.7608 29.1064 63.463 29.1064 64.2963V76.1482C29.1064 76.9506 29.3797 77.6452 29.9264 78.2315C30.4731 78.8178 31.1454 79.1111 31.9433 79.1111Z" stroke="url(#paint7_linear)" stroke-width="6" stroke-linecap="round" stroke-linejoin="round"/>
<path d="M31.9433 104H43.2908C44.0591 104 44.724 103.707 45.2855 103.12C45.8469 102.534 46.1277 101.84 46.1277 101.037V89.1852C46.1277 88.3518 45.8469 87.6497 45.2855 87.0787C44.724 86.5077 44.0591 86.2222 43.2908 86.2222H31.9433C31.1454 86.2222 30.4731 86.5077 29.9264 87.0787C29.3797 87.6497 29.1064 88.3518 29.1064 89.1852V101.037C29.1064 101.84 29.3797 102.534 29.9264 103.12C30.4731 103.707 31.1454 104 31.9433 104Z" stroke="url(#paint8_linear)" stroke-width="6" stroke-linecap="round" stroke-linejoin="round"/>
<path d="M55.5516 26.2154C54.227 25.0301 52.1681 25.2499 51.1236 26.6882L39.5871 42.5741C38.4881 44.0874 36.2874 44.2372 34.9935 42.8867L30.4223 38.1158C29.2409 36.8828 27.2701 36.8832 26.0892 38.1166L25.9864 38.2239C24.8757 39.384 24.8757 41.2132 25.9864 42.3733L35.7285 52.5484C37.0121 53.889 39.1928 53.7541 40.3014 52.2656L56.4047 30.6435C57.3321 29.3983 57.1562 27.6513 55.9992 26.616L55.5516 26.2154Z" fill="url(#paint9_linear)"/>
<defs>
<linearGradient id="paint0_linear" x1="63.6273" y1="123.107" x2="63.6273" y2="5" gradientUnits="userSpaceOnUse">
<stop stop-color="#00B59C"/>
<stop offset="1" stop-color="#9CFFAC"/>
</linearGradient>
<linearGradient id="paint1_linear" x1="81.0212" y1="98.5" x2="81.0212" y2="92.0556" gradientUnits="userSpaceOnUse">
<stop stop-color="#00B59C"/>
<stop offset="1" stop-color="#9CFFAC"/>
</linearGradient>
<linearGradient id="paint2_linear" x1="81.0212" y1="98.5" x2="81.0212" y2="92.0556" gradientUnits="userSpaceOnUse">
<stop stop-color="#00B59C"/>
<stop offset="1" stop-color="#9CFFAC"/>
</linearGradient>
<linearGradient id="paint3_linear" x1="81.0212" y1="73.6111" x2="81.0212" y2="67.1667" gradientUnits="userSpaceOnUse">
<stop stop-color="#00B59C"/>
<stop offset="1" stop-color="#9CFFAC"/>
</linearGradient>
<linearGradient id="paint4_linear" x1="81.0212" y1="73.6111" x2="81.0212" y2="67.1667" gradientUnits="userSpaceOnUse">
<stop stop-color="#00B59C"/>
<stop offset="1" stop-color="#9CFFAC"/>
</linearGradient>
<linearGradient id="paint5_linear" x1="81.0212" y1="55.2222" x2="81.0212" y2="47.7778" gradientUnits="userSpaceOnUse">
<stop stop-color="#00B59C"/>
<stop offset="1" stop-color="#9CFFAC"/>
</linearGradient>
<linearGradient id="paint6_linear" x1="81.0213" y1="55.2222" x2="81.0213" y2="32.8889" gradientUnits="userSpaceOnUse">
<stop stop-color="#00B59C"/>
<stop offset="1" stop-color="#9CFFAC"/>
</linearGradient>
<linearGradient id="paint7_linear" x1="37.617" y1="79.1111" x2="37.617" y2="61.3333" gradientUnits="userSpaceOnUse">
<stop stop-color="#00B59C"/>
<stop offset="1" stop-color="#9CFFAC"/>
</linearGradient>
<linearGradient id="paint8_linear" x1="37.617" y1="104" x2="37.617" y2="86.2222" gradientUnits="userSpaceOnUse">
<stop stop-color="#00B59C"/>
<stop offset="1" stop-color="#9CFFAC"/>
</linearGradient>
<linearGradient id="paint9_linear" x1="41.0761" y1="53.4737" x2="41.0761" y2="25.4509" gradientUnits="userSpaceOnUse">
<stop stop-color="#FD2E00"/>
<stop offset="1" stop-color="#FF9900"/>
</linearGradient>
</defs>
</svg>
