<svg width="192" height="192" viewBox="0 0 192 192" fill="none" xmlns="http://www.w3.org/2000/svg">
<path d="M10.0447 36.4376C10.0884 22.609 22.2676 10.2987 36.0853 10.0803C56.2274 9.93827 76.3696 10.0257 96.5226 10.0366C93.8901 14.3512 91.1485 18.5893 88.4286 22.8493C71.3886 22.9149 54.3487 22.7838 37.3196 22.893C29.4987 22.6636 22.4752 29.6653 22.8902 37.5299C22.8138 76.9513 22.9448 116.394 22.8465 155.816C21.3828 147.438 22.0928 138.918 21.9508 130.463C21.8198 121.31 22.0492 112.156 21.6232 103.014C17.2539 108.606 11.137 114.013 11.0059 121.648C10.711 133.817 11.6067 146.029 10.2632 158.164C10.0666 155.849 9.99009 153.522 10.001 151.195C10.0447 112.943 9.96825 74.6902 10.0447 36.4376Z" fill="url(#paint0_linear)"/>
<path d="M96.5226 10.0366C115.704 9.99288 134.895 10.0257 154.076 10.0147C157.735 9.97104 161.318 10.7575 164.825 11.7515C159.199 13.3026 155.496 17.8793 152.82 22.7947C131.356 22.9258 109.892 22.8275 88.4286 22.8493C91.1485 18.5893 93.8901 14.3512 96.5226 10.0366Z" fill="url(#paint1_linear)"/>
<path d="M152.82 22.7947C155.496 17.8793 159.199 13.3026 164.825 11.7515C173.519 15.5418 180.324 23.5593 181.766 33.0406C182.214 46.4978 181.864 59.9768 181.952 73.434C177.517 77.0277 173.377 80.9382 169.161 84.7831C169.117 69.0539 169.205 53.3247 169.128 37.6064C169.292 33.2809 167.184 29.2939 164.235 26.2682C160.98 23.7559 156.905 22.6527 152.82 22.7947Z" fill="url(#paint2_linear)"/>
<path d="M56.3803 72.0905C64.9549 66.5197 76.1183 66.9457 85.4685 70.2008C90.0452 71.8393 93.4751 75.5313 96.0311 79.5509C92.9398 82.664 90.0343 85.9519 87.238 89.3271C86.102 86.8148 85.0534 84.2151 83.4586 81.954C78.3139 75.8808 67.7622 75.3019 62.4973 81.5062C57.8222 87.2736 57.5928 95.3675 58.7943 102.38C60.0723 107.492 63.5349 112.757 69.0729 113.729C75.5722 115.029 81.7328 111.621 86.5826 107.645C87.5875 110.234 88.5597 112.834 89.8377 115.291C89.7394 116.012 89.5428 117.454 89.4445 118.175C79.1549 124.521 65.4574 125.745 54.9931 119.092C47.6747 113.281 45.5993 103.21 45.9707 94.3189C46.6042 86.072 49.1165 76.9294 56.3803 72.0905Z" fill="url(#paint3_linear)"/>
<path d="M112.896 70.736C120.324 66.9894 129.325 66.9894 137.058 69.8294C141.657 71.5116 144.464 75.9354 145.829 80.4357C145.447 81.8666 144.54 82.6313 143.099 82.7405C140.106 83.3194 137.058 83.5051 134.032 83.7891C133.912 83.1228 133.672 81.7793 133.563 81.113C131.116 76.2522 124.573 76.3177 120.149 77.9671C116.708 79.6602 116.741 84.0513 118.096 87.1097C124.147 91.0092 131.902 90.3429 138.161 93.8383C141.963 95.5751 144.54 99.1469 145.753 103.057C146.343 107.831 146.31 113.325 142.88 117.104C138.784 121.638 132.438 122.795 126.648 123.385C118.085 124.095 109.019 122.97 101.635 118.317C92.4265 111.479 91.072 99.3326 87.238 89.3271C90.0343 85.9519 92.9398 82.664 96.0311 79.5509C100.007 87.634 101.788 96.5582 105.512 104.729C110.198 114.406 123.361 116.526 132.372 112.08C135.758 109.917 134.491 104.63 131.181 103.068C124.169 99.4091 115.015 100.447 109.128 94.5592C103.087 87.7542 104.518 75.0943 112.896 70.736Z" fill="url(#paint4_linear)"/>
<path d="M169.161 84.7831C173.377 80.9382 177.517 77.0277 181.952 73.434C181.952 100.829 182.017 128.213 181.93 155.597C181.941 168.891 170.745 180.731 157.583 181.911C136.676 182.359 115.758 181.977 94.8405 182.097C97.4183 177.738 100.127 173.478 102.847 169.207C120.247 169.153 137.648 169.295 155.048 169.142C162.771 169.24 169.478 162.206 169.139 154.505C169.194 131.272 169.128 108.016 169.161 84.7831Z" fill="url(#paint5_linear)"/>
<path d="M11.0059 121.648C11.137 114.013 17.2539 108.606 21.6232 103.014C22.0492 112.156 21.8198 121.31 21.9508 130.463C22.0928 138.918 21.3828 147.438 22.8465 155.816C23.1524 158.601 24.2119 161.245 25.7848 163.549C28.0131 166.542 31.4976 168.312 35.1022 169.076C32.153 172.473 29.7281 176.297 28.035 180.458C25.6428 179.497 23.349 178.274 21.1535 176.93C15.2332 172.473 11.0059 165.581 10.2632 158.164C11.6067 146.029 10.711 133.817 11.0059 121.648Z" fill="url(#paint6_linear)"/>
<path d="M28.035 180.458C29.7281 176.297 32.153 172.473 35.1022 169.076C57.6802 169.382 80.2691 169.098 102.847 169.207C100.127 173.478 97.4183 177.738 94.8405 182.097C74.8185 182.009 54.7856 182.326 34.7745 181.944C32.4807 181.66 30.2305 181.125 28.035 180.458Z" fill="url(#paint7_linear)"/>
<defs>
<linearGradient id="paint0_linear" x1="209.784" y1="140.84" x2="51.6881" y2="38.9255" gradientUnits="userSpaceOnUse">
<stop stop-color="#F61642"/>
<stop offset="1" stop-color="#EB006E"/>
</linearGradient>
<linearGradient id="paint1_linear" x1="209.784" y1="140.84" x2="51.6881" y2="38.9255" gradientUnits="userSpaceOnUse">
<stop stop-color="#F61642"/>
<stop offset="1" stop-color="#EB006E"/>
</linearGradient>
<linearGradient id="paint2_linear" x1="209.784" y1="140.84" x2="51.6881" y2="38.9255" gradientUnits="userSpaceOnUse">
<stop stop-color="#F61642"/>
<stop offset="1" stop-color="#EB006E"/>
</linearGradient>
<linearGradient id="paint3_linear" x1="209.784" y1="140.84" x2="51.6881" y2="38.9255" gradientUnits="userSpaceOnUse">
<stop stop-color="#F61642"/>
<stop offset="1" stop-color="#EB006E"/>
</linearGradient>
<linearGradient id="paint4_linear" x1="209.784" y1="140.84" x2="51.6881" y2="38.9255" gradientUnits="userSpaceOnUse">
<stop stop-color="#F61642"/>
<stop offset="1" stop-color="#EB006E"/>
</linearGradient>
<linearGradient id="paint5_linear" x1="209.784" y1="140.84" x2="51.6881" y2="38.9255" gradientUnits="userSpaceOnUse">
<stop stop-color="#F61642"/>
<stop offset="1" stop-color="#EB006E"/>
</linearGradient>
<linearGradient id="paint6_linear" x1="209.784" y1="140.84" x2="51.6881" y2="38.9255" gradientUnits="userSpaceOnUse">
<stop stop-color="#F61642"/>
<stop offset="1" stop-color="#EB006E"/>
</linearGradient>
<linearGradient id="paint7_linear" x1="209.784" y1="140.84" x2="51.6881" y2="38.9255" gradientUnits="userSpaceOnUse">
<stop stop-color="#F61642"/>
<stop offset="1" stop-color="#EB006E"/>
</linearGradient>
</defs>
</svg>
