<svg width="512" height="512" viewBox="0 0 512 512" fill="none" xmlns="http://www.w3.org/2000/svg">
<path d="M346 212.004C288.102 212.004 241 259.105 241 317.004C241 374.902 288.102 422.004 346 422.004C403.898 422.004 451 374.902 451 317.004C451 259.105 403.898 212.004 346 212.004V212.004ZM346 392.004C304.645 392.004 271 358.359 271 317.004C271 275.648 304.645 242.004 346 242.004C387.355 242.004 421 275.648 421 317.004C421 358.359 387.355 392.004 346 392.004Z" fill="url(#paint0_linear)"/>
<path d="M346 272.004C321.188 272.004 301 292.191 301 317.004C301 341.816 321.188 362.004 346 362.004C370.812 362.004 391 341.816 391 317.004C391 292.191 370.812 272.004 346 272.004V272.004ZM346 332.004C337.73 332.004 331 325.273 331 317.004C331 308.734 337.73 302.004 346 302.004C354.27 302.004 361 308.734 361 317.004C361 325.273 354.27 332.004 346 332.004Z" fill="url(#paint1_linear)"/>
<path fill-rule="evenodd" clip-rule="evenodd" d="M150 152.004H467C491.812 152.004 512 172.191 512 197.004V437.004C512 461.816 491.812 482.004 467 482.004H45C20.1875 482.004 0 461.816 0 437.004V197.004C0 172.191 20.1875 152.004 45 152.004H60V137.004C60 112.191 80.1875 92.0039 105 92.0039C120.301 92.0039 133.832 99.6835 141.965 111.387L432.066 32.5273C440.059 30.3554 448.305 35.0742 450.477 43.0703C452.648 51.0625 447.93 59.3046 439.934 61.4765L150 140.289V152.004ZM105 122.004C96.7305 122.004 90 128.734 90 137.004V152.004H120V137.004C120 128.734 113.27 122.004 105 122.004ZM467 452.004C475.27 452.004 482 445.273 482 437.004V197.004C482 188.734 475.27 182.004 467 182.004H45C36.7305 182.004 30 188.734 30 197.004V437.004C30 445.273 36.7305 452.004 45 452.004H467ZM75 242.004H195C203.285 242.004 210 248.719 210 257.004V317.004C210 325.289 203.285 332.004 195 332.004H75C66.7148 332.004 60 325.289 60 317.004V257.004C60 248.719 66.7148 242.004 75 242.004ZM90 302.004H180V272.004H90V302.004ZM75 362.004C66.7148 362.004 60 368.719 60 377.004C60 385.289 66.7148 392.004 75 392.004H105C113.285 392.004 120 385.289 120 377.004C120 368.719 113.285 362.004 105 362.004H75ZM150 377.004C150 368.719 156.715 362.004 165 362.004H195C203.285 362.004 210 368.719 210 377.004C210 385.289 203.285 392.004 195 392.004H165C156.715 392.004 150 385.289 150 377.004Z" fill="url(#paint2_linear)"/>
<defs>
<linearGradient id="paint0_linear" x1="279.062" y1="397.212" x2="468.432" y2="231.983" gradientUnits="userSpaceOnUse">
<stop stop-color="#FE0844"/>
<stop offset="1" stop-color="#FEB302"/>
</linearGradient>
<linearGradient id="paint1_linear" x1="317.312" y1="351.379" x2="398.471" y2="280.567" gradientUnits="userSpaceOnUse">
<stop stop-color="#FE0844"/>
<stop offset="1" stop-color="#FEB302"/>
</linearGradient>
<linearGradient id="paint2_linear" x1="36.5714" y1="257.001" x2="450.598" y2="204.945" gradientUnits="userSpaceOnUse">
<stop stop-color="#8D01A2"/>
<stop offset="1" stop-color="#FF00D2"/>
</linearGradient>
</defs>
</svg>
