<svg width="64" height="64" viewBox="0 0 64 64" fill="none" xmlns="http://www.w3.org/2000/svg">
<path opacity="0.2" d="M4.57188 1C2.03926 1 0 3.0073 0 5.50044V24.9634C0 27.4564 2.26729 29.35 4.8 29.35C7.33262 29.35 9.6 27.4565 9.6 24.9634V16.3286L16 23.0777V29.35H25.1438V27.9996C25.1438 26.753 26.1618 25.7509 27.4281 25.7509H28.8V16.75H22.4281L15.5719 10.45H24.3438C26.8764 10.45 28.8 8.21814 28.8 5.725C28.8 3.23195 26.8765 1 24.3438 1H4.57188ZM39.6563 1C37.1235 1 35.2 3.23195 35.2 5.725C35.2 8.21814 37.1236 10.45 39.6563 10.45H48.4281L41.5719 16.75H35.2V25.7509H36.5719C37.8382 25.7509 38.8563 26.753 38.8563 27.9996V29.35H48V23.0777L54.4 16.3286V24.9634C54.4 27.4565 56.6674 29.35 59.2 29.35C61.7327 29.35 64 27.4564 64 24.9634V5.50044C64 3.0073 61.9607 1 59.4281 1H39.6563ZM16 35.65V43.7496C16 46.2444 18.0374 48.25 20.5719 48.25H28.8V39.2491H27.4281C26.1618 39.2491 25.1438 38.247 25.1438 37.0004V35.65H16ZM38.8563 35.65V37.0004C38.8563 38.247 37.8382 39.2491 36.5719 39.2491H35.2V48.25H41.5719L48.4281 54.55H39.6563C37.1236 54.55 35.2 56.7819 35.2 59.275C35.2 61.768 37.1235 64 39.6563 64H59.4281C61.9607 64 64 61.9927 64 59.4996V40.0366C64 37.5436 61.7327 35.65 59.2 35.65C56.6674 35.65 54.4 37.5435 54.4 40.0366V48.6714L48 41.9223V35.65H38.8563Z" fill="black"/>
<path d="M4.57188 0C2.03926 0 0 2.0073 0 4.50044V23.9634C0 26.4564 2.26729 28.35 4.8 28.35C7.33262 28.35 9.6 26.4565 9.6 23.9634V15.3286L16 22.0777V28.35H25.1438V26.9996C25.1438 25.753 26.1618 24.7509 27.4281 24.7509H28.8V15.75H22.4281L15.5719 9.45H24.3438C26.8764 9.45 28.8 7.21814 28.8 4.725C28.8 2.23195 26.8765 0 24.3438 0H4.57188ZM39.6563 0C37.1235 0 35.2 2.23195 35.2 4.725C35.2 7.21814 37.1236 9.45 39.6563 9.45H48.4281L41.5719 15.75H35.2V24.7509H36.5719C37.8382 24.7509 38.8563 25.753 38.8563 26.9996V28.35H48V22.0777L54.4 15.3286V23.9634C54.4 26.4565 56.6674 28.35 59.2 28.35C61.7327 28.35 64 26.4564 64 23.9634V4.50044C64 2.0073 61.9607 0 59.4281 0H39.6563ZM16 34.65V42.7496C16 45.2444 18.0374 47.25 20.5719 47.25H28.8V38.2491H27.4281C26.1618 38.2491 25.1438 37.247 25.1438 36.0004V34.65H16ZM38.8563 34.65V36.0004C38.8563 37.247 37.8382 38.2491 36.5719 38.2491H35.2V47.25H41.5719L48.4281 53.55H39.6563C37.1236 53.55 35.2 55.7819 35.2 58.275C35.2 60.768 37.1235 63 39.6563 63H59.4281C61.9607 63 64 60.9927 64 58.4996V39.0366C64 36.5436 61.7327 34.65 59.2 34.65C56.6674 34.65 54.4 36.5435 54.4 39.0366V47.6714L48 40.9223V34.65H38.8563Z" fill="url(#paint0_linear)"/>
<defs>
<linearGradient id="paint0_linear" x1="32" y1="63" x2="32" y2="0" gradientUnits="userSpaceOnUse">
<stop stop-color="#FDA700"/>
<stop offset="1" stop-color="#FFDE00"/>
</linearGradient>
</defs>
</svg>
