<svg width="192" height="192" viewBox="0 0 192 192" fill="none" xmlns="http://www.w3.org/2000/svg">
<path d="M59.7332 62.0416C62.3842 59.6901 64.4882 56.3203 68.149 55.4595C73.5562 53.9058 79.5103 57.727 81.0357 62.9655C81.9299 68.3824 85.3909 73.7888 83.4026 79.3316C82.4348 82.3025 79.6576 84.0347 77.701 86.3022C77.9955 87.7194 78.4794 89.0946 79.0475 90.4279C79.8365 92.37 80.7832 94.2386 81.7616 96.0967C78.269 100.789 74.1768 105.104 71.6416 110.416C62.3527 98.8681 57.0402 84.2026 56.7877 69.3901C56.4616 66.6502 57.5662 63.7738 59.7332 62.0416Z" fill="url(#paint0_linear)"/>
<path d="M71.6416 110.416C74.1768 105.104 78.269 100.789 81.7616 96.0967C85.5802 102.626 91.24 108.022 97.8884 111.634C95.0271 116.379 91.4083 120.62 88.5785 125.396C83.2976 122.142 78.5637 118.048 74.3242 113.534C73.3985 112.515 72.4832 111.497 71.6416 110.416Z" fill="url(#paint1_linear)"/>
<path d="M113.3 109.209C117.866 107.266 122.516 109.901 126.986 110.825C131.342 111.518 135.613 114.248 137.022 118.583C138.253 122.226 137.348 126.624 134.35 129.144C131.468 131.674 129.185 135.59 124.935 135.779C112.164 135.8 99.3927 132.209 88.5785 125.396C91.4083 120.62 95.0271 116.379 97.8884 111.634C100.592 112.956 103.359 114.153 106.273 114.93C108.587 112.998 110.313 110.195 113.3 109.209Z" fill="url(#paint2_linear)"/>
<path d="M76.1445 6.05655C85.991 3.873 96.2267 3.46358 106.231 4.66033C105.263 8.69151 102.076 11.4839 99.9823 14.9062C100.519 15.5256 101.076 16.1135 101.676 16.6804C89.6729 15.7041 77.5016 17.5097 66.298 21.8768C68.4441 15.9245 73.8091 11.8829 76.1445 6.05655Z" fill="url(#paint3_linear)"/>
<path d="M106.231 4.66033C114.363 5.58414 122.316 7.73621 129.9 10.7701L129.827 10.8541C126.766 13.8355 124.293 17.3628 122.368 21.1735C115.709 18.7695 108.724 17.2683 101.676 16.6804C101.076 16.1135 100.519 15.5256 99.9823 14.9062C102.076 11.4839 105.263 8.69151 106.231 4.66033Z" fill="url(#paint4_linear)"/>
<path d="M26.9542 34.6947C39.7462 20.2707 57.2195 9.94076 76.1445 6.05655C73.8091 11.8829 68.4441 15.9245 66.298 21.8768C49.6874 28.4905 35.4226 40.8255 26.6386 56.3833C20.6213 66.9546 17.2024 78.9642 16.5712 91.0997C11.7953 94.8895 9.91227 101.178 5.17839 104.894C4.67344 99.9179 5.66229 94.816 4.18952 89.945C5.17838 69.6526 13.4258 49.8536 26.9542 34.6947Z" fill="url(#paint5_linear)"/>
<path d="M122.368 21.1735C124.293 17.3628 126.766 13.8355 129.827 10.8541C136.654 13.447 143.04 17.1738 148.962 21.4254C145.88 24.2493 143.523 27.7136 141.178 31.1254C135.392 26.9893 129.048 23.6405 122.368 21.1735Z" fill="url(#paint6_linear)"/>
<path d="M8.17654 185.759C2.1908 184.09 3.06394 174.295 9.2811 173.686C19.1486 173.623 29.0161 173.728 38.8942 173.707C36.0643 177.928 32.8032 181.833 30.0576 186.105C22.7674 185.916 15.4141 186.536 8.17654 185.759Z" fill="url(#paint7_linear)"/>
<path d="M141.178 31.1254C143.523 27.7136 145.88 24.2493 148.962 21.4254C160.408 29.7607 169.949 40.7415 176.377 53.3494C173.684 57.3806 170.422 61.0548 168.266 65.4429C163.879 54.7876 157.147 45.1506 148.678 37.3192C146.364 35.0516 143.797 33.0465 141.178 31.1254Z" fill="url(#paint8_linear)"/>
<path d="M168.266 65.4429C170.422 61.0548 173.684 57.3806 176.377 53.3494C178.544 57.4331 180.353 61.7162 181.805 66.1043C183.562 71.6682 184.961 77.358 185.697 83.1423C181.479 87.8349 178.333 93.3673 173.999 97.9653C174.346 86.8796 172.432 75.7309 168.266 65.4429Z" fill="url(#paint9_linear)"/>
<path d="M173.999 97.9653C178.333 93.3673 181.479 87.8349 185.697 83.1423C188.737 105.618 182.983 129.154 169.749 147.62C157.315 165.278 138.358 178.19 117.361 183.397C119.686 177.088 125.198 172.626 128.028 166.537C154.664 154.717 173.21 127.055 173.999 97.9653Z" fill="url(#paint10_linear)"/>
<path d="M4.18952 89.945C5.66229 94.816 4.67344 99.9179 5.17839 104.894C9.91227 101.178 11.7953 94.8895 16.5712 91.0997C16.2766 108.694 16.6659 126.31 16.3714 143.893C15.7086 148.303 10.0806 150.434 6.55648 147.799C4.64189 146.56 3.86344 144.061 4.02124 141.867C4.13695 124.556 3.81081 107.245 4.18952 89.945Z" fill="url(#paint11_linear)"/>
<path d="M95.5955 173.676C106.736 173.518 117.897 171.251 128.028 166.537C125.198 172.626 119.686 177.088 117.361 183.397C107.704 185.906 97.6574 186.294 87.7267 186.095C89.5887 181.497 93.439 178.127 95.5955 173.676Z" fill="url(#paint12_linear)"/>
<path d="M38.8942 173.707C48.0464 173.686 57.209 173.676 66.3717 173.707C64.8989 178.515 60.8804 181.822 58.4398 186.105C48.9826 186.116 39.5148 186.105 30.0576 186.105C32.8032 181.833 36.0643 177.928 38.8942 173.707Z" fill="url(#paint13_linear)"/>
<path d="M66.3717 173.707C76.113 173.665 85.8542 173.728 95.5955 173.676C93.439 178.127 89.5887 181.497 87.7267 186.095C77.9643 186.116 68.2021 186.105 58.4398 186.105C60.8804 181.822 64.8989 178.515 66.3717 173.707Z" fill="url(#paint14_linear)"/>
<defs>
<linearGradient id="paint0_linear" x1="97.1431" y1="135.779" x2="97.1431" y2="55.1096" gradientUnits="userSpaceOnUse">
<stop stop-color="#02AA93"/>
<stop offset="1" stop-color="#67FF80"/>
</linearGradient>
<linearGradient id="paint1_linear" x1="97.1431" y1="135.779" x2="97.1431" y2="55.1096" gradientUnits="userSpaceOnUse">
<stop stop-color="#02AA93"/>
<stop offset="1" stop-color="#67FF80"/>
</linearGradient>
<linearGradient id="paint2_linear" x1="97.1431" y1="135.779" x2="97.1431" y2="55.1096" gradientUnits="userSpaceOnUse">
<stop stop-color="#02AA93"/>
<stop offset="1" stop-color="#67FF80"/>
</linearGradient>
<linearGradient id="paint3_linear" x1="95.2461" y1="186.162" x2="95.2461" y2="4" gradientUnits="userSpaceOnUse">
<stop stop-color="#02AA93"/>
<stop offset="1" stop-color="#67FF80"/>
</linearGradient>
<linearGradient id="paint4_linear" x1="95.2461" y1="186.162" x2="95.2461" y2="4" gradientUnits="userSpaceOnUse">
<stop stop-color="#02AA93"/>
<stop offset="1" stop-color="#67FF80"/>
</linearGradient>
<linearGradient id="paint5_linear" x1="95.2461" y1="186.162" x2="95.2461" y2="4" gradientUnits="userSpaceOnUse">
<stop stop-color="#02AA93"/>
<stop offset="1" stop-color="#67FF80"/>
</linearGradient>
<linearGradient id="paint6_linear" x1="95.2461" y1="186.162" x2="95.2461" y2="4" gradientUnits="userSpaceOnUse">
<stop stop-color="#02AA93"/>
<stop offset="1" stop-color="#67FF80"/>
</linearGradient>
<linearGradient id="paint7_linear" x1="95.2461" y1="186.162" x2="95.2461" y2="4" gradientUnits="userSpaceOnUse">
<stop stop-color="#02AA93"/>
<stop offset="1" stop-color="#67FF80"/>
</linearGradient>
<linearGradient id="paint8_linear" x1="95.2461" y1="186.162" x2="95.2461" y2="4" gradientUnits="userSpaceOnUse">
<stop stop-color="#02AA93"/>
<stop offset="1" stop-color="#67FF80"/>
</linearGradient>
<linearGradient id="paint9_linear" x1="95.2461" y1="186.162" x2="95.2461" y2="4" gradientUnits="userSpaceOnUse">
<stop stop-color="#02AA93"/>
<stop offset="1" stop-color="#67FF80"/>
</linearGradient>
<linearGradient id="paint10_linear" x1="95.2461" y1="186.162" x2="95.2461" y2="4" gradientUnits="userSpaceOnUse">
<stop stop-color="#02AA93"/>
<stop offset="1" stop-color="#67FF80"/>
</linearGradient>
<linearGradient id="paint11_linear" x1="95.2461" y1="186.162" x2="95.2461" y2="4" gradientUnits="userSpaceOnUse">
<stop stop-color="#02AA93"/>
<stop offset="1" stop-color="#67FF80"/>
</linearGradient>
<linearGradient id="paint12_linear" x1="95.2461" y1="186.162" x2="95.2461" y2="4" gradientUnits="userSpaceOnUse">
<stop stop-color="#02AA93"/>
<stop offset="1" stop-color="#67FF80"/>
</linearGradient>
<linearGradient id="paint13_linear" x1="95.2461" y1="186.162" x2="95.2461" y2="4" gradientUnits="userSpaceOnUse">
<stop stop-color="#02AA93"/>
<stop offset="1" stop-color="#67FF80"/>
</linearGradient>
<linearGradient id="paint14_linear" x1="95.2461" y1="186.162" x2="95.2461" y2="4" gradientUnits="userSpaceOnUse">
<stop stop-color="#02AA93"/>
<stop offset="1" stop-color="#67FF80"/>
</linearGradient>
</defs>
</svg>
