<svg width="128" height="128" viewBox="0 0 128 128" fill="none" xmlns="http://www.w3.org/2000/svg">
<g clip-path="url(#clip0)">
<path d="M58.7193 3.29552C62.449 0.0879842 68.4814 0.265001 72.0122 3.68139C89.2737 19.5425 106.543 35.3873 123.773 51.2802C126.132 53.499 124.873 57.84 121.844 58.6841C120.322 59.4235 118.489 58.7724 117.318 57.6871C99.9046 41.8906 82.6431 25.9171 65.1425 10.2252C46.7252 26.0782 28.5155 42.18 10.0906 58.0088C7.81119 59.8335 4.03373 58.4989 3.2529 55.7095C2.57535 54.0214 3.33227 52.0597 4.65534 50.9262C22.6738 35.0496 40.6846 19.1567 58.7193 3.29552Z" fill="url(#paint0_linear)" stroke="url(#paint1_linear)" stroke-width="3"/>
<path d="M24.5552 60.1466C50.4137 59.8619 76.2963 60.09 102.163 60.0328C106.822 60.0245 110.89 64.2492 110.929 68.9545C111.073 83.5822 110.946 98.2177 110.986 112.845C110.946 115.507 111.266 118.381 109.993 120.823C108.576 123.851 105.438 125.853 102.163 125.976C96.2629 125.943 90.3546 125.992 84.4545 125.951C80.9158 125.577 79.1947 120.717 81.7242 118.169C83.1816 116.346 85.6631 116.623 87.7286 116.63C90.8191 116.606 93.9092 116.688 96.9916 116.598C99.6412 116.386 101.811 113.895 101.803 111.209C101.827 99.0157 101.843 86.8134 101.795 74.62C101.771 71.7872 99.281 69.2881 96.4949 69.3286C74.8793 69.3125 53.2718 69.3125 31.6643 69.3286C28.5661 69.2881 25.9242 72.2512 26.1802 75.377C26.1802 87.359 26.1562 99.3332 26.1884 111.307C26.2042 113.944 28.3576 116.346 30.9356 116.598C35.4427 116.794 39.982 116.386 44.4733 116.81C48.7565 117.778 48.8685 124.762 44.5535 125.739C38.4689 126.26 32.2484 125.812 26.1081 125.967C21.3287 126.089 17.0296 121.791 17.0296 116.932C16.9815 101.197 17.0137 85.4625 17.0137 69.7276C16.7572 65.2099 20.1278 60.806 24.5552 60.1466Z" fill="url(#paint2_linear)" stroke="url(#paint3_linear)" stroke-width="3"/>
</g>
<defs>
<linearGradient id="paint0_linear" x1="3" y1="30.0007" x2="125" y2="30.0007" gradientUnits="userSpaceOnUse">
<stop stop-color="#F237EF"/>
<stop offset="0.986957" stop-color="#FC5252"/>
</linearGradient>
<linearGradient id="paint1_linear" x1="3" y1="30.0007" x2="125" y2="30.0007" gradientUnits="userSpaceOnUse">
<stop stop-color="#F237EF"/>
<stop offset="0.986957" stop-color="#FC5252"/>
</linearGradient>
<linearGradient id="paint2_linear" x1="17" y1="93.0007" x2="111" y2="93.0007" gradientUnits="userSpaceOnUse">
<stop stop-color="#F237EF"/>
<stop offset="0.986957" stop-color="#FC5252"/>
</linearGradient>
<linearGradient id="paint3_linear" x1="17" y1="93.0007" x2="111" y2="93.0007" gradientUnits="userSpaceOnUse">
<stop stop-color="#F237EF"/>
<stop offset="0.986957" stop-color="#FC5252"/>
</linearGradient>
<clipPath id="clip0">
<rect width="128" height="128" fill="white"/>
</clipPath>
</defs>
</svg>
