<svg width="64" height="64" viewBox="0 0 64 64" fill="none" xmlns="http://www.w3.org/2000/svg">
<g clip-path="url(#clip0)">
<path d="M61.8017 2.19821C58.8709 -0.732713 54.1268 -0.733088 51.1955 2.19821C49.7567 3.63693 39.7852 13.6084 38.3924 15.0013H1.87495C0.839479 15.0013 0 15.8407 0 16.8762V62.1251C0 63.1605 0.839479 64 1.87495 64H47.1238C48.1593 64 48.9988 63.1605 48.9988 62.1251V25.6076C50.3647 24.2417 60.385 14.2214 61.8017 12.8047C64.7326 9.87377 64.7331 5.12951 61.8017 2.19821V2.19821ZM45.2489 60.25H3.7499V18.751H34.6426L32.8549 20.5387C27.0186 26.3751 22.4407 33.513 19.5574 41.2505H9.37476C8.33929 41.2505 7.49981 42.0899 7.49981 43.1254C7.49981 44.1609 8.33929 44.9991 9.37476 44.9991H20.8735H20.8747C21.0817 44.9991 21.3093 44.9588 21.4873 44.8973C29.7102 42.0529 37.3087 37.2974 43.4611 31.145L45.2489 29.3575V60.25ZM40.8096 28.4935C36.0466 33.2565 30.3569 37.1242 24.1763 39.8238C26.8758 33.6432 30.7435 27.9534 35.5065 23.1904L48.5439 10.153L53.847 15.4561C52.4905 16.8126 42.1003 27.2028 40.8096 28.4935ZM59.1501 10.153L56.4986 12.8046L51.1955 7.50145L53.847 4.84977C55.3125 3.38431 57.6845 3.38418 59.1501 4.84977C60.6157 6.31536 60.6157 8.6873 59.1501 10.153Z" fill="url(#paint0_linear)" stroke="url(#paint1_linear)"/>
</g>
<defs>
<linearGradient id="paint0_linear" x1="32.0001" y1="64" x2="32.0001" y2="-0.000106811" gradientUnits="userSpaceOnUse">
<stop stop-color="#FD3A84"/>
<stop offset="1" stop-color="#FFA68D"/>
</linearGradient>
<linearGradient id="paint1_linear" x1="32" y1="64" x2="32" y2="-0.00012207" gradientUnits="userSpaceOnUse">
<stop stop-color="#FD3A84"/>
<stop offset="1" stop-color="#FFA68D"/>
</linearGradient>
<clipPath id="clip0">
<rect width="64" height="64" fill="white"/>
</clipPath>
</defs>
</svg>
