<?xml version="1.0" encoding="UTF-8" ?>
<!DOCTYPE svg PUBLIC "-//W3C//DTD SVG 1.1//EN" "http://www.w3.org/Graphics/SVG/1.1/DTD/svg11.dtd">
<svg width="192pt" height="192pt" viewBox="0 0 192 192" version="1.1" xmlns="http://www.w3.org/2000/svg">
<g id="#c159efff">
<path fill="#c159ef" opacity="1.00" d=" M 56.74 29.04 C 57.27 25.41 62.23 23.61 64.94 26.09 C 68.98 30.06 72.56 34.46 76.44 38.58 C 77.00 38.59 78.11 38.61 78.66 38.63 C 82.18 34.46 85.32 29.90 89.40 26.26 C 91.80 24.13 95.94 24.67 97.58 27.47 C 99.73 31.06 100.31 35.30 101.45 39.27 C 119.79 43.40 137.60 52.60 149.34 67.60 C 159.93 81.06 164.26 98.26 166.05 115.00 C 167.58 130.51 167.37 146.22 165.30 161.67 C 164.98 164.61 161.70 166.79 158.88 165.87 C 156.35 165.28 154.67 162.59 155.15 160.05 C 157.25 141.46 157.49 122.48 153.89 104.05 C 151.43 91.70 146.71 79.37 137.84 70.18 C 126.81 58.52 111.46 51.78 95.88 48.82 C 91.85 48.00 91.75 43.22 90.93 40.03 C 87.63 43.31 85.61 49.47 80.06 49.07 C 77.41 49.05 74.65 49.35 72.07 48.59 C 69.97 47.42 68.59 45.36 66.97 43.65 C 66.97 46.68 67.58 50.04 65.85 52.75 C 57.81 65.93 49.98 79.26 43.10 93.10 C 40.63 98.29 38.03 103.49 36.58 109.08 C 35.76 113.35 37.10 118.63 41.03 120.97 C 42.71 122.17 44.52 120.85 45.83 119.78 C 48.14 118.04 48.16 114.22 51.16 113.26 C 54.34 111.85 58.25 114.57 58.19 118.01 C 57.91 120.46 56.82 122.72 56.14 125.07 C 59.23 120.05 61.91 114.35 67.18 111.21 C 76.83 105.56 85.45 98.29 93.34 90.41 C 96.73 87.14 98.93 82.83 100.05 78.29 C 100.72 75.82 101.23 72.64 104.08 71.78 C 107.74 70.29 111.95 74.01 110.85 77.82 C 109.33 84.86 107.30 91.84 106.67 99.05 C 106.18 113.12 98.40 125.98 88.40 135.47 C 80.78 142.72 75.43 152.10 71.99 161.98 C 71.44 163.84 70.06 165.55 68.06 165.90 C 64.24 167.01 60.47 162.60 62.13 158.96 C 66.01 147.18 72.54 136.14 81.59 127.60 C 88.71 120.81 94.26 112.06 96.06 102.28 C 90.15 107.68 83.98 112.84 77.26 117.22 C 74.68 118.93 71.65 120.19 69.79 122.77 C 66.77 126.77 65.14 132.01 60.76 134.85 C 56.14 137.88 49.08 136.61 46.59 131.43 C 42.04 132.33 37.10 131.52 33.52 128.43 C 25.94 122.17 24.22 110.72 27.99 101.90 C 35.30 82.97 46.16 65.70 56.33 48.23 C 57.10 41.90 56.17 35.41 56.74 29.04 Z" />
<path fill="#c159ef" opacity="1.00" d=" M 68.55 58.71 C 70.83 57.04 74.76 57.73 75.02 60.95 C 75.41 66.47 71.38 72.50 65.83 73.59 C 62.73 74.12 61.27 70.41 62.05 67.92 C 62.80 64.13 65.21 60.66 68.55 58.71 Z" />
<path fill="#c159ef" opacity="1.00" d=" M 44.37 101.54 C 48.09 100.33 51.96 104.22 50.74 107.94 C 49.94 111.79 44.42 113.04 41.95 110.04 C 39.34 107.40 40.75 102.39 44.37 101.54 Z" />
</g>
</svg>
