<?xml version="1.0" encoding="UTF-8" standalone="no"?>
<svg
   xmlns:dc="http://purl.org/dc/elements/1.1/"
   xmlns:cc="http://creativecommons.org/ns#"
   xmlns:rdf="http://www.w3.org/1999/02/22-rdf-syntax-ns#"
   xmlns:svg="http://www.w3.org/2000/svg"
   xmlns="http://www.w3.org/2000/svg"
   xmlns:sodipodi="http://sodipodi.sourceforge.net/DTD/sodipodi-0.dtd"
   xmlns:inkscape="http://www.inkscape.org/namespaces/inkscape"
   width="192pt"
   height="192pt"
   viewBox="0 0 192 192"
   version="1.1"
   id="svg53"
   sodipodi:docname="bitwarden.svg"
   inkscape:version="0.92.2 5c3e80d, 2017-08-06">
  <metadata
     id="metadata59">
    <rdf:RDF>
      <cc:Work
         rdf:about="">
        <dc:format>image/svg+xml</dc:format>
        <dc:type
           rdf:resource="http://purl.org/dc/dcmitype/StillImage" />
      </cc:Work>
    </rdf:RDF>
  </metadata>
  <defs
     id="defs57" />
  <sodipodi:namedview
     pagecolor="#ffffff"
     bordercolor="#666666"
     borderopacity="1"
     objecttolerance="10"
     gridtolerance="10"
     guidetolerance="10"
     inkscape:pageopacity="0"
     inkscape:pageshadow="2"
     inkscape:window-width="640"
     inkscape:window-height="480"
     id="namedview55"
     showgrid="false"
     inkscape:zoom="0.921875"
     inkscape:cx="128"
     inkscape:cy="128"
     inkscape:window-x="0"
     inkscape:window-y="0"
     inkscape:window-maximized="0"
     inkscape:current-layer="svg53" />
  <g
     id="#078affff"
     transform="matrix(1.060676,0,0,1.0697148,-7.9105705,-6.2950415)">
    <path
       d="M 27.62,11.69 C 30.5,9.3 34.39,8.74 38.01,8.73 c 14.74,0.01 29.48,0 44.22,0 -1.98,4.34 -6,7.33 -7.61,11.87 -13.2,0.17 -26.42,-0.28 -39.61,0.22 -0.18,25.73 0.01,51.47 -0.07,77.2 -0.02,2.52 0.06,5.04 0.32,7.55 0.18,2.07 0.58,4.11 1.03,6.14 -3.66,2.44 -6.19,6.17 -9.85,8.6 -2.13,-6.18 -3.37,-12.7 -3.33,-19.26 -0.01,-26.03 0.02,-52.07 0.01,-78.11 -0.1,-4.12 1.22,-8.55 4.5,-11.25 z"
       id="path2"
       inkscape:connector-curvature="0"
       style="opacity:1;fill:#078aff" />
  </g>
  <g
     id="#0c96ffff"
     transform="matrix(1.060676,0,0,1.0697148,-7.9105705,-6.2950415)">
    <path
       d="m 82.23,8.73 c 4.93,0.07 9.87,-0.12 14.79,0.08 3.89,0.27 5.79,4.4 5.31,7.88 -4.52,4.46 -6.88,10.69 -11.92,14.64 0.02,-3.58 -0.16,-7.17 0.11,-10.75 -5.3,0.05 -10.6,0.03 -15.9,0.02 1.61,-4.54 5.63,-7.53 7.61,-11.87 z"
       id="path5"
       inkscape:connector-curvature="0"
       style="opacity:1;fill:#0c96ff" />
  </g>
  <g
     id="#13a4ffff"
     transform="matrix(1.060676,0,0,1.0697148,-7.9105705,-6.2950415)">
    <path
       d="m 114.97,18.93 c -3.2,-3.13 -1.46,-9.26 3,-10.02 7.38,-0.41 14.8,-0.07 22.19,-0.17 -2.56,4.12 -5.77,7.79 -8.4,11.87 -5.55,-0.61 -11.85,1.54 -16.79,-1.68 z"
       id="path8"
       inkscape:connector-curvature="0"
       style="opacity:1;fill:#13a4ff" />
  </g>
  <g
     id="#19aeffff"
     transform="matrix(1.060676,0,0,1.0697148,-7.9105705,-6.2950415)">
    <path
       d="m 140.16,8.74 c 8.27,0.73 18.04,-2.3 24.92,3.73 -3,2.96 -4.53,7.25 -8.26,9.43 -0.13,-0.27 -0.4,-0.81 -0.53,-1.08 -8.16,-0.48 -16.36,-0.08 -24.53,-0.21 2.63,-4.08 5.84,-7.75 8.4,-11.87 z"
       id="path11"
       inkscape:connector-curvature="0"
       style="opacity:1;fill:#19aeff" />
  </g>
  <g
     id="#1ebaffff"
     transform="matrix(1.060676,0,0,1.0697148,-7.9105705,-6.2950415)">
    <path
       d="m 156.82,21.9 c 3.73,-2.18 5.26,-6.47 8.26,-9.43 0.84,1.21 1.74,2.39 2.38,3.71 2.11,7.6 0.69,15.62 1.07,23.41 -4.63,4.27 -7.38,10.15 -11.76,14.69 0.08,-10.79 -0.24,-21.6 0.05,-32.38 z"
       id="path14"
       inkscape:connector-curvature="0"
       style="opacity:1;fill:#1ebaff" />
  </g>
  <g
     id="#0000002c"
     transform="matrix(1.060676,0,0,1.0697148,-7.9105705,-6.2950415)">
    <path
       d="m 167.46,16.18 c 2.61,0.46 2.78,3.64 3.08,5.77 0.08,28.35 0.07,56.7 0.02,85.05 -0.09,5.22 -1.66,10.3 -3.54,15.12 -0.78,0.8 -1.77,1.23 -2.89,1.07 5.11,-11.5 4.53,-24.24 4.41,-36.52 0.13,-15.69 0.04,-31.39 -0.01,-47.08 -0.38,-7.79 1.04,-15.81 -1.07,-23.41 z"
       id="path17"
       inkscape:connector-curvature="0"
       style="opacity:0.17000002;fill:#000000" />
  </g>
  <g
     id="#119fffff"
     transform="matrix(1.060676,0,0,1.0697148,-7.9105705,-6.2950415)">
    <path
       d="m 90.41,31.33 c 5.04,-3.95 7.4,-10.18 11.92,-14.64 -0.04,10.98 0.02,21.96 -0.04,32.93 -4.97,3.72 -6.71,10.29 -11.88,13.75 -0.04,-10.68 -0.01,-21.36 0,-32.04 z"
       id="path20"
       inkscape:connector-curvature="0"
       style="opacity:1;fill:#119fff" />
  </g>
  <g
     id="#00000047"
     transform="matrix(1.060676,0,0,1.0697148,-7.9105705,-6.2950415)">
    <path
       d="m 114.97,18.93 c 4.94,3.22 11.24,1.07 16.79,1.68 8.17,0.13 16.37,-0.27 24.53,0.21 -0.1,0.47 -0.31,1.42 -0.41,1.89 -8.27,0.23 -16.6,-0.58 -24.82,0.57 -4.73,-1.02 -9.58,0.37 -14.25,-1.07 -1.18,-0.7 -1.37,-2.12 -1.84,-3.28 z"
       id="path23"
       inkscape:connector-curvature="0"
       style="opacity:0.28000004;fill:#000000" />
    <path
       d="m 35.01,20.82 c 13.19,-0.5 26.41,-0.05 39.61,-0.22 5.3,0.01 10.6,0.03 15.9,-0.02 -0.75,4.04 -5.64,2.12 -8.46,2.2 -13.01,-0.23 -26.02,0.04 -39.03,-0.13 -2.25,-0.08 -4.46,0.33 -6.65,0.8 -0.9,4.13 -0.5,8.37 -0.55,12.57 -0.01,18.3 0,36.6 -0.01,54.9 -0.05,4.89 0.35,9.81 -0.56,14.65 -0.26,-2.51 -0.34,-5.03 -0.32,-7.55 0.08,-25.73 -0.11,-51.47 0.07,-77.2 z"
       id="path25"
       inkscape:connector-curvature="0"
       style="opacity:0.28000004;fill:#000000" />
  </g>
  <g
     id="#24c7ffff"
     transform="matrix(1.060676,0,0,1.0697148,-7.9105705,-6.2950415)">
    <path
       d="m 156.77,54.28 c 4.38,-4.54 7.13,-10.42 11.76,-14.69 0.05,15.69 0.14,31.39 0.01,47.08 -5.31,3.31 -6.89,10 -11.81,13.73 -0.1,-15.38 0.07,-30.75 0.04,-46.12 z"
       id="path28"
       inkscape:connector-curvature="0"
       style="opacity:1;fill:#24c7ff" />
  </g>
  <g
     id="#16aaffff"
     transform="matrix(1.060676,0,0,1.0697148,-7.9105705,-6.2950415)">
    <path
       d="m 90.41,63.37 c 5.17,-3.46 6.91,-10.03 11.88,-13.75 0.03,12.32 0.04,24.63 0,36.94 -4.44,4.52 -7.22,10.38 -11.89,14.72 -0.01,-12.64 -0.01,-25.27 0.01,-37.91 z"
       id="path31"
       inkscape:connector-curvature="0"
       style="opacity:1;fill:#16aaff" />
    <path
       d="m 43.45,128.06 c 4.11,6.13 9.18,11.56 14.55,16.6 -2.85,2.79 -5.11,6.09 -7.27,9.42 -4.08,-3.83 -7.98,-7.85 -11.65,-12.08 -0.91,-1.12 -2.04,-2.24 -2.71,-3.44 2.84,-3.14 5.68,-6.42 7.08,-10.5 z"
       id="path33"
       inkscape:connector-curvature="0"
       style="opacity:1;fill:#16aaff" />
  </g>
  <g
     id="#1cb6ffff"
     transform="matrix(1.060676,0,0,1.0697148,-7.9105705,-6.2950415)">
    <path
       d="m 90.4,101.28 c 4.67,-4.34 7.45,-10.2 11.89,-14.72 0.05,12.37 0,24.74 0.03,37.11 -4.13,4.77 -7.1,10.53 -11.91,14.68 -0.04,-12.36 0,-24.71 -0.01,-37.07 z"
       id="path36"
       inkscape:connector-curvature="0"
       style="opacity:1;fill:#1cb6ff" />
    <path
       d="m 50.73,154.08 c 2.16,-3.33 4.42,-6.63 7.27,-9.42 5.2,4.81 10.86,9.11 16.78,13 -1.99,3.41 -4.43,6.52 -6.6,9.81 -6.12,-4.05 -12.03,-8.43 -17.45,-13.39 z"
       id="path38"
       inkscape:connector-curvature="0"
       style="opacity:1;fill:#1cb6ff" />
  </g>
  <g
     id="#29d1ffff"
     transform="matrix(1.060676,0,0,1.0697148,-7.9105705,-6.2950415)">
    <path
       d="m 156.73,100.4 c 4.92,-3.73 6.5,-10.42 11.81,-13.73 0.12,12.28 0.7,25.02 -4.41,36.52 -3.63,8.71 -9.13,16.54 -15.62,23.35 -12.6,13.58 -28.25,23.95 -44.74,32.2 -3.67,1.97 -8.01,3.31 -12.09,1.76 3.46,-4.78 6.81,-9.64 10.51,-14.23 14.14,-7.55 27.66,-16.71 38.47,-28.66 9.42,-10.04 16.36,-23.15 16.07,-37.21 z"
       id="path41"
       inkscape:connector-curvature="0"
       style="opacity:1;fill:#29d1ff" />
  </g>
  <g
     id="#12a0ffff"
     transform="matrix(1.060676,0,0,1.0697148,-7.9105705,-6.2950415)">
    <path
       d="m 26.44,120.31 c 3.66,-2.43 6.19,-6.16 9.85,-8.6 1.45,5.8 3.87,11.35 7.16,16.35 -1.4,4.08 -4.24,7.36 -7.08,10.5 -4.31,-5.46 -7.59,-11.7 -9.93,-18.25 z"
       id="path44"
       inkscape:connector-curvature="0"
       style="opacity:1;fill:#12a0ff" />
  </g>
  <g
     id="#0000003d"
     transform="matrix(1.060676,0,0,1.0697148,-7.9105705,-6.2950415)">
    <path
       d="m 164.13,123.19 c 1.12,0.16 2.11,-0.27 2.89,-1.07 -3.82,12.07 -11.94,22.32 -20.94,31.02 -11.89,11.87 -26.25,20.95 -41.21,28.46 -4.38,2.09 -9.78,3.06 -14.21,0.6 -16.38,-7.98 -32.16,-17.81 -44.83,-31.04 -2.59,-2.75 -6.06,-5.2 -6.75,-9.16 3.67,4.23 7.57,8.25 11.65,12.08 5.42,4.96 11.33,9.34 17.45,13.39 7.5,4.92 15.39,9.2 23.5,13.03 4.08,1.55 8.42,0.21 12.09,-1.76 16.49,-8.25 32.14,-18.62 44.74,-32.2 6.49,-6.81 11.99,-14.64 15.62,-23.35 z"
       id="path47"
       inkscape:connector-curvature="0"
       style="opacity:0.23999999;fill:#000000" />
  </g>
  <g
     id="#22c3ffff"
     transform="matrix(1.060676,0,0,1.0697148,-7.9105705,-6.2950415)">
    <path
       d="m 90.41,138.35 c 4.81,-4.15 7.78,-9.91 11.91,-14.68 -0.12,14.2 0.16,28.42 -0.13,42.6 -3.7,4.59 -7.05,9.45 -10.51,14.23 -8.11,-3.83 -16,-8.11 -23.5,-13.03 2.17,-3.29 4.61,-6.4 6.6,-9.81 4.97,3.08 9.92,6.26 15.24,8.73 l 0.34,-0.26 c 0.11,-9.25 0,-18.52 0.05,-27.78 z"
       id="path50"
       inkscape:connector-curvature="0"
       style="opacity:1;fill:#22c3ff" />
  </g>
</svg>
