<?xml version="1.0" encoding="UTF-8" ?>
<!DOCTYPE svg PUBLIC "-//W3C//DTD SVG 1.1//EN" "http://www.w3.org/Graphics/SVG/1.1/DTD/svg11.dtd">
<svg width="192pt" height="192pt" viewBox="0 0 192 192" version="1.1" xmlns="http://www.w3.org/2000/svg">
<g id="#ff6d4dff">
<path fill="#ff6d4d" opacity="1.00" d=" M 54.23 24.16 C 71.50 23.74 88.79 24.07 106.07 23.99 C 119.61 23.85 132.49 33.81 135.67 46.98 C 136.77 51.17 132.14 55.16 128.13 53.58 C 125.31 52.81 124.49 49.76 123.51 47.39 C 120.61 40.08 112.80 35.26 104.99 35.58 C 89.35 35.59 73.70 36.15 58.05 35.67 C 49.41 35.29 40.92 40.66 37.50 48.59 C 35.16 53.36 35.79 58.80 35.59 63.94 C 35.60 87.95 35.56 111.97 35.61 135.98 C 35.53 147.37 45.68 157.48 57.07 157.40 C 83.36 157.43 109.67 157.45 135.96 157.39 C 146.88 157.34 156.67 147.92 157.13 137.01 C 157.43 124.66 157.06 112.30 157.28 99.95 C 157.40 95.83 158.42 90.35 154.21 87.82 C 149.47 85.41 143.84 87.89 138.92 86.21 C 134.39 84.21 134.87 76.83 139.65 75.47 C 143.40 74.89 147.23 75.16 151.01 75.15 C 157.86 75.18 164.39 79.47 167.27 85.66 C 169.64 90.41 169.00 95.89 169.02 101.02 C 168.52 113.60 169.13 126.19 168.66 138.76 C 167.52 154.86 153.16 168.61 137.00 168.99 C 113.98 169.17 90.96 169.01 67.94 169.06 C 60.61 168.95 52.99 169.75 45.99 167.06 C 33.15 162.61 23.94 149.64 23.98 136.04 C 23.96 109.32 23.89 82.60 24.02 55.88 C 24.39 39.72 38.10 25.31 54.23 24.16 Z" />
<path fill="#ff6d4d" opacity="1.00" d=" M 65.37 65.40 C 74.88 64.91 84.44 65.47 93.97 65.29 C 96.70 65.45 99.95 64.78 102.14 66.86 C 104.58 68.97 104.65 73.12 102.30 75.32 C 100.14 77.48 96.80 77.00 94.02 77.06 C 84.44 76.59 74.82 77.22 65.26 76.58 C 59.77 75.36 59.84 66.51 65.37 65.40 Z" />
<path fill="#ff6d4d" opacity="1.00" d=" M 65.24 117.32 C 83.77 116.68 102.38 117.27 120.94 117.03 C 123.88 117.04 127.60 116.65 129.46 119.50 C 132.23 122.98 129.40 128.86 124.90 128.66 C 105.90 128.79 86.90 128.67 67.91 128.71 C 65.65 128.85 63.22 128.09 62.01 126.05 C 59.92 122.99 61.59 118.21 65.24 117.32 Z" />
</g>
</svg>
