<svg width="128" height="128" viewBox="0 0 128 128" fill="none" xmlns="http://www.w3.org/2000/svg">
<path d="M59.5136 12.8797L59.0665 8.99793L60.2486 7.04829C61.8947 4.32229 64.4826 4.37774 66.0197 7.17087L66.9476 8.852L123.736 116.211C125.972 120.443 124.259 122.536 119.91 120.884L56.2158 96.7028C54.0415 95.8827 52.9153 93.3727 53.7006 91.099C54.4887 88.8283 56.8922 87.6521 59.0665 88.4723L110.461 107.998L59.5136 12.8797Z" fill="url(#paint0_linear)"/>
<path d="M85.3581 114.237C87.6737 114.237 89.5531 116.191 89.5531 118.599C89.5531 121.007 87.6737 122.961 85.3581 122.961H9.76377C2.04772 122.961 0.523532 118.704 6.363 113.458L65.1381 60.6775C68.6423 57.5312 72.1074 58.831 72.8681 63.5796L75.5138 80.0699C75.8997 82.4456 74.3587 84.6992 72.0738 85.1005C69.7918 85.5018 67.6215 83.8996 67.2356 81.5239L65.6694 71.7244L18.3216 114.237H85.3581Z" fill="url(#paint1_linear)"/>
<path d="M24.7579 89.0205C23.5933 91.1163 21.0109 91.8343 18.9911 90.6259C16.9741 89.4175 16.2793 86.7379 17.4439 84.6421L51.1443 23.4612L59.1053 9.07086L63.2967 19.6958L58.5708 27.6061L24.7579 89.0205Z" fill="url(#paint2_linear)"/>
<defs>
<linearGradient id="paint0_linear" x1="42.5347" y1="26.6312" x2="89.5751" y2="137.266" gradientUnits="userSpaceOnUse">
<stop stop-color="#FE540C"/>
<stop offset="1" stop-color="#FF274E"/>
</linearGradient>
<linearGradient id="paint1_linear" x1="89.4798" y1="122.881" x2="20.0334" y2="75.9175" gradientUnits="userSpaceOnUse">
<stop stop-color="#02AA93"/>
<stop offset="1" stop-color="#67FF80"/>
</linearGradient>
<linearGradient id="paint2_linear" x1="40.0879" y1="91.2126" x2="40.0879" y2="9.07086" gradientUnits="userSpaceOnUse">
<stop stop-color="#5558FF"/>
<stop offset="1" stop-color="#00C0FF"/>
</linearGradient>
</defs>
</svg>
