<svg width="128" height="128" viewBox="0 0 128 128" fill="none" xmlns="http://www.w3.org/2000/svg">
<g clip-path="url(#clip0)">
<path d="M113.21 12.7794C120.613 13.896 126.545 19.1985 126.827 25.018C127.02 30.7712 127.056 36.5319 127.091 42.2926C123.656 39.9617 121.252 36.8798 117.677 34.6718C117.529 31.534 117.697 28.3935 117.423 25.2629C117.262 22.3321 113.848 19.8246 110.075 19.7474C106.032 19.63 24.0548 19.8874 20.0136 19.8551C17.7975 17.7754 21.8557 15.1744 19.9998 12.8908C27.175 12.4399 106.014 12.8958 113.21 12.7794Z" fill="#B118F0"/>
<path d="M127.058 42.4145C127.205 48.3175 127.297 54.221 127.303 60.1252C123.861 57.8043 121.67 54.5566 117.94 52.4641C117.808 46.5671 117.724 40.6635 117.687 34.7657C121.245 36.9818 123.638 40.075 127.058 42.4145Z" fill="#BB19E4"/>
<path d="M127.273 60.1328C127.435 65.4066 127.479 70.6814 127.515 75.9563C124.367 73.4375 121.903 70.3816 118.133 68.3506C118.018 63.058 117.927 57.7653 117.906 52.472C121.637 54.5644 123.829 57.8119 127.273 60.1328Z" fill="#C619D6"/>
<path d="M127.484 75.9639C127.6 81.3175 127.724 86.6649 127.682 92.0137C124.117 89.9687 122.067 86.7444 118.338 84.8412C118.213 79.3472 118.134 73.8529 118.103 68.3582C121.872 70.3892 124.336 73.4451 127.484 75.9639Z" fill="#D21AC8"/>
<path d="M127.652 92.0215C127.594 97.3277 129.013 103.103 125.27 107.898C122.191 106.368 119.676 104.186 118.536 101.448C118.418 95.9112 118.339 90.3804 118.307 84.8491C122.036 86.7523 124.086 89.9765 127.652 92.0215Z" fill="#DF1DB8"/>
<path d="M125.245 107.894C122.561 110.972 118.429 113.191 113.74 114.005C111.612 114.054 109.069 114.393 107.395 113.103C105.682 111.886 106.23 109.973 106.27 108.387C109.09 106.515 113.223 107.126 116.003 105.242C117.186 104.135 118.051 102.841 118.488 101.453C119.632 104.187 122.155 106.366 125.245 107.894Z" fill="#E922A5"/>
<path opacity="0.24" d="M110.013 19.7685C113.758 19.8459 117.146 22.3631 117.306 25.3052C117.577 28.4479 117.411 31.6004 117.557 34.7503C117.594 40.6492 117.678 46.5537 117.809 52.4518C117.83 57.7462 117.921 63.0401 118.035 68.3337C118.066 73.8295 118.144 79.325 118.269 84.8201C118.301 90.3526 118.38 95.8847 118.498 101.423C118.063 102.813 117.204 104.109 116.03 105.218C116.243 103.17 116.465 101.116 116.475 99.0645C116.128 75.2448 115.774 51.4252 115.466 27.6051C115.431 25.6695 115.281 23.4296 113.14 22.1291C108.963 19.2524 102.991 20.6537 97.9595 20.447L97.9739 19.8117C101.985 19.8441 106 19.6506 110.013 19.7685Z" fill="black"/>
<path opacity="0.24" d="M106.348 96.3242C104.059 96.8479 101.676 96.9534 99.3085 96.9615C98.8 102.755 99.4992 108.556 99.267 114.353C97.2089 114.492 95.1428 114.631 93.0753 114.667C68.8612 114.85 44.6397 115.063 20.4263 115.289C19.2976 115.292 18.2199 114.998 17.1505 114.733C24.9029 114.819 32.6594 114.637 40.4178 114.583C48.3263 114.54 56.2267 114.484 64.1343 114.38C71.222 114.35 78.3172 114.283 85.4041 114.198C89.9583 114.177 94.5046 114.163 99.0575 114.057C99.0773 111.597 99.026 109.131 98.9274 106.672C98.8702 103.246 98.8523 99.8143 98.7714 96.389C101.297 96.3613 103.823 96.3822 106.348 96.3242Z" fill="black"/>
<path opacity="0.24" d="M5.44283 108.455C7.70256 111.471 11.6797 113.378 15.8099 114.509C12.9568 114.809 10.1664 114.014 7.98408 112.61C3.91431 110.227 1.23713 106.397 1.17272 102.391C0.834528 77.3472 0.480633 52.2978 0.111127 27.2486C0.289314 24.3888 1.22669 21.1132 4.37907 19.3452C0.888332 23.6873 1.89184 28.9615 1.90579 33.8167C1.94825 40.1375 2.04527 46.4517 2.16578 52.7718C2.24948 60.9061 2.35658 69.0402 2.51833 77.1738C2.5815 84.9602 2.71501 92.752 2.81729 100.544C2.80936 103.299 3.4971 106.114 5.44283 108.455Z" fill="black"/>
<path opacity="0.22" d="M113.723 114.004C111.396 115.049 108.319 115.441 105.967 114.218C103.604 112.787 103.328 109.508 106.254 108.386C106.213 109.971 105.665 111.885 107.378 113.102C109.053 114.392 111.595 114.053 113.723 114.004Z" fill="black"/>
<path d="M104.59 89.0734C109.467 88.757 110.209 94.8348 106.366 96.3128C103.843 96.3711 101.319 96.3502 98.7956 96.378C98.8766 99.8157 98.8947 103.26 98.9521 106.698C95.3348 104.699 93.2615 101.48 89.4964 99.6283C89.4654 98.5739 89.4266 97.5195 89.3878 96.4713C88.268 96.4809 87.1403 96.4907 86.0206 96.5064C84.0138 94.0668 81.6859 91.7946 79.7652 89.3116C88.0368 89.1855 96.3173 89.1324 104.59 89.0734Z" fill="#EB24A1"/>
<path d="M98.9251 106.709C99.0238 109.178 99.0752 111.654 99.0556 114.124C94.5076 114.23 89.9663 114.245 85.4171 114.266C83.7799 111.725 81.6492 109.407 79.4874 107.121C82.7973 107.001 86.1356 107.216 89.4354 106.944C89.7 104.514 89.373 102.065 89.4721 99.637C93.2361 101.489 95.3088 104.71 98.9251 106.709Z" fill="#EF2E91"/>
<path opacity="0.15" d="M89.0058 96.7402C89.1394 99.9871 89.8268 103.351 88.7998 106.529C88.5551 106.519 88.0576 106.486 87.8129 106.47C86.2046 103.803 88.4797 100.194 85.9619 97.906C80.5932 97.0564 75.0549 98.1156 69.6413 97.431L70.1667 97.2071C76.4329 96.8484 82.7296 96.9527 89.0058 96.7402Z" fill="black"/>
<path d="M79.7533 89.2841C81.675 91.7632 84.0041 94.0319 86.012 96.4677C82.225 96.5246 78.4377 96.5571 74.6419 96.5532C73.1352 96.5905 71.4842 96.4708 70.1766 97.1759L69.6511 97.3995C66.3206 95.1881 63.7864 92.3734 61.645 89.4335C67.6805 89.3451 73.7164 89.2811 79.7533 89.2841Z" fill="#F02F90"/>
<path d="M79.4649 107.078C81.6274 109.364 83.7589 111.68 85.3967 114.22C78.3148 114.305 71.2248 114.372 64.1422 114.403C62.5446 111.918 60.4612 109.65 58.7147 107.233C59.2191 107.204 60.228 107.152 60.7325 107.13C60.627 103.638 60.6951 100.151 60.4319 96.6665C55.7554 96.725 51.0706 96.7532 46.3857 96.7813C44.403 94.3907 42.3186 92.0558 40.4535 89.6154C47.5115 89.518 54.5699 89.445 61.6213 89.433C63.7618 92.377 66.2949 95.1957 69.6238 97.4102C70.2383 100.642 69.9542 103.917 70.1035 107.165C73.2263 107.12 76.3416 107.093 79.4649 107.078Z" fill="#F23C7E"/>
<path d="M58.6912 107.209C60.4375 109.626 62.5209 111.894 64.1183 114.38C56.2169 114.485 48.3227 114.541 40.4204 114.584C38.6763 111.228 35.7625 108.254 31.845 106.233C31.682 103.126 31.6452 100.023 31.6556 96.9139C28.7755 96.8229 25.7224 97.3186 22.9663 96.5315C20.6244 94.9301 21.4317 92.3872 22.0807 90.3516C23.4793 89.986 24.9095 89.6201 26.4089 89.6742C31.0856 89.6461 35.7539 89.5876 40.431 89.59C42.296 92.0306 44.3803 94.3658 46.3629 96.7567C44.5492 96.7784 42.7434 96.8062 40.9379 96.8522L40.9621 97.4372C41.0729 100.746 41.0812 104.063 41.129 107.379C46.9879 107.298 52.8405 107.32 58.6912 107.209Z" fill="#F34F68"/>
<path d="M31.824 106.204C35.7383 108.226 38.6496 111.202 40.3923 114.561C32.6464 114.616 24.9023 114.799 17.1622 114.713C16.8384 114.661 16.1828 114.557 15.859 114.511C11.6896 113.381 7.67459 111.476 5.39313 108.463C3.42873 106.125 2.73417 103.313 2.74187 100.561C2.63777 92.7767 2.50214 84.9927 2.43753 77.2143C5.76328 79.4125 8.27115 82.2767 11.8772 84.2407C12.1099 90.0043 12.0351 95.7644 12.1969 101.529C12.1155 104.641 15.6147 107.393 19.6116 107.486C23.5059 107.569 27.4058 107.499 31.2964 107.331L31.8556 107.308C31.8437 107.027 31.8279 106.478 31.824 106.204Z" fill="#F35C58"/>
<path opacity="0.24" d="M31.6326 96.8844C31.6222 99.9971 31.659 103.103 31.8218 106.215C31.8257 106.489 31.8415 107.038 31.8534 107.319L31.2946 107.342C30.9237 107.284 30.174 107.175 29.8032 107.123C29.3664 104.13 30.4763 100.813 28.6491 98.0515C26.3283 97.6565 23.8989 97.9277 21.6005 97.4532C18.5123 95.7161 18.8267 91.8378 22.0728 90.3145C21.4249 92.3525 20.6189 94.8984 22.9571 96.5016C25.7088 97.2896 28.757 96.7933 31.6326 96.8844Z" fill="black"/>
<path d="M19.7893 13.1948C23.2493 13.5734 24.6188 17.2132 22.407 19.1648C21.0382 20.5056 18.6056 20.2705 16.6958 20.7442C14.3677 21.191 12.8677 22.734 11.5794 24.1839C9.51611 22.2143 7.38252 20.2879 5.10066 18.4726C8.6891 15.1741 14.0815 12.8172 19.7893 13.1948Z" fill="#EB23A1"/>
<path d="M5.07465 18.4688C7.34888 20.2868 9.47534 22.216 11.5317 24.1885C10.7805 29.9219 11.6023 35.7087 11.3545 41.4621C7.67655 39.3265 5.26598 36.2214 1.92989 33.8082C1.91541 28.9545 0.904483 23.6822 4.41899 19.3414C4.5809 19.1202 4.91266 18.6838 5.07465 18.4688Z" fill="#F0308E"/>
<path d="M11.317 41.4702C11.5093 47.7759 11.5837 54.0827 11.5875 60.39C7.83522 58.3282 5.34117 55.2785 2.16365 52.766C2.04191 46.4474 1.9438 40.1348 1.90058 33.8156C5.23377 36.2291 7.64222 39.3344 11.317 41.4702Z" fill="#F23D7D"/>
<path d="M11.5427 60.3986C11.7579 68.3288 11.8633 76.2661 11.8824 84.2041C8.29186 82.2384 5.79487 79.3718 2.48346 77.1716C2.32032 69.0395 2.21211 60.9068 2.12743 52.774C5.30205 55.2867 7.79381 58.3366 11.5427 60.3986Z" fill="#F34D6A"/>
</g>
<defs>
<clipPath id="clip0">
<rect width="128" height="128" fill="white"/>
</clipPath>
</defs>
</svg>
