<svg width="192" height="192" viewBox="0 0 192 192" fill="none" xmlns="http://www.w3.org/2000/svg">
<path d="M10.1144 31.5991C13.3244 28.1302 18.2294 27.0308 22.7742 27.0629C75.0447 27.0949 127.305 27.0629 179.565 27.0202C183.95 26.6466 187.68 31.5351 186.048 35.6765C185.095 38.8786 181.662 40.3088 178.59 40.2234C129.847 40.2554 81.1045 40.2234 32.3617 40.2448C27.9123 40.2661 23.4416 40.106 18.9922 40.4369C18.8121 42.4649 18.6955 44.4929 18.6955 46.5315C18.7273 83.174 18.6638 119.817 18.7273 156.459C18.8968 159.533 18.24 163.269 15.083 164.614C11.0679 166.962 5.67558 163.205 6.04637 158.658C5.95103 120.564 6.03578 82.4589 6.01459 44.3541C5.95103 39.8285 6.8727 34.9507 10.1144 31.5991Z" fill="url(#paint0_linear)"/>
<path d="M155.273 62.606C160.623 57.7708 168.579 55.444 175.422 58.2832C181.863 60.6527 185.571 67.6119 185.72 74.2829C186.08 95.2672 185.529 116.262 185.879 137.247C185.953 145.241 181.916 152.926 175.772 157.868C169.744 162.831 161.936 165.361 154.192 165.307C115.726 165.318 77.2483 165.318 38.7817 165.307C36.4192 165.617 34.5229 164.048 32.8914 162.554C29.9993 158.829 32.9656 152.574 37.7223 152.713C76.1783 152.585 114.645 152.723 153.101 152.627C159.542 152.734 166.396 150.525 170.464 145.241C172.774 142.402 173.357 138.634 173.261 135.069C173.219 114.811 173.272 94.5521 173.102 74.2936C173.314 71.7213 171.132 70.2376 169.024 69.4264C166.947 70.1629 164.839 70.9634 163.197 72.5004C146.564 87.0699 129.964 101.693 113.299 116.23C108.32 120.617 101.625 123.446 94.9296 122.57C89.7703 121.951 85.1196 119.133 81.5706 115.408C66.9298 100.561 52.289 85.725 37.6269 70.9101C36.7688 69.9921 35.8789 69.0528 35.3704 67.8788C37.9236 64.7941 40.9746 62.1043 43.9091 59.3719C59.6094 74.902 74.9282 90.8377 90.5331 106.475C92.5671 108.385 95.0991 110.242 98.0336 110.018C100.905 109.901 103.288 108.086 105.418 106.314C122.039 91.7556 138.63 77.1328 155.273 62.606Z" fill="url(#paint1_linear)"/>
<defs>
<linearGradient id="paint0_linear" x1="96.2195" y1="165.335" x2="96.2195" y2="27" gradientUnits="userSpaceOnUse">
<stop stop-color="#5570FF"/>
<stop offset="1" stop-color="#4DD3FF"/>
</linearGradient>
<linearGradient id="paint1_linear" x1="108.815" y1="165.347" x2="108.815" y2="57.0509" gradientUnits="userSpaceOnUse">
<stop stop-color="#5570FF"/>
<stop offset="1" stop-color="#4DD3FF"/>
</linearGradient>
</defs>
</svg>
