<svg width="192" height="192" viewBox="0 0 192 192" fill="none" xmlns="http://www.w3.org/2000/svg">
<path d="M81.9118 1.00989C102.668 -2.01642 124.495 1.77261 142.766 12.1925C146.641 14.3822 147.195 20.3856 143.885 23.3258C141.523 25.7985 137.598 25.8354 134.793 24.1131C119.229 15.6739 100.872 12.4754 83.3882 15.2803C63.7638 18.2574 45.4436 28.7756 32.8816 44.1163C20.3687 59.174 13.5894 78.8696 14.2415 98.4422C14.6106 111.999 18.4617 125.433 25.3025 137.144C27.2219 139.986 27.2957 144.12 24.7366 146.605C21.9313 149.606 16.407 149.373 14.0447 145.953C-4.71846 116.169 -4.62003 75.8556 13.9708 46.0108C28.5015 21.9603 54.0562 4.93424 81.9118 1.00989Z" fill="url(#paint0_linear)"/>
<path d="M89.5524 51.2884C91.6563 45.9001 100.306 45.9124 102.385 51.313C113.409 78.5621 124.15 105.934 135.051 133.22C136.946 136.751 135.679 141.622 131.926 143.296C128.457 144.981 123.732 143.431 122.317 139.74C119.229 132.31 116.35 124.793 113.348 117.314C101.758 117.252 90.1675 117.277 78.5775 117.301C75.5631 124.806 72.6717 132.384 69.5466 139.839C67.8733 144.132 61.7337 145.276 58.4117 142.238C55.7418 140.035 55.4096 136.074 56.923 133.109C67.8363 105.848 78.5406 78.5006 89.5524 51.2884ZM84.2864 102.957C92.0623 102.994 99.8505 102.994 107.626 102.957C103.739 93.1769 99.8013 83.4214 95.9626 73.6413C92.1115 83.4214 88.1866 93.1892 84.2864 102.957Z" fill="url(#paint1_linear)"/>
<path d="M172.479 49.5907C175.912 47.93 180.366 49.603 181.892 53.0845C191.193 71.5253 194.158 93.0293 190.443 113.328C187.281 130.944 178.976 147.577 166.881 160.764C151.231 178 129.096 189.256 105.892 191.483C88.5312 193.291 70.6417 190.351 54.8929 182.785C49.6516 180.743 49.4178 172.513 54.4623 170.102C57.2183 168.379 60.4419 169.61 63.0995 170.864C84.2741 180.362 109.534 180.005 130.499 170.077C150.037 161.01 165.651 143.911 172.885 123.625C180.391 103.019 179.025 79.4478 169.268 59.8138C167.139 56.2708 168.616 51.19 172.479 49.5907Z" fill="url(#paint2_linear)"/>
<defs>
<linearGradient id="paint0_linear" x1="21.3896" y1="126.922" x2="126.518" y2="23.6611" gradientUnits="userSpaceOnUse">
<stop stop-color="#0072FF"/>
<stop offset="1" stop-color="#00E5A1"/>
</linearGradient>
<linearGradient id="paint1_linear" x1="67.7246" y1="129.81" x2="134.886" y2="74.3295" gradientUnits="userSpaceOnUse">
<stop stop-color="#0072FF"/>
<stop offset="1" stop-color="#00E5A1"/>
</linearGradient>
<linearGradient id="paint2_linear" x1="71.4924" y1="171.05" x2="172.639" y2="71.2269" gradientUnits="userSpaceOnUse">
<stop stop-color="#0072FF"/>
<stop offset="1" stop-color="#00E5A1"/>
</linearGradient>
</defs>
</svg>
