<?xml version="1.0" encoding="UTF-8" ?>
<!DOCTYPE svg PUBLIC "-//W3C//DTD SVG 1.1//EN" "http://www.w3.org/Graphics/SVG/1.1/DTD/svg11.dtd">
<svg width="192pt" height="192pt" viewBox="0 0 192 192" version="1.1" xmlns="http://www.w3.org/2000/svg">
<g id="#19b1ffff">
<path fill="#19b1ff" opacity="1.00" d=" M 94.05 10.05 C 97.39 8.80 100.73 10.65 102.73 13.28 C 114.74 26.43 132.29 33.82 150.02 34.11 C 159.11 34.03 167.46 41.84 167.60 51.01 C 167.71 62.65 167.65 74.30 167.63 85.95 C 166.56 99.15 164.91 112.51 160.02 124.92 C 153.68 141.92 141.69 156.70 126.44 166.53 C 117.92 172.20 108.39 176.12 98.85 179.72 C 95.00 181.42 91.35 178.40 87.76 177.34 C 68.07 170.01 49.98 156.92 39.28 138.56 C 29.59 122.47 26.15 103.51 25.15 84.99 C 25.15 73.98 25.15 62.96 25.16 51.95 C 24.93 44.86 29.56 37.99 36.15 35.43 C 40.24 33.74 44.77 34.26 49.07 33.67 C 64.19 32.15 78.65 25.13 89.15 14.13 C 90.70 12.70 91.95 10.71 94.05 10.05 M 92.93 26.85 C 79.79 38.47 62.52 45.23 45.00 45.82 C 42.12 45.86 38.55 46.45 37.43 49.56 C 36.32 53.97 37.40 58.55 36.94 63.03 C 37.32 71.73 36.43 80.45 37.32 89.13 C 38.05 96.55 38.86 103.99 40.77 111.22 C 44.21 125.16 51.42 138.29 61.98 148.10 C 71.67 157.33 83.87 163.30 96.30 167.92 C 112.41 162.17 128.05 153.37 138.50 139.48 C 150.97 123.48 154.93 102.76 155.76 82.95 C 155.70 72.60 155.80 62.25 155.71 51.91 C 155.75 49.48 154.14 47.05 151.77 46.38 C 149.21 45.82 146.58 45.83 143.98 45.60 C 126.27 44.20 109.18 36.39 96.55 23.89 C 95.25 24.77 94.07 25.79 92.93 26.85 Z" />
<path fill="#19b1ff" opacity="1.00" d=" M 108.44 63.31 C 111.70 59.83 118.10 62.31 118.40 66.99 C 118.85 69.59 116.99 71.67 115.27 73.33 C 109.09 79.35 103.16 85.63 96.87 91.53 C 102.90 91.69 108.94 91.42 114.97 91.72 C 119.34 92.26 121.47 98.25 118.42 101.41 C 108.33 111.64 98.10 121.75 87.96 131.93 C 86.07 134.18 82.44 134.53 80.06 132.90 C 77.23 130.95 76.64 126.49 79.11 124.01 C 85.86 117.08 92.80 110.34 99.58 103.44 C 93.36 103.40 87.12 103.70 80.91 103.30 C 76.75 102.16 75.17 96.33 78.37 93.37 C 88.37 83.33 98.38 73.29 108.44 63.31 Z" />
</g>
</svg>
