<svg width="64" height="64" viewBox="0 0 64 64" fill="none" xmlns="http://www.w3.org/2000/svg">
<g clip-path="url(#clip0)">
<path d="M22.8452 2.43486C30.1716 0.0978952 38.3698 0.636558 45.3232 3.89754C46.5345 4.44034 47.423 5.96517 46.6812 7.21238C46.2411 8.13639 45.21 8.48445 44.2879 8.72892C40.6666 6.93062 36.6346 5.77871 32.5607 5.86572C23.9056 5.57153 15.326 10.0176 10.4976 17.0989C4.89385 24.9095 4.36574 35.8444 9.03905 44.206C12.5765 50.6783 19.0311 55.5097 26.303 57.1008C33.0343 58.5759 40.3649 57.395 46.1824 53.6989C50.5539 50.9559 54.0621 46.9076 56.1787 42.242C59.2802 35.2767 59.1168 26.9481 55.6506 20.1486C55.0596 19.1085 54.1165 17.8572 54.9171 16.6597C55.6967 14.9277 58.3707 14.9898 59.2341 16.6265C62.8428 22.9745 64.3308 30.6732 62.6333 37.8167C60.4035 49.5347 50.5917 59.388 38.7806 61.783C35.3898 62.4999 31.8733 63.0592 28.4364 62.3134C21.2777 61.4805 14.4752 58.0994 9.53363 52.9199C5.38423 48.6024 2.51319 43.0541 1.52404 37.1744C-0.144101 28.7382 2.24913 19.6886 7.58048 12.9346C11.4281 8.00794 16.8307 4.28703 22.8452 2.43486Z" fill="url(#paint0_linear)" stroke="url(#paint1_linear)" stroke-width="3"/>
<path d="M29.1783 15.1514C30.7207 14.9194 32.2924 14.9194 33.8348 15.1473C36.9196 15.9346 40.0379 16.9953 42.4228 19.1748C46.283 22.4731 48.5211 27.5821 48.2697 32.6165C47.7751 38.1606 44.4933 43.4851 39.4595 46.1038C36.249 47.7446 32.5271 48.7059 28.9184 47.9891C26.4791 47.4131 24.0523 46.6176 21.9986 45.1508C17.4929 42.1053 14.7811 36.7642 14.7686 31.3942C14.9488 26.368 17.4217 21.4123 21.5501 18.4207C23.7631 16.6804 26.5 15.8807 29.1783 15.1514ZM29.0064 20.1113C24.6223 21.0353 20.8837 24.5739 19.9406 28.9246C18.9221 32.9107 20.2717 37.3733 23.323 40.1619C26.5042 43.195 31.4793 44.3096 35.6161 42.6729C41.287 40.7503 44.7574 34.1621 42.9677 28.4771C41.4881 22.6347 34.9329 18.6942 29.0064 20.1113Z" fill="url(#paint2_linear)" stroke="url(#paint3_linear)" stroke-width="3"/>
<path d="M26.7222 30.1967C26.0096 28.5641 27.4892 26.5628 29.2537 26.6084C30.7542 26.5835 32.2589 26.5877 33.7635 26.6084C35.6287 26.5669 37.125 28.8169 36.161 30.4577C35.7921 31.4356 34.7443 31.8085 33.8306 32.1234C33.8725 33.6814 33.9396 35.2477 33.839 36.8057C33.8348 37.9451 32.7409 38.7034 31.7182 38.9272C30.5446 38.9355 29.1741 38.0487 29.1866 36.7891C29.107 35.227 29.1783 33.6566 29.1657 32.0903C28.1388 31.8293 27.0281 31.2906 26.7222 30.1967Z" fill="url(#paint4_linear)" stroke="url(#paint5_linear)" stroke-width="3"/>
</g>
<defs>
<linearGradient id="paint0_linear" x1="32.1667" y1="62.6667" x2="32.1667" y2="1" gradientUnits="userSpaceOnUse">
<stop stop-color="#02AA93"/>
<stop offset="1" stop-color="#67FF80"/>
</linearGradient>
<linearGradient id="paint1_linear" x1="32.1667" y1="62.6667" x2="32.1667" y2="1" gradientUnits="userSpaceOnUse">
<stop stop-color="#02AA93"/>
<stop offset="1" stop-color="#67FF80"/>
</linearGradient>
<linearGradient id="paint2_linear" x1="31.5287" y1="48.2295" x2="31.5287" y2="14.9769" gradientUnits="userSpaceOnUse">
<stop stop-color="#02AA93"/>
<stop offset="1" stop-color="#67FF80"/>
</linearGradient>
<linearGradient id="paint3_linear" x1="31.5287" y1="48.2295" x2="31.5287" y2="14.9769" gradientUnits="userSpaceOnUse">
<stop stop-color="#02AA93"/>
<stop offset="1" stop-color="#67FF80"/>
</linearGradient>
<linearGradient id="paint4_linear" x1="31.5008" y1="38.9272" x2="31.5008" y2="26.5912" gradientUnits="userSpaceOnUse">
<stop stop-color="#02AA93"/>
<stop offset="1" stop-color="#67FF80"/>
</linearGradient>
<linearGradient id="paint5_linear" x1="31.5008" y1="38.9272" x2="31.5008" y2="26.5912" gradientUnits="userSpaceOnUse">
<stop stop-color="#02AA93"/>
<stop offset="1" stop-color="#67FF80"/>
</linearGradient>
<clipPath id="clip0">
<rect width="64" height="64" fill="white"/>
</clipPath>
</defs>
</svg>
