<?xml version="1.0" encoding="UTF-8" ?>
<!DOCTYPE svg PUBLIC "-//W3C//DTD SVG 1.1//EN" "http://www.w3.org/Graphics/SVG/1.1/DTD/svg11.dtd">
<svg width="192pt" height="192pt" viewBox="0 0 192 192" version="1.1" xmlns="http://www.w3.org/2000/svg">
<g id="#12a0ffff">
<path fill="#12a0ff" opacity="1.00" d=" M 92.07 17.03 C 97.57 15.33 103.79 15.36 108.99 18.04 C 115.16 21.13 119.56 27.16 121.13 33.83 C 122.34 42.64 118.43 52.08 110.64 56.63 C 103.62 61.15 94.43 60.56 87.30 56.62 C 83.95 54.29 81.15 51.18 79.29 47.54 C 78.97 46.98 78.34 45.85 78.03 45.28 C 75.75 45.99 73.47 46.70 71.24 47.54 C 71.17 42.67 75.50 39.64 77.89 35.88 C 81.64 30.23 86.42 25.18 89.06 18.87 C 89.46 17.55 90.99 17.46 92.07 17.03 M 90.83 31.87 C 88.63 34.70 88.82 38.42 89.35 41.77 L 90.01 41.76 C 91.93 48.04 100.86 50.05 105.60 45.67 C 110.32 42.14 110.63 34.52 106.27 30.58 C 102.14 26.14 94.18 26.85 90.83 31.87 Z" />
</g>
<g id="#0c94ffff">
<path fill="#0c94ff" opacity="1.00" d=" M 76.97 32.95 C 79.80 27.56 82.42 20.47 89.06 18.87 C 86.42 25.18 81.64 30.23 77.89 35.88 C 75.50 39.64 71.17 42.67 71.24 47.54 C 65.76 50.39 60.32 53.50 55.88 57.85 C 46.40 66.90 40.40 79.34 38.44 92.25 C 37.90 95.02 38.07 98.05 36.69 100.59 C 35.09 103.21 31.74 102.90 29.10 103.04 C 27.20 101.18 25.52 98.85 26.07 96.01 C 27.36 78.21 35.37 60.71 48.51 48.54 C 56.51 40.99 66.71 36.48 76.97 32.95 Z" />
</g>
<g id="#010c134d">
<path fill="#010c13" opacity="0.30" d=" M 90.83 31.87 C 94.18 26.85 102.14 26.14 106.27 30.58 C 102.19 29.84 97.37 28.97 93.92 31.92 C 90.81 34.17 89.18 37.96 90.01 41.76 L 89.35 41.77 C 88.82 38.42 88.63 34.70 90.83 31.87 Z" />
</g>
<g id="#010c1349">
<path fill="#010c13" opacity="0.29" d=" M 121.13 33.83 C 122.81 40.16 122.10 47.65 117.98 52.97 C 111.48 62.20 97.06 65.12 87.98 58.05 C 87.81 57.69 87.47 56.98 87.30 56.62 C 94.43 60.56 103.62 61.15 110.64 56.63 C 118.43 52.08 122.34 42.64 121.13 33.83 Z" />
</g>
<g id="#1ab2ffff">
<path fill="#1ab2ff" opacity="1.00" d=" M 132.35 52.64 C 129.28 49.15 132.25 42.79 137.01 43.27 C 141.60 43.83 144.73 47.89 148.17 50.61 C 145.55 53.53 139.74 56.14 141.97 60.87 C 138.93 57.94 135.36 55.60 132.35 52.64 Z" />
</g>
<g id="#010a1149">
<path fill="#010a11" opacity="0.29" d=" M 71.24 47.54 C 73.47 46.70 75.75 45.99 78.03 45.28 C 78.34 45.85 78.97 46.98 79.29 47.54 C 66.93 50.66 56.54 59.00 49.18 69.19 C 43.02 78.55 39.58 89.50 38.42 100.59 C 38.01 104.97 31.31 106.90 29.10 103.04 C 31.74 102.90 35.09 103.21 36.69 100.59 C 38.07 98.05 37.90 95.02 38.44 92.25 C 40.40 79.34 46.40 66.90 55.88 57.85 C 60.32 53.50 65.76 50.39 71.24 47.54 Z" />
</g>
<g id="#20bfffff">
<path fill="#20bfff" opacity="1.00" d=" M 141.97 60.87 C 139.74 56.14 145.55 53.53 148.17 50.61 C 159.39 60.56 167.66 74.19 170.19 89.05 C 165.54 89.45 163.07 93.90 159.58 96.40 C 158.12 82.91 151.37 70.49 141.97 60.87 Z" />
</g>
<g id="#27ccffff">
<path fill="#27ccff" opacity="1.00" d=" M 159.58 96.40 C 163.07 93.90 165.54 89.45 170.19 89.05 L 170.65 88.95 C 170.90 94.29 171.73 99.63 171.30 104.99 C 171.11 110.59 169.63 116.02 168.92 121.55 C 169.30 122.00 170.06 122.88 170.45 123.32 C 173.00 126.27 174.45 130.00 175.27 133.78 C 176.34 143.07 171.55 152.88 162.99 156.95 C 156.13 160.58 147.78 159.41 141.18 155.78 C 135.02 151.66 131.02 144.44 131.19 136.99 C 131.12 128.04 137.16 119.51 145.57 116.49 C 149.48 114.85 153.79 115.19 157.94 115.23 C 159.31 109.04 159.83 102.72 159.58 96.40 M 150.19 128.05 C 143.39 128.73 140.94 138.79 145.39 143.58 C 149.61 149.41 159.62 148.02 162.50 141.56 C 165.91 135.23 160.25 126.31 153.00 127.28 C 151.56 126.23 150.62 126.48 150.19 128.05 Z" />
</g>
<g id="#0414193f">
<path fill="#041419" opacity="0.25" d=" M 170.65 88.95 C 173.95 93.90 172.21 100.38 172.67 106.00 C 173.22 111.90 171.34 117.56 170.45 123.32 C 170.06 122.88 169.30 122.00 168.92 121.55 C 169.63 116.02 171.11 110.59 171.30 104.99 C 171.73 99.63 170.90 94.29 170.65 88.95 Z" />
</g>
<g id="#109dffff">
<path fill="#109dff" opacity="1.00" d=" M 18.02 125.19 C 20.09 116.87 27.49 110.23 35.96 108.95 C 40.94 108.20 46.09 109.32 50.49 111.73 C 48.31 114.93 46.03 118.05 43.74 121.18 C 39.44 120.09 34.30 120.68 31.46 124.44 C 28.12 128.31 28.86 134.16 31.91 137.96 C 29.49 141.07 27.09 144.19 24.66 147.29 C 18.74 141.85 15.65 133.03 18.02 125.19 Z" />
</g>
<g id="#16a9ffff">
<path fill="#16a9ff" opacity="1.00" d=" M 50.49 111.73 C 58.89 116.30 63.21 126.74 60.97 135.96 C 60.15 139.73 57.92 142.95 55.74 146.05 C 59.17 149.84 63.36 152.78 67.54 155.67 C 64.73 158.51 61.42 161.48 61.86 165.89 C 59.63 164.55 57.43 163.14 55.28 161.69 C 51.57 158.95 48.38 155.59 45.01 152.47 C 37.88 153.42 30.10 152.39 24.66 147.29 C 27.09 144.19 29.49 141.07 31.91 137.96 C 34.67 140.12 38.26 141.64 41.79 140.72 C 47.22 139.53 50.80 133.39 49.19 128.07 C 48.51 125.04 46.02 123.04 43.74 121.18 C 46.03 118.05 48.31 114.93 50.49 111.73 Z" />
</g>
<g id="#08293476">
<path fill="#082934" opacity="0.46" d=" M 150.19 128.05 C 150.62 126.48 151.56 126.23 153.00 127.28 C 152.20 128.05 151.26 128.31 150.19 128.05 Z" />
</g>
<g id="#0311154c">
<path fill="#031115" opacity="0.30" d=" M 175.27 133.78 C 176.93 140.04 176.13 147.63 171.61 152.61 C 167.42 157.91 160.92 161.79 153.98 161.07 C 149.47 160.80 143.45 160.32 141.18 155.78 C 147.78 159.41 156.13 160.58 162.99 156.95 C 171.55 152.88 176.34 143.07 175.27 133.78 Z" />
</g>
<g id="#22c2ffff">
<path fill="#22c2ff" opacity="1.00" d=" M 67.54 155.67 C 83.38 165.05 103.42 164.96 120.20 158.16 C 124.06 156.12 128.52 158.89 129.36 162.93 C 128.74 164.88 128.29 167.26 126.26 168.27 C 122.85 170.23 119.02 171.29 115.26 172.33 C 97.52 177.01 77.77 175.41 61.86 165.89 C 61.42 161.48 64.73 158.51 67.54 155.67 Z" />
</g>
<g id="#020a0e43">
<path fill="#020a0e" opacity="0.26" d=" M 55.28 161.69 C 57.43 163.14 59.63 164.55 61.86 165.89 C 77.77 175.41 97.52 177.01 115.26 172.33 C 119.02 171.29 122.85 170.23 126.26 168.27 C 128.29 167.26 128.74 164.88 129.36 162.93 C 130.44 166.04 129.55 169.93 126.20 171.16 C 111.24 177.66 93.96 179.01 78.20 174.76 C 70.80 172.45 63.71 169.06 57.32 164.66 C 56.19 164.02 55.79 162.77 55.28 161.69 Z" />
</g>
</svg>
