<svg width="64" height="64" viewBox="0 0 64 64" fill="none" xmlns="http://www.w3.org/2000/svg">
<path d="M3.00944 13.3222C2.87666 11.6422 4.16375 10.0072 5.70013 10.0223C7.61315 10.0102 9.52888 10.0162 11.4419 10.0223C12.8753 9.99521 14.1516 11.4228 14.1488 13.0066C14.1651 17.8273 14.1678 22.6479 14.1488 27.4686C14.1624 28.4183 13.3685 29.2538 12.5122 29.1727C11.7074 29.1667 10.9975 28.3462 11.0327 27.4536C11.0138 22.8072 11.0382 18.1579 11.0192 13.5115C9.3961 13.5115 7.77302 13.5115 6.15264 13.5115C6.13638 26.0741 6.15535 38.6367 6.13638 51.1962C6.17974 51.9987 5.6649 52.7861 4.95497 52.9574C3.99575 53.282 2.93627 52.3323 3.02298 51.2173C2.99589 38.5856 3.02298 25.9539 3.00944 13.3222Z" fill="url(#paint0_linear)"/>
<path d="M29.0493 10.9359C29.4638 10.1665 30.3716 9.74572 31.1249 10.1665C32.0651 10.6053 32.3198 12.0719 31.6586 12.9104C27.708 18.8611 23.76 24.8148 19.8039 30.7625C19.5736 31.0119 19.5221 31.4267 19.7524 31.7002C23.5378 37.5367 27.3638 43.3401 31.1411 49.1796C32.0759 50.4659 31.3525 52.6148 29.8432 52.7951C27.4072 52.9033 24.9604 52.8191 22.519 52.8372C21.1343 52.9033 19.7903 52.0978 19.0642 50.7965C17.4438 48.1006 15.7746 45.4379 14.1814 42.721C14.1678 45.5581 14.1868 48.3952 14.1678 51.2323C14.2193 52.3172 13.2221 53.2459 12.271 52.9784C11.5449 52.8191 11.0056 52.0407 11.0381 51.2263C11.0273 46.7182 11.0165 42.2071 11.0409 37.699C11.0083 36.6561 11.8131 35.6583 12.7777 35.7124C13.447 35.7004 14.0106 36.2053 14.3521 36.8063C16.7582 40.7585 19.159 44.7106 21.557 48.6687C21.7494 48.9361 21.9093 49.3629 22.2859 49.3148C23.9849 49.3809 25.6866 49.3419 27.3882 49.3449C23.9686 44.1425 20.5789 38.9161 17.1701 33.7078C16.2109 32.2922 16.2217 30.1794 17.208 28.7879C21.156 22.8372 25.104 16.8866 29.0493 10.9359Z" fill="url(#paint1_linear)"/>
<path d="M32.0206 20.1924C32.0947 19.5174 32.7376 18.9802 33.4187 19.0206C35.3448 19.0111 37.271 19.0183 39.1972 19.0159C40.1316 18.985 41.0994 19.3415 41.7017 20.0712C42.2465 20.701 42.4043 21.5376 42.6193 22.3148C44.2253 28.2019 45.8479 34.0843 47.4491 39.9738C47.7191 40.6939 47.3176 41.6042 46.541 41.7825C45.8192 42.0106 44.9828 41.5543 44.8132 40.8152C43.1905 34.9399 41.5917 29.0551 39.9786 23.1751C39.8639 22.6903 39.7157 22.215 39.5293 21.7539C37.498 21.7729 35.4691 21.7681 33.4402 21.7586C32.6109 21.8252 31.8653 21.0052 32.0206 20.1924Z" fill="url(#paint2_linear)"/>
<path d="M57.9426 19.1812C58.9224 18.5728 60.2846 19.6019 59.9476 20.7047C57.5889 30.2211 55.1919 39.728 52.8261 49.242C52.47 50.908 51.1628 52.3246 49.521 52.8118C48.491 53.1303 47.4013 52.9996 46.3426 53.0233C45.1453 52.9948 43.9098 53.154 42.7555 52.7548C41.1496 52.2176 39.7778 50.8724 39.3931 49.2087C37.5386 41.9835 35.6603 34.763 33.8034 27.5378C33.5357 26.82 33.9109 25.9263 34.6733 25.7124C35.4738 25.4225 36.37 26.0238 36.4871 26.8438C38.3488 34.0619 40.2176 41.2776 42.0744 48.498C42.2441 49.4083 43.114 50.0144 43.9624 50.2426C45.3126 50.3115 46.67 50.2544 48.0226 50.2735C48.9546 50.3162 49.8866 49.6199 50.0969 48.7143C52.4078 39.4546 54.7259 30.1973 57.0369 20.9376C57.2017 20.3078 57.2758 19.5021 57.9426 19.1812Z" fill="url(#paint3_linear)"/>
<defs>
<linearGradient id="paint0_linear" x1="8.58104" y1="53.0219" x2="8.58104" y2="10.0153" gradientUnits="userSpaceOnUse">
<stop stop-color="#5570FF"/>
<stop offset="1" stop-color="#4DD3FF"/>
</linearGradient>
<linearGradient id="paint1_linear" x1="21.5272" y1="53.0248" x2="21.5272" y2="10" gradientUnits="userSpaceOnUse">
<stop stop-color="#5570FF"/>
<stop offset="1" stop-color="#4DD3FF"/>
</linearGradient>
<linearGradient id="paint2_linear" x1="39.7666" y1="41.8415" x2="39.7666" y2="19.014" gradientUnits="userSpaceOnUse">
<stop stop-color="#FD2E00"/>
<stop offset="1" stop-color="#FF9900"/>
</linearGradient>
<linearGradient id="paint3_linear" x1="46.8587" y1="53.0315" x2="46.8587" y2="19" gradientUnits="userSpaceOnUse">
<stop stop-color="#FD2E00"/>
<stop offset="1" stop-color="#FF9900"/>
</linearGradient>
</defs>
</svg>
