<?xml version="1.0" encoding="UTF-8" ?>
<!DOCTYPE svg PUBLIC "-//W3C//DTD SVG 1.1//EN" "http://www.w3.org/Graphics/SVG/1.1/DTD/svg11.dtd">
<svg width="192pt" height="192pt" viewBox="0 0 192 192" version="1.1" xmlns="http://www.w3.org/2000/svg">
<g id="#3f5e9fff">
<path fill="#3f5e9f" opacity="1.00" d=" M 50.86 32.00 C 51.73 20.17 62.13 9.96 74.00 9.47 C 82.71 9.28 91.42 9.42 100.13 9.41 C 97.52 13.38 94.79 17.27 91.98 21.10 C 86.01 21.21 80.02 20.80 74.06 21.28 C 69.54 21.62 65.71 24.77 63.73 28.74 C 61.47 36.31 62.93 44.43 62.71 52.23 C 58.73 52.13 54.75 52.11 50.76 52.16 C 50.72 45.44 50.51 38.71 50.86 32.00 Z" />
</g>
<g id="#4365acff">
<path fill="#4365ac" opacity="1.00" d=" M 100.13 9.41 C 113.46 9.40 126.79 9.37 140.13 9.41 C 137.28 13.24 134.49 17.12 131.84 21.09 C 118.55 21.12 105.27 21.09 91.98 21.10 C 94.79 17.27 97.52 13.38 100.13 9.41 Z" />
</g>
<g id="#476dbbff">
<path fill="#476dbb" opacity="1.00" d=" M 140.13 9.41 C 145.75 9.50 151.39 9.18 157.01 9.57 C 165.93 10.41 173.68 16.66 177.28 24.74 C 176.16 24.23 175.04 23.72 173.92 23.21 C 171.46 26.02 168.99 28.87 167.20 32.16 C 166.72 30.61 166.20 29.07 165.44 27.63 C 163.22 23.97 159.31 21.31 154.95 21.19 C 147.25 20.90 139.54 21.20 131.84 21.09 C 134.49 17.12 137.28 13.24 140.13 9.41 Z" />
</g>
<g id="#05070c4e">
<path fill="#05070c" opacity="0.31" d=" M 63.73 28.74 C 65.71 24.77 69.54 21.62 74.06 21.28 C 80.02 20.80 86.01 21.21 91.98 21.10 C 105.27 21.09 118.55 21.12 131.84 21.09 C 139.54 21.20 147.25 20.90 154.95 21.19 C 159.31 21.31 163.22 23.97 165.44 27.63 C 160.10 23.80 153.45 22.70 147.01 23.08 C 123.67 23.29 100.32 23.09 76.97 23.16 C 71.97 23.06 67.41 25.53 63.73 28.74 Z" />
</g>
<g id="#4d76cfff">
<path fill="#4d76cf" opacity="1.00" d=" M 173.92 23.21 C 175.04 23.72 176.16 24.23 177.28 24.74 C 179.67 31.23 179.06 38.22 179.11 45.00 C 179.10 57.89 179.15 70.78 179.09 83.67 C 175.64 87.02 172.01 90.38 169.71 94.67 C 167.87 98.14 168.08 102.20 168.04 106.00 C 168.30 119.33 167.84 132.66 168.02 145.99 C 168.08 150.72 168.03 155.48 167.10 160.14 C 167.36 117.48 167.29 74.81 167.20 32.16 C 168.99 28.87 171.46 26.02 173.92 23.21 Z" />
<path fill="#4d76cf" opacity="1.00" d=" M 71.42 170.50 C 76.23 171.37 81.14 170.98 86.00 171.05 C 104.42 171.05 122.85 170.93 141.27 171.07 C 132.72 172.29 123.96 171.68 115.51 173.59 C 111.22 174.41 108.84 178.36 106.45 181.61 C 95.20 182.31 83.91 181.56 72.67 182.56 C 69.70 182.33 66.89 181.26 64.19 180.07 C 66.11 176.54 68.58 173.34 71.42 170.50 Z" />
</g>
<g id="#098effff">
<path fill="#098eff" opacity="1.00" d=" M 30.34 52.30 C 37.14 52.03 43.96 52.30 50.76 52.16 C 54.75 52.11 58.73 52.13 62.71 52.23 C 59.67 52.98 56.55 54.03 54.22 56.21 C 51.91 58.43 50.37 61.27 48.75 63.99 C 42.12 64.28 35.38 63.32 28.84 64.68 C 25.71 66.14 24.22 69.61 24.50 72.93 C 24.67 89.64 24.20 106.36 24.76 123.05 C 22.91 113.43 24.20 103.59 23.58 93.88 C 20.01 98.45 16.47 103.06 12.57 107.37 C 12.54 95.24 12.50 83.11 12.59 70.98 C 12.64 61.42 20.79 52.81 30.34 52.30 Z" />
<path fill="#098eff" opacity="1.00" d=" M 33.63 80.31 C 36.59 80.10 39.63 79.70 42.54 80.42 C 45.29 87.12 45.80 94.54 47.99 101.44 C 50.16 94.58 50.85 87.27 53.51 80.59 C 56.37 79.72 59.61 79.66 62.45 80.63 C 63.98 83.80 64.39 87.35 65.27 90.73 C 63.02 92.57 60.73 94.36 58.40 96.11 C 58.11 96.40 57.52 96.97 57.23 97.26 C 55.32 103.54 54.69 110.19 52.35 116.34 C 49.56 117.53 46.27 117.40 43.40 116.54 C 41.48 113.74 41.31 110.14 40.27 106.97 C 38.13 98.07 35.08 89.36 33.63 80.31 Z" />
</g>
<g id="#14a5ffff">
<path fill="#14a5ff" opacity="1.00" d=" M 62.71 52.23 C 70.95 52.53 79.38 51.26 87.46 53.22 C 84.93 56.78 82.43 60.35 80.00 63.99 C 69.58 64.00 59.16 64.00 48.75 63.99 C 50.37 61.27 51.91 58.43 54.22 56.21 C 56.55 54.03 59.67 52.98 62.71 52.23 Z" />
</g>
<g id="#1fbdffff">
<path fill="#1fbdff" opacity="1.00" d=" M 87.46 53.22 C 91.99 55.02 96.02 58.28 98.22 62.69 C 101.39 68.71 100.23 75.72 100.33 82.23 C 99.84 80.84 99.28 79.46 98.73 78.09 C 95.79 82.28 92.82 86.45 89.65 90.47 C 89.04 83.61 89.54 76.65 88.29 69.85 C 87.72 67.64 86.15 65.77 84.15 64.70 C 82.79 64.37 81.40 64.13 80.00 63.99 C 82.43 60.35 84.93 56.78 87.46 53.22 Z" />
</g>
<g id="#010e1760">
<path fill="#010e17" opacity="0.38" d=" M 28.84 64.68 C 35.38 63.32 42.12 64.28 48.75 63.99 C 59.16 64.00 69.58 64.00 80.00 63.99 C 81.40 64.13 82.79 64.37 84.15 64.70 C 71.45 65.59 58.72 64.59 46.00 65.07 C 40.28 65.33 34.56 64.86 28.84 64.68 Z" />
</g>
<g id="#29d1ffff">
<path fill="#29d1ff" opacity="1.00" d=" M 88.29 69.85 C 89.54 76.65 89.04 83.61 89.65 90.47 C 92.82 86.45 95.79 82.28 98.73 78.09 C 99.28 79.46 99.84 80.84 100.33 82.23 C 100.54 92.72 100.28 103.22 100.49 113.70 C 100.63 119.42 100.74 125.57 97.61 130.61 C 94.40 136.06 88.37 139.72 82.03 139.93 C 75.56 140.16 69.09 139.98 62.62 139.98 C 59.31 139.94 56.00 139.93 52.69 139.95 C 54.41 136.71 55.93 133.24 58.58 130.64 C 60.27 129.04 62.76 129.09 64.92 128.91 C 70.37 128.74 75.86 128.95 81.27 128.11 C 83.52 127.94 85.76 126.94 87.04 125.03 C 88.76 122.74 88.38 119.71 88.47 117.03 C 88.30 101.30 88.69 85.57 88.29 69.85 Z" />
</g>
<g id="#1db7ffff">
<path fill="#1db7ff" opacity="1.00" d=" M 100.66 73.16 C 107.82 73.13 114.99 73.11 122.15 73.15 C 120.36 76.57 118.56 79.99 116.77 83.41 C 111.36 83.43 105.95 83.43 100.53 83.40 C 100.55 79.99 100.62 76.57 100.66 73.16 Z" />
</g>
<g id="#26caffff">
<path fill="#26caff" opacity="1.00" d=" M 122.15 73.15 C 127.44 73.23 132.74 72.95 138.02 73.25 C 141.04 73.49 143.12 76.98 142.11 79.80 C 141.52 82.01 139.29 83.48 137.04 83.38 C 130.28 83.50 123.53 83.37 116.77 83.41 C 118.56 79.99 120.36 76.57 122.15 73.15 Z" />
</g>
<g id="#12a1ffff">
<path fill="#12a1ff" opacity="1.00" d=" M 73.43 80.38 C 76.36 79.72 79.40 80.08 82.36 80.31 C 81.01 89.09 78.01 97.54 75.95 106.17 C 74.81 109.61 74.60 113.47 72.60 116.55 C 69.70 117.42 66.44 117.45 63.58 116.41 C 61.07 109.89 60.35 102.81 58.40 96.11 C 60.73 94.36 63.02 92.57 65.27 90.73 C 66.11 94.32 66.90 97.92 67.94 101.46 C 70.15 94.54 70.62 87.07 73.43 80.38 Z" />
</g>
<g id="#5380e2ff">
<path fill="#5380e2" opacity="1.00" d=" M 169.71 94.67 C 172.01 90.38 175.64 87.02 179.09 83.67 C 179.14 107.78 179.09 131.89 179.12 156.00 C 179.22 161.07 178.27 166.24 175.68 170.65 C 171.08 178.00 162.76 183.00 153.99 182.81 C 126.89 182.68 99.77 183.03 72.67 182.56 C 83.91 181.56 95.20 182.31 106.45 181.61 C 108.84 178.36 111.22 174.41 115.51 173.59 C 123.96 171.68 132.72 172.29 141.27 171.07 C 146.16 170.91 151.07 171.28 155.95 170.87 C 161.54 170.31 166.14 165.58 167.10 160.14 C 168.03 155.48 168.08 150.72 168.02 145.99 C 167.84 132.66 168.30 119.33 168.04 106.00 C 168.08 102.20 167.87 98.14 169.71 94.67 Z" />
</g>
<g id="#12a0ffff">
<path fill="#12a0ff" opacity="1.00" d=" M 12.57 107.37 C 16.47 103.06 20.01 98.45 23.58 93.88 C 24.20 103.59 22.91 113.43 24.76 123.05 C 25.56 124.88 27.08 126.24 28.45 127.64 C 25.77 130.50 23.43 133.66 21.48 137.06 C 19.05 135.32 16.97 133.13 15.22 130.71 C 11.15 123.60 12.91 115.15 12.57 107.37 Z" />
</g>
<g id="#27ceffff">
<path fill="#27ceff" opacity="1.00" d=" M 100.64 93.24 C 112.77 93.23 124.91 93.13 137.05 93.24 C 140.77 92.95 143.63 97.35 141.84 100.62 C 140.88 102.87 138.32 103.72 136.05 103.54 C 124.25 103.53 112.44 103.54 100.64 103.50 C 100.63 100.08 100.63 96.66 100.64 93.24 Z" />
</g>
<g id="#00000039">
<path fill="#000000" opacity="0.22" d=" M 100.49 113.70 L 100.97 113.70 C 100.75 117.08 100.66 120.47 100.48 123.85 C 112.98 123.75 125.50 124.10 137.99 123.74 C 141.50 123.59 142.32 119.77 142.55 116.96 C 142.69 119.50 143.00 122.33 141.58 124.60 C 140.33 126.34 137.95 126.41 136.02 126.63 C 125.66 127.04 115.28 126.20 104.93 126.68 C 100.80 126.46 99.52 130.96 97.55 133.70 C 94.65 138.95 88.97 142.39 82.98 142.59 C 76.17 142.81 69.30 142.29 62.56 143.68 C 62.57 142.44 62.59 141.21 62.62 139.98 C 69.09 139.98 75.56 140.16 82.03 139.93 C 88.37 139.72 94.40 136.06 97.61 130.61 C 100.74 125.57 100.63 119.42 100.49 113.70 Z" />
<path fill="#000000" opacity="0.22" d=" M 15.22 130.71 C 16.97 133.13 19.05 135.32 21.48 137.06 C 24.66 138.86 28.24 139.95 31.91 139.98 C 38.19 140.11 44.47 140.00 50.76 139.98 C 50.90 147.06 50.58 154.14 50.90 161.21 C 49.73 155.01 50.47 148.66 49.75 142.41 C 42.52 142.07 35.25 142.92 28.07 141.99 C 22.37 140.69 16.11 137.02 15.22 130.71 Z" />
</g>
<g id="#2dd9ffff">
<path fill="#2dd9ff" opacity="1.00" d=" M 100.97 113.70 C 112.67 113.66 124.37 113.66 136.07 113.66 C 138.77 113.30 140.91 115.03 142.55 116.96 C 142.32 119.77 141.50 123.59 137.99 123.74 C 125.50 124.10 112.98 123.75 100.48 123.85 C 100.66 120.47 100.75 117.08 100.97 113.70 Z" />
</g>
<g id="#1db8ffff">
<path fill="#1db8ff" opacity="1.00" d=" M 21.48 137.06 C 23.43 133.66 25.77 130.50 28.45 127.64 C 31.29 128.00 34.14 128.19 37.00 128.16 C 51.76 128.09 66.51 128.14 81.27 128.11 C 75.86 128.95 70.37 128.74 64.92 128.91 C 62.76 129.09 60.27 129.04 58.58 130.64 C 55.93 133.24 54.41 136.71 52.69 139.95 C 52.20 139.96 51.24 139.97 50.76 139.98 C 44.47 140.00 38.19 140.11 31.91 139.98 C 28.24 139.95 24.66 138.86 21.48 137.06 Z" />
</g>
<g id="#486ebeff">
<path fill="#486ebe" opacity="1.00" d=" M 50.76 139.98 C 51.24 139.97 52.20 139.96 52.69 139.95 C 56.00 139.93 59.31 139.94 62.62 139.98 C 62.59 141.21 62.57 142.44 62.56 143.68 C 62.67 149.12 62.29 154.58 62.78 160.00 C 63.31 164.87 67.10 168.63 71.42 170.50 C 68.58 173.34 66.11 176.54 64.19 180.07 C 59.49 177.53 55.73 173.50 53.14 168.86 C 52.03 166.43 51.33 163.84 50.90 161.21 C 50.58 154.14 50.90 147.06 50.76 139.98 Z" />
</g>
<g id="#02030640">
<path fill="#020306" opacity="0.25" d=" M 53.14 168.86 C 55.73 173.50 59.49 177.53 64.19 180.07 C 66.89 181.26 69.70 182.33 72.67 182.56 C 99.77 183.03 126.89 182.68 153.99 182.81 C 162.76 183.00 171.08 178.00 175.68 170.65 C 175.01 176.71 169.18 179.86 164.39 182.48 C 157.82 185.98 150.17 185.25 143.00 185.27 C 124.00 185.25 105.00 185.24 86.00 185.28 C 78.88 185.28 71.25 185.83 64.80 182.22 C 59.62 179.27 53.95 175.26 53.14 168.86 Z" />
</g>
</svg>
