<svg width="64" height="64" viewBox="0 0 64 64" fill="none" xmlns="http://www.w3.org/2000/svg">
<path d="M19.9184 22.9184C23.3877 19.4491 28.0931 17.5 32.9995 17.5C37.9059 17.5 42.6113 19.4491 46.0807 22.9184C49.55 26.3877 51.499 31.0931 51.499 35.9995C51.499 40.9059 49.55 45.6113 46.0807 49.0807C42.6113 52.55 37.9059 54.499 32.9995 54.499C28.0931 54.499 23.3877 52.55 19.9184 49.0807C16.4491 45.6113 14.5 40.9059 14.5 35.9995C14.5 31.0931 16.4491 26.3877 19.9184 22.9184Z" stroke="url(#paint0_linear)" stroke-width="5"/>
<path d="M31.112 4.00001C16.4638 3.98688 4.39452 16.0498 4.00946 31.2666C3.61783 46.7249 15.4308 59.5836 30.3928 59.9878C37.6821 60.1846 43.3725 57.3886 48.3644 52.6817C48.8975 52.237 49.1875 51.9599 49.1875 51.9599C49.1875 51.9599 54.6007 46.2784 54.8912 41.5886C53.51 43.8706 52.243 46.1553 48.8047 47.8475C47.2278 48.5779 45.7825 49.1993 44.3259 49.6904C44.2326 49.7141 44.1389 49.7361 44.0442 49.7587C43.3543 49.9234 42.6312 50.0617 41.8732 50.1661C41.7813 50.1787 41.687 50.1899 41.5943 50.2017C40.8081 50.3014 39.9964 50.374 39.158 50.4095C39.0717 50.4131 38.9823 50.4121 38.8955 50.4149C38.0684 50.4432 37.2224 50.4408 36.3635 50.4067C36.3075 50.4045 36.2529 50.4065 36.1967 50.4039C35.3233 50.3652 35.4367 50.286 34.549 50.1824C34.4223 50.1676 34.2957 50.1575 34.1689 50.1414C33.3048 50.0316 32.4411 49.8865 31.5823 49.7148C31.4435 49.6871 31.305 49.6594 31.1667 49.6301C30.3262 49.4517 29.4933 49.2424 28.6757 49.0039C28.4136 48.9275 28.1524 48.8487 27.8937 48.766C27.6981 48.7036 27.5019 48.6434 27.3085 48.5774C27.0322 48.483 26.7623 48.381 26.491 48.2793C26.2697 48.1964 26.0469 48.1155 25.8293 48.0278C25.5771 47.9261 25.3322 47.8161 25.0855 47.7079C24.8765 47.6162 24.6641 47.5281 24.4594 47.4317C24.0136 47.2218 23.5754 47.0023 23.1524 46.77C22.8157 46.5838 22.4953 46.3888 22.1899 46.1849C21.4885 45.7165 20.8763 45.2003 20.3278 44.6591C17.4723 41.7451 17.6049 38.3188 17.7548 36.098C17.9438 33.3084 20.2825 27.1881 27.9784 23.9467C32.7335 22.2678 38.3257 21.0935 43.0008 22.5987C46.5174 23.3921 49.0462 24.5459 52.3904 25.7267C52.3904 25.7267 52.3633 25.7849 53.2872 26.0138C59.791 27.0441 59.061 21.6862 59.061 21.6862L58.5512 20.4323C58.4384 19.7716 58.9333 19.2505 58.9333 19.2505C58.9333 19.2505 58.5325 17.773 58.6 16.7966C58.6685 15.8206 58.6132 14.5696 58.4004 12.7854C58.1876 11.001 57.0165 9.49099 56.6368 9.21364C56.2562 8.93678 54.483 7.6 52.7841 6.93322C51.0842 6.26644 49.3661 5.77368 47.2499 6.07191C47.0149 6.10514 46.7925 6.14107 46.5608 6.17582C46.5198 6.1628 46.4876 6.14796 46.4433 6.1348C45.6363 5.89515 45.0654 3.98799 44.4062 4.00379C44.3557 4.005 44.3047 4.00931 44.2531 4.01473C44.2022 4.02005 44.1495 4.02685 44.0972 4.0366H44.0944C44.0411 4.04654 43.9882 4.05995 43.9331 4.07488C43.873 4.0912 43.8151 4.11257 43.7608 4.13777C43.375 4.31712 43.1387 6.39274 42.9926 6.8355C39.6076 5.12455 35.8229 4.11911 31.8092 4.01095C31.5754 4.00463 31.3445 4.00023 31.112 4.00001V4.00001ZM46.0266 49.1763C45.5297 49.3615 44.9903 49.5182 44.4352 49.663C44.99 49.5183 45.53 49.3614 46.0266 49.1763Z" fill="url(#paint1_linear)"/>
<defs>
<linearGradient id="paint0_linear" x1="32.9995" y1="56.999" x2="32.9995" y2="15" gradientUnits="userSpaceOnUse">
<stop stop-color="#FD5900"/>
<stop offset="1" stop-color="#FFDE00"/>
</linearGradient>
<linearGradient id="paint1_linear" x1="60.5" y1="92.5" x2="31.5428" y2="4" gradientUnits="userSpaceOnUse">
<stop stop-color="#AC3E00"/>
<stop offset="1" stop-color="#FF620A"/>
</linearGradient>
</defs>
</svg>
