<?xml version="1.0" encoding="UTF-8" standalone="no"?>
<svg
   xmlns:dc="http://purl.org/dc/elements/1.1/"
   xmlns:cc="http://creativecommons.org/ns#"
   xmlns:rdf="http://www.w3.org/1999/02/22-rdf-syntax-ns#"
   xmlns:svg="http://www.w3.org/2000/svg"
   xmlns="http://www.w3.org/2000/svg"
   xmlns:sodipodi="http://sodipodi.sourceforge.net/DTD/sodipodi-0.dtd"
   xmlns:inkscape="http://www.inkscape.org/namespaces/inkscape"
   width="192pt"
   height="192pt"
   viewBox="0 0 192 192"
   version="1.1"
   id="svg36"
   sodipodi:docname="icon_changer_free.svg"
   inkscape:version="0.92.2 5c3e80d, 2017-08-06">
  <metadata
     id="metadata42">
    <rdf:RDF>
      <cc:Work
         rdf:about="">
        <dc:format>image/svg+xml</dc:format>
        <dc:type
           rdf:resource="http://purl.org/dc/dcmitype/StillImage" />
      </cc:Work>
    </rdf:RDF>
  </metadata>
  <defs
     id="defs40" />
  <sodipodi:namedview
     pagecolor="#ffffff"
     bordercolor="#666666"
     borderopacity="1"
     objecttolerance="10"
     gridtolerance="10"
     guidetolerance="10"
     inkscape:pageopacity="0"
     inkscape:pageshadow="2"
     inkscape:window-width="699"
     inkscape:window-height="480"
     id="namedview38"
     showgrid="false"
     inkscape:zoom="0.921875"
     inkscape:cx="128"
     inkscape:cy="128"
     inkscape:window-x="0"
     inkscape:window-y="0"
     inkscape:window-maximized="0"
     inkscape:current-layer="svg36" />
  <g
     id="#2edc81ff">
    <path
       fill="#2edc81"
       opacity="1.00"
       d=" M 57.09 23.93 C 53.03 20.37 56.36 12.34 61.96 13.68 C 72.32 16.43 82.35 20.32 92.60 23.46 C 95.08 24.41 98.22 24.77 99.72 27.25 C 101.21 29.34 100.35 31.99 100.28 34.34 C 95.35 37.02 89.63 36.42 84.29 37.41 C 67.60 40.08 52.52 50.49 43.58 64.75 C 37.84 73.78 34.49 84.36 34.19 95.07 C 34.03 96.84 34.22 98.77 33.37 100.41 C 31.32 103.55 26.21 104.12 23.63 101.34 C 22.32 99.92 22.42 97.86 22.34 96.07 C 21.94 77.22 30.31 58.77 43.47 45.48 C 50.74 38.01 60.00 33.01 69.35 28.63 C 65.25 27.11 60.82 26.26 57.09 23.93 Z"
       id="path2" />
  </g>
  <g
     id="#40e175ff">
    <path
       fill="#40e175"
       opacity="1.00"
       d=" M 116.32 26.32 C 127.06 14.95 145.48 12.79 158.85 20.75 C 156.89 24.29 154.82 27.76 152.65 31.17 C 142.92 24.89 128.94 28.06 122.63 37.68 C 115.92 46.70 117.63 60.32 126.03 67.68 C 123.00 70.49 120.20 73.72 119.40 77.90 C 117.15 76.02 115.12 73.88 113.26 71.61 C 103.04 58.42 104.46 38.04 116.32 26.32 Z"
       id="path5" />
  </g>
  <g
     id="#51e76aff">
    <path
       fill="#51e76a"
       opacity="1.00"
       d=" M 158.85 20.75 C 165.22 24.79 170.66 30.53 173.31 37.69 C 177.50 48.37 176.18 61.11 169.66 70.59 C 164.16 78.41 155.38 83.77 145.90 85.08 C 136.56 86.49 126.83 83.66 119.40 77.90 C 120.20 73.72 123.00 70.49 126.03 67.68 C 129.42 70.53 133.53 72.60 137.95 73.18 C 148.97 74.95 160.48 67.08 163.10 56.29 C 164.37 50.40 163.77 43.83 160.30 38.76 C 158.33 35.71 155.66 33.18 152.65 31.17 C 154.82 27.76 156.89 24.29 158.85 20.75 Z"
       id="path8" />
  </g>
  <g
     id="#0000003c">
    <path
       fill="#000000"
       opacity="0.24"
       d=" M 122.63 37.68 C 128.94 28.06 142.92 24.89 152.65 31.17 C 155.66 33.18 158.33 35.71 160.30 38.76 C 154.63 34.57 148.43 29.85 140.98 30.21 C 134.07 29.97 128.14 34.05 122.63 37.68 Z"
       id="path11" />
    <path
       fill="#000000"
       opacity="0.24"
       d=" M 84.29 37.41 C 89.63 36.42 95.35 37.02 100.28 34.34 C 99.13 35.81 98.26 37.87 96.22 38.26 C 91.62 39.49 86.78 39.26 82.12 40.25 C 70.67 42.59 59.86 48.29 51.73 56.73 C 49.17 59.56 46.98 62.82 43.58 64.75 C 52.52 50.49 67.60 40.08 84.29 37.41 Z"
       id="path13" />
    <path
       fill="#000000"
       opacity="0.24"
       d=" M 88.79 167.18 C 91.53 168.71 94.45 169.90 97.49 170.69 C 106.88 173.25 116.23 175.94 125.66 178.35 C 128.23 179.27 130.77 178.04 133.14 177.13 C 132.14 178.47 131.43 180.35 129.64 180.77 C 127.15 181.37 124.60 180.51 122.18 179.96 C 113.57 177.53 104.93 175.21 96.31 172.83 C 93.00 172.19 90.09 170.40 88.79 167.18 Z"
       id="path15" />
  </g>
  <g
     id="#0000003a">
    <path
       fill="#000000"
       opacity="0.23"
       d=" M 145.90 85.08 C 155.38 83.77 164.16 78.41 169.66 70.59 C 169.09 72.79 168.49 75.12 166.70 76.67 C 160.28 82.87 151.78 87.37 142.74 87.78 C 132.59 88.37 122.42 83.85 115.64 76.36 C 114.37 75.06 113.86 73.27 113.26 71.61 C 115.12 73.88 117.15 76.02 119.40 77.90 C 126.83 83.66 136.56 86.49 145.90 85.08 Z"
       id="path18" />
  </g>
  <g
     id="#5cea62ff">
    <path
       fill="#5cea62"
       opacity="1.00"
       d=" M 155.39 95.94 C 155.15 92.89 157.02 89.66 160.21 89.16 C 163.32 88.51 166.75 90.81 167.08 94.02 C 167.98 110.16 162.97 126.46 153.63 139.60 C 145.52 150.74 134.22 159.16 121.67 164.68 C 123.03 165.06 124.38 165.46 125.74 165.86 C 128.20 166.66 130.93 167.25 132.86 169.10 C 134.75 171.45 133.51 174.49 133.14 177.13 C 130.77 178.04 128.23 179.27 125.66 178.35 C 116.23 175.94 106.88 173.25 97.49 170.69 C 94.45 169.90 91.53 168.71 88.79 167.18 C 88.54 163.94 89.00 160.70 90.99 158.03 C 106.47 157.99 122.24 153.33 133.99 142.97 C 147.63 131.46 155.22 113.67 155.39 95.94 Z"
       id="path21" />
  </g>
  <g
     id="#39df7aff">
    <path
       fill="#39df7a"
       opacity="1.00"
       d=" M 15.67 116.96 C 15.51 113.87 17.38 110.17 20.97 110.57 C 37.44 110.46 53.91 110.85 70.38 110.71 C 68.11 114.67 65.59 118.49 62.95 122.22 C 51.17 122.18 39.38 122.26 27.60 122.18 C 27.74 136.11 27.67 150.05 27.66 163.99 C 31.51 164.02 35.35 164.03 39.20 164.09 C 35.89 164.77 32.46 165.63 29.78 167.79 C 27.18 170.03 25.50 173.10 23.69 175.96 C 21.67 175.93 19.66 175.67 17.66 175.43 C 16.77 173.39 15.64 171.35 15.71 169.05 C 15.58 151.69 15.51 134.32 15.67 116.96 Z"
       id="path24" />
  </g>
  <g
     id="#49e46fff">
    <path
       fill="#49e46f"
       opacity="1.00"
       d=" M 70.38 110.71 C 73.54 110.83 77.11 110.28 79.82 112.26 C 81.36 113.29 81.53 115.28 81.55 116.96 C 81.74 133.65 81.56 150.35 81.64 167.05 C 81.67 169.40 81.46 171.74 81.10 174.07 C 78.62 175.34 75.92 176.23 73.09 176.05 C 56.63 175.95 40.16 176.10 23.69 175.96 C 25.50 173.10 27.18 170.03 29.78 167.79 C 32.46 165.63 35.89 164.77 39.20 164.09 C 49.34 164.14 59.48 164.17 69.62 164.08 C 69.59 150.11 69.57 136.14 69.63 122.17 C 67.40 122.20 65.18 122.21 62.95 122.22 C 65.59 118.49 68.11 114.67 70.38 110.71 Z"
       id="path27" />
  </g>
  <g
     id="#06100646">
    <path
       fill="#061006"
       opacity="0.27"
       d=" M 121.67 164.68 C 134.22 159.16 145.52 150.74 153.63 139.60 C 152.00 145.83 146.51 149.82 142.08 154.07 C 137.21 158.79 130.74 161.32 125.74 165.86 C 124.38 165.46 123.03 165.06 121.67 164.68 Z"
       id="path30" />
  </g>
  <g
     id="#040d0656">
    <path
       fill="#040d06"
       opacity="0.34"
       d=" M 73.09 176.05 C 75.92 176.23 78.62 175.34 81.10 174.07 C 80.89 174.67 80.47 175.86 80.26 176.46 C 77.52 176.79 74.79 177.29 72.02 177.32 C 56.00 177.16 39.98 177.26 23.96 177.28 C 21.69 177.40 19.46 176.84 17.66 175.43 C 19.66 175.67 21.67 175.93 23.69 175.96 C 40.16 176.10 56.63 175.95 73.09 176.05 Z"
       id="path33" />
  </g>
</svg>
