<?xml version="1.0" encoding="UTF-8" ?>
<!DOCTYPE svg PUBLIC "-//W3C//DTD SVG 1.1//EN" "http://www.w3.org/Graphics/SVG/1.1/DTD/svg11.dtd">
<svg width="192pt" height="192pt" viewBox="0 0 192 192" version="1.1" xmlns="http://www.w3.org/2000/svg">
<g id="#c319d9ff">
<path fill="#c319d9" opacity="1.00" d=" M 72.61 20.40 C 72.83 17.24 75.79 14.60 78.96 14.76 C 90.13 14.64 101.30 14.82 112.48 14.70 C 108.57 19.28 103.13 22.27 99.60 27.19 C 94.65 27.22 89.71 27.21 84.76 27.32 C 83.69 34.30 81.37 41.28 76.78 46.77 C 71.54 53.21 63.28 56.90 55.02 56.91 C 49.71 57.06 44.58 55.50 39.52 54.11 C 36.17 59.81 32.61 65.39 29.37 71.15 C 29.70 71.48 30.37 72.13 30.70 72.45 C 33.80 75.14 36.71 78.07 39.08 81.44 C 35.71 83.85 32.42 86.36 29.20 88.97 C 26.33 84.74 22.25 81.61 17.85 79.11 C 14.63 77.56 13.25 73.25 15.26 70.22 C 20.56 61.23 26.01 52.32 31.36 43.36 C 32.83 40.30 36.66 38.70 39.79 40.24 C 44.90 42.53 50.28 44.90 56.02 44.38 C 61.98 44.07 67.39 40.05 69.78 34.64 C 71.97 30.23 72.24 25.23 72.61 20.40 Z" />
</g>
<g id="#d11ac9ff">
<path fill="#d11ac9" opacity="1.00" d=" M 112.48 14.70 C 115.38 15.20 118.00 17.37 118.18 20.46 C 118.44 24.81 118.82 29.18 120.33 33.30 C 117.68 36.83 114.32 39.71 110.77 42.29 C 108.71 38.37 107.21 34.17 106.43 29.80 C 106.30 29.16 106.04 27.88 105.91 27.24 C 103.81 27.22 101.71 27.21 99.60 27.19 C 103.13 22.27 108.57 19.28 112.48 14.70 Z" />
</g>
<g id="#00000036">
<path fill="#000000" opacity="0.21" d=" M 84.76 27.32 C 89.71 27.21 94.65 27.22 99.60 27.19 C 101.71 27.21 103.81 27.22 105.91 27.24 C 106.04 27.88 106.30 29.16 106.43 29.80 C 99.74 30.08 93.03 29.46 86.37 30.29 C 84.20 39.64 80.36 49.59 71.68 54.72 C 64.18 59.75 54.54 60.60 45.98 58.07 C 44.12 57.90 41.69 56.44 40.25 58.24 C 36.44 62.53 34.64 68.23 30.70 72.45 C 30.37 72.13 29.70 71.48 29.37 71.15 C 32.61 65.39 36.17 59.81 39.52 54.11 C 44.58 55.50 49.71 57.06 55.02 56.91 C 63.28 56.90 71.54 53.21 76.78 46.77 C 81.37 41.28 83.69 34.30 84.76 27.32 Z" />
</g>
<g id="#e01db5ff">
<path fill="#e01db5" opacity="1.00" d=" M 120.33 33.30 C 122.14 37.31 124.91 41.17 129.09 42.94 C 132.63 44.63 136.64 44.39 140.46 44.34 C 136.97 48.57 131.27 50.85 129.12 56.11 C 125.59 55.23 122.27 53.68 119.19 51.76 C 115.75 49.24 113.05 45.87 110.77 42.29 C 114.32 39.71 117.68 36.83 120.33 33.30 Z" />
</g>
<g id="#e922a6ff">
<path fill="#e922a6" opacity="1.00" d=" M 150.43 40.46 C 153.18 38.97 156.99 39.61 158.69 42.36 C 161.85 47.09 164.58 52.11 167.57 56.96 C 164.90 60.31 161.61 63.11 157.97 65.36 C 156.24 62.55 154.56 59.71 152.84 56.90 C 152.24 55.93 151.64 54.97 151.04 54.00 C 144.04 56.41 136.45 57.81 129.12 56.11 C 131.27 50.85 136.97 48.57 140.46 44.34 C 143.79 43.08 147.21 42.01 150.43 40.46 Z" />
</g>
<g id="#0a010841">
<path fill="#0a0108" opacity="0.25" d=" M 119.19 51.76 C 122.27 53.68 125.59 55.23 129.12 56.11 C 136.45 57.81 144.04 56.41 151.04 54.00 C 151.64 54.97 152.24 55.93 152.84 56.90 C 145.21 58.16 137.31 60.61 129.62 58.30 C 125.75 56.98 121.28 55.60 119.19 51.76 Z" />
</g>
<g id="#f13389ff">
<path fill="#f13389" opacity="1.00" d=" M 167.57 56.96 C 170.44 61.68 173.22 66.45 176.22 71.09 C 176.31 73.34 176.61 76.08 174.60 77.65 C 171.68 80.09 168.11 81.67 165.39 84.39 C 162.86 86.68 161.46 89.83 159.74 92.71 C 155.86 95.60 151.86 98.30 147.99 101.21 C 146.87 95.26 147.46 88.90 150.50 83.58 C 153.03 78.60 157.25 74.83 161.43 71.24 C 160.26 69.29 159.12 67.32 157.97 65.36 C 161.61 63.11 164.90 60.31 167.57 56.96 Z" />
</g>
<g id="#e11db4ff">
<path fill="#e11db4" opacity="1.00" d=" M 68.17 80.18 C 74.67 68.20 89.70 61.94 102.83 65.32 C 106.87 66.24 110.58 68.19 114.02 70.46 C 110.35 73.11 106.68 75.75 102.99 78.36 C 96.51 75.75 88.62 76.60 83.30 81.29 C 77.80 85.81 75.54 93.55 77.35 100.38 C 73.84 102.97 70.37 105.61 66.87 108.21 C 62.94 99.32 63.17 88.61 68.17 80.18 Z" />
</g>
<g id="#eb23a1ff">
<path fill="#eb23a1" opacity="1.00" d=" M 102.99 78.36 C 106.68 75.75 110.35 73.11 114.02 70.46 C 119.44 74.67 123.56 80.48 125.50 87.09 C 122.00 90.46 118.17 93.46 114.15 96.17 C 114.04 90.15 111.44 84.05 106.40 80.56 C 105.30 79.78 104.16 79.03 102.99 78.36 Z" />
<path fill="#eb23a1" opacity="1.00" d=" M 66.87 108.21 C 70.37 105.61 73.84 102.97 77.35 100.38 L 77.61 101.16 C 79.65 107.39 85.10 112.03 91.38 113.68 C 87.87 117.04 83.99 119.97 79.84 122.48 C 79.46 122.27 78.69 121.84 78.30 121.63 C 73.33 118.34 69.40 113.60 66.87 108.21 Z" />
</g>
<g id="#0000003c">
<path fill="#000000" opacity="0.24" d=" M 176.22 71.09 C 177.55 74.19 177.63 78.46 174.61 80.61 C 170.49 83.73 165.91 86.55 163.09 91.04 C 161.18 93.68 161.12 97.04 160.77 100.15 C 160.17 97.71 159.97 95.20 159.74 92.71 C 161.46 89.83 162.86 86.68 165.39 84.39 C 168.11 81.67 171.68 80.09 174.60 77.65 C 176.61 76.08 176.31 73.34 176.22 71.09 Z" />
<path fill="#000000" opacity="0.24" d=" M 83.30 81.29 C 88.62 76.60 96.51 75.75 102.99 78.36 C 104.16 79.03 105.30 79.78 106.40 80.56 C 99.74 79.32 92.15 78.14 86.20 82.25 C 79.79 86.17 77.50 94.03 77.61 101.16 L 77.35 100.38 C 75.54 93.55 77.80 85.81 83.30 81.29 Z" />
<path fill="#000000" opacity="0.24" d=" M 126.32 90.76 C 129.67 100.84 125.17 111.45 119.39 119.69 L 118.97 120.27 C 118.66 119.20 118.35 118.14 118.05 117.08 C 124.39 109.95 127.64 100.28 126.32 90.76 Z" />
<path fill="#000000" opacity="0.24" d=" M 176.46 114.96 C 177.43 118.43 177.41 122.24 175.38 125.35 C 170.65 133.26 165.88 141.16 161.03 149.00 C 159.58 151.43 157.19 154.07 154.03 153.31 C 149.76 152.32 145.86 150.06 141.46 149.58 C 136.95 148.83 132.49 150.24 128.00 150.27 C 126.17 150.25 124.99 148.65 123.68 147.60 C 129.08 148.61 134.42 146.36 139.83 147.25 C 144.49 147.65 148.59 150.11 153.06 151.21 C 156.12 151.79 158.47 149.25 159.85 146.85 C 164.71 138.73 169.58 130.60 174.50 122.50 C 176.03 120.28 176.33 117.58 176.46 114.96 Z" />
<path fill="#000000" opacity="0.24" d=" M 78.30 121.63 C 78.69 121.84 79.46 122.27 79.84 122.48 C 88.01 127.22 98.04 127.60 106.87 124.58 C 107.82 125.42 108.77 126.25 109.72 127.08 L 109.11 127.23 C 105.43 127.95 101.72 128.55 97.99 128.96 C 92.07 129.62 86.26 127.50 81.04 124.90 C 79.60 124.34 78.92 122.93 78.30 121.63 Z" />
<path fill="#000000" opacity="0.24" d=" M 43.20 149.24 C 49.15 146.35 56.28 145.52 62.47 148.19 C 64.28 149.44 65.97 150.88 67.44 152.53 C 63.52 150.70 59.47 148.53 54.98 149.09 C 49.26 148.86 44.37 152.17 38.96 153.33 C 36.95 153.87 35.30 152.66 34.05 151.24 C 37.24 151.42 40.38 150.74 43.20 149.24 Z" />
</g>
<g id="#da1bbeff">
<path fill="#da1bbe" opacity="1.00" d=" M 29.20 88.97 C 32.42 86.36 35.71 83.85 39.08 81.44 C 40.95 84.67 42.44 88.15 43.17 91.82 C 43.70 97.86 42.54 104.11 39.15 109.20 C 36.49 113.75 31.73 116.56 29.19 121.18 C 26.59 124.24 22.77 125.77 19.21 127.41 C 17.03 123.31 12.04 118.44 15.68 113.71 C 19.95 110.01 25.74 107.81 28.62 102.61 C 31.41 98.56 31.14 93.31 29.20 88.97 Z" />
</g>
<g id="#f02e8fff">
<path fill="#f02e8f" opacity="1.00" d=" M 125.50 87.09 C 125.78 88.31 126.09 89.52 126.32 90.76 C 127.64 100.28 124.39 109.95 118.05 117.08 C 118.35 118.14 118.66 119.20 118.97 120.27 C 116.60 123.36 113.42 125.82 109.72 127.08 C 108.77 126.25 107.82 125.42 106.87 124.58 C 98.04 127.60 88.01 127.22 79.84 122.48 C 83.99 119.97 87.87 117.04 91.38 113.68 C 96.34 114.46 101.67 113.74 105.84 110.79 C 110.75 107.57 113.61 101.93 114.15 96.17 C 118.17 93.46 122.00 90.46 125.50 87.09 Z" />
</g>
<g id="#0c020a47">
<path fill="#0c020a" opacity="0.28" d=" M 43.17 91.82 C 46.73 103.38 39.56 115.23 30.23 121.65 L 29.19 121.18 C 31.73 116.56 36.49 113.75 39.15 109.20 C 42.54 104.11 43.70 97.86 43.17 91.82 Z" />
</g>
<g id="#f24178ff">
<path fill="#f24178" opacity="1.00" d=" M 147.99 101.21 C 151.86 98.30 155.86 95.60 159.74 92.71 C 159.97 95.20 160.17 97.71 160.77 100.15 C 162.43 103.87 165.43 106.74 168.52 109.29 C 165.61 112.34 162.31 114.97 158.85 117.35 C 153.61 113.31 149.85 107.54 147.99 101.21 Z" />
</g>
<g id="#f34f67ff">
<path fill="#f34f67" opacity="1.00" d=" M 168.52 109.29 C 171.38 110.87 174.17 112.61 176.46 114.96 C 176.33 117.58 176.03 120.28 174.50 122.50 C 169.58 130.60 164.71 138.73 159.85 146.85 C 158.47 149.25 156.12 151.79 153.06 151.21 C 148.59 150.11 144.49 147.65 139.83 147.25 C 134.42 146.36 129.08 148.61 123.68 147.60 C 123.14 146.75 122.59 145.91 122.02 145.09 C 126.55 142.15 130.82 138.80 134.36 134.70 C 139.99 133.97 145.63 135.45 150.98 137.08 C 154.55 131.43 157.95 125.67 161.31 119.90 C 160.50 119.04 159.67 118.19 158.85 117.35 C 162.31 114.97 165.61 112.34 168.52 109.29 Z" />
</g>
<g id="#f24079ff">
<path fill="#f24079" opacity="1.00" d=" M 118.97 120.27 L 119.39 119.69 C 122.87 124.77 126.45 129.79 130.12 134.73 C 131.53 134.70 132.95 134.69 134.36 134.70 C 130.82 138.80 126.55 142.15 122.02 145.09 C 117.64 139.19 113.54 133.09 109.11 127.23 L 109.72 127.08 C 113.42 125.82 116.60 123.36 118.97 120.27 Z" />
</g>
<g id="#e61facff">
<path fill="#e61fac" opacity="1.00" d=" M 19.21 127.41 C 22.77 125.77 26.59 124.24 29.19 121.18 L 30.23 121.65 C 33.68 126.66 36.62 132.02 39.71 137.27 C 36.44 139.86 33.10 142.42 29.33 144.28 C 25.98 138.64 22.54 133.06 19.21 127.41 Z" />
</g>
<g id="#ed279cff">
<path fill="#ed279c" opacity="1.00" d=" M 39.71 137.27 C 49.69 132.63 62.32 132.78 71.52 139.22 C 68.63 142.34 65.55 145.26 62.47 148.19 C 56.28 145.52 49.15 146.35 43.20 149.24 C 40.38 150.74 37.24 151.42 34.05 151.24 C 32.34 149.02 30.71 146.72 29.33 144.28 C 33.10 142.42 36.44 139.86 39.71 137.27 Z" />
</g>
<g id="#f13488ff">
<path fill="#f13488" opacity="1.00" d=" M 71.52 139.22 C 76.95 143.23 80.78 149.05 82.92 155.39 C 78.96 157.22 75.30 159.60 71.84 162.23 C 70.81 158.83 69.69 155.34 67.44 152.53 C 65.97 150.88 64.28 149.44 62.47 148.19 C 65.55 145.26 68.63 142.34 71.52 139.22 Z" />
</g>
<g id="#f24276ff">
<path fill="#f24276" opacity="1.00" d=" M 71.84 162.23 C 75.30 159.60 78.96 157.22 82.92 155.39 C 83.65 158.10 84.25 160.85 84.72 163.62 C 89.27 163.80 93.83 163.69 98.38 163.79 C 94.14 168.34 88.65 171.50 84.62 176.26 C 81.05 176.19 76.53 177.23 74.00 173.98 C 71.61 170.57 72.64 166.11 71.84 162.23 Z" />
</g>
<g id="#f34e69ff">
<path fill="#f34e69" opacity="1.00" d=" M 98.38 163.79 C 103.25 163.78 108.13 163.52 112.98 163.87 C 116.65 164.21 119.26 168.41 117.99 171.85 C 117.22 174.87 114.01 176.53 111.05 176.31 C 102.24 176.31 93.43 176.36 84.62 176.26 C 88.65 171.50 94.14 168.34 98.38 163.79 Z" />
</g>
</svg>
