<svg width="192" height="192" viewBox="0 0 192 192" fill="none" xmlns="http://www.w3.org/2000/svg">
<path d="M76.1445 6.05655C85.991 3.873 96.2267 3.46358 106.231 4.66033C105.263 8.69151 102.076 11.4839 99.9823 14.9062C100.519 15.5256 101.076 16.1135 101.676 16.6804C89.6729 15.7041 77.5016 17.5097 66.298 21.8768C68.4441 15.9245 73.8091 11.8829 76.1445 6.05655Z" fill="#32DD7E"/>
<path d="M106.231 4.66034C114.363 5.58415 122.316 7.73621 129.9 10.7701L129.827 10.8541C126.766 13.8355 124.293 17.3628 122.368 21.1735C115.709 18.7695 108.724 17.2683 101.676 16.6804C101.076 16.1135 100.519 15.5256 99.9823 14.9063C102.076 11.4839 105.263 8.69152 106.231 4.66034Z" fill="#3ADF79"/>
<path d="M26.9542 34.6947C39.7462 20.2707 57.2195 9.94076 76.1445 6.05655C73.8091 11.8829 68.4441 15.9245 66.298 21.8768C49.6874 28.4905 35.4226 40.8255 26.6386 56.3833C20.6213 66.9546 17.2024 78.9642 16.5712 91.0997C11.7953 94.8895 9.91225 101.178 5.17837 104.894C4.67342 99.9179 5.66228 94.816 4.18951 89.945C5.17837 69.6526 13.4258 49.8536 26.9542 34.6947Z" fill="#2BDB83"/>
<path d="M122.368 21.1735C124.293 17.3627 126.766 13.8355 129.827 10.8541C136.654 13.447 143.04 17.1738 148.962 21.4254C145.88 24.2493 143.523 27.7136 141.178 31.1254C135.392 26.9893 129.048 23.6405 122.368 21.1735Z" fill="#41E274"/>
<path d="M8.17652 185.759C2.19079 184.09 3.06393 174.295 9.28109 173.686C19.1486 173.623 29.0161 173.728 38.8942 173.707C36.0643 177.928 32.8032 181.833 30.0576 186.105C22.7674 185.916 15.4141 186.536 8.17652 185.759Z" fill="#41E274"/>
<path opacity="0.25" d="M66.2981 21.8768C77.5016 17.5097 89.6729 15.7041 101.676 16.6804C108.724 17.2683 115.709 18.7695 122.368 21.1735C129.048 23.6405 135.392 26.9893 141.178 31.1254C143.797 33.0465 146.364 35.0516 148.678 37.3192C148.11 37.3087 146.984 37.2877 146.416 37.2772C121.621 15.7146 82.5511 13.0691 54.9999 30.968C33.0452 44.1848 18.7804 69.0017 18.1071 94.5325C18.0651 111.203 18.1703 127.874 18.0545 144.544C18.044 148.639 14.299 152.113 10.2068 151.41C8.62886 150.801 5.37826 150.245 6.55648 147.799C10.0806 150.434 15.7086 148.303 16.3714 143.893C16.6659 126.31 16.2767 108.694 16.5713 91.0997C17.2025 78.9642 20.6214 66.9546 26.6387 56.3833C35.4226 40.8255 49.6874 28.4905 66.2981 21.8768Z" fill="black"/>
<path d="M141.178 31.1254C143.523 27.7136 145.88 24.2493 148.962 21.4254C160.408 29.7607 169.949 40.7415 176.377 53.3494C173.684 57.3806 170.422 61.0548 168.266 65.4429C163.879 54.7876 157.147 45.1506 148.678 37.3192C146.364 35.0516 143.797 33.0465 141.178 31.1254Z" fill="#4DE56C"/>
<path d="M168.266 65.4429C170.422 61.0548 173.684 57.3806 176.377 53.3494C178.544 57.4331 180.353 61.7162 181.805 66.1043C183.562 71.6682 184.961 77.358 185.697 83.1423C181.479 87.8349 178.333 93.3673 173.999 97.9653C174.346 86.8796 172.432 75.7309 168.266 65.4429Z" fill="#58E965"/>
<path d="M59.7337 62.0416C62.3847 59.6901 64.4887 56.3203 68.1495 55.4595C73.5567 53.9058 79.5108 57.727 81.0362 62.9655C81.9304 68.3824 85.3914 73.7888 83.4031 79.3316C82.4353 82.3025 79.6581 84.0347 77.7015 86.3022C77.996 87.7194 78.4799 89.0946 79.048 90.4279C79.837 92.37 80.7837 94.2386 81.7621 96.0967C78.2695 100.789 74.1773 105.104 71.6421 110.416C62.3532 98.8681 57.0407 84.2026 56.7882 69.3901C56.4621 66.6502 57.5667 63.7738 59.7337 62.0416Z" fill="#3BE078"/>
<path opacity="0.27" d="M81.0362 62.9655C82.8772 63.5008 83.0349 65.7159 83.4663 67.2801C84.3815 71.8571 86.3487 76.4762 85.181 81.2002C83.9081 84.7905 80.3419 86.8481 79.048 90.4279C78.4799 89.0946 77.996 87.7194 77.7014 86.3022C79.6581 84.0347 82.4353 82.3025 83.4031 79.3316C85.3914 73.7888 81.9304 68.3824 81.0362 62.9655Z" fill="black"/>
<path opacity="0.25" d="M181.805 66.1043C182.089 66.3248 182.667 66.7552 182.951 66.9756C188.695 82.4075 189.063 99.3615 186.349 115.434C182.068 136.933 169.697 156.669 152.244 169.96C138.074 180.814 120.611 187.229 102.812 188.436C72.673 188.604 42.534 188.467 12.3949 188.509C10.3962 188.593 7.76622 188.331 7.0614 186.105L8.17649 185.759C15.4141 186.536 22.7674 185.916 30.0575 186.105C39.5148 186.105 48.9826 186.116 58.4398 186.105C68.2021 186.105 77.9644 186.116 87.7268 186.095C97.6574 186.294 107.704 185.906 117.361 183.397C138.358 178.19 157.315 165.278 169.749 147.62C182.983 129.154 188.737 105.618 185.697 83.1423C184.961 77.358 183.562 71.6682 181.805 66.1043Z" fill="black"/>
<path d="M173.999 97.9653C178.333 93.3673 181.479 87.8349 185.697 83.1423C188.737 105.618 182.983 129.154 169.749 147.62C157.315 165.278 138.358 178.19 117.361 183.397C119.686 177.088 125.198 172.626 128.028 166.537C154.664 154.717 173.21 127.055 173.999 97.9653Z" fill="#60EB60"/>
<path d="M4.18953 89.9449C5.6623 94.816 4.67344 99.9179 5.17839 104.894C9.91227 101.178 11.7953 94.8894 16.5713 91.0997C16.2767 108.694 16.6659 126.31 16.3714 143.893C15.7086 148.303 10.0806 150.434 6.55647 147.799C4.64188 146.56 3.86342 144.061 4.02122 141.867C4.13693 124.556 3.81082 107.245 4.18953 89.9449Z" fill="#33DD7D"/>
<path d="M71.6421 110.416C74.1773 105.104 78.2695 100.789 81.7621 96.0967C85.5807 102.626 91.2404 108.022 97.8888 111.634C95.0275 116.379 91.4087 120.62 88.5789 125.396C83.298 122.142 78.5641 118.048 74.3246 113.534C73.3989 112.515 72.4837 111.497 71.6421 110.416Z" fill="#46E371"/>
<path d="M113.3 109.209C117.866 107.266 122.516 109.901 126.986 110.825C131.342 111.518 135.613 114.248 137.022 118.583C138.253 122.226 137.348 126.624 134.35 129.144C131.468 131.674 129.185 135.59 124.935 135.779C112.164 135.8 99.3931 132.209 88.5789 125.396C91.4087 120.62 95.0275 116.379 97.8888 111.634C100.592 112.956 103.359 114.153 106.273 114.93C108.587 112.998 110.313 110.195 113.3 109.209Z" fill="#51E76A"/>
<path opacity="0.25" d="M74.3246 113.534C78.5641 118.048 83.2979 122.142 88.5789 125.396C99.3931 132.209 112.164 135.8 124.935 135.779C129.185 135.59 131.468 131.674 134.35 129.144C137.348 126.624 138.253 122.226 137.022 118.583C140.031 121.386 139.579 126.719 137.243 129.858C134.54 132.797 131.857 135.926 128.354 137.941C111.901 139.589 95.5008 133.175 82.6352 123.171C79.4162 120.504 75.2083 117.911 74.3246 113.534Z" fill="black"/>
<path d="M95.5955 173.676C106.736 173.518 117.897 171.251 128.028 166.537C125.198 172.626 119.686 177.088 117.361 183.397C107.704 185.906 97.6574 186.294 87.7267 186.095C89.5887 181.497 93.439 178.127 95.5955 173.676Z" fill="#59E964"/>
<path d="M38.8941 173.707C48.0463 173.686 57.209 173.676 66.3717 173.707C64.8989 178.515 60.8804 181.822 58.4398 186.105C48.9826 186.116 39.5148 186.105 30.0576 186.105C32.8032 181.833 36.0643 177.928 38.8941 173.707Z" fill="#4AE46E"/>
<path d="M66.3717 173.707C76.113 173.665 85.8542 173.728 95.5955 173.676C93.439 178.127 89.5887 181.497 87.7268 186.095C77.9644 186.116 68.2021 186.105 58.4398 186.105C60.8804 181.822 64.8989 178.515 66.3717 173.707Z" fill="#52E769"/>
</svg>
