<svg width="48" height="48" viewBox="0 0 48 48" fill="none" xmlns="http://www.w3.org/2000/svg">
<path d="M32 4H16C9.37258 4 4 9.37258 4 16V32C4 38.6274 9.37258 44 16 44H32C38.6274 44 44 38.6274 44 32V16C44 9.37258 38.6274 4 32 4Z" stroke="url(#paint0_linear)" stroke-width="5"/>
<path d="M36 9C36.7956 9 37.5587 9.31607 38.1213 9.87868C38.6839 10.4413 39 11.2043 39 12C39 12.7956 38.6839 13.5587 38.1213 14.1213C37.5587 14.6839 36.7956 15 36 15C35.2044 15 34.4413 14.6839 33.8787 14.1213C33.3161 13.5587 33 12.7956 33 12C33 11.2043 33.3161 10.4413 33.8787 9.87868C34.4413 9.31607 35.2044 9 36 9V9Z" fill="url(#paint1_linear)"/>
<mask id="path-3-inside-1" fill="white">
<path fill-rule="evenodd" clip-rule="evenodd" d="M32.4853 15.5147C30.2348 13.2643 27.1826 12 24 12C20.8174 12 17.7652 13.2643 15.5147 15.5147C13.2643 17.7652 12 20.8174 12 24C12 27.1826 13.2643 30.2348 15.5147 32.4853C17.7652 34.7357 20.8174 36 24 36C27.1826 36 30.2348 34.7357 32.4853 32.4853C34.7357 30.2348 36 27.1826 36 24C36 20.8174 34.7357 17.7652 32.4853 15.5147ZM18.3431 18.3431C19.8434 16.8429 21.8783 16 24 16C26.1217 16 28.1566 16.8429 29.6569 18.3431C31.1571 19.8434 32 21.8783 32 24C32 26.1217 31.1571 28.1566 29.6569 29.6569C28.1566 31.1571 26.1217 32 24 32C21.8783 32 19.8434 31.1571 18.3431 29.6569C16.8429 28.1566 16 26.1217 16 24C16 21.8783 16.8429 19.8434 18.3431 18.3431Z"/>
</mask>
<path fill-rule="evenodd" clip-rule="evenodd" d="M32.4853 15.5147C30.2348 13.2643 27.1826 12 24 12C20.8174 12 17.7652 13.2643 15.5147 15.5147C13.2643 17.7652 12 20.8174 12 24C12 27.1826 13.2643 30.2348 15.5147 32.4853C17.7652 34.7357 20.8174 36 24 36C27.1826 36 30.2348 34.7357 32.4853 32.4853C34.7357 30.2348 36 27.1826 36 24C36 20.8174 34.7357 17.7652 32.4853 15.5147ZM18.3431 18.3431C19.8434 16.8429 21.8783 16 24 16C26.1217 16 28.1566 16.8429 29.6569 18.3431C31.1571 19.8434 32 21.8783 32 24C32 26.1217 31.1571 28.1566 29.6569 29.6569C28.1566 31.1571 26.1217 32 24 32C21.8783 32 19.8434 31.1571 18.3431 29.6569C16.8429 28.1566 16 26.1217 16 24C16 21.8783 16.8429 19.8434 18.3431 18.3431Z" fill="url(#paint2_linear)"/>
<path d="M32.4853 15.5147L33.1924 14.8076L33.1924 14.8076L32.4853 15.5147ZM15.5147 15.5147L14.8076 14.8076L14.8076 14.8076L15.5147 15.5147ZM15.5147 32.4853L14.8076 33.1924L14.8076 33.1924L15.5147 32.4853ZM24 13C26.9174 13 29.7153 14.1589 31.7782 16.2218L33.1924 14.8076C30.7544 12.3696 27.4478 11 24 11V13ZM16.2218 16.2218C18.2847 14.1589 21.0826 13 24 13V11C20.5522 11 17.2456 12.3696 14.8076 14.8076L16.2218 16.2218ZM13 24C13 21.0826 14.1589 18.2847 16.2218 16.2218L14.8076 14.8076C12.3696 17.2456 11 20.5522 11 24H13ZM16.2218 31.7782C14.1589 29.7153 13 26.9174 13 24H11C11 27.4478 12.3696 30.7544 14.8076 33.1924L16.2218 31.7782ZM24 35C21.0826 35 18.2847 33.8411 16.2218 31.7782L14.8076 33.1924C17.2456 35.6304 20.5522 37 24 37V35ZM31.7782 31.7782C29.7153 33.8411 26.9174 35 24 35V37C27.4478 37 30.7544 35.6304 33.1924 33.1924L31.7782 31.7782ZM35 24C35 26.9174 33.8411 29.7153 31.7782 31.7782L33.1924 33.1924C35.6304 30.7544 37 27.4478 37 24H35ZM31.7782 16.2218C33.8411 18.2847 35 21.0826 35 24H37C37 20.5522 35.6304 17.2456 33.1924 14.8076L31.7782 16.2218ZM24 15C21.6131 15 19.3239 15.9482 17.636 17.636L19.0503 19.0503C20.363 17.7375 22.1435 17 24 17V15ZM30.364 17.636C28.6761 15.9482 26.3869 15 24 15V17C25.8565 17 27.637 17.7375 28.9497 19.0503L30.364 17.636ZM33 24C33 21.6131 32.0518 19.3239 30.364 17.636L28.9497 19.0503C30.2625 20.363 31 22.1435 31 24H33ZM30.364 30.364C32.0518 28.6761 33 26.3869 33 24H31C31 25.8565 30.2625 27.637 28.9497 28.9497L30.364 30.364ZM24 33C26.3869 33 28.6761 32.0518 30.364 30.364L28.9497 28.9497C27.637 30.2625 25.8565 31 24 31V33ZM17.636 30.364C19.3239 32.0518 21.6131 33 24 33V31C22.1435 31 20.363 30.2625 19.0503 28.9497L17.636 30.364ZM15 24C15 26.3869 15.9482 28.6761 17.636 30.364L19.0503 28.9497C17.7375 27.637 17 25.8565 17 24H15ZM17.636 17.636C15.9482 19.3239 15 21.6131 15 24H17C17 22.1435 17.7375 20.363 19.0503 19.0503L17.636 17.636Z" fill="url(#paint3_linear)" mask="url(#path-3-inside-1)"/>
<defs>
<linearGradient id="paint0_linear" x1="24" y1="44" x2="24" y2="4" gradientUnits="userSpaceOnUse">
<stop stop-color="#FD5900"/>
<stop offset="1" stop-color="#FF007A"/>
</linearGradient>
<linearGradient id="paint1_linear" x1="36" y1="15" x2="36" y2="9" gradientUnits="userSpaceOnUse">
<stop stop-color="#FD2E00"/>
<stop offset="1" stop-color="#FF9900"/>
</linearGradient>
<linearGradient id="paint2_linear" x1="24" y1="36" x2="24" y2="12" gradientUnits="userSpaceOnUse">
<stop stop-color="#FD2E00"/>
<stop offset="1" stop-color="#FF9900"/>
</linearGradient>
<linearGradient id="paint3_linear" x1="24" y1="36" x2="24" y2="12" gradientUnits="userSpaceOnUse">
<stop stop-color="#FD2E00"/>
<stop offset="1" stop-color="#FF9900"/>
</linearGradient>
</defs>
</svg>
