<svg width="64" height="64" viewBox="0 0 64 64" fill="none" xmlns="http://www.w3.org/2000/svg">
<path fill-rule="evenodd" clip-rule="evenodd" d="M39.3428 2.64415C39.254 1.32266 40.3723 0.0189148 41.7257 0.0366529C44.7941 -0.0108624 47.8647 -0.00180909 50.9344 0.00724129C52.162 0.0108608 53.3894 0.0144798 54.6165 0.0144798C58.699 -0.0387345 62.3821 3.06986 63.3495 6.97667C63.5666 9.40071 63.541 11.8339 63.5153 14.2669C63.5011 15.6125 63.4869 16.9584 63.5137 18.3023L63.5148 46.4705C63.3554 46.4012 63.1942 46.3347 63.0328 46.2681C62.3994 46.0066 61.7632 45.7441 61.2294 45.3131C61.0443 45.0086 60.8942 44.6539 60.7431 44.2966C60.3071 43.2661 59.8618 42.2136 58.5406 42.28C59.8606 42.2144 60.3057 43.2664 60.7415 44.2965C60.8927 44.6539 61.0428 45.0086 61.2279 45.3131C61.7617 45.7441 62.3969 46.0063 63.0302 46.2677C63.1919 46.3345 63.3534 46.4011 63.5131 46.4706C63.5026 47.5447 63.508 48.6188 63.5135 49.6929C63.5219 51.3283 63.5302 52.9637 63.482 54.599C63.4066 56.8117 62.3241 58.8824 60.8111 60.4611C59.1381 61.9866 56.9596 63.0068 54.6655 62.9847C50.0061 63.0024 45.3423 62.9935 40.6785 62.9758C40.1238 62.4969 39.5603 62.0312 38.9878 61.5701C38.4826 60.6187 37.616 60.0807 36.7458 59.5403C36.0341 59.0984 35.3199 58.6549 34.7988 57.9825C38.5608 57.9413 42.3242 57.948 46.0883 57.9548C48.7933 57.9596 51.4987 57.9645 54.204 57.9515C55.1757 57.9958 56.0764 57.5924 56.9415 57.2022C57.7313 56.3419 58.4501 55.3174 58.4456 54.1023C58.4838 51.8418 58.4767 49.5798 58.4696 47.318C58.4643 45.6398 58.4591 43.9616 58.4723 42.2844L58.4737 42.2842C58.4737 40.9487 58.4719 39.6132 58.4702 38.2776C58.4658 34.8063 58.4613 31.335 58.4869 27.8636C58.4844 26.9058 58.4802 25.9475 58.4764 24.9897C58.4608 21.0033 58.4451 17.0169 58.5131 13.0305C58.4588 12.3633 58.4677 11.6899 58.477 11.0177C58.4913 9.98758 58.5056 8.95854 58.2908 7.95227C57.8648 6.3381 56.3072 5.11861 54.6343 5.092C52.3912 5.04787 50.1481 5.05727 47.9057 5.06667C45.8672 5.07522 43.8292 5.08377 41.7922 5.05209C40.5009 5.0654 39.3694 3.92129 39.3428 2.64415Z" fill="url(#paint0_linear)"/>
<path d="M1.08789 5.64625C2.499 2.40018 5.78272 -0.0254975 9.38594 0.0144132C10.0784 0.0129361 10.771 0.0110901 11.4637 0.00924377C14.9303 3.88641e-06 18.3994 -0.00924272 21.8685 0.0277171C23.2885 -0.0476698 24.5177 1.31373 24.3668 2.71503C24.3224 4.04096 23.0755 5.13185 21.7576 5.06089C19.9359 5.08053 18.1142 5.07321 16.2925 5.06589C14.0006 5.05668 11.7088 5.04746 9.417 5.09194C7.0786 5.06533 5.4146 7.29563 5.49427 9.50834C5.5659 12.7887 5.55674 16.0708 5.54726 19.3531C5.5397 21.9678 5.53215 24.5829 5.56559 27.198C5.09949 26.8474 4.60367 26.5407 4.1077 26.2338C3.72547 25.9974 3.34299 25.7607 2.97412 25.504C2.46368 24.9793 2.03657 24.3847 1.60921 23.7897C1.2601 23.3037 0.9108 22.8174 0.515768 22.3688C0.540663 20.5745 0.521369 18.7775 0.502071 16.9802C0.466332 13.6516 0.430584 10.3221 0.675517 7.00764C0.75635 6.69649 0.853343 6.39139 0.950142 6.0869C0.996791 5.94016 1.04316 5.79332 1.08789 5.64625Z" fill="url(#paint1_linear)"/>
<path fill-rule="evenodd" clip-rule="evenodd" d="M38.7735 9.4335C39.8118 8.4313 41.5913 8.35592 42.7095 9.2783C43.6386 10.0484 44.5124 10.8802 45.3861 11.7119C45.9561 12.2545 46.5263 12.7973 47.1115 13.3226C47.3113 13.5164 47.5202 13.7052 47.7298 13.8947C48.4699 14.5637 49.219 15.241 49.6098 16.174C49.7207 17.185 49.6763 18.2981 48.9353 19.083C47.9645 20.2058 46.9424 21.2848 45.92 22.364L45.9193 22.3648C45.1896 23.1351 44.4597 23.9056 43.7484 24.6922C42.5266 25.9972 41.3084 27.305 40.09 28.6123C38.866 29.9254 37.642 31.2386 36.4147 32.5495L36.4158 32.5507C35.5389 33.4893 34.6634 34.4294 33.7879 35.3695L33.7867 35.3707C32.4829 36.7708 31.1791 38.1708 29.8706 39.5661C28.7301 38.3111 27.501 37.1315 26.1387 36.1116C27.3848 34.7808 28.6282 33.4472 29.8719 32.1132L29.879 32.1056C30.8291 31.0865 31.7796 30.067 32.7317 29.0484L32.7305 29.0474C33.8912 27.8072 35.0501 26.5642 36.2092 25.321L36.2146 25.3153L36.2161 25.3137C37.6158 23.8125 39.0162 22.3105 40.4202 20.8129C41.5207 19.6333 42.6208 18.4533 43.6902 17.2471C42.8559 16.2804 41.9152 15.4068 40.8946 14.6396C39.8653 15.6595 38.8847 16.7147 37.9041 17.7789C36.8128 18.95 35.7201 20.1206 34.6268 21.2911C33.1909 22.8286 31.7547 24.3664 30.3213 25.9071L30.3223 25.9076C29.2144 27.0896 28.1103 28.2755 27.0061 29.4617C25.7532 30.8075 24.4995 32.1541 23.2401 33.4951C22.468 31.9031 21.2699 30.5816 19.5703 29.9652L19.6251 29.9065C21.9407 27.4208 24.2564 24.9352 26.5807 22.454L26.5801 22.453C27.6084 21.3393 28.6443 20.2324 29.6803 19.1254C31.152 17.5528 32.6239 15.98 34.0743 14.3874C34.8047 13.6535 35.5047 12.8897 36.2046 12.1267C37.0438 11.2117 37.8831 10.2966 38.7735 9.4335Z" fill="url(#paint2_linear)"/>
<path fill-rule="evenodd" clip-rule="evenodd" d="M0.515768 22.3688C0.9108 22.8174 1.2601 23.3037 1.60921 23.7897C2.03657 24.3847 2.46368 24.9793 2.97412 25.504C3.34299 25.7607 3.72547 25.9974 4.1077 26.2338C4.60367 26.5407 5.09949 26.8474 5.56559 27.198C5.53925 30.3364 5.54192 33.475 5.5453 36.6134C5.54761 38.7605 5.54992 40.908 5.54271 43.0551L5.54428 43.056C5.55538 44.5896 5.55106 46.1232 5.54675 47.6567C5.54071 49.8038 5.53467 51.9509 5.5709 54.098C5.58422 56.1334 7.37252 57.9205 9.40488 57.9294C11.6966 57.9696 13.99 57.9628 16.2831 57.956C17.7854 57.9516 19.2876 57.9472 20.7891 57.956C22.4556 57.9607 24.122 57.9569 25.7887 57.9532H25.7908C28.7922 57.9465 31.795 57.9398 34.7988 57.9825C35.3199 58.6549 36.0341 59.0984 36.7458 59.5403C37.616 60.0807 38.4826 60.6187 38.9878 61.5701C39.5603 62.0312 40.1238 62.4969 40.6785 62.9758C35.3588 63.0024 30.0383 62.9935 24.7186 62.9802C23.0043 62.9788 21.2901 62.984 19.5759 62.9891C16.0228 62.9998 12.4698 63.0104 8.91675 62.9626C4.37722 62.8074 0.445632 58.6655 0.512194 54.129C0.496218 50.9387 0.499414 47.7469 0.502609 44.5554C0.504738 42.4285 0.506867 40.3017 0.503322 38.1756L0.50174 38.1735C0.503219 36.4174 0.502233 34.6613 0.501247 32.9052C0.499275 29.3931 0.498019 25.8809 0.515768 22.3688ZM22.2626 59.1854L22.2624 59.1843C21.9745 59.3259 21.6911 59.4675 21.4034 59.6134L21.4038 59.6145C21.6915 59.4685 21.9748 59.327 22.2626 59.1854Z" fill="url(#paint3_linear)"/>
<path d="M18.1257 31.5071C17.0534 32.5288 15.9756 33.5558 15.895 35.087C15.6703 36.9591 15.4235 38.8286 15.1765 40.6994C15.0917 41.3413 15.007 41.9834 14.9231 42.6257C14.83 43.2643 14.8788 43.894 15.0607 44.5192C18.5712 44.3562 22.0698 43.85 25.5491 43.3467L26.181 43.2554C27.1043 42.6534 27.8365 41.8123 28.568 40.972C28.9896 40.4877 29.411 40.0037 29.8686 39.5659C28.7282 38.3109 27.499 37.1313 26.1367 36.1114C25.4 36.9052 24.659 37.6989 23.9179 38.4927C22.7952 38.6257 21.677 38.7499 20.5543 38.8608C20.5912 38.5961 20.6203 38.3294 20.6494 38.0625C20.7252 37.368 20.801 36.6725 21.0158 36.0094C21.4492 35.3488 22.001 34.7823 22.551 34.2176C22.7836 33.9788 23.016 33.7402 23.239 33.495C22.4669 31.903 21.2688 30.5815 19.5692 29.9651C19.1659 30.516 18.6464 31.0109 18.1257 31.5071Z" fill="url(#paint4_linear)"/>
<path d="M14.8669 50.8916C14.4543 49.2863 15.5725 47.3839 17.343 47.4549C22.7851 47.4173 28.2285 47.4223 33.6726 47.4272C37.8479 47.431 42.0243 47.4348 46.1999 47.4194C47.2915 47.3839 48.5784 47.4815 49.2263 48.5059C50.0472 49.5834 49.6611 51.0823 48.8313 52.0402C47.8462 52.3949 46.799 52.5457 45.7517 52.5147C41.3628 52.4901 36.9738 52.4959 32.5849 52.5017C27.5087 52.5084 22.4326 52.5152 17.3564 52.4747C16.247 52.5457 15.4793 51.6898 14.8669 50.8916Z" fill="url(#paint5_linear)"/>
<defs>
<linearGradient id="paint0_linear" x1="32.0043" y1="62.9982" x2="32.0043" y2="0" gradientUnits="userSpaceOnUse">
<stop stop-color="#FD2E00"/>
<stop offset="1" stop-color="#FF9900"/>
</linearGradient>
<linearGradient id="paint1_linear" x1="32.0043" y1="62.9982" x2="32.0043" y2="0" gradientUnits="userSpaceOnUse">
<stop stop-color="#FD2E00"/>
<stop offset="1" stop-color="#FF9900"/>
</linearGradient>
<linearGradient id="paint2_linear" x1="32.0043" y1="62.9982" x2="32.0043" y2="0" gradientUnits="userSpaceOnUse">
<stop stop-color="#FD2E00"/>
<stop offset="1" stop-color="#FF9900"/>
</linearGradient>
<linearGradient id="paint3_linear" x1="32.0043" y1="62.9982" x2="32.0043" y2="0" gradientUnits="userSpaceOnUse">
<stop stop-color="#FD2E00"/>
<stop offset="1" stop-color="#FF9900"/>
</linearGradient>
<linearGradient id="paint4_linear" x1="32.0043" y1="62.9982" x2="32.0043" y2="0" gradientUnits="userSpaceOnUse">
<stop stop-color="#FD2E00"/>
<stop offset="1" stop-color="#FF9900"/>
</linearGradient>
<linearGradient id="paint5_linear" x1="32.0043" y1="62.9982" x2="32.0043" y2="0" gradientUnits="userSpaceOnUse">
<stop stop-color="#FD2E00"/>
<stop offset="1" stop-color="#FF9900"/>
</linearGradient>
</defs>
</svg>
