<svg width="22" height="22" viewBox="0 0 22 22" fill="none" xmlns="http://www.w3.org/2000/svg">
<rect x="5" y="15" width="2" height="3" rx="0.5" fill="url(#paint0_linear)"/>
<rect x="14" y="15" width="2" height="3" rx="0.5" fill="url(#paint1_linear)"/>
<rect x="9" y="14" width="3" height="4" rx="0.5" fill="url(#paint2_linear)"/>
<path d="M10.067 1.75C10.2594 1.41667 10.7406 1.41667 10.933 1.75L19.6542 16.8555C19.8997 17.2808 19.4492 17.7682 19.0059 17.5568L10.7152 13.6027C10.5791 13.5377 10.4209 13.5377 10.2848 13.6027L1.99406 17.5568C1.55084 17.7682 1.10028 17.2808 1.3458 16.8555L10.067 1.75Z" stroke="url(#paint3_linear)" stroke-width="1.5"/>
<defs>
<linearGradient id="paint0_linear" x1="6" y1="15" x2="6" y2="18" gradientUnits="userSpaceOnUse">
<stop stop-color="#F75050"/>
<stop offset="1" stop-color="#A00909"/>
</linearGradient>
<linearGradient id="paint1_linear" x1="15" y1="15" x2="15" y2="18" gradientUnits="userSpaceOnUse">
<stop stop-color="#F75050"/>
<stop offset="1" stop-color="#A00909"/>
</linearGradient>
<linearGradient id="paint2_linear" x1="10.5" y1="14" x2="10.5" y2="18" gradientUnits="userSpaceOnUse">
<stop stop-color="#F75050"/>
<stop offset="1" stop-color="#A00909"/>
</linearGradient>
<linearGradient id="paint3_linear" x1="10.5" y1="18.25" x2="10.5" y2="1" gradientUnits="userSpaceOnUse">
<stop stop-color="#FD5900"/>
<stop offset="1" stop-color="#FFDE00"/>
</linearGradient>
</defs>
</svg>
