<svg width="252" height="231" viewBox="0 0 252 231" fill="none" xmlns="http://www.w3.org/2000/svg">
<path d="M27.0703 63.2H60.7617C62.6224 63.2 64.1309 61.9016 64.1309 60.3C64.1309 58.6984 62.6224 57.4 60.7617 57.4H27.0703C25.2096 57.4 23.7012 58.6984 23.7012 60.3C23.7012 61.9016 25.2096 63.2 27.0703 63.2ZM27.0703 74.8H60.7617C62.6224 74.8 64.1309 73.5016 64.1309 71.9C64.1309 70.2984 62.6224 69 60.7617 69H27.0703C25.2096 69 23.7012 70.2984 23.7012 71.9C23.7012 73.5016 25.2096 74.8 27.0703 74.8ZM74.2383 86.4H107.93C109.79 86.4 111.299 85.1016 111.299 83.5V48.7C111.299 47.0984 109.79 45.8 107.93 45.8H74.2383C72.3776 45.8 70.8691 47.0984 70.8691 48.7V83.5C70.8691 85.1016 72.3776 86.4 74.2383 86.4ZM77.6074 51.6H104.561V80.6H77.6074V51.6ZM27.0703 51.6H40.5469C42.4075 51.6 43.916 50.3016 43.916 48.7C43.916 47.0984 42.4075 45.8 40.5469 45.8H27.0703C25.2096 45.8 23.7012 47.0984 23.7012 48.7C23.7012 50.3016 25.2096 51.6 27.0703 51.6ZM27.0703 28.4C28.931 28.4 30.4395 27.1016 30.4395 25.5C30.4395 23.8984 28.931 22.6 27.0703 22.6C25.2096 22.6 23.7012 23.8984 23.7012 25.5C23.7012 27.1016 25.2096 28.4 27.0703 28.4ZM121.631 11H13.3691C11.5085 11 10 12.2984 10 13.9V95.1C10 96.7016 11.5085 98 13.3691 98H121.631C123.492 98 125 96.7016 125 95.1V13.9C125 12.2984 123.492 11 121.631 11ZM118.262 92.2H16.7383V40H118.262V92.2ZM118.262 34.2H16.7383V16.8H118.262V34.2ZM27.0703 86.4H60.7617C62.6224 86.4 64.1309 85.1016 64.1309 83.5C64.1309 81.8984 62.6224 80.6 60.7617 80.6H27.0703C25.2096 80.6 23.7012 81.8984 23.7012 83.5C23.7012 85.1016 25.2096 86.4 27.0703 86.4ZM40.5469 28.4C42.4075 28.4 43.916 27.1016 43.916 25.5C43.916 23.8984 42.4075 22.6 40.5469 22.6C38.6862 22.6 37.1777 23.8984 37.1777 25.5C37.1777 27.1016 38.6862 28.4 40.5469 28.4ZM54.0234 28.4C55.8841 28.4 57.3926 27.1016 57.3926 25.5C57.3926 23.8984 55.8841 22.6 54.0234 22.6C52.1628 22.6 50.6543 23.8984 50.6543 25.5C50.6543 27.1016 52.1628 28.4 54.0234 28.4Z" fill="url(#paint0_linear)"/>
<path d="M98.086 167.8H147.598C150.332 167.8 152.549 165.815 152.549 163.367C152.549 160.918 150.332 158.933 147.598 158.933H98.086C95.352 158.933 93.135 160.918 93.135 163.367C93.135 165.815 95.352 167.8 98.086 167.8ZM98.086 185.533H147.598C150.332 185.533 152.549 183.548 152.549 181.1C152.549 178.652 150.332 176.667 147.598 176.667H98.086C95.352 176.667 93.135 178.652 93.135 181.1C93.135 183.548 95.352 185.533 98.086 185.533ZM167.402 203.267H216.914C219.648 203.267 221.865 201.282 221.865 198.833V145.633C221.865 143.185 219.648 141.2 216.914 141.2H167.402C164.668 141.2 162.451 143.185 162.451 145.633V198.833C162.451 201.282 164.668 203.267 167.402 203.267ZM172.354 150.067H211.963V194.4H172.354V150.067ZM98.086 150.067H117.891C120.625 150.067 122.842 148.082 122.842 145.633C122.842 143.185 120.625 141.2 117.891 141.2H98.086C95.352 141.2 93.135 143.185 93.135 145.633C93.135 148.082 95.352 150.067 98.086 150.067ZM98.086 114.6C100.82 114.6 103.037 112.615 103.037 110.167C103.037 107.718 100.82 105.733 98.086 105.733C95.352 105.733 93.135 107.718 93.135 110.167C93.135 112.615 95.352 114.6 98.086 114.6ZM237.049 88H77.9512C75.2168 88 73 89.985 73 92.433V216.567C73 219.015 75.2168 221 77.9512 221H237.049C239.783 221 242 219.015 242 216.567V92.433C242 89.985 239.783 88 237.049 88ZM232.098 212.133H82.9023V132.333H232.098V212.133ZM232.098 123.467H82.9023V96.867H232.098V123.467ZM98.086 203.267H147.598C150.332 203.267 152.549 201.282 152.549 198.833C152.549 196.385 150.332 194.4 147.598 194.4H98.086C95.352 194.4 93.135 196.385 93.135 198.833C93.135 201.282 95.352 203.267 98.086 203.267ZM117.891 114.6C120.625 114.6 122.842 112.615 122.842 110.167C122.842 107.718 120.625 105.733 117.891 105.733C115.156 105.733 112.939 107.718 112.939 110.167C112.939 112.615 115.156 114.6 117.891 114.6ZM137.695 114.6C140.43 114.6 142.646 112.615 142.646 110.167C142.646 107.718 140.43 105.733 137.695 105.733C134.961 105.733 132.744 107.718 132.744 110.167C132.744 112.615 134.961 114.6 137.695 114.6Z" fill="url(#paint1_linear)" stroke="url(#paint2_linear)" stroke-width="4"/>
<defs>
<linearGradient id="paint0_linear" x1="26.8414" y1="85.2591" x2="86.0402" y2="7.00787" gradientUnits="userSpaceOnUse">
<stop stop-color="#0072FF"/>
<stop offset="1" stop-color="#00E5A1"/>
</linearGradient>
<linearGradient id="paint1_linear" x1="157.5" y1="221" x2="157.5" y2="88" gradientUnits="userSpaceOnUse">
<stop stop-color="#5570FF"/>
<stop offset="1" stop-color="#4DD3FF"/>
</linearGradient>
<linearGradient id="paint2_linear" x1="157.5" y1="221" x2="157.5" y2="88" gradientUnits="userSpaceOnUse">
<stop stop-color="#5570FF"/>
<stop offset="1" stop-color="#4DD3FF"/>
</linearGradient>
</defs>
</svg>
