<svg width="128" height="128" viewBox="0 0 128 128" fill="none" xmlns="http://www.w3.org/2000/svg">
<path d="M36 104C34.378 104.003 32.7721 103.678 31.2795 103.043C29.7868 102.408 28.4384 101.477 27.3156 100.306C26.1928 99.1358 25.319 97.7497 24.747 96.2319C24.175 94.714 23.9166 93.096 23.9875 91.4755C24.0584 89.855 24.4571 88.2657 25.1595 86.8036C25.8619 85.3416 26.8535 84.0371 28.0742 82.969C29.2949 81.9009 30.7195 81.0913 32.2619 80.5893C33.8043 80.0873 35.4325 79.9031 37.048 80.048L49.944 58.552C48.7649 56.7411 48.0966 54.6454 48.0097 52.4862C47.9229 50.3269 48.4208 48.1843 49.4507 46.2846C50.4807 44.3848 52.0045 42.7984 53.8614 41.693C55.7182 40.5875 57.8391 40.004 60 40.004C62.161 40.004 64.2819 40.5875 66.1387 41.693C67.9956 42.7984 69.5194 44.3848 70.5494 46.2846C71.5793 48.1843 72.0772 50.3269 71.9904 52.4862C71.9035 54.6454 71.2352 56.7411 70.056 58.552L82.952 80.048C83.5639 79.9929 84.1793 79.9876 84.792 80.032L106.088 42.768C104.558 40.5263 103.832 37.832 104.031 35.125C104.229 32.418 105.34 29.8582 107.18 27.8636C109.021 25.8689 111.484 24.5573 114.166 24.1428C116.849 23.7284 119.592 24.2355 121.949 25.5815C124.307 26.9275 126.138 29.0328 127.144 31.5537C128.15 34.0745 128.272 36.8621 127.489 39.4611C126.707 42.0602 125.067 44.3172 122.836 45.8637C120.605 47.4102 117.916 48.1549 115.208 47.976L93.912 85.24C95.1356 87.0346 95.8492 89.1276 95.9767 91.2958C96.1042 93.4641 95.6408 95.6263 94.6359 97.5519C93.631 99.4775 92.1224 101.094 90.2708 102.23C88.4193 103.365 86.2943 103.977 84.1224 103.999C81.9505 104.022 79.8132 103.455 77.9384 102.358C76.0636 101.261 74.5216 99.6765 73.4768 97.7723C72.4321 95.8681 71.9237 93.716 72.006 91.5455C72.0883 89.3751 72.7581 87.2677 73.944 85.448L61.048 63.952C60.3509 64.0166 59.6492 64.0166 58.952 63.952L46.056 85.448C47.2363 87.259 47.9054 89.3551 47.9928 91.5149C48.0802 93.6748 47.5826 95.8181 46.5525 97.7185C45.5224 99.6189 43.9981 101.206 42.1407 102.311C40.2832 103.417 38.1617 104 36 104Z" fill="url(#paint0_linear)"/>
<path d="M119.247 110.915H23C20.2386 110.915 18 108.677 18 105.915V23C18 18.5817 14.4183 15 10 15C5.58172 15 2 18.5817 2 23V123C2 125.761 4.23858 128 7 128H119.491C123.913 128 126.895 123.581 126.875 119.159C126.855 114.657 123.749 110.915 119.247 110.915Z" fill="url(#paint1_linear)"/>
<circle cx="36" cy="92" r="12" fill="url(#paint2_linear)"/>
<circle cx="60" cy="52" r="12" fill="url(#paint3_linear)"/>
<circle cx="84" cy="92" r="12" fill="url(#paint4_linear)"/>
<circle cx="116" cy="36" r="12" fill="url(#paint5_linear)"/>
<defs>
<linearGradient id="paint0_linear" x1="31.4063" y1="64.0011" x2="115.125" y2="51.9713" gradientUnits="userSpaceOnUse">
<stop stop-color="#8D01A2"/>
<stop offset="1" stop-color="#FF00D2"/>
</linearGradient>
<linearGradient id="paint1_linear" x1="11" y1="71.5" x2="112.952" y2="58.9375" gradientUnits="userSpaceOnUse">
<stop stop-color="#8D01A2"/>
<stop offset="1" stop-color="#FF00D2"/>
</linearGradient>
<linearGradient id="paint2_linear" x1="36" y1="104" x2="36" y2="80" gradientUnits="userSpaceOnUse">
<stop stop-color="#FD5900"/>
<stop offset="1" stop-color="#FFDE00"/>
</linearGradient>
<linearGradient id="paint3_linear" x1="60" y1="64" x2="60" y2="40" gradientUnits="userSpaceOnUse">
<stop stop-color="#FD5900"/>
<stop offset="1" stop-color="#FFDE00"/>
</linearGradient>
<linearGradient id="paint4_linear" x1="84" y1="104" x2="84" y2="80" gradientUnits="userSpaceOnUse">
<stop stop-color="#FD5900"/>
<stop offset="1" stop-color="#FFDE00"/>
</linearGradient>
<linearGradient id="paint5_linear" x1="116" y1="48" x2="116" y2="24" gradientUnits="userSpaceOnUse">
<stop stop-color="#FD5900"/>
<stop offset="1" stop-color="#FFDE00"/>
</linearGradient>
</defs>
</svg>
