<svg width="64" height="64" viewBox="0 0 64 64" fill="none" xmlns="http://www.w3.org/2000/svg">
<path d="M21.5648 22.5648C25.1279 19.0017 29.9605 17 34.9995 17C40.0385 17 44.8711 19.0017 48.4342 22.5648C51.9973 26.1279 53.999 30.9605 53.999 35.9995C53.999 41.0385 51.9973 45.8711 48.4342 49.4342C44.8711 52.9973 40.0385 54.999 34.9995 54.999C29.9605 54.999 25.1279 52.9973 21.5648 49.4342C18.0017 45.8711 16 41.0385 16 35.9995C16 30.9605 18.0017 26.1279 21.5648 22.5648Z" stroke="url(#paint0_linear)" stroke-width="4"/>
<path d="M31.112 4.00123C16.4638 3.9881 4.39452 16.051 4.00946 31.2678C3.61783 46.7261 15.4308 59.5849 30.3928 59.989C37.6821 60.1858 43.3725 57.3898 48.3644 52.6829C48.8975 52.2382 49.1875 51.9611 49.1875 51.9611C49.1875 51.9611 54.6007 46.2796 54.8912 41.5898C53.51 43.8718 52.243 46.1566 48.8047 47.8487C47.2278 48.5791 45.7825 49.2006 44.3259 49.6916C44.2326 49.7153 44.1389 49.7374 44.0442 49.76C43.3543 49.9246 42.6312 50.063 41.8732 50.1674C41.7813 50.18 41.687 50.1912 41.5943 50.2029C40.8081 50.3026 39.9964 50.3752 39.158 50.4107C39.0717 50.4143 38.9823 50.4133 38.8955 50.4161C38.0684 50.4444 37.2224 50.442 36.3635 50.4079C36.3075 50.4057 36.2529 50.4077 36.1967 50.4051C35.3233 50.3664 35.4367 50.2872 34.549 50.1836C34.4223 50.1688 34.2957 50.1587 34.1689 50.1426C33.3048 50.0328 32.4411 49.8878 31.5823 49.7161C31.4435 49.6883 31.305 49.6606 31.1667 49.6313C30.3262 49.4529 29.4933 49.2436 28.6757 49.0051C28.4136 48.9287 28.1524 48.8499 27.8937 48.7673C27.6981 48.7048 27.5019 48.6446 27.3085 48.5786C27.0322 48.4842 26.7623 48.3822 26.491 48.2806C26.2697 48.1977 26.0469 48.1168 25.8293 48.029C25.5771 47.9273 25.3322 47.8173 25.0855 47.7091C24.8765 47.6174 24.6641 47.5293 24.4594 47.4329C24.0136 47.223 23.5754 47.0035 23.1524 46.7712C22.8157 46.585 22.4953 46.39 22.1899 46.1861C21.4885 45.7177 20.8763 45.2015 20.3278 44.6603C17.4723 41.7463 17.6049 38.32 17.7548 36.0992C17.9438 33.3097 20.2825 27.1893 27.9784 23.9479C32.7335 22.269 38.3257 21.0948 43.0008 22.5999C46.5174 23.3934 49.0462 24.5471 52.3904 25.728C52.3904 25.728 52.3633 25.7862 53.2872 26.0151C59.791 27.0453 59.061 21.6874 59.061 21.6874L58.5512 20.4335C58.4384 19.7728 58.9333 19.2517 58.9333 19.2517C58.9333 19.2517 58.5325 17.7742 58.6 16.7978C58.6685 15.8218 58.6132 14.5708 58.4004 12.7866C58.1876 11.0022 57.0165 9.49222 56.6368 9.21486C56.2562 8.938 54.483 7.60122 52.7841 6.93444C51.0842 6.26766 47.2499 6.07314 47.2499 6.07314C47.2499 6.07314 46.757 6.09863 46.4433 6.13602C45.2183 6.28204 43.4062 7.00501 43.4062 7.00501C43.4062 7.00501 43.3123 7.02513 43.2531 7.01595C43.1877 7.00581 43.1509 6.98817 43.0972 6.94957C43.0972 6.94957 35.8229 4.12033 31.8092 4.01217C31.5754 4.00585 31.3445 4.00145 31.112 4.00123Z" fill="url(#paint1_linear)"/>
<path d="M42.9259 12.0298C39.9959 12.0263 36.8195 12.8837 34.4996 13.6905C30.1001 15.2473 27.357 16.5072 23.7923 19.0546C22.847 19.741 19.1326 22.4683 16.8756 26.2715C10.6384 37.2988 15.0516 49.0076 23.1173 51.6681C31.9851 54.9845 40.4735 55.9423 51.1501 46.5068C50.2312 47.2422 51.1509 46.5073 46.0266 49.1775C39.9869 51.4284 31.3162 50.7048 24.1524 46.7716C18.3892 43.5837 18.9676 38.8897 19.1559 36.1001C19.3449 33.3106 20.2836 27.1892 27.9795 23.9478C32.7345 22.2689 38.3257 21.0948 43.0008 22.5999C46.5174 23.3934 49.0453 24.8291 52.3895 26.0099C52.3895 26.0099 52.3619 26.0673 53.2859 26.2962C59.7896 27.3263 59.9999 21.6027 59.9999 21.6027L59.8145 20.5598L59.2483 19.1448L58.9785 18.5385L58.8158 18.21C58.8158 18.21 58.7689 17.7963 58.7031 17.376C58.5786 18.9471 57.953 19.8001 57.953 19.8001C52.898 18.8417 51.9945 14.4834 46.6647 12.654C45.5383 12.211 44.2577 12.0314 42.9259 12.0298ZM51.1501 46.5068C51.7389 46.0356 52.0243 45.7138 52.0243 45.7138C51.7319 45.987 51.4408 46.2499 51.1501 46.5068Z" fill="url(#paint2_linear)"/>
<defs>
<linearGradient id="paint0_linear" x1="34.9995" y1="56.999" x2="34.9995" y2="15" gradientUnits="userSpaceOnUse">
<stop stop-color="#FD5900"/>
<stop offset="1" stop-color="#FFDE00"/>
</linearGradient>
<linearGradient id="paint1_linear" x1="32" y1="59.9988" x2="32" y2="4.00122" gradientUnits="userSpaceOnUse">
<stop stop-color="#AC3E00"/>
<stop offset="1" stop-color="#FF620A"/>
</linearGradient>
<linearGradient id="paint2_linear" x1="32" y1="59.9988" x2="32" y2="4.00122" gradientUnits="userSpaceOnUse">
<stop stop-color="#AC3E00"/>
<stop offset="1" stop-color="#FF620A"/>
</linearGradient>
</defs>
</svg>
