<svg width="128" height="128" viewBox="0 0 128 128" fill="none" xmlns="http://www.w3.org/2000/svg">
<path d="M120.517 23.445L49.13 24.4881C46.4267 24.5276 44.2536 26.5194 44.2764 28.9368L44.709 74.8848C44.7317 77.3022 46.9417 79.2299 49.645 79.1904L121.032 78.1472C123.735 78.1077 125.908 76.116 125.886 73.6986L125.453 27.7506C125.43 25.3331 123.22 23.4054 120.517 23.445Z" fill="url(#paint0_linear)"/>
<path fill-rule="evenodd" clip-rule="evenodd" d="M95.9332 36.3557C95.9021 33.0637 99.1922 30.3419 103.277 30.2824C107.359 30.2231 110.701 32.8483 110.732 36.1403C110.763 39.4339 107.473 42.1557 103.39 42.2152C99.3057 42.2746 95.9644 39.6492 95.9332 36.3557ZM51.7371 58.1411L70.7445 44.9962C74.3049 42.5321 79.8959 42.6569 83.2191 45.2714L91.6747 51.9251C93.3372 53.2316 96.3236 53.5117 98.3403 52.5482L117.423 43.4367C118.432 42.9557 119.243 41.8005 119.234 40.8602L119.14 30.9048C119.113 28.0822 116.25 25.8306 112.749 25.8816L57.7829 26.6814C54.2823 26.7323 51.4622 29.0667 51.489 31.8893L51.7371 58.1411ZM119.397 58.1796C119.38 56.2973 121.259 54.7427 123.594 54.7087C125.928 54.6748 127.836 56.1742 127.854 58.0565L128 73.3985C128.044 78.1018 123.344 81.9908 117.51 82.0756L54.0865 82.9986C48.2517 83.0835 43.48 79.3323 43.4355 74.629L43.0003 28.6014C42.9558 23.8981 47.6553 20.0092 53.4902 19.9243L116.913 19.0014C122.748 18.9165 127.519 22.6676 127.564 27.3709L127.711 42.9856C127.729 44.8679 126.107 47.1769 124.088 48.1404L100.682 59.3131C96.6465 61.2385 90.6698 60.6832 87.3427 58.0719L79.7909 52.1457C78.1284 50.8408 75.3309 50.7785 73.5488 52.0097L54.5098 65.1583L51.821 67.0039L51.8596 71.0967C51.8863 73.9177 54.7497 76.1693 58.2502 76.1184L113.216 75.3185C116.717 75.2676 119.537 72.9332 119.511 70.1122L119.397 58.1796Z" fill="url(#paint1_linear)"/>
<path d="M64.2961 6.8904L8.59624 39.6073C6.48695 40.8463 5.74258 43.5142 6.93363 45.5663L29.5718 84.5701C30.7629 86.6222 33.4383 87.2813 35.5476 86.0424L91.2475 53.3255C93.3568 52.0865 94.1012 49.4186 92.9101 47.3665L70.2719 8.36272C69.0809 6.31063 66.4054 5.65145 64.2961 6.8904Z" fill="url(#paint2_linear)"/>
<path fill-rule="evenodd" clip-rule="evenodd" d="M51.8093 29.3252C50.1507 26.6675 51.6613 22.9482 55.1818 21.025C58.7006 19.103 62.9054 19.7003 64.5641 22.358C66.2235 25.0168 64.7128 28.7363 61.1941 30.6584C57.6736 32.5815 53.4688 31.9841 51.8093 29.3252ZM24.1965 67.2928L34.2006 47.8995C36.0736 44.2654 40.9946 41.8005 45.1786 42.3973L55.825 43.9167C57.9174 44.2139 60.6517 43.0706 61.9269 41.3629L73.9958 25.2087C74.6339 24.3555 74.7663 23.0455 74.2925 22.2863L69.2765 14.2494C67.8544 11.9707 64.2498 11.4575 61.2327 13.1055L13.8582 38.9837C10.8412 40.6318 9.5473 43.8208 10.9695 46.0995L24.1965 67.2928ZM83.0189 36.2684C82.0705 34.7489 82.9334 32.6244 84.9453 31.5254C86.9572 30.4264 89.3589 30.7676 90.3072 32.2872L98.0376 44.6729C100.407 48.4699 98.2505 53.7834 93.2214 56.5304L38.5585 86.3899C33.5295 89.1369 27.5233 88.2826 25.1535 84.4855L1.9625 47.3271C-0.407252 43.5302 1.74952 38.2167 6.7785 35.4696L61.4414 5.61012C66.4703 2.86305 72.4766 3.71748 74.8463 7.51449L82.7138 20.1204C83.6622 21.6399 83.3965 24.2588 82.1196 25.9673L67.3149 45.7789C64.762 49.1938 59.2924 51.4863 55.1067 50.894L45.6063 49.5502C43.5147 49.2542 41.0525 50.4876 40.1139 52.3049L30.0842 71.7156L28.662 74.4477L30.7241 77.7519C32.1455 80.0293 35.75 80.5426 38.7671 78.8945L86.1416 53.0163C89.1586 51.3682 90.4525 48.1792 89.0312 45.9017L83.0189 36.2684Z" fill="url(#paint3_linear)"/>
<path d="M110.367 48H25.6328C23.0742 48 21 50.0874 21 52.6622V116.338C21 118.913 23.0742 121 25.6328 121H110.367C112.926 121 115 118.913 115 116.338V52.6622C115 50.0874 112.926 48 110.367 48Z" fill="url(#paint4_linear)"/>
<path fill-rule="evenodd" clip-rule="evenodd" d="M80.375 66.3508C80.375 62.2276 84.4136 58.879 89.3887 58.879C94.3614 58.879 98.4 62.2276 98.4 66.3508C98.4 70.476 94.3614 73.8246 89.3887 73.8246C84.4136 73.8246 80.375 70.476 80.375 66.3508ZM26.3 92.8278L49.5996 76.7124C53.9639 73.6915 60.7715 73.9497 64.7885 77.2844L75.0094 85.7711C77.0191 87.4375 80.6529 87.8426 83.1201 86.6728L106.465 75.6101C107.699 75.0262 108.7 73.5942 108.7 72.4164V59.9476C108.7 56.4123 105.239 53.5403 100.975 53.5403H34.025C29.7613 53.5403 26.3 56.4123 26.3 59.9476V92.8278ZM108.7 94.1089C108.7 91.7513 111.007 89.8387 113.85 89.8387C116.693 89.8387 119 91.7513 119 94.1089V113.325C119 119.215 113.232 124 106.125 124H28.875C21.768 124 16 119.215 16 113.325V55.6754C16 49.7846 21.768 45 28.875 45H106.125C113.232 45 119 49.7846 119 55.6754V75.2328C119 77.5903 116.997 80.4523 114.528 81.6221L85.8939 95.1873C80.9571 97.525 73.6848 96.721 69.663 93.3899L60.5343 85.8307C58.5246 84.1663 55.1184 84.0372 52.9339 85.5467L29.596 101.666L26.3 103.928V109.054C26.3 112.588 29.7613 115.46 34.025 115.46H100.975C105.239 115.46 108.7 112.588 108.7 109.054V94.1089Z" fill="url(#paint5_linear)"/>
<defs>
<linearGradient id="paint0_linear" x1="85.2822" y1="72.6906" x2="84.5702" y2="23.9702" gradientUnits="userSpaceOnUse">
<stop stop-color="#FFE59A"/>
<stop offset="1" stop-color="#FFFFD5"/>
</linearGradient>
<linearGradient id="paint1_linear" x1="85.798" y1="82.5371" x2="84.8802" y2="19.4675" gradientUnits="userSpaceOnUse">
<stop stop-color="#FDA700"/>
<stop offset="1" stop-color="#FFDE00"/>
</linearGradient>
<linearGradient id="paint2_linear" x1="60.4521" y1="64.6092" x2="36.2319" y2="23.3747" gradientUnits="userSpaceOnUse">
<stop stop-color="#FFE59A"/>
<stop offset="1" stop-color="#FFFFD5"/>
</linearGradient>
<linearGradient id="paint3_linear" x1="18.4946" y1="68.796" x2="89.0868" y2="27.7342" gradientUnits="userSpaceOnUse">
<stop stop-color="#FD5900"/>
<stop offset="1" stop-color="#FFDE00"/>
</linearGradient>
<linearGradient id="paint4_linear" x1="68.0001" y1="113.022" x2="68.0001" y2="48" gradientUnits="userSpaceOnUse">
<stop stop-color="#FFE59A"/>
<stop offset="1" stop-color="#FFFFD5"/>
</linearGradient>
<linearGradient id="paint5_linear" x1="67.5" y1="124" x2="67.5" y2="45" gradientUnits="userSpaceOnUse">
<stop stop-color="#FD2E00"/>
<stop offset="1" stop-color="#FF9900"/>
</linearGradient>
</defs>
</svg>
