<svg id="Capa_1" enable-background="new 0 0 512 512" height="512" viewBox="0 0 512 512" width="512" xmlns="http://www.w3.org/2000/svg" xmlns:xlink="http://www.w3.org/1999/xlink"><linearGradient id="SVGID_1_" gradientUnits="userSpaceOnUse" x1="256" x2="256" y1="481" y2="31"><stop offset="0" stop-color="#5558ff"/><stop offset="1" stop-color="#00c0ff"/></linearGradient><g><g><path d="m75 151h150c8.284 0 15-6.716 15-15s-6.716-15-15-15h-150c-8.284 0-15 6.716-15 15s6.716 15 15 15zm362 150h-362c-8.284 0-15 6.716-15 15s6.716 15 15 15h362c8.284 0 15-6.716 15-15s-6.716-15-15-15zm0-60h-362c-8.284 0-15 6.716-15 15s6.716 15 15 15h362c8.284 0 15-6.716 15-15s-6.716-15-15-15zm0-60h-362c-8.284 0-15 6.716-15 15s6.716 15 15 15h362c8.284 0 15-6.716 15-15s-6.716-15-15-15zm0-150h-362c-41.355 0-75 33.645-75 75v240c0 41.355 33.645 75 75 75h45v45c0 5.532 3.045 10.615 7.922 13.225 4.87 2.606 10.788 2.329 15.398-.744l86.222-57.481h207.458c41.355 0 75-33.645 75-75v-240c0-41.355-33.645-75-75-75zm45 315c0 24.813-20.187 45-45 45h-212c-2.961 0-5.856.877-8.32 2.519l-66.68 44.453v-31.972c0-8.284-6.716-15-15-15h-60c-24.813 0-45-20.187-45-45v-240c0-24.813 20.187-45 45-45h362c24.813 0 45 20.187 45 45z" fill="url(#SVGID_1_)"/></g></g></svg>