<svg id="Capa_1" enable-background="new 0 0 512 512" height="512" viewBox="0 0 512 512" width="512" xmlns="http://www.w3.org/2000/svg" xmlns:xlink="http://www.w3.org/1999/xlink"><linearGradient id="SVGID_1_" gradientUnits="userSpaceOnUse" x1="256" x2="256" y1="512" y2="0"><stop offset="0" stop-color="#00b59c"/><stop offset="1" stop-color="#9cffac"/></linearGradient><g><g><path d="m286 241h-60c-8.284 0-15 6.716-15 15v120c0 8.284 6.716 15 15 15h60c8.284 0 15-6.716 15-15v-120c0-8.284-6.716-15-15-15zm-15 120h-30v-90h30zm-15-361c-140.951 0-256 115.041-256 256 0 140.951 115.041 256 256 256 140.951 0 256-115.041 256-256 0-140.951-115.041-256-256-256zm0 482c-124.617 0-226-101.383-226-226s101.383-226 226-226 226 101.383 226 226-101.383 226-226 226zm0-421c-107.523 0-195 87.477-195 195s87.477 195 195 195 195-87.477 195-195-87.477-195-195-195zm0 360c-90.981 0-165-74.019-165-165s74.019-165 165-165 165 74.019 165 165-74.019 165-165 165zm0-300c-24.813 0-45 20.187-45 45s20.187 45 45 45 45-20.187 45-45-20.187-45-45-45zm0 60c-8.271 0-15-6.729-15-15s6.729-15 15-15 15 6.729 15 15-6.729 15-15 15z" fill="url(#SVGID_1_)"/></g></g></svg>