<svg width="128" height="128" viewBox="0 0 128 128" fill="none" xmlns="http://www.w3.org/2000/svg">
<path d="M4.18183 15.5811C6.19481 11.073 10.7898 8.50232 15.215 8.57792C25.1015 8.60625 34.988 8.54949 44.8746 8.59676C46.9385 8.51168 48.7646 9.85374 50.1406 11.451C53.4871 15.3733 56.7231 19.409 60.163 23.2367C78.3308 23.1326 96.507 23.1516 114.675 23.2272C120.365 23.3028 124.893 29.0963 124.978 35.2584C125.003 58.2626 124.952 81.2572 124.994 104.262C125.096 108.76 123.788 113.647 120.527 116.538C118.794 118.069 116.62 118.731 114.624 119.733C79.2226 119.847 43.8044 119.828 8.39464 119.828C5.30298 120.281 1.85459 117.379 2.01597 113.769C2.02446 98.326 1.95651 82.8828 2.04994 67.4396C2.03295 63.886 2.94176 60.3985 4.30074 57.2135C6.45811 52.3839 11.206 49.1894 16.0474 49.2272C40.3815 49.2272 64.7241 49.2177 89.0582 49.2367C92.5235 48.7736 95.8785 53.3102 94.1203 56.8827C93.3219 59.1132 91.1391 60.2285 89.0921 60.2285C64.7665 60.2851 40.4324 60.1812 16.1068 60.2756C13.0661 60.1339 12.0809 63.9428 12.0384 66.6835C11.911 80.5957 12.1488 94.5173 11.9195 108.43C45.5201 108.439 79.1207 108.581 112.713 108.504C113.842 108.618 115.15 107.569 114.87 106.17C114.853 82.174 115.015 58.1681 114.785 34.1715C95.9974 34.0959 77.2096 34.1905 58.4303 34.1337C56.0436 34.2377 54.1496 32.3474 52.6547 30.5045C49.6989 26.8658 46.6412 23.3216 43.6685 19.6923C34.436 19.683 25.1949 19.7207 15.9624 19.6735C14.9262 19.7301 13.7031 19.5223 12.9132 20.4674C11.0956 24.7204 13.9579 30.4572 10.4756 34.0298C7.64721 36.7612 2.8993 34.6915 2.34722 30.5707C2.11789 25.5427 2.03295 20.1744 4.18183 15.5811Z" fill="url(#paint0_linear)"/>
<defs>
<linearGradient id="paint0_linear" x1="63.4998" y1="119.875" x2="63.4998" y2="8.57629" gradientUnits="userSpaceOnUse">
<stop stop-color="#5558FF"/>
<stop offset="1" stop-color="#00C0FF"/>
</linearGradient>
</defs>
</svg>
