<svg width="64" height="64" viewBox="0 0 64 64" fill="none" xmlns="http://www.w3.org/2000/svg">
<path d="M8.25837 5.28518C10.8473 4.80758 13.5077 5.09167 16.1324 5.01756C18.8823 5.09167 21.9004 4.62643 24.3641 6.03862C26.7116 7.40552 28.2542 9.62468 30.3467 11.2633C31.1158 11.8356 32.1219 12.0332 33.0877 12.0209C42.4998 12.0209 51.912 12.0456 61.3241 12.095C63.0814 11.9468 64.5122 13.7707 63.8236 15.2652C63.4346 16.4057 62.0753 16.945 60.8502 16.8256C51.4559 16.8092 42.0572 16.7968 32.6584 16.7762C30.0248 16.7968 27.494 15.6605 25.7502 13.8654C24.1674 12.5726 23.0227 10.7034 21.0419 9.8923C17.6392 9.63703 14.1963 9.83878 10.7802 9.78937C7.80229 9.71938 5.12396 12.1856 5.21339 14.9276C5.20892 26.3157 5.20892 37.7038 5.21786 49.0878C5.13291 51.8093 7.77546 54.2508 10.7221 54.2096C24.7531 54.2343 38.7886 54.2096 52.8197 54.2261C54.957 54.3372 57.1032 53.2832 58.1137 51.5334C58.9722 50.1624 58.771 48.5279 58.7889 47.0128C58.7978 40.9976 58.7576 34.9783 58.8112 28.959C58.771 27.5797 60.2555 26.4187 61.7265 26.6451C63.144 26.7686 64.1321 28.0614 63.9801 29.3336C63.9846 36.0611 64.0159 42.7886 63.9622 49.516C63.8996 54.5019 59.1019 58.8867 53.7005 58.9732C39.3788 59.0267 25.0527 58.9814 10.731 58.9938C5.16421 59.1008 0.0713589 54.646 0.0221743 49.4996C-0.0180677 37.9673 0.00875997 26.431 0.00875997 14.8988C-0.0940807 10.4316 3.54111 6.2486 8.25837 5.28518Z" fill="url(#paint0_linear)"/>
<path d="M23.324 25.1246C24.3018 24.9029 25.3165 25.0544 26.3104 25.0082C26.7985 25.0353 27.407 24.8853 27.7683 25.3081C28.2419 25.7883 27.9465 26.7136 27.2705 26.8109C26.2092 26.8763 25.1447 26.7982 24.085 26.8444C23.4492 26.8779 22.8921 27.4171 22.8455 28.0473C22.7893 28.7939 22.8808 29.5453 22.8021 30.292C22.693 30.9014 21.8837 31.2157 21.3892 30.8328C21.1034 30.6461 20.9894 30.2952 21.0055 29.9681C21.0071 29.2725 20.983 28.5754 21.0247 27.8798C21.1179 26.6051 22.0876 25.4613 23.324 25.1246Z" fill="url(#paint1_linear)" stroke="url(#paint2_linear)"/>
<path d="M29.5591 25.9442C29.5156 25.4369 29.9628 24.9677 30.4613 25.0042C33.9909 24.9994 37.5221 24.9978 41.0518 25.0042C42.6016 25.0232 43.965 26.4293 43.9945 28.0066C44.0038 31.865 43.9992 35.7265 43.996 39.585C44.0224 41.2003 42.645 42.6777 41.058 42.6999C38.9275 42.6999 36.7954 42.7205 34.6649 42.6856C35.8808 43.7414 36.9988 44.9129 38.1775 46.013C38.4632 46.3031 38.8623 46.5694 38.8856 47.0244C38.9384 47.5554 38.4679 48.0468 37.9445 47.9961C34.3139 48.0009 30.6833 48.0009 27.0543 47.9961C26.531 48.0484 26.0449 47.5697 26.0946 47.0339C26.1055 46.6487 26.4114 46.3903 26.6629 46.1477C27.8835 45.0048 29.0652 43.8159 30.3029 42.6904C28.1894 42.7126 26.076 42.6983 23.9625 42.6967C22.4329 42.6809 21.0711 41.3112 21.0198 39.753C20.9826 37.8507 21.0183 35.9485 21.0028 34.0462C20.9857 33.6642 21.04 33.2188 21.3925 33.0031C21.9236 32.591 22.7792 33.0396 22.7606 33.7197C22.7917 35.6742 22.7528 37.6304 22.7761 39.5865C22.7715 40.3062 23.419 40.9229 24.1209 40.8943C29.6584 40.9007 35.1975 40.888 40.7366 40.8943C41.4292 40.9673 42.1404 40.4536 42.2118 39.7308C42.2584 38.8875 42.2196 38.041 42.2273 37.196C38.9803 37.1754 35.7317 37.2452 32.4847 37.2087C31.9955 37.223 31.57 36.7601 31.6104 36.2639C31.615 35.7931 32.0343 35.381 32.4971 35.4016C35.7425 35.3826 38.988 35.3873 42.232 35.3715C42.2242 32.9699 42.2382 30.5683 42.2258 28.1667C42.2444 27.4407 41.6124 26.7955 40.9012 26.8192C37.429 26.8066 33.9552 26.824 30.4815 26.8097C30.0063 26.8494 29.5621 26.4293 29.5591 25.9442ZM29.2112 46.1826C31.3992 46.1873 33.5856 46.1873 35.7736 46.181C34.6726 45.149 33.598 44.0869 32.5017 43.0518C31.3961 44.0854 30.3184 45.1506 29.2112 46.1826Z" fill="url(#paint3_linear)" stroke="url(#paint4_linear)"/>
<defs>
<linearGradient id="paint0_linear" x1="32" y1="59" x2="32" y2="5" gradientUnits="userSpaceOnUse">
<stop stop-color="#A93AFF"/>
<stop offset="1" stop-color="#FF81FF"/>
</linearGradient>
<linearGradient id="paint1_linear" x1="24.5" y1="31" x2="24.5" y2="25" gradientUnits="userSpaceOnUse">
<stop stop-color="#A93AFF"/>
<stop offset="1" stop-color="#FF81FF"/>
</linearGradient>
<linearGradient id="paint2_linear" x1="24.5" y1="31" x2="24.5" y2="25" gradientUnits="userSpaceOnUse">
<stop stop-color="#A93AFF"/>
<stop offset="1" stop-color="#FF81FF"/>
</linearGradient>
<linearGradient id="paint3_linear" x1="32.5" y1="48" x2="32.5" y2="25" gradientUnits="userSpaceOnUse">
<stop stop-color="#A93AFF"/>
<stop offset="1" stop-color="#FF81FF"/>
</linearGradient>
<linearGradient id="paint4_linear" x1="32.5" y1="48" x2="32.5" y2="25" gradientUnits="userSpaceOnUse">
<stop stop-color="#A93AFF"/>
<stop offset="1" stop-color="#FF81FF"/>
</linearGradient>
</defs>
</svg>
