<svg width="64" height="64" viewBox="0 0 64 64" fill="none" xmlns="http://www.w3.org/2000/svg">
<path d="M35.9319 5C35.013 5 34.2681 5.71004 34.2681 6.58585V28.8934C34.2681 29.7692 35.013 30.4792 35.9319 30.4792H59.3365C60.2554 30.4792 61.0004 29.7692 61.0004 28.8934C61.0004 15.7438 49.7272 5 35.9319 5ZM37.5957 27.3076V8.23174C48.2602 9.00458 56.7989 17.1432 57.6097 27.3076H37.5957Z" fill="url(#paint0_linear)" stroke="url(#paint1_linear)" stroke-width="2"/>
<path fill-rule="evenodd" clip-rule="evenodd" d="M52.3622 34.0966H30.7323V13.4806C30.7323 12.6048 29.9874 11.8948 29.0685 11.8948C15.3039 11.8948 4 22.544 4 35.6824C4 48.8138 15.2937 59.5758 29.0685 59.5758C42.8347 59.5758 54.026 48.8209 54.026 35.6824C54.026 34.8067 53.2811 34.0966 52.3622 34.0966ZM29.0686 56.4043C17.0806 56.4043 7.32778 47.1086 7.32778 35.6826C7.32778 24.8456 16.1911 15.9349 27.4047 15.1263V35.6826C27.4047 36.5584 28.1497 37.2684 29.0686 37.2673H50.6358C49.7875 47.9564 40.4385 56.4043 29.0686 56.4043Z" fill="url(#paint2_linear)"/>
<path d="M30.7323 34.0966H29.7323V35.0966H30.7323V34.0966ZM27.4047 15.1263H28.4047V14.0516L27.3328 14.1289L27.4047 15.1263ZM29.0686 37.2673L29.0686 36.2673L29.0674 36.2673L29.0686 37.2673ZM50.6358 37.2673L51.6327 37.3465L51.7183 36.2673H50.6358V37.2673ZM30.7323 35.0966H52.3622V33.0966H30.7323V35.0966ZM29.7323 13.4806V34.0966H31.7323V13.4806H29.7323ZM29.0685 12.8948C29.4809 12.8948 29.7323 13.2018 29.7323 13.4806H31.7323C31.7323 12.0078 30.4939 10.8948 29.0685 10.8948V12.8948ZM5 35.6824C5 23.1471 15.8039 12.8948 29.0685 12.8948V10.8948C14.8038 10.8948 3 21.9409 3 35.6824H5ZM29.0685 58.5758C15.8001 58.5758 5 48.2167 5 35.6824H3C3 49.4108 14.7872 60.5758 29.0685 60.5758V58.5758ZM53.026 35.6824C53.026 48.2291 42.3228 58.5758 29.0685 58.5758V60.5758C43.3466 60.5758 55.026 49.4127 55.026 35.6824H53.026ZM52.3622 35.0966C52.7746 35.0966 53.026 35.4036 53.026 35.6824H55.026C55.026 34.2097 53.7876 33.0966 52.3622 33.0966V35.0966ZM6.32778 35.6826C6.32778 47.7055 16.5741 57.4043 29.0686 57.4043V55.4043C17.5871 55.4043 8.32778 46.5116 8.32778 35.6826H6.32778ZM27.3328 14.1289C15.6459 14.9716 6.32778 24.2728 6.32778 35.6826H8.32778C8.32778 25.4184 16.7363 16.8982 27.4767 16.1237L27.3328 14.1289ZM28.4047 35.6826V15.1263H26.4047V35.6826H28.4047ZM29.0674 36.2673C28.6561 36.2678 28.4047 35.9616 28.4047 35.6826H26.4047C26.4047 37.1553 27.6433 38.269 29.0697 38.2673L29.0674 36.2673ZM50.6358 36.2673H29.0686V38.2673H50.6358V36.2673ZM29.0686 57.4043C40.9284 57.4043 50.7406 48.5864 51.6327 37.3465L49.639 37.1882C48.8343 47.3263 39.9486 55.4043 29.0686 55.4043V57.4043Z" fill="url(#paint3_linear)"/>
<defs>
<linearGradient id="paint0_linear" x1="47.6342" y1="30.4792" x2="47.6342" y2="5" gradientUnits="userSpaceOnUse">
<stop stop-color="#FD5900"/>
<stop offset="1" stop-color="#FFDE00"/>
</linearGradient>
<linearGradient id="paint1_linear" x1="47.6342" y1="30.4792" x2="47.6342" y2="5" gradientUnits="userSpaceOnUse">
<stop stop-color="#FD5900"/>
<stop offset="1" stop-color="#FFDE00"/>
</linearGradient>
<linearGradient id="paint2_linear" x1="29.013" y1="59.5758" x2="29.013" y2="11.8948" gradientUnits="userSpaceOnUse">
<stop stop-color="#A93AFF"/>
<stop offset="1" stop-color="#FF81FF"/>
</linearGradient>
<linearGradient id="paint3_linear" x1="29.013" y1="59.5758" x2="29.013" y2="11.8948" gradientUnits="userSpaceOnUse">
<stop stop-color="#A93AFF"/>
<stop offset="1" stop-color="#FF81FF"/>
</linearGradient>
</defs>
</svg>
