<?xml version="1.0" encoding="UTF-8" standalone="no"?>
<svg
   xmlns:dc="http://purl.org/dc/elements/1.1/"
   xmlns:cc="http://creativecommons.org/ns#"
   xmlns:rdf="http://www.w3.org/1999/02/22-rdf-syntax-ns#"
   xmlns:svg="http://www.w3.org/2000/svg"
   xmlns="http://www.w3.org/2000/svg"
   xmlns:sodipodi="http://sodipodi.sourceforge.net/DTD/sodipodi-0.dtd"
   xmlns:inkscape="http://www.inkscape.org/namespaces/inkscape"
   width="192pt"
   height="192pt"
   viewBox="0 0 192 192"
   version="1.1"
   id="svg45"
   sodipodi:docname="ark.svg"
   inkscape:version="0.92.2 5c3e80d, 2017-08-06">
  <metadata
     id="metadata51">
    <rdf:RDF>
      <cc:Work
         rdf:about="">
        <dc:format>image/svg+xml</dc:format>
        <dc:type
           rdf:resource="http://purl.org/dc/dcmitype/StillImage" />
      </cc:Work>
    </rdf:RDF>
  </metadata>
  <defs
     id="defs49" />
  <sodipodi:namedview
     pagecolor="#ffffff"
     bordercolor="#666666"
     borderopacity="1"
     objecttolerance="10"
     gridtolerance="10"
     guidetolerance="10"
     inkscape:pageopacity="0"
     inkscape:pageshadow="2"
     inkscape:window-width="1008"
     inkscape:window-height="480"
     id="namedview47"
     showgrid="false"
     inkscape:zoom="0.921875"
     inkscape:cx="128"
     inkscape:cy="128"
     inkscape:window-x="444"
     inkscape:window-y="377"
     inkscape:window-maximized="0"
     inkscape:current-layer="svg45" />
  <g
     id="#29da85ff"
     transform="matrix(1.0972112,0,0,1.0861702,-9.7978231,-10.363016)">
    <path
       d="M 17.15,41.01 C 17.12,28.31 28.3,16.97 40.99,16.78 55.67,16.69 70.36,16.7 85.04,16.77 c 2.58,-0.2 4.33,1.88 6.22,3.26 -0.41,2.39 -0.02,5.39 -2.15,7.08 -1.37,1.27 -3.33,1.35 -5.1,1.41 C 70,28.56 55.98,28.42 41.96,28.55 34.85,28.39 28.55,34.8 28.92,41.93 c -0.1,36.08 0.03,72.16 -0.06,108.25 -1.04,-7.02 -0.49,-14.12 -0.68,-21.18 -0.2,-10.03 0.03,-20.06 -0.41,-30.08 -3.2,4.67 -7.74,8.7 -9.52,14.18 -0.8,13.05 0.23,26.19 -0.89,39.24 -0.19,-2.12 -0.27,-4.24 -0.26,-6.36 C 17.15,110.99 17.06,76 17.15,41.01 Z"
       id="path2"
       inkscape:connector-curvature="0"
       style="opacity:1;fill:#29da85" />
  </g>
  <g
     id="#45e372ff"
     transform="matrix(1.0972112,0,0,1.0861702,-9.7978231,-10.363016)">
    <path
       d="m 111.69,22.98 c -0.05,-3.35 2.94,-6.27 6.28,-6.19 10.67,-0.13 21.35,-0.06 32.03,-0.03 5.21,-0.02 10.21,1.89 14.5,4.76 -1.94,3.41 -4.22,6.6 -6.72,9.61 -2.61,-1.68 -5.64,-2.67 -8.76,-2.62 -6.72,-0.04 -13.45,-0.15 -20.17,0.2 -0.09,3.36 -0.08,6.72 0.06,10.08 5.07,0.19 10.15,0.13 15.23,0.11 h 0.97 c 0.26,3.76 0.29,7.53 0.07,11.3 -5.38,0.7 -11,-0.64 -16.24,0.68 -0.31,3.22 -0.1,6.47 -0.18,9.71 5.46,0.41 10.93,0.04 16.39,0.28 l -0.01,0.97 c -0.1,3.45 -0.09,6.9 -0.05,10.36 -5.34,0.27 -10.69,0.1 -16.03,0.19 -0.31,3.35 -0.42,6.74 -0.01,10.09 -0.51,0.08 -1.52,0.24 -2.03,0.32 -5,0.95 -10.14,0.5 -15.19,0.33 -0.23,-3.73 -0.22,-7.47 0.01,-11.19 5.32,-0.31 10.66,0.04 15.99,-0.22 0.16,-3.36 0.91,-6.99 -0.42,-10.19 -5.18,-0.41 -10.4,0.1 -15.58,-0.32 -0.28,-3.76 -0.29,-7.54 0.01,-11.3 5.33,-0.35 10.66,-0.04 15.99,-0.29 0,-3.29 0.96,-7.01 -0.49,-10.04 -5.17,-0.41 -10.37,0.1 -15.54,-0.33 -0.11,-5.42 -0.28,-10.85 -0.11,-16.27 z"
       id="path5"
       inkscape:connector-curvature="0"
       style="opacity:1;fill:#45e372" />
  </g>
  <g
     id="#0000002c"
     transform="matrix(1.0972112,0,0,1.0861702,-9.7978231,-10.363016)">
    <path
       d="m 91.26,20.03 c 2.16,2.21 1.89,5.59 1,8.32 -1.61,2.85 -5.24,3.39 -8.21,3.36 -12.35,-0.1 -24.7,0.01 -37.06,-0.1 -3.93,0 -8.33,0.15 -11.38,3.01 -3.61,2.99 -4.83,7.83 -4.77,12.35 0.03,31.34 0.02,62.68 0,94.03 -0.16,5.44 0.04,10.89 0.8,16.28 -1.51,-2.09 -2.53,-4.53 -2.78,-7.1 C 28.95,114.09 28.82,78.01 28.92,41.93 28.55,34.8 34.85,28.39 41.96,28.55 55.98,28.42 70,28.56 84.01,28.52 c 1.77,-0.06 3.73,-0.14 5.1,-1.41 2.13,-1.69 1.74,-4.69 2.15,-7.08 z"
       id="path8"
       inkscape:connector-curvature="0"
       style="opacity:0.17000002;fill:#000000" />
  </g>
  <g
     id="#51e76aff"
     transform="matrix(1.0972112,0,0,1.0861702,-9.7978231,-10.363016)">
    <path
       d="m 157.78,31.13 c 2.5,-3.01 4.78,-6.2 6.72,-9.61 5.14,4.01 8.82,9.84 9.88,16.31 0.33,6.29 0.11,12.6 0.12,18.9 -4.52,4 -7.14,9.63 -11.63,13.65 -0.17,-9.47 0.01,-18.95 -0.08,-28.42 0.06,-3.4 -1.23,-6.74 -3.53,-9.23 -0.37,-0.4 -1.11,-1.2 -1.48,-1.6 z"
       id="path11"
       inkscape:connector-curvature="0"
       style="opacity:1;fill:#51e76a" />
  </g>
  <g
     id="#0000003a"
     transform="matrix(1.0972112,0,0,1.0861702,-9.7978231,-10.363016)">
    <path
       d="m 128.85,28.71 c 6.72,-0.35 13.45,-0.24 20.17,-0.2 3.12,-0.05 6.15,0.94 8.76,2.62 0.37,0.4 1.11,1.2 1.48,1.6 -8.51,-2.27 -17.4,-1.73 -26.1,-1.45 -3.39,0.2 -3.25,4.23 -3.3,6.71 4.74,0.68 9.58,-0.1 14.28,0.91 -5.08,0.02 -10.16,0.08 -15.23,-0.11 -0.14,-3.36 -0.15,-6.72 -0.06,-10.08 z"
       id="path14"
       inkscape:connector-curvature="0"
       style="opacity:0.23000004;fill:#000000" />
    <path
       d="m 145.18,83.85 c 0.6,1.98 1.04,4.04 1.01,6.12 -0.04,13.69 -0.22,27.37 -0.06,41.06 -0.15,2.49 0.31,5.48 -1.68,7.39 -2.05,2.53 -5.59,1.87 -8.45,2 -6,-0.25 -12.01,0.24 -18,-0.18 -1.38,-0.01 -2.18,-1.33 -3.19,-2.06 7.75,0.14 15.5,0.2 23.24,0.11 2.36,-0.02 5.25,-0.48 6.37,-2.87 1.24,-3.32 0.66,-6.96 0.79,-10.42 -0.13,-13.72 0.17,-27.44 -0.03,-41.15 z"
       id="path16"
       inkscape:connector-curvature="0"
       style="opacity:0.23000004;fill:#000000" />
    <path
       d="m 118.03,116.42 c 6.92,-0.03 13.83,-0.04 20.75,0 0.05,0.63 0.16,1.89 0.21,2.51 -6.27,0.07 -12.55,0.02 -18.82,0.23 -0.67,2.3 -1.35,4.61 -2.05,6.9 -0.53,-3.19 -0.46,-6.44 -0.09,-9.64 z"
       id="path18"
       inkscape:connector-curvature="0"
       style="opacity:0.23000004;fill:#000000" />
  </g>
  <g
     id="#00000036"
     transform="matrix(1.0972112,0,0,1.0861702,-9.7978231,-10.363016)">
    <path
       d="m 174.38,37.83 c 1.92,4.11 1.71,8.74 1.73,13.17 -0.08,33.01 0.01,66.02 -0.04,99.03 -0.08,9.24 -4.51,18.8 -12.94,23.19 -5.69,3.61 -12.63,3.46 -19.11,3.66 -30.67,0.03 -61.34,-0.02 -92.01,0.03 -7.17,-0.11 -14.89,0.22 -21.26,-3.64 -1.63,-0.77 -2.66,-2.27 -3.56,-3.77 4.42,2.81 9.48,4.76 14.79,4.71 9.62,0.1 19.25,0 28.87,0.02 14.63,0.01 29.26,0.03 43.88,-0.01 11.1,0.03 22.19,0.01 33.28,0.03 4.58,0.04 9.26,-0.72 13.31,-2.94 7.79,-4.07 13.11,-12.49 13.19,-21.31 0.06,-15.1 0.05,-30.2 -0.02,-45.3 0.08,-15.99 0.07,-31.98 0.01,-47.97 -0.01,-6.3 0.21,-12.61 -0.12,-18.9 z"
       id="path21"
       inkscape:connector-curvature="0"
       style="opacity:0.21000001;fill:#000000" />
  </g>
  <g
     id="#5bea63ff"
     transform="matrix(1.0972112,0,0,1.0861702,-9.7978231,-10.363016)">
    <path
       d="m 162.87,70.38 c 4.49,-4.02 7.11,-9.65 11.63,-13.65 0.06,15.99 0.07,31.98 -0.01,47.97 -4.6,3.9 -7.36,9.4 -11.53,13.7 -0.33,-16 -0.13,-32.01 -0.09,-48.02 z"
       id="path24"
       inkscape:connector-curvature="0"
       style="opacity:1;fill:#5bea63" />
  </g>
  <g
     id="#00000039"
     transform="matrix(1.0972112,0,0,1.0861702,-9.7978231,-10.363016)">
    <path
       d="m 145.14,61.84 c 2.39,3.95 1.01,8.55 0.36,12.78 -4.37,0.49 -8.82,0.05 -13.17,0.72 -2.73,1.16 -1.4,4.44 -1.78,6.67 l -0.73,0.37 -0.77,0.1 c -0.41,-3.35 -0.3,-6.74 0.01,-10.09 5.34,-0.09 10.69,0.08 16.03,-0.19 -0.04,-3.46 -0.05,-6.91 0.05,-10.36 z"
       id="path27"
       inkscape:connector-curvature="0"
       style="opacity:0.22000002;fill:#000000" />
  </g>
  <g
     id="#53e768ff"
     transform="matrix(1.0972112,0,0,1.0861702,-9.7978231,-10.363016)">
    <path
       d="m 127.02,82.8 c 0.51,-0.08 1.52,-0.24 2.03,-0.32 l 0.77,-0.1 c 5.09,0.71 10.23,0.12 15.34,0.49 l 0.02,0.98 c 0.2,13.71 -0.1,27.43 0.03,41.15 -0.13,3.46 0.45,7.1 -0.79,10.42 -1.12,2.39 -4.01,2.85 -6.37,2.87 -7.74,0.09 -15.49,0.03 -23.24,-0.11 -1.56,-1.73 -3.34,-3.61 -3.09,-6.15 -0.13,-12.72 -0.09,-25.46 0.09,-38.18 5.36,-0.22 10.72,-0.05 16.09,-0.17 0.13,-3.62 0.9,-7.53 -0.88,-10.88 m -8.99,33.62 c -0.37,3.2 -0.44,6.45 0.09,9.64 l -0.17,0.58 c 6.97,0.15 13.94,0.12 20.92,0.01 0.07,-2.57 0.04,-5.15 0.12,-7.72 -0.05,-0.62 -0.16,-1.88 -0.21,-2.51 -6.92,-0.04 -13.83,-0.03 -20.75,0 z"
       id="path30"
       inkscape:connector-curvature="0"
       style="opacity:1;fill:#53e768" />
  </g>
  <g
     id="#37df7bff"
     transform="matrix(1.0972112,0,0,1.0861702,-9.7978231,-10.363016)">
    <path
       d="m 18.25,113.1 c 1.78,-5.48 6.32,-9.51 9.52,-14.18 0.44,10.02 0.21,20.05 0.41,30.08 0.19,7.06 -0.36,14.16 0.68,21.18 0.25,2.57 1.27,5.01 2.78,7.1 0.61,0.8 1.28,1.56 1.93,2.33 -3.28,2.38 -5.44,5.84 -7.08,9.48 -4.76,-4.37 -8.65,-10.15 -9.13,-16.75 1.12,-13.05 0.09,-26.19 0.89,-39.24 z"
       id="path33"
       inkscape:connector-curvature="0"
       style="opacity:1;fill:#37df7b" />
  </g>
  <g
     id="#64ed5dff"
     transform="matrix(1.0972112,0,0,1.0861702,-9.7978231,-10.363016)">
    <path
       d="m 162.96,118.4 c 4.17,-4.3 6.93,-9.8 11.53,-13.7 0.07,15.1 0.08,30.2 0.02,45.3 -0.08,8.82 -5.4,17.24 -13.19,21.31 -4.05,2.22 -8.73,2.98 -13.31,2.94 -11.09,-0.02 -22.18,0 -33.28,-0.03 2.18,-4.1 4.85,-7.9 7.46,-11.72 9.24,-0.11 18.49,0.06 27.73,-0.08 6.67,0.05 12.7,-5.76 12.82,-12.45 0.28,-10.52 -0.22,-21.06 0.22,-31.57 z"
       id="path36"
       inkscape:connector-curvature="0"
       style="opacity:1;fill:#64ed5d" />
  </g>
  <g
     id="#48e470ff"
     transform="matrix(1.0972112,0,0,1.0861702,-9.7978231,-10.363016)">
    <path
       d="m 26.49,169.09 c 1.64,-3.64 3.8,-7.1 7.08,-9.48 2.59,1.54 5.42,2.92 8.51,2.83 12.06,0.1 24.11,-0.05 36.16,0.07 -2.29,4.01 -4.88,7.84 -7.39,11.72 -9.62,-0.02 -19.25,0.08 -28.87,-0.02 -5.31,0.05 -10.37,-1.9 -14.79,-4.71 z"
       id="path39"
       inkscape:connector-curvature="0"
       style="opacity:1;fill:#48e470" />
  </g>
  <g
     id="#56e866ff"
     transform="matrix(1.0972112,0,0,1.0861702,-9.7978231,-10.363016)">
    <path
       d="m 78.24,162.51 c 14.65,-0.07 29.3,-0.07 43.95,-0.01 -2.61,3.82 -5.28,7.62 -7.46,11.72 -14.62,0.04 -29.25,0.02 -43.88,0.01 2.51,-3.88 5.1,-7.71 7.39,-11.72 z"
       id="path42"
       inkscape:connector-curvature="0"
       style="opacity:1;fill:#56e866" />
  </g>
</svg>
