<?xml version="1.0" encoding="UTF-8" ?>
<!DOCTYPE svg PUBLIC "-//W3C//DTD SVG 1.1//EN" "http://www.w3.org/Graphics/SVG/1.1/DTD/svg11.dtd">
<svg width="192pt" height="192pt" viewBox="0 0 192 192" version="1.1" xmlns="http://www.w3.org/2000/svg">
<g id="#198fffff">
<path fill="#198fff" opacity="1.00" d=" M 135.46 24.74 C 139.76 20.44 146.10 18.31 152.13 19.11 C 160.28 19.98 167.68 25.68 170.53 33.37 C 173.64 40.80 171.94 49.95 165.98 55.47 C 164.66 55.06 163.48 54.35 162.67 53.22 C 161.07 51.49 158.88 50.36 157.71 48.24 C 158.52 47.30 159.39 46.36 159.87 45.19 C 162.48 39.60 158.69 32.50 152.91 30.83 C 149.67 29.68 145.89 30.43 143.40 32.80 C 140.23 30.68 137.32 28.12 135.46 24.74 Z" />
</g>
<g id="#228affff">
<path fill="#228aff" opacity="1.00" d=" M 122.38 38.42 C 126.07 33.36 131.18 29.36 135.46 24.74 C 137.32 28.12 140.23 30.68 143.40 32.80 C 139.12 37.04 135.04 41.52 130.51 45.48 C 126.13 48.37 120.17 43.17 122.38 38.42 Z" />
<path fill="#228aff" opacity="1.00" d=" M 146.07 59.91 C 149.92 55.99 153.82 52.11 157.71 48.24 C 158.88 50.36 161.07 51.49 162.67 53.22 C 163.48 54.35 164.66 55.06 165.98 55.47 C 162.21 59.56 158.40 63.61 154.66 67.73 C 152.51 70.15 148.33 70.20 146.18 67.76 C 144.12 65.70 144.03 62.01 146.07 59.91 Z" />
</g>
<g id="#02080f28">
<path fill="#02080f" opacity="0.16" d=" M 143.40 32.80 C 145.89 30.43 149.67 29.68 152.91 30.83 C 158.69 32.50 162.48 39.60 159.87 45.19 C 159.13 40.79 157.98 35.23 153.05 33.73 C 150.83 32.21 148.29 32.75 146.03 33.88 C 139.35 37.97 135.79 46.57 127.72 48.43 C 125.26 48.25 122.83 46.78 121.47 44.69 C 121.26 42.57 121.31 40.44 121.40 38.31 L 122.38 38.42 C 120.17 43.17 126.13 48.37 130.51 45.48 C 135.04 41.52 139.12 37.04 143.40 32.80 Z" />
</g>
<g id="#2c85ffff">
<path fill="#2c85ff" opacity="1.00" d=" M 96.13 34.96 C 98.29 33.26 101.63 33.52 103.55 35.47 C 120.83 52.84 138.24 70.08 155.48 87.50 C 157.73 89.63 157.61 93.53 155.37 95.62 C 153.19 97.59 149.58 97.67 147.48 95.54 C 130.17 78.16 112.77 60.87 95.48 43.47 C 93.06 41.19 93.43 36.87 96.13 34.96 Z" />
</g>
<g id="#0001031e">
<path fill="#000103" opacity="0.12" d=" M 95.48 43.47 C 112.77 60.87 130.17 78.16 147.48 95.54 C 149.58 97.67 153.19 97.59 155.37 95.62 C 156.22 97.76 153.27 98.37 151.90 99.05 C 149.88 98.84 147.83 98.11 146.26 96.81 C 129.79 80.26 113.22 63.80 96.73 47.28 C 95.70 46.33 94.46 44.96 95.48 43.47 Z" />
</g>
<g id="#3b7cffff">
<path fill="#3b7cff" opacity="1.00" d=" M 93.61 66.59 C 95.36 64.70 98.39 64.16 100.63 65.48 C 103.64 67.06 104.47 71.45 102.27 74.04 C 95.27 81.23 88.12 88.28 81.01 95.37 C 77.98 93.01 76.15 89.48 73.04 87.23 C 79.88 80.34 86.78 73.50 93.61 66.59 Z" />
</g>
<g id="#4975ffff">
<path fill="#4975ff" opacity="1.00" d=" M 51.76 108.51 C 58.83 101.40 65.93 94.31 73.04 87.23 C 76.15 89.48 77.98 93.01 81.01 95.37 C 73.91 102.54 66.73 109.64 59.62 116.80 L 59.57 116.76 C 56.43 114.57 54.36 111.25 51.76 108.51 Z" />
</g>
<g id="#397dffff">
<path fill="#397dff" opacity="1.00" d=" M 117.00 89.02 C 119.47 86.72 123.89 87.42 125.53 90.36 C 127.02 92.60 126.52 95.85 124.47 97.58 C 119.51 102.42 114.72 107.43 109.78 112.28 C 108.46 108.55 104.97 106.41 102.35 103.69 C 107.25 98.82 112.03 93.82 117.00 89.02 Z" />
</g>
<g id="#0507102c">
<path fill="#050710" opacity="0.17" d=" M 109.78 112.28 C 114.72 107.43 119.51 102.42 124.47 97.58 C 124.86 98.82 124.60 99.84 123.69 100.64 C 107.36 117.01 90.97 133.31 74.65 149.69 C 72.99 151.33 71.40 153.11 69.32 154.24 C 61.67 157.04 52.97 152.60 45.68 156.67 C 40.80 161.44 36.09 166.38 31.14 171.07 C 28.49 173.27 23.32 174.75 21.23 171.23 L 22.09 170.81 C 24.26 172.47 27.52 172.43 29.50 170.47 C 35.30 164.84 40.87 158.97 46.72 153.40 C 53.49 153.40 60.27 153.48 67.04 153.36 C 70.92 152.59 72.87 148.64 75.76 146.30 C 82.00 140.07 88.24 133.83 94.47 127.59 C 99.58 122.49 104.68 117.39 109.78 112.28 Z" />
</g>
<g id="#4378ffff">
<path fill="#4378ff" opacity="1.00" d=" M 85.69 120.34 C 91.22 114.77 96.77 109.22 102.35 103.69 C 104.97 106.41 108.46 108.55 109.78 112.28 C 104.68 117.39 99.58 122.49 94.47 127.59 C 93.84 126.87 93.19 126.17 92.52 125.49 C 92.22 125.74 91.64 126.24 91.34 126.49 C 90.38 123.70 88.00 121.96 85.69 120.34 Z" />
</g>
<g id="#586dffff">
<path fill="#586dff" opacity="1.00" d=" M 40.69 119.62 C 44.33 115.88 48.05 112.19 51.76 108.51 C 54.36 111.25 56.43 114.57 59.57 116.76 C 55.96 120.56 52.13 124.14 48.59 128.00 C 47.77 132.53 48.43 137.23 48.24 141.83 C 52.81 142.33 57.44 141.92 62.04 142.06 C 64.90 142.32 66.25 139.34 68.20 137.83 C 69.34 139.07 70.82 139.54 72.46 139.46 C 72.53 142.14 74.58 144.06 75.76 146.30 C 72.87 148.64 70.92 152.59 67.04 153.36 C 60.27 153.48 53.49 153.40 46.72 153.40 C 46.02 151.18 44.39 149.57 42.23 148.78 C 40.65 146.56 39.61 143.82 36.85 142.80 C 36.84 136.84 36.78 130.88 36.88 124.93 C 37.23 122.62 39.16 121.19 40.69 119.62 Z" />
</g>
<g id="#4e72ffff">
<path fill="#4e72ff" opacity="1.00" d=" M 68.20 137.83 C 74.01 131.98 79.84 126.15 85.69 120.34 C 88.00 121.96 90.38 123.70 91.34 126.49 C 91.64 126.24 92.22 125.74 92.52 125.49 C 93.19 126.17 93.84 126.87 94.47 127.59 C 88.24 133.83 82.00 140.07 75.76 146.30 C 74.58 144.06 72.53 142.14 72.46 139.46 C 70.82 139.54 69.34 139.07 68.20 137.83 Z" />
</g>
<g id="#6367ffff">
<path fill="#6367ff" opacity="1.00" d=" M 36.85 142.80 C 39.61 143.82 40.65 146.56 42.23 148.78 C 44.39 149.57 46.02 151.18 46.72 153.40 C 40.87 158.97 35.30 164.84 29.50 170.47 C 27.52 172.43 24.26 172.47 22.09 170.81 C 19.51 168.91 19.22 164.72 21.50 162.47 C 26.29 157.62 31.13 152.83 35.94 148.00 C 37.58 146.77 36.52 144.50 36.85 142.80 Z" />
</g>
</svg>
