<svg id="Capa_1" enable-background="new 0 0 512 512" height="512" viewBox="0 0 512 512" width="512" xmlns="http://www.w3.org/2000/svg" xmlns:xlink="http://www.w3.org/1999/xlink"><linearGradient id="SVGID_1_" gradientUnits="userSpaceOnUse" x1="256" x2="256" y1="512" y2="0"><stop offset="0" stop-color="#5558ff"/><stop offset="1" stop-color="#00c0ff"/></linearGradient><g><g><path d="m446.606 64.394-60-60c-2.812-2.813-6.627-4.394-10.606-4.394h-240c-3.979 0-7.794 1.581-10.606 4.394l-60 60c-2.814 2.813-4.394 6.628-4.394 10.606v362c0 3.978 1.58 7.793 4.394 10.606l60 60c2.812 2.813 6.627 4.394 10.606 4.394h240c3.979 0 7.794-1.581 10.606-4.394l60-60c2.814-2.813 4.394-6.628 4.394-10.606v-362c0-3.978-1.58-7.793-4.394-10.606zm-304.393 417.606-51.213-51.213v-62.591c12.757 3.594 24.968 8.709 36.525 15.306l-1.25 2.342c-3.451 6.473-5.275 13.789-5.275 21.156 0 24.813 20.187 45 45 45 8.573 0 16.593-2.412 23.42-6.59 6.558 11.532 11.727 23.852 15.346 36.59zm8.787-75c0-2.498.588-4.867 1.747-7.04 6.962-13.052 21.339-40.006 28.253-52.968v60.008c0 8.271-6.729 15-15 15s-15-6.729-15-15zm48.639-134.552c-4.771-1.19-9.67.052-13.266 3.063-22.107-19.869-35.373-49.115-35.373-79.511 0-58.449 47.103-106 105-106s105 47.551 105 106-47.103 106-105 106c-15.622 0-31.014-3.488-45-10.121v-4.879c0-6.883-4.685-12.882-11.361-14.552zm221.361 158.339-51.213 51.213h-134.034c-5.212-21.948-14.297-43.036-26.693-61.936 1.258-4.137 1.94-8.521 1.94-13.064v-82.72c14.38 5.074 29.606 7.72 45 7.72 74.439 0 135-61.009 135-136s-60.561-136-135-136-135 61.009-135 136c0 40.49 18.067 79.761 50.061 105.882l-29.415 55.146c-15.905-8.989-32.855-15.61-50.646-19.796v-256.019l51.213-51.213h227.574l51.213 51.213zm-165-189.787c24.813 0 45-20.187 45-45s-20.187-45-45-45-45 20.187-45 45 20.187 45 45 45zm0-60c8.271 0 15 6.729 15 15s-6.729 15-15 15-15-6.729-15-15 6.729-15 15-15zm30 211c-8.284 0-15 6.716-15 15v30c0 8.284 6.716 15 15 15s15-6.716 15-15v-30c0-8.284-6.716-15-15-15zm60 0c-8.284 0-15 6.716-15 15v30c0 8.284 6.716 15 15 15s15-6.716 15-15v-30c0-8.284-6.716-15-15-15z" fill="url(#SVGID_1_)"/></g></g></svg>