<svg width="192" height="192" viewBox="0 0 192 192" fill="none" xmlns="http://www.w3.org/2000/svg">
<path d="M85.7943 13.5313C93.4043 6.29885 106.182 6.14187 113.955 13.1612C131.15 28.2764 148.466 43.257 165.564 58.4843C174.759 67.3089 173.847 83.9042 164.326 92.0897C160.83 94.4781 155.5 92.2131 154.816 87.8848C154.035 84.8125 156.119 82.2895 157.747 80.0245C160.581 76.1784 159.745 70.1346 156.086 67.152C139.423 52.5414 122.759 37.942 106.084 23.3427C102.86 20.1694 97.3559 20.203 94.0774 23.2866C92.3404 19.149 88.2043 17.1418 85.7943 13.5313Z" fill="url(#paint0_linear)"/>
<path d="M69.1196 28.1867C74.6018 23.2193 80.2361 18.4201 85.7943 13.5312C88.2043 17.1418 92.3404 19.149 94.0774 23.2866C88.3129 28.4334 82.4724 33.4792 76.6645 38.5812C74.4933 35.7443 71.9639 33.098 68.4574 32.2122C69.3042 30.9899 69.6298 29.6444 69.1196 28.1867Z" fill="url(#paint1_linear)"/>
<path opacity="0.13" d="M94.0775 23.2866C97.356 20.203 102.86 20.1693 106.084 23.3426C122.759 37.942 139.423 52.5414 156.087 67.1519C159.745 70.1346 160.581 76.1784 157.748 80.0245C156.684 79.0714 157.606 77.524 157.52 76.3242C157.975 72.2875 155.055 68.9236 152.016 66.8268C140.628 56.892 129.272 46.9012 117.906 36.9216C112.934 33.1652 108.852 28.2203 103.555 24.9237C99.3535 22.5689 94.8266 25.4619 91.8738 28.5455C82.6463 36.5404 73.549 44.6922 64.278 52.6423C57.428 59.0337 49.7745 64.5729 43.6409 71.7493C41.4155 74.6534 43.8581 78.1856 43.3695 81.4149C40.2648 78.0286 39.8739 72.6351 42.4468 68.8002C47.1474 64.1693 52.3257 60.0653 57.2 55.6362C63.7027 49.9624 70.1837 44.2661 76.6647 38.5811C82.4726 33.4792 88.3131 28.4333 94.0775 23.2866Z" fill="url(#paint2_linear)"/>
<path opacity="0.13" d="M80.8875 92.6503C93.7083 90.4526 106.942 90.5086 119.741 92.8297C122.9 93.3007 126.092 95.2181 129.272 93.7716C129.891 96.2833 126.721 95.8572 125.299 95.9694C119.849 95.3527 114.508 93.6146 108.983 93.6595C101.394 93.5922 93.7843 93.4352 86.2178 93.8501C80.8767 94.2426 75.4487 97.2252 70.151 95.0723L70.531 93.738C73.994 95.3302 77.4462 93.0652 80.8875 92.6503Z" fill="url(#paint3_linear)"/>
<path opacity="0.13" d="M148.422 114.493C149.703 116.523 148.943 119.102 147.575 120.862C134.244 139.936 121.044 159.11 107.637 178.127C104.163 183.566 97.2908 183.767 91.6674 183.005C82.6462 181.917 74.3848 176.894 68.1209 170.267C63.6157 163.674 57.265 158.381 50.0133 155.387C45.3778 154.445 40.4709 155.051 36.1503 157.002C32.8501 158.303 29.387 160.568 25.772 159.009C21.5816 158.078 19.2802 150.992 22.5478 148.211C21.2559 151.721 23.2209 156.06 26.825 156.935C30.4075 157.966 33.2517 154.995 36.4217 153.918C41.8171 151.552 48.2003 151.014 53.5632 153.739C61.1732 157.484 66.1886 164.761 72.1051 170.659C78.9986 177.634 88.8232 181.121 98.3981 180.729C100.895 180.841 103.642 180.067 105.15 177.869C109.156 172.184 113.108 166.466 117.081 160.758C122.01 153.694 126.927 146.63 131.845 139.554C136.296 133.197 140.704 126.816 145.144 120.459C146.414 118.586 147.966 116.803 148.422 114.493Z" fill="url(#paint4_linear)"/>
<path opacity="0.13" d="M59.3168 126.704C68.3923 139.554 77.2725 152.55 86.3372 165.401C80.6486 162.261 76.8816 156.699 72.3439 152.147C72.4307 151.519 72.5936 150.263 72.6804 149.624C69.9664 143.827 65.928 138.826 62.4324 133.522C61.108 131.414 58.7305 129.519 59.3168 126.704Z" fill="url(#paint5_linear)"/>
<path d="M48.8191 45.9257C55.5823 40.0052 62.2913 34.0174 69.1197 28.1866C69.6299 29.6443 69.3042 30.9899 68.4575 32.2121C71.9639 33.098 74.4933 35.7442 76.6645 38.5811C70.1835 44.2661 63.7026 49.9623 57.1999 55.6361C54.0408 52.7095 52.4884 48.3028 48.8191 45.9257Z" fill="url(#paint6_linear)"/>
<path d="M32.8284 60.4914C37.6484 55.0867 43.5214 50.8033 48.8191 45.9257C52.4884 48.3028 54.0408 52.7095 57.1999 55.6361C52.3256 60.0653 47.1473 64.1693 42.4467 68.8002C40.0258 65.1672 36.7691 62.2294 32.8284 60.4914Z" fill="url(#paint7_linear)"/>
<path d="M30.4183 84.734C26.597 77.0755 27.5849 67.1856 32.8283 60.4915C36.769 62.2295 40.0258 65.1673 42.4467 68.8003C39.8738 72.6352 40.2646 78.0286 43.3694 81.415C46.9844 85.0592 44.6613 92.2019 39.559 92.5271C34.8258 93.2223 32.4375 88.2437 30.4183 84.734Z" fill="url(#paint8_linear)"/>
<path d="M89.5614 78.4547C102.697 77.7034 116.148 77.9501 128.849 81.8298C133.875 83.5342 134.136 91.6973 129.272 93.7717C126.092 95.2182 122.9 93.3007 119.741 92.8298C106.942 90.5087 93.7084 90.4526 80.8875 92.6504C77.4462 93.0653 73.994 95.3303 70.531 93.738C66.1235 91.6973 65.8955 84.4873 70.2487 82.2447C76.3715 79.733 83.0479 79.0826 89.5614 78.4547Z" fill="url(#paint9_linear)"/>
<path d="M51.685 114.774C49.9372 108.595 58.3723 104.043 62.389 108.819C75.0578 126.749 87.4661 144.881 100.102 162.833C102.643 159.244 105.064 155.544 107.691 152.023C111.078 154.658 113.336 158.56 117.081 160.758C113.108 166.466 109.156 172.184 105.15 177.869C103.641 180.067 100.895 180.841 98.398 180.729C93.1004 176.827 90.5058 170.379 86.3371 165.4C77.2724 152.55 68.3923 139.554 59.3167 126.704C56.8633 122.69 53.3786 119.214 51.685 114.774Z" fill="url(#paint10_linear)"/>
<path d="M137.501 109.257C141.29 104.648 149.334 108.517 148.422 114.493C147.966 116.803 146.414 118.586 145.144 120.459C140.704 126.816 136.296 133.197 131.845 139.554C128.588 136.774 126.167 133.107 122.748 130.528L122.618 130.416C127.655 123.419 132.41 116.198 137.501 109.257Z" fill="url(#paint11_linear)"/>
<path d="M107.691 152.023C112.652 144.813 117.559 137.536 122.748 130.528C126.167 133.107 128.588 136.774 131.845 139.554C126.927 146.63 122.01 153.694 117.081 160.758C113.336 158.561 111.078 154.658 107.691 152.023Z" fill="url(#paint12_linear)"/>
<path d="M29.1047 143.042C36.5085 139.409 45.0847 137.715 53.1289 139.846C60.5869 141.786 67.0245 146.563 72.3439 152.147C76.8816 156.699 80.6486 162.261 86.3371 165.4C90.5058 170.379 93.1004 176.827 98.3981 180.729C88.8231 181.121 78.9985 177.634 72.105 170.659C66.1886 164.761 61.1731 157.484 53.5631 153.739C48.2003 151.014 41.817 151.552 36.4216 153.918C33.2517 154.995 30.4074 157.966 26.825 156.935C23.2208 156.06 21.2559 151.721 22.5478 148.211C23.7419 145.396 26.6296 144.309 29.1047 143.042Z" fill="url(#paint13_linear)"/>
<defs>
<linearGradient id="paint0_linear" x1="128.89" y1="93.0584" x2="128.89" y2="8" gradientUnits="userSpaceOnUse">
<stop stop-color="#5570FF"/>
<stop offset="1" stop-color="#4DD3FF"/>
</linearGradient>
<linearGradient id="paint1_linear" x1="81.2674" y1="38.5812" x2="81.2674" y2="13.5312" gradientUnits="userSpaceOnUse">
<stop stop-color="#5570FF"/>
<stop offset="1" stop-color="#4DD3FF"/>
</linearGradient>
<linearGradient id="paint2_linear" x1="100.096" y1="81.4149" x2="100.096" y2="20.9683" gradientUnits="userSpaceOnUse">
<stop stop-color="#5570FF"/>
<stop offset="1" stop-color="#4DD3FF"/>
</linearGradient>
<linearGradient id="paint3_linear" x1="99.7512" y1="95.9694" x2="99.7512" y2="91.0443" gradientUnits="userSpaceOnUse">
<stop stop-color="#5570FF"/>
<stop offset="1" stop-color="#4DD3FF"/>
</linearGradient>
<linearGradient id="paint4_linear" x1="85.0395" y1="183.329" x2="85.0395" y2="114.493" gradientUnits="userSpaceOnUse">
<stop stop-color="#5570FF"/>
<stop offset="1" stop-color="#4DD3FF"/>
</linearGradient>
<linearGradient id="paint5_linear" x1="72.7813" y1="165.401" x2="72.7813" y2="126.704" gradientUnits="userSpaceOnUse">
<stop stop-color="#5570FF"/>
<stop offset="1" stop-color="#4DD3FF"/>
</linearGradient>
<linearGradient id="paint6_linear" x1="62.7418" y1="55.6361" x2="62.7418" y2="28.1866" gradientUnits="userSpaceOnUse">
<stop stop-color="#5570FF"/>
<stop offset="1" stop-color="#4DD3FF"/>
</linearGradient>
<linearGradient id="paint7_linear" x1="45.0141" y1="68.8002" x2="45.0141" y2="45.9257" gradientUnits="userSpaceOnUse">
<stop stop-color="#5570FF"/>
<stop offset="1" stop-color="#4DD3FF"/>
</linearGradient>
<linearGradient id="paint8_linear" x1="36.6136" y1="92.5927" x2="36.6136" y2="60.4915" gradientUnits="userSpaceOnUse">
<stop stop-color="#5570FF"/>
<stop offset="1" stop-color="#4DD3FF"/>
</linearGradient>
<linearGradient id="paint9_linear" x1="99.9378" y1="94.3025" x2="99.9378" y2="78.1161" gradientUnits="userSpaceOnUse">
<stop stop-color="#5570FF"/>
<stop offset="1" stop-color="#4DD3FF"/>
</linearGradient>
<linearGradient id="paint10_linear" x1="84.2655" y1="180.739" x2="84.2655" y2="106.83" gradientUnits="userSpaceOnUse">
<stop stop-color="#5570FF"/>
<stop offset="1" stop-color="#4DD3FF"/>
</linearGradient>
<linearGradient id="paint11_linear" x1="135.556" y1="139.554" x2="135.556" y2="107.225" gradientUnits="userSpaceOnUse">
<stop stop-color="#5570FF"/>
<stop offset="1" stop-color="#4DD3FF"/>
</linearGradient>
<linearGradient id="paint12_linear" x1="119.768" y1="160.758" x2="119.768" y2="130.528" gradientUnits="userSpaceOnUse">
<stop stop-color="#5570FF"/>
<stop offset="1" stop-color="#4DD3FF"/>
</linearGradient>
<linearGradient id="paint13_linear" x1="60.2739" y1="180.758" x2="60.2739" y2="138.91" gradientUnits="userSpaceOnUse">
<stop stop-color="#5570FF"/>
<stop offset="1" stop-color="#4DD3FF"/>
</linearGradient>
</defs>
</svg>
