<svg width="128" height="128" viewBox="0 0 128 128" fill="none" xmlns="http://www.w3.org/2000/svg">
<path d="M72.7572 73.7527C74.7097 73.062 75.7327 70.9193 75.042 68.9668C74.351 67.0143 72.208 65.9913 70.256 66.6823C68.253 67.3908 66.1483 67.75 64 67.75C53.6613 67.75 45.25 59.3387 45.25 49C45.25 38.6613 53.6613 30.25 64 30.25C74.3387 30.25 82.75 38.6613 82.75 49C82.75 51.0677 81.0677 52.75 79 52.75C76.9323 52.75 75.25 51.0677 75.25 49C75.25 42.7968 70.2032 37.75 64 37.75C57.7968 37.75 52.75 42.7968 52.75 49C52.75 55.2032 57.7968 60.25 64 60.25C66.8793 60.25 69.508 59.1615 71.5 57.3763C73.492 59.1618 76.1207 60.25 79 60.25C85.2032 60.25 90.25 55.2032 90.25 49C90.25 34.5258 78.4742 22.75 64 22.75C49.5258 22.75 37.75 34.5258 37.75 49C37.75 63.4742 49.5258 75.25 64 75.25C67.0025 75.25 69.949 74.7462 72.7572 73.7527V73.7527ZM64 52.75C61.9323 52.75 60.25 51.0677 60.25 49C60.25 46.9323 61.9323 45.25 64 45.25C66.0677 45.25 67.75 46.9323 67.75 49C67.75 51.0677 66.0677 52.75 64 52.75ZM126.704 53.6645L105.25 35.0985V3.75C105.25 1.679 103.571 0 101.5 0H26.5C24.429 0 22.75 1.679 22.75 3.75V35.0985L1.296 53.6645C0.473 54.3768 0 55.4115 0 56.5V124.25C0 126.321 1.679 128 3.75 128H124.25C126.321 128 128 126.321 128 124.25V56.5C128 55.4115 127.527 54.3768 126.704 53.6645V53.6645ZM105.25 45.0168L118.538 56.5165L105.25 68.1507V45.0168ZM30.25 7.5H97.75V74.7172L64 104.266L30.25 74.717V7.5ZM22.75 45.0168V68.1505L9.46175 56.5163L22.75 45.0168ZM120.5 120.5H7.5V64.7673L61.5298 112.072C62.237 112.691 63.1183 113 64 113C64.8815 113 65.7633 112.691 66.4703 112.072L120.5 64.7673V120.5Z" fill="url(#paint0_linear)"/>
<defs>
<linearGradient id="paint0_linear" x1="64" y1="128" x2="64" y2="0" gradientUnits="userSpaceOnUse">
<stop stop-color="#FD3A84"/>
<stop offset="1" stop-color="#FFA68D"/>
</linearGradient>
</defs>
</svg>
