<?xml version="1.0" encoding="UTF-8" ?>
<!DOCTYPE svg PUBLIC "-//W3C//DTD SVG 1.1//EN" "http://www.w3.org/Graphics/SVG/1.1/DTD/svg11.dtd">
<svg width="192pt" height="192pt" viewBox="0 0 192 192" version="1.1" xmlns="http://www.w3.org/2000/svg">
<g id="#0a90ffff">
<path fill="#0a90ff" opacity="1.00" d=" M 41.97 24.92 C 45.42 20.93 50.87 19.31 56.02 19.41 C 66.14 19.46 76.25 19.31 86.37 19.49 C 84.36 23.69 81.33 27.25 78.92 31.21 C 70.24 31.65 61.39 30.41 52.81 31.88 C 52.25 32.04 51.14 32.36 50.58 32.52 C 50.41 33.11 50.05 34.29 49.88 34.88 C 48.26 39.76 49.22 44.97 48.98 50.00 C 48.78 54.92 49.34 59.87 48.65 64.76 C 47.15 68.85 43.22 71.49 41.53 75.51 C 38.65 83.47 39.57 92.09 38.25 100.32 C 37.56 79.22 38.19 58.09 38.02 36.98 C 37.87 32.66 39.01 28.18 41.97 24.92 Z" />
</g>
<g id="#12a0ffff">
<path fill="#12a0ff" opacity="1.00" d=" M 86.37 19.49 C 100.33 19.36 114.30 19.37 128.26 19.48 C 126.03 23.54 123.06 27.13 120.86 31.20 C 106.88 31.27 92.90 31.23 78.92 31.21 C 81.33 27.25 84.36 23.69 86.37 19.49 Z" />
</g>
<g id="#1ab1ffff">
<path fill="#1ab1ff" opacity="1.00" d=" M 128.26 19.48 C 137.17 19.33 146.08 19.46 155.00 19.39 C 159.91 19.20 164.99 20.38 168.77 23.65 C 165.80 27.15 164.64 31.63 162.34 35.51 C 162.09 34.75 161.58 33.24 161.32 32.49 C 160.79 32.34 159.72 32.03 159.18 31.88 C 157.19 31.27 155.10 31.18 153.04 31.20 C 142.31 31.26 131.59 31.23 120.86 31.20 C 123.06 27.13 126.03 23.54 128.26 19.48 Z" />
</g>
<g id="#088bffff">
<path fill="#088bff" opacity="1.00" d=" M 17.82 22.81 C 20.90 20.00 26.42 21.86 27.35 25.87 C 27.17 44.58 26.98 63.29 26.87 82.00 C 26.80 85.21 27.18 88.49 26.52 91.67 C 25.36 94.56 22.96 96.70 21.31 99.31 C 19.81 101.68 18.04 103.90 15.67 105.47 C 15.38 80.65 15.66 55.83 15.54 31.01 C 15.59 28.20 15.33 24.74 17.82 22.81 Z" />
</g>
<g id="#23c4ffff">
<path fill="#23c4ff" opacity="1.00" d=" M 168.77 23.65 C 172.16 26.74 174.00 31.22 174.10 35.77 C 173.91 52.44 174.16 69.11 173.97 85.78 C 171.52 88.13 169.63 90.94 167.68 93.69 C 165.69 96.50 162.71 99.15 163.11 102.94 C 163.11 118.64 162.81 134.34 162.90 150.04 C 162.89 152.11 162.69 154.18 162.23 156.19 C 162.26 115.96 162.08 75.73 162.34 35.51 C 164.64 31.63 165.80 27.15 168.77 23.65 Z" />
</g>
<g id="#119effff">
<path fill="#119eff" opacity="1.00" d=" M 27.35 25.87 C 28.17 29.19 27.68 32.62 27.76 36.00 C 27.69 78.02 27.67 120.05 27.82 162.07 C 27.80 163.74 27.54 165.41 27.10 167.02 C 25.54 168.12 24.00 169.60 22.00 169.72 C 20.15 169.64 18.47 168.78 16.75 168.21 C 16.04 165.87 15.37 163.47 15.53 160.99 C 15.66 142.49 15.39 123.97 15.67 105.47 C 18.04 103.90 19.81 101.68 21.31 99.31 C 22.96 96.70 25.36 94.56 26.52 91.67 C 27.18 88.49 26.80 85.21 26.87 82.00 C 26.98 63.29 27.17 44.58 27.35 25.87 Z" />
</g>
<g id="#0000003a">
<path fill="#000000" opacity="0.23" d=" M 52.81 31.88 C 61.39 30.41 70.24 31.65 78.92 31.21 C 92.90 31.23 106.88 31.27 120.86 31.20 C 131.59 31.23 142.31 31.26 153.04 31.20 C 155.10 31.18 157.19 31.27 159.18 31.88 C 154.47 32.40 149.73 32.48 145.00 32.36 C 119.00 32.35 93.00 32.36 67.00 32.36 C 62.26 32.49 57.52 32.39 52.81 31.88 Z" />
<path fill="#000000" opacity="0.23" d=" M 78.05 120.84 C 80.42 125.50 84.63 129.27 89.86 130.23 C 100.57 130.62 111.30 130.34 122.02 130.40 C 127.63 130.59 132.69 127.25 135.78 122.74 C 135.76 127.04 131.90 129.82 128.36 131.42 C 123.58 133.71 118.13 132.97 113.00 133.07 C 105.68 132.91 98.34 133.37 91.03 132.85 C 84.88 132.26 78.39 127.32 78.05 120.84 Z" />
<path fill="#000000" opacity="0.23" d=" M 22.00 169.72 C 24.00 169.60 25.54 168.12 27.10 167.02 C 26.51 169.80 24.00 172.10 21.09 172.01 C 18.96 171.76 17.42 170.18 16.75 168.21 C 18.47 168.78 20.15 169.64 22.00 169.72 Z" />
</g>
<g id="#109cffff">
<path fill="#109cff" opacity="1.00" d=" M 48.98 50.00 C 49.22 44.97 48.26 39.76 49.88 34.88 C 49.71 75.32 49.99 115.77 49.77 156.21 C 48.67 150.20 49.24 144.07 49.07 138.00 C 48.94 129.62 49.07 121.25 48.77 112.88 C 44.76 116.47 41.69 121.11 40.20 126.31 C 38.45 131.48 39.41 137.04 38.25 142.32 C 37.65 133.90 38.11 125.44 37.97 117.00 C 38.12 111.44 37.63 105.85 38.25 100.32 C 39.57 92.09 38.65 83.47 41.53 75.51 C 43.22 71.49 47.15 68.85 48.65 64.76 C 49.34 59.87 48.78 54.92 48.98 50.00 Z" />
</g>
<g id="#020c0f2c">
<path fill="#020c0f" opacity="0.17" d=" M 174.10 35.77 C 174.46 36.82 174.67 37.89 174.73 38.99 C 174.60 74.65 174.72 110.33 174.67 146.00 C 174.60 149.07 175.18 152.26 174.11 155.23 C 173.91 132.08 174.16 108.93 173.97 85.78 C 174.16 69.11 173.91 52.44 174.10 35.77 Z" />
</g>
<g id="#1bb3ffff">
<path fill="#1bb3ff" opacity="1.00" d=" M 98.36 72.36 C 103.07 67.39 111.87 67.43 116.51 72.48 C 120.78 76.67 120.76 83.25 119.77 88.74 C 119.13 92.33 116.13 94.62 113.78 97.12 C 105.63 108.03 97.61 119.04 89.86 130.23 C 84.63 129.27 80.42 125.50 78.05 120.84 C 76.94 117.05 75.80 111.39 80.05 109.12 C 86.34 106.21 93.07 104.32 99.38 101.46 C 101.07 100.79 101.13 98.76 100.87 97.25 C 98.56 94.51 95.43 92.13 94.81 88.36 C 93.84 82.91 94.06 76.42 98.36 72.36 Z" />
</g>
<g id="#2bd6ffff">
<path fill="#2bd6ff" opacity="1.00" d=" M 167.68 93.69 C 169.63 90.94 171.52 88.13 173.97 85.78 C 174.16 108.93 173.91 132.08 174.11 155.23 C 174.05 159.43 172.59 163.59 169.89 166.81 C 166.30 169.90 161.72 171.82 156.96 171.78 C 125.97 171.83 94.99 171.74 64.00 171.78 C 60.25 171.77 56.49 171.89 52.75 171.56 C 59.45 171.26 66.15 171.23 72.86 171.14 C 86.81 171.22 100.77 171.01 114.72 170.80 C 117.37 167.34 119.94 163.81 122.10 160.01 C 133.73 159.96 145.37 160.09 157.01 159.95 C 159.36 160.04 161.94 158.76 162.23 156.19 C 162.69 154.18 162.89 152.11 162.90 150.04 C 162.81 134.34 163.11 118.64 163.11 102.94 C 162.71 99.15 165.69 96.50 167.68 93.69 Z" />
</g>
<g id="#21bfffff">
<path fill="#21bfff" opacity="1.00" d=" M 89.86 130.23 C 97.61 119.04 105.63 108.03 113.78 97.12 C 113.66 98.76 113.67 100.82 115.49 101.54 C 121.77 104.42 128.51 106.23 134.74 109.22 C 139.46 112.05 137.73 118.66 135.78 122.74 C 132.69 127.25 127.63 130.59 122.02 130.40 C 111.30 130.34 100.57 130.62 89.86 130.23 Z" />
</g>
<g id="#16a9ffff">
<path fill="#16a9ff" opacity="1.00" d=" M 40.20 126.31 C 41.69 121.11 44.76 116.47 48.77 112.88 C 49.07 121.25 48.94 129.62 49.07 138.00 C 49.24 144.07 48.67 150.20 49.77 156.21 C 49.78 156.59 49.79 157.35 49.80 157.73 C 45.49 158.58 44.25 163.26 41.71 166.22 L 41.01 165.75 C 36.84 158.67 37.89 150.15 38.25 142.32 C 39.41 137.04 38.45 131.48 40.20 126.31 Z" />
</g>
<g id="#1db7ffff">
<path fill="#1db7ff" opacity="1.00" d=" M 41.71 166.22 C 44.25 163.26 45.49 158.58 49.80 157.73 C 51.37 158.78 52.99 160.03 55.00 159.95 C 63.41 160.12 71.83 159.91 80.25 160.03 C 78.08 163.93 75.08 167.28 72.86 171.14 C 66.15 171.23 59.45 171.26 52.75 171.56 C 48.46 171.39 44.80 168.98 41.71 166.22 Z" />
</g>
<g id="#24c6ffff">
<path fill="#24c6ff" opacity="1.00" d=" M 80.25 160.03 C 94.20 159.99 108.15 159.99 122.10 160.01 C 119.94 163.81 117.37 167.34 114.72 170.80 C 100.77 171.01 86.81 171.22 72.86 171.14 C 75.08 167.28 78.08 163.93 80.25 160.03 Z" />
</g>
<g id="#0103043e">
<path fill="#010304" opacity="0.24" d=" M 41.01 165.75 L 41.71 166.22 C 44.80 168.98 48.46 171.39 52.75 171.56 C 56.49 171.89 60.25 171.77 64.00 171.78 C 94.99 171.74 125.97 171.83 156.96 171.78 C 161.72 171.82 166.30 169.90 169.89 166.81 C 169.84 169.93 166.79 171.30 164.37 172.45 C 161.46 173.84 158.21 174.29 155.01 174.29 C 122.34 174.26 89.67 174.27 56.99 174.29 C 51.83 174.44 46.61 172.69 42.72 169.27 C 41.61 168.42 41.40 166.99 41.01 165.75 Z" />
</g>
</svg>
