<svg width="64" height="64" viewBox="0 0 64 64" fill="none" xmlns="http://www.w3.org/2000/svg">
<path d="M0.0784945 9.14429C0.307595 4.72627 3.98526 0.828501 8.35827 0.172202C10.5367 -0.123933 12.7474 0.0761577 14.9419 0.0241341C13.8205 1.52082 12.679 3.0215 11.8591 4.71027C10.3398 4.71827 8.69589 4.61422 7.34942 5.45461C6.10344 6.16293 5.21919 7.39149 4.89765 8.78412C4.86951 8.90818 4.82128 9.15229 4.79314 9.27635C4.50375 10.5129 4.47964 11.8135 4.03751 13.0141C3.03671 14.7428 1.83895 16.3756 0.45229 17.8282C0.146822 14.9389 0.508561 12.0216 0.0784945 9.14429Z" fill="url(#paint0_linear)"/>
<path d="M14.9419 0.0241341C18.716 0.0201322 22.4861 0.0121207 26.2602 0.028128C25.372 1.67688 24.2466 3.18156 23.1815 4.71826C19.4073 4.71826 15.6332 4.73428 11.8591 4.71027C12.679 3.0215 13.8205 1.52082 14.9419 0.0241341Z" fill="url(#paint1_linear)"/>
<path d="M26.2602 0.028128C30.2554 0.0161226 34.2507 0.020121 38.2499 0.020121C37.1245 1.59684 35.9709 3.14555 34.8495 4.72226C30.9588 4.72226 27.0721 4.72227 23.1815 4.71826C24.2466 3.18156 25.372 1.67688 26.2602 0.028128Z" fill="url(#paint2_linear)"/>
<path d="M38.2499 0.020121C41.8994 0.0241228 45.545 0.0121508 49.1945 0.0281581C48.27 1.6569 47.1527 3.16559 46.0996 4.7183C42.3496 4.7263 38.5996 4.71826 34.8495 4.72226C35.9709 3.14555 37.1245 1.59684 38.2499 0.020121Z" fill="url(#paint3_linear)"/>
<path d="M49.1945 0.0281581C52.2532 0.0201544 55.5128 -0.284019 58.2701 1.31271C57.3617 2.58929 56.5016 3.90189 55.7018 5.2505C52.6189 4.21403 49.291 4.93039 46.0996 4.7183C47.1527 3.16559 48.27 1.6569 49.1945 0.0281581Z" fill="url(#paint4_linear)"/>
<path d="M14.745 47.4257C16.6502 47.1816 18.5794 47.3097 20.4926 47.3137C21.5577 47.2656 22.3375 48.094 22.8037 48.9504C23.0007 50.299 22.249 51.8997 20.7418 51.9958C17.5706 52.1238 14.3913 52.0398 11.2201 52.0238C12.6911 50.7392 13.7482 49.0825 14.745 47.4257Z" fill="url(#paint5_linear)"/>
<path d="M58.2701 1.31271C60.2436 2.52926 61.8633 4.32605 62.6913 6.49904C63.0611 7.63555 63.254 8.82009 63.2822 10.0126C61.4735 11.7814 60.3159 14.0665 58.5756 15.8873C58.3264 13.006 59.2186 9.84456 57.7637 7.18735C57.2251 6.40299 56.5056 5.75873 55.7018 5.2505C56.5016 3.90189 57.3617 2.58929 58.2701 1.31271Z" fill="url(#paint6_linear)"/>
<path d="M7.34942 5.45461C8.69589 4.61422 10.3398 4.71827 11.8591 4.71027C15.6332 4.73428 19.4073 4.71826 23.1815 4.71826C27.0721 4.72227 30.9588 4.72226 34.8495 4.72226C38.5996 4.71826 42.3496 4.7263 46.0996 4.7183C49.291 4.93039 52.6189 4.21403 55.7018 5.2505C56.5056 5.75873 57.2251 6.40299 57.7637 7.18735C56.2484 6.48303 54.7652 5.51056 53.0168 5.60661C40.4203 5.57859 27.8238 5.61061 15.2313 5.5946C13.2176 5.5946 11.1798 5.49055 9.19026 5.86672C7.33735 6.08682 6.4491 7.97576 4.89765 8.78412C5.21919 7.39149 6.10344 6.16293 7.34942 5.45461Z" fill="url(#paint7_linear)"/>
<path d="M22.9042 12.7579C23.6839 13.8744 22.5625 15.271 21.4411 15.5911C19.3632 16.2434 17.1525 15.6432 15.0303 15.9593C14.3913 16.5916 14.7811 17.7201 14.6766 18.5485C14.5601 20.2813 15.2353 22.5103 13.6276 23.7469C12.7916 24.5952 11.0834 24.6112 10.7658 23.2666C12.0761 23.6548 13.7482 23.1626 14.1059 21.7179C14.3832 19.4489 14.1581 17.1519 14.2184 14.8708C16.3969 14.8028 18.5834 14.9509 20.7619 14.8068C21.9034 14.7588 22.5384 13.6983 22.9042 12.7579Z" fill="url(#paint8_linear)"/>
<path d="M62.6913 6.49904C63.0611 7.00327 63.6599 7.44348 63.6478 8.12779C63.7644 10.801 64.0699 13.4622 63.9855 16.1394C63.9855 28.0048 63.9372 39.8582 63.9975 51.7196C63.9051 54.4249 63.7845 57.3542 62.1607 59.6472C60.36 62.4005 57.1084 64.0773 53.8166 63.9972C39.2185 63.9932 24.6203 64.0052 10.0262 63.9932C7.23282 64.0733 4.54792 62.6726 2.73119 60.6117C2.31318 60.2355 2.16447 59.6913 2.05595 59.167C2.81961 60.0274 3.67171 60.8198 4.62428 61.4761C7.8759 63.6371 11.9153 62.9367 15.593 63.0448C19.3229 63.0408 23.0488 63.0488 26.7787 63.0408C30.2594 63.0448 33.7402 63.0448 37.2209 63.0448C40.4564 63.0448 43.692 63.0448 46.9275 63.0448C49.4999 62.9848 52.0762 63.1769 54.6406 62.9327C59.3713 62.4045 63.2821 58.0625 63.274 53.3164C63.3022 48.6022 63.274 43.8921 63.2781 39.1779C63.2901 34.2317 63.2861 29.2894 63.274 24.3432C63.2941 19.565 63.2822 14.7908 63.2822 10.0126C63.254 8.82009 63.0611 7.63555 62.6913 6.49904Z" fill="url(#paint9_linear)"/>
<path d="M0.0784945 9.14429C0.508561 12.0216 0.146822 14.9389 0.45229 17.8282C1.83895 16.3756 3.03671 14.7428 4.03751 13.0141C4.47964 11.8135 4.50375 10.5129 4.79314 9.27635C4.64041 24.1231 4.84141 38.9778 4.76504 53.8246C4.43948 52.488 4.36713 51.1073 4.3189 49.7387C2.96841 51.5395 1.71439 53.4164 0.166953 55.0651C0.0262773 53.9646 -0.00989645 52.8561 0.00216148 51.7476C0.0584318 37.5452 -0.0702199 23.3428 0.0784945 9.14429Z" fill="url(#paint10_linear)"/>
<path d="M9.45151 12.5498C9.36711 11.1692 10.6613 9.99668 12.0239 10.1127C14.8454 10.1047 17.667 10.0767 20.4885 10.1287C21.9074 10.0967 22.868 11.4453 22.9042 12.7579C22.5384 13.6983 21.9034 14.7588 20.7619 14.8068C18.5834 14.9509 16.3969 14.8028 14.2184 14.8708C14.1581 17.1519 14.3832 19.4489 14.1059 21.7179C13.7482 23.1626 12.0761 23.6548 10.7658 23.2666C10.0142 22.7224 9.37515 21.9101 9.4475 20.9337C9.43142 18.1404 9.4274 15.3431 9.45151 12.5498Z" fill="url(#paint11_linear)"/>
<path d="M40.6052 11.7695C40.8986 10.769 41.9115 10.0727 42.9525 10.1208C46.0393 10.0927 49.1262 10.0847 52.213 10.1408L52.0482 10.2848C50.6334 11.5014 49.4075 13.0181 48.8006 14.7989C46.7146 14.9069 44.6165 14.8989 42.5264 14.8229C41.1036 14.7389 40.1269 13.0701 40.6052 11.7695Z" fill="url(#paint12_linear)"/>
<path d="M58.5756 15.8873C60.3159 14.0665 61.4735 11.7814 63.2822 10.0126C63.2822 14.7908 63.2941 19.565 63.274 24.3432C61.3367 25.8799 60.4686 28.3209 58.5755 29.9097C58.5675 25.2355 58.5715 20.5614 58.5756 15.8873Z" fill="url(#paint13_linear)"/>
<path d="M48.8006 14.7989C49.4075 13.0181 50.6334 11.5014 52.0482 10.2848C52.9485 10.2568 53.5555 11.1652 53.8127 11.9336C53.877 14.935 53.869 17.9443 53.8328 20.9457C53.9252 22.2623 52.7677 23.4668 51.4413 23.4148C50.6495 23.4388 50.0265 22.8946 49.4276 22.4584C48.5313 19.9973 49.5683 17.28 48.8006 14.7989Z" fill="url(#paint14_linear)"/>
<path d="M53.8127 11.9336C54.283 12.1097 54.4959 12.4378 54.4597 12.914C54.5241 15.5912 54.4557 18.2724 54.4959 20.9496C54.4437 21.8941 54.6004 23.0226 53.8327 23.7349C52.4863 25.0395 49.6447 24.5433 49.4276 22.4584C50.0265 22.8946 50.6495 23.4388 51.4413 23.4148C52.7677 23.4668 53.9252 22.2623 53.8328 20.9457C53.869 17.9443 53.877 14.935 53.8127 11.9336Z" fill="url(#paint15_linear)"/>
<path d="M58.5755 29.9097C60.4686 28.3209 61.3367 25.8799 63.274 24.3432C63.2861 29.2894 63.2901 34.2317 63.2781 39.1779C61.389 40.8707 60.2637 43.1838 58.5756 45.0446C58.5675 40.0023 58.5675 34.956 58.5755 29.9097Z" fill="url(#paint16_linear)"/>
<path d="M9.47153 40.9468C9.47153 38.6897 12.8638 37.9254 13.8968 39.9103C14.9217 42.2794 13.487 45.1327 14.745 47.4257C13.7482 49.0825 12.6911 50.7392 11.2201 52.0238C10.6694 51.6916 10.1468 51.3195 9.66445 50.8993C9.19017 47.6178 9.52378 44.2563 9.47153 40.9468Z" fill="url(#paint17_linear)"/>
<path d="M0.166953 55.0651C1.71439 53.4164 2.96841 51.5395 4.3189 49.7387C4.36713 51.1073 4.43948 52.488 4.76504 53.8246C5.05443 55.4213 6.04312 56.798 7.39361 57.6824C6.48927 58.959 5.5648 60.2235 4.62428 61.4761C3.67171 60.8198 2.81961 60.0274 2.05595 59.167C1.13954 57.9505 0.560845 56.5218 0.166953 55.0651Z" fill="url(#paint18_linear)"/>
<path d="M49.102 40.9547C49.1181 39.478 50.7781 38.3575 52.1687 38.8458C53.2419 39.1459 53.9292 40.2424 53.8689 41.3309C53.881 43.5959 53.8488 45.861 53.8769 48.126C53.8528 49.0584 53.9694 50.0469 53.5393 50.9153C53.053 51.5796 52.2853 52.0518 51.4372 52.0278C48.6157 52.0758 45.7901 52.0678 42.9685 52.0278C42.0481 52.0918 41.3287 51.4875 40.7217 50.8873C40.0465 49.4706 40.8624 47.5017 42.5144 47.3376C44.6968 47.2256 46.8874 47.3336 49.0698 47.2936C49.098 45.1807 49.0216 43.0677 49.102 40.9547Z" fill="url(#paint19_linear)"/>
<path d="M58.5756 45.0446C60.2637 43.1838 61.389 40.8707 63.2781 39.1779C63.274 43.8921 63.3022 48.6022 63.274 53.3164C63.2821 58.0625 59.3713 62.4045 54.6406 62.9327C52.0762 63.1769 49.4999 62.9848 46.9275 63.0448C48.0288 61.4601 49.1904 59.9234 50.2917 58.3426C51.6342 58.3266 52.9887 58.4307 54.3191 58.2226C56.6503 57.8144 58.5112 55.6534 58.5474 53.2923C58.6157 50.5431 58.5474 47.7939 58.5756 45.0446Z" fill="url(#paint20_linear)"/>
<path d="M54.0378 47.7259C54.1423 45.4648 53.6398 43.1117 54.4116 40.9308C54.5683 44.1362 54.512 47.3497 54.4799 50.5591C54.5281 51.9558 53.2419 53.2524 51.8271 53.1643C49.0096 53.1963 46.184 53.1603 43.3665 53.1643C42.1004 53.2124 40.7418 52.2079 40.7217 50.8873C41.3287 51.4875 42.0481 52.0918 42.9685 52.0278C45.7901 52.0678 48.6157 52.0758 51.4372 52.0278C52.2853 52.0518 53.053 51.5796 53.5393 50.9153C54.3231 50.0509 53.9413 48.7743 54.0378 47.7259Z" fill="url(#paint21_linear)"/>
<path d="M22.8037 48.9504C24.4074 50.223 23.0851 53.1243 21.1156 53.1203C18.2257 53.2524 15.3238 53.1323 12.4299 53.1683C11.1075 53.2484 9.86542 52.1839 9.66445 50.8993C10.1468 51.3195 10.6694 51.6916 11.2201 52.0238C14.3913 52.0398 17.5706 52.1238 20.7418 51.9958C22.249 51.8997 23.0007 50.299 22.8037 48.9504Z" fill="url(#paint22_linear)"/>
<path d="M7.39361 57.6824C8.33413 58.1106 9.35104 58.3587 10.384 58.3427C13.2257 58.3547 16.0633 58.3307 18.9049 58.3427C17.8438 59.9394 16.7385 61.5081 15.593 63.0448C11.9153 62.9367 7.8759 63.6371 4.62428 61.4761C5.5648 60.2235 6.48927 58.959 7.39361 57.6824Z" fill="url(#paint23_linear)"/>
<path d="M18.9049 58.3427C22.5706 58.3467 26.2321 58.3347 29.8978 58.3467C29.0135 60.0115 27.7634 61.4401 26.7787 63.0408C23.0488 63.0488 19.3229 63.0408 15.593 63.0448C16.7385 61.5081 17.8438 59.9394 18.9049 58.3427Z" fill="url(#paint24_linear)"/>
<path d="M29.8978 58.3467C33.3503 58.3387 36.807 58.3387 40.2596 58.3427C39.3793 59.9914 38.2699 61.5001 37.2209 63.0448C33.7402 63.0448 30.2594 63.0448 26.7787 63.0408C27.7634 61.4401 29.0135 60.0115 29.8978 58.3467Z" fill="url(#paint25_linear)"/>
<path d="M40.2596 58.3427C43.6036 58.3427 46.9477 58.3346 50.2917 58.3426C49.1904 59.9234 48.0288 61.4601 46.9275 63.0448C43.692 63.0448 40.4564 63.0448 37.2209 63.0448C38.2699 61.5001 39.3793 59.9914 40.2596 58.3427Z" fill="url(#paint26_linear)"/>
<defs>
<linearGradient id="paint0_linear" x1="32" y1="64" x2="32" y2="0" gradientUnits="userSpaceOnUse">
<stop stop-color="#5558FF"/>
<stop offset="1" stop-color="#00C0FF"/>
</linearGradient>
<linearGradient id="paint1_linear" x1="32" y1="64" x2="32" y2="0" gradientUnits="userSpaceOnUse">
<stop stop-color="#5558FF"/>
<stop offset="1" stop-color="#00C0FF"/>
</linearGradient>
<linearGradient id="paint2_linear" x1="32" y1="64" x2="32" y2="0" gradientUnits="userSpaceOnUse">
<stop stop-color="#5558FF"/>
<stop offset="1" stop-color="#00C0FF"/>
</linearGradient>
<linearGradient id="paint3_linear" x1="32" y1="64" x2="32" y2="0" gradientUnits="userSpaceOnUse">
<stop stop-color="#5558FF"/>
<stop offset="1" stop-color="#00C0FF"/>
</linearGradient>
<linearGradient id="paint4_linear" x1="32" y1="64" x2="32" y2="0" gradientUnits="userSpaceOnUse">
<stop stop-color="#5558FF"/>
<stop offset="1" stop-color="#00C0FF"/>
</linearGradient>
<linearGradient id="paint5_linear" x1="32" y1="64" x2="32" y2="0" gradientUnits="userSpaceOnUse">
<stop stop-color="#5558FF"/>
<stop offset="1" stop-color="#00C0FF"/>
</linearGradient>
<linearGradient id="paint6_linear" x1="32" y1="64" x2="32" y2="0" gradientUnits="userSpaceOnUse">
<stop stop-color="#5558FF"/>
<stop offset="1" stop-color="#00C0FF"/>
</linearGradient>
<linearGradient id="paint7_linear" x1="32" y1="64" x2="32" y2="0" gradientUnits="userSpaceOnUse">
<stop stop-color="#5558FF"/>
<stop offset="1" stop-color="#00C0FF"/>
</linearGradient>
<linearGradient id="paint8_linear" x1="32" y1="64" x2="32" y2="0" gradientUnits="userSpaceOnUse">
<stop stop-color="#5558FF"/>
<stop offset="1" stop-color="#00C0FF"/>
</linearGradient>
<linearGradient id="paint9_linear" x1="32" y1="64" x2="32" y2="0" gradientUnits="userSpaceOnUse">
<stop stop-color="#5558FF"/>
<stop offset="1" stop-color="#00C0FF"/>
</linearGradient>
<linearGradient id="paint10_linear" x1="32" y1="64" x2="32" y2="0" gradientUnits="userSpaceOnUse">
<stop stop-color="#5558FF"/>
<stop offset="1" stop-color="#00C0FF"/>
</linearGradient>
<linearGradient id="paint11_linear" x1="32" y1="64" x2="32" y2="0" gradientUnits="userSpaceOnUse">
<stop stop-color="#5558FF"/>
<stop offset="1" stop-color="#00C0FF"/>
</linearGradient>
<linearGradient id="paint12_linear" x1="32" y1="64" x2="32" y2="0" gradientUnits="userSpaceOnUse">
<stop stop-color="#5558FF"/>
<stop offset="1" stop-color="#00C0FF"/>
</linearGradient>
<linearGradient id="paint13_linear" x1="32" y1="64" x2="32" y2="0" gradientUnits="userSpaceOnUse">
<stop stop-color="#5558FF"/>
<stop offset="1" stop-color="#00C0FF"/>
</linearGradient>
<linearGradient id="paint14_linear" x1="32" y1="64" x2="32" y2="0" gradientUnits="userSpaceOnUse">
<stop stop-color="#5558FF"/>
<stop offset="1" stop-color="#00C0FF"/>
</linearGradient>
<linearGradient id="paint15_linear" x1="32" y1="64" x2="32" y2="0" gradientUnits="userSpaceOnUse">
<stop stop-color="#5558FF"/>
<stop offset="1" stop-color="#00C0FF"/>
</linearGradient>
<linearGradient id="paint16_linear" x1="32" y1="64" x2="32" y2="0" gradientUnits="userSpaceOnUse">
<stop stop-color="#5558FF"/>
<stop offset="1" stop-color="#00C0FF"/>
</linearGradient>
<linearGradient id="paint17_linear" x1="32" y1="64" x2="32" y2="0" gradientUnits="userSpaceOnUse">
<stop stop-color="#5558FF"/>
<stop offset="1" stop-color="#00C0FF"/>
</linearGradient>
<linearGradient id="paint18_linear" x1="32" y1="64" x2="32" y2="0" gradientUnits="userSpaceOnUse">
<stop stop-color="#5558FF"/>
<stop offset="1" stop-color="#00C0FF"/>
</linearGradient>
<linearGradient id="paint19_linear" x1="32" y1="64" x2="32" y2="0" gradientUnits="userSpaceOnUse">
<stop stop-color="#5558FF"/>
<stop offset="1" stop-color="#00C0FF"/>
</linearGradient>
<linearGradient id="paint20_linear" x1="32" y1="64" x2="32" y2="0" gradientUnits="userSpaceOnUse">
<stop stop-color="#5558FF"/>
<stop offset="1" stop-color="#00C0FF"/>
</linearGradient>
<linearGradient id="paint21_linear" x1="32" y1="64" x2="32" y2="0" gradientUnits="userSpaceOnUse">
<stop stop-color="#5558FF"/>
<stop offset="1" stop-color="#00C0FF"/>
</linearGradient>
<linearGradient id="paint22_linear" x1="32" y1="64" x2="32" y2="0" gradientUnits="userSpaceOnUse">
<stop stop-color="#5558FF"/>
<stop offset="1" stop-color="#00C0FF"/>
</linearGradient>
<linearGradient id="paint23_linear" x1="32" y1="64" x2="32" y2="0" gradientUnits="userSpaceOnUse">
<stop stop-color="#5558FF"/>
<stop offset="1" stop-color="#00C0FF"/>
</linearGradient>
<linearGradient id="paint24_linear" x1="32" y1="64" x2="32" y2="0" gradientUnits="userSpaceOnUse">
<stop stop-color="#5558FF"/>
<stop offset="1" stop-color="#00C0FF"/>
</linearGradient>
<linearGradient id="paint25_linear" x1="32" y1="64" x2="32" y2="0" gradientUnits="userSpaceOnUse">
<stop stop-color="#5558FF"/>
<stop offset="1" stop-color="#00C0FF"/>
</linearGradient>
<linearGradient id="paint26_linear" x1="32" y1="64" x2="32" y2="0" gradientUnits="userSpaceOnUse">
<stop stop-color="#5558FF"/>
<stop offset="1" stop-color="#00C0FF"/>
</linearGradient>
</defs>
</svg>
