<?xml version="1.0" encoding="UTF-8" ?>
<!DOCTYPE svg PUBLIC "-//W3C//DTD SVG 1.1//EN" "http://www.w3.org/Graphics/SVG/1.1/DTD/svg11.dtd">
<svg width="192pt" height="192pt" viewBox="0 0 192 192" version="1.1" xmlns="http://www.w3.org/2000/svg">
<g id="#ff801fff">
<path fill="#ff801f" opacity="1.00" d=" M 109.67 10.73 C 114.52 8.90 119.84 9.70 124.63 11.30 C 131.46 13.57 138.46 15.32 145.30 17.60 C 142.81 20.44 140.23 23.41 139.68 27.30 C 132.65 25.49 125.77 23.18 118.81 21.17 C 115.12 19.97 111.53 21.89 108.12 23.10 C 98.09 26.80 88.11 30.66 78.02 34.23 C 80.44 27.18 88.83 24.39 91.52 17.59 C 97.51 15.14 103.60 12.97 109.67 10.73 Z" />
</g>
<g id="#ff751fff">
<path fill="#ff751f" opacity="1.00" d=" M 28.11 41.10 C 49.27 33.33 70.31 25.21 91.52 17.59 C 88.83 24.39 80.44 27.18 78.02 34.23 C 65.29 39.20 52.44 43.88 39.61 48.62 C 37.06 49.65 32.85 50.12 33.68 53.90 C 33.75 78.93 33.75 103.96 33.69 129.00 C 33.78 131.53 33.31 134.30 34.79 136.54 C 34.45 136.70 33.78 137.01 33.45 137.16 C 33.03 135.14 32.82 133.08 32.82 131.02 C 32.88 120.36 32.84 109.69 32.75 99.02 C 29.28 101.99 26.31 105.50 22.65 108.26 C 22.42 88.84 22.65 69.42 22.54 50.00 C 22.62 47.88 22.30 45.49 23.68 43.69 C 24.74 42.26 26.55 41.77 28.11 41.10 Z" />
</g>
<g id="#ff931fff">
<path fill="#ff931f" opacity="1.00" d=" M 145.30 17.60 C 151.56 19.17 157.74 21.07 163.95 22.87 C 167.82 23.96 169.42 28.29 169.12 31.97 C 168.95 44.88 169.42 57.83 168.89 70.72 C 165.00 75.02 162.47 80.44 158.01 84.22 C 157.76 66.97 158.22 49.71 157.77 32.46 C 151.68 30.97 145.69 29.07 139.68 27.30 C 140.23 23.41 142.81 20.44 145.30 17.60 Z" />
<path fill="#ff931f" opacity="1.00" d=" M 120.28 37.70 C 121.29 41.72 120.69 45.90 120.82 50.00 C 120.74 85.01 120.68 120.02 120.69 155.02 C 120.75 157.18 120.03 159.23 119.21 161.20 C 114.11 162.88 108.86 161.15 103.74 160.61 C 95.15 159.58 86.63 158.11 78.04 157.15 C 82.91 159.17 87.88 160.93 92.86 162.67 C 95.32 163.58 97.76 164.54 100.23 165.44 C 97.84 168.33 94.54 171.05 94.41 175.10 C 78.87 169.36 63.30 163.67 47.77 157.90 C 50.00 152.07 54.00 146.87 59.10 143.26 C 75.92 145.46 92.69 148.27 109.57 149.96 C 109.47 123.39 109.58 96.82 109.67 70.25 C 112.76 67.40 114.87 63.72 117.48 60.46 C 118.46 59.09 119.70 57.72 119.77 55.94 C 120.25 49.87 119.55 43.76 120.28 37.70 Z" />
</g>
<g id="#0000003b">
<path fill="#000000" opacity="0.23" d=" M 108.12 23.10 C 111.53 21.89 115.12 19.97 118.81 21.17 C 125.77 23.18 132.65 25.49 139.68 27.30 C 145.69 29.07 151.68 30.97 157.77 32.46 C 158.22 49.71 157.76 66.97 158.01 84.22 C 157.85 109.06 158.02 133.90 157.92 158.74 L 157.13 159.02 C 157.65 120.02 157.13 81.00 157.40 42.00 C 157.35 39.78 157.52 37.49 156.83 35.35 C 154.16 33.54 150.79 33.26 147.78 32.27 C 139.06 29.63 130.26 27.25 121.58 24.46 C 118.54 23.45 115.18 22.87 112.11 24.13 C 91.70 31.73 71.29 39.32 50.90 46.97 C 45.13 49.19 39.19 51.03 33.68 53.90 C 32.85 50.12 37.06 49.65 39.61 48.62 C 52.44 43.88 65.29 39.20 78.02 34.23 C 88.11 30.66 98.09 26.80 108.12 23.10 Z" />
</g>
<g id="#ff811fff">
<path fill="#ff811f" opacity="1.00" d=" M 112.52 35.27 C 115.37 34.27 118.64 35.04 120.28 37.70 C 119.55 43.76 120.25 49.87 119.77 55.94 C 119.70 57.72 118.46 59.09 117.48 60.46 C 114.87 63.72 112.76 67.40 109.67 70.25 C 109.54 62.61 109.70 54.97 109.66 47.33 C 109.20 47.44 108.27 47.65 107.81 47.76 C 92.97 51.25 78.15 54.83 63.30 58.31 C 63.16 83.62 63.27 108.92 63.26 134.22 C 62.11 139.75 55.28 138.89 51.73 141.96 C 54.16 142.55 56.63 142.91 59.10 143.26 C 54.00 146.87 50.00 152.07 47.77 157.90 C 42.03 155.82 36.32 153.66 30.57 151.62 C 27.66 150.68 25.27 148.76 22.92 146.89 C 22.17 134.04 22.65 121.13 22.65 108.26 C 26.31 105.50 29.28 101.99 32.75 99.02 C 32.84 109.69 32.88 120.36 32.82 131.02 C 32.82 133.08 33.03 135.14 33.45 137.16 C 33.78 137.01 34.45 136.70 34.79 136.54 C 40.30 133.88 46.06 131.74 51.78 129.58 C 52.21 125.73 52.15 121.86 52.11 118.00 C 52.09 98.66 52.14 79.33 52.09 60.00 C 52.13 57.44 51.93 54.85 52.42 52.33 C 52.94 50.08 55.11 48.83 57.23 48.41 C 75.65 44.02 94.08 39.63 112.52 35.27 Z" />
</g>
<g id="#0000003e">
<path fill="#000000" opacity="0.24" d=" M 63.30 58.31 C 78.15 54.83 92.97 51.25 107.81 47.76 C 108.12 48.28 108.73 49.31 109.04 49.83 C 94.07 53.24 79.18 56.99 64.21 60.40 C 63.69 64.58 63.68 68.79 63.77 73.00 C 63.81 89.33 63.76 105.67 63.78 122.00 C 63.78 126.07 64.14 130.21 63.26 134.22 C 63.27 108.92 63.16 83.62 63.30 58.31 Z" />
<path fill="#000000" opacity="0.24" d=" M 22.92 146.89 C 25.27 148.76 27.66 150.68 30.57 151.62 C 36.32 153.66 42.03 155.82 47.77 157.90 C 63.30 163.67 78.87 169.36 94.41 175.10 C 99.66 176.91 104.71 179.25 109.99 180.98 C 114.05 182.33 118.44 181.83 122.48 180.67 C 135.67 176.85 148.79 172.80 162.05 169.24 C 164.29 168.65 166.21 167.33 168.12 166.07 C 167.41 168.47 165.66 170.56 163.17 171.22 C 152.09 174.49 140.95 177.58 129.88 180.92 C 124.67 182.30 119.45 184.40 113.99 184.17 C 107.72 183.06 101.90 180.29 95.99 178.03 C 75.00 170.43 54.10 162.57 33.10 154.96 C 28.88 153.75 24.08 151.57 22.92 146.89 Z" />
<path fill="#000000" opacity="0.24" d=" M 78.04 157.15 C 86.63 158.11 95.15 159.58 103.74 160.61 C 108.86 161.15 114.11 162.88 119.21 161.20 C 118.26 162.72 116.97 164.34 114.97 164.24 C 107.56 164.31 100.30 161.19 92.86 162.67 C 87.88 160.93 82.91 159.17 78.04 157.15 Z" />
</g>
<g id="#ffa11fff">
<path fill="#ffa11f" opacity="1.00" d=" M 158.01 84.22 C 162.47 80.44 165.00 75.02 168.89 70.72 C 169.41 99.80 168.94 128.90 169.13 157.99 C 169.26 160.72 168.84 163.43 168.12 166.07 C 166.21 167.33 164.29 168.65 162.05 169.24 C 148.79 172.80 135.67 176.85 122.48 180.67 C 118.44 181.83 114.05 182.33 109.99 180.98 C 104.71 179.25 99.66 176.91 94.41 175.10 C 94.54 171.05 97.84 168.33 100.23 165.44 C 106.93 167.34 113.59 172.75 120.78 169.66 C 132.87 166.00 145.01 162.54 157.13 159.02 L 157.92 158.74 C 158.02 133.90 157.85 109.06 158.01 84.22 Z" />
</g>
</svg>
