<?xml version="1.0" encoding="UTF-8" ?>
<!DOCTYPE svg PUBLIC "-//W3C//DTD SVG 1.1//EN" "http://www.w3.org/Graphics/SVG/1.1/DTD/svg11.dtd">
<svg width="192pt" height="192pt" viewBox="0 0 192 192" version="1.1" xmlns="http://www.w3.org/2000/svg">
<g id="#16a082ff">
<path fill="#16a082" opacity="1.00" d=" M 52.68 24.69 C 56.18 16.15 64.74 9.93 73.99 9.46 C 80.70 9.23 87.41 9.45 94.12 9.36 C 91.25 13.19 88.57 17.15 85.84 21.08 C 81.12 21.18 76.29 20.60 71.66 21.77 C 68.09 22.73 65.44 25.58 63.70 28.71 C 61.47 36.28 62.98 44.36 62.64 52.15 C 62.00 52.16 60.73 52.17 60.09 52.17 C 56.97 52.23 53.85 52.23 50.73 52.21 C 51.20 43.07 49.25 33.44 52.68 24.69 Z" />
</g>
<g id="#1ca88cff">
<path fill="#1ca88c" opacity="1.00" d=" M 94.12 9.36 C 106.17 9.42 118.21 9.36 130.26 9.37 C 127.71 13.24 125.38 17.25 122.80 21.11 C 110.48 21.06 98.16 21.12 85.84 21.08 C 88.57 17.15 91.25 13.19 94.12 9.36 Z" />
</g>
<g id="#23b197ff">
<path fill="#23b197" opacity="1.00" d=" M 130.26 9.37 C 138.17 9.44 146.08 9.34 153.99 9.38 C 157.59 9.33 161.09 10.29 164.46 11.45 C 162.43 14.35 160.38 17.23 158.28 20.07 C 158.47 20.50 158.85 21.36 159.04 21.80 C 155.74 21.11 152.37 21.05 149.02 21.06 C 140.28 21.11 131.54 21.08 122.80 21.11 C 125.38 17.25 127.71 13.24 130.26 9.37 Z" />
</g>
<g id="#2cbda5ff">
<path fill="#2cbda5" opacity="1.00" d=" M 164.46 11.45 C 169.77 14.30 174.51 18.52 176.89 24.15 C 179.63 29.91 179.06 36.44 179.13 42.63 C 175.88 46.23 172.22 49.60 169.96 53.96 C 168.19 57.34 168.00 61.25 168.01 64.99 C 168.30 79.06 167.77 93.14 168.07 107.21 C 167.99 116.80 167.86 126.40 167.81 136.00 C 167.64 144.04 168.33 152.13 167.06 160.12 C 167.46 121.42 167.11 82.71 167.27 44.00 C 167.19 38.48 167.88 32.71 165.65 27.48 C 163.80 25.21 161.56 23.28 159.04 21.80 C 158.85 21.36 158.47 20.50 158.28 20.07 C 160.38 17.23 162.43 14.35 164.46 11.45 Z" />
</g>
<g id="#020c0a4e">
<path fill="#020c0a" opacity="0.31" d=" M 71.66 21.77 C 76.29 20.60 81.12 21.18 85.84 21.08 C 98.16 21.12 110.48 21.06 122.80 21.11 C 131.54 21.08 140.28 21.11 149.02 21.06 C 152.37 21.05 155.74 21.11 159.04 21.80 C 161.56 23.28 163.80 25.21 165.65 27.48 C 161.14 25.07 156.25 23.03 151.04 23.10 C 131.03 23.21 111.01 23.17 91.00 23.17 C 85.69 23.21 80.38 22.84 75.09 23.31 C 70.77 23.66 66.94 25.98 63.70 28.71 C 65.44 25.58 68.09 22.73 71.66 21.77 Z" />
</g>
<g id="#33c6b1ff">
<path fill="#33c6b1" opacity="1.00" d=" M 169.96 53.96 C 172.22 49.60 175.88 46.23 179.13 42.63 C 178.97 59.61 179.35 76.61 178.95 93.58 C 175.74 98.44 171.76 102.72 168.07 107.21 C 167.77 93.14 168.30 79.06 168.01 64.99 C 168.00 61.25 168.19 57.34 169.96 53.96 Z" />
</g>
<g id="#2ada84ff">
<path fill="#2ada84" opacity="1.00" d=" M 30.35 52.29 C 37.14 52.05 43.94 52.25 50.73 52.21 C 53.85 52.23 56.97 52.23 60.09 52.17 C 56.73 52.59 53.17 53.25 50.54 55.54 C 47.81 57.90 45.97 61.07 44.01 64.05 C 39.41 64.15 34.77 63.71 30.20 64.34 C 27.36 64.71 25.65 67.24 24.51 69.62 C 24.68 87.42 24.14 105.25 24.79 123.04 C 22.92 114.30 24.32 105.31 23.27 96.48 C 20.19 101.22 16.41 105.42 12.55 109.52 C 12.56 96.67 12.47 83.82 12.58 70.98 C 12.64 61.41 20.79 52.81 30.35 52.29 Z" />
</g>
<g id="#37df7bff">
<path fill="#37df7b" opacity="1.00" d=" M 60.09 52.17 C 60.73 52.17 62.00 52.16 62.64 52.15 C 70.17 52.45 77.76 51.67 85.25 52.67 C 81.58 52.73 77.93 53.08 74.27 53.34 C 72.01 56.85 69.85 60.43 67.78 64.06 C 59.85 64.05 51.93 64.06 44.01 64.05 C 45.97 61.07 47.81 57.90 50.54 55.54 C 53.17 53.25 56.73 52.59 60.09 52.17 Z" />
</g>
<g id="#44e372ff">
<path fill="#44e372" opacity="1.00" d=" M 74.27 53.34 C 77.93 53.08 81.58 52.73 85.25 52.67 C 89.45 53.49 93.10 56.06 96.00 59.13 C 92.76 61.55 89.69 64.29 87.78 67.91 C 86.28 66.13 84.42 64.34 81.95 64.21 C 77.24 63.80 72.50 64.13 67.78 64.06 C 69.85 60.43 72.01 56.85 74.27 53.34 Z" />
</g>
<g id="#53e768ff">
<path fill="#53e768" opacity="1.00" d=" M 87.78 67.91 C 89.69 64.29 92.76 61.55 96.00 59.13 C 102.16 66.63 100.06 76.76 100.40 85.69 C 96.52 90.00 92.70 94.39 89.47 99.22 C 88.77 89.32 89.93 79.33 88.33 69.49 C 88.19 69.09 87.92 68.30 87.78 67.91 Z" />
</g>
<g id="#020a0548">
<path fill="#020a05" opacity="0.28" d=" M 24.51 69.62 C 25.65 67.24 27.36 64.71 30.20 64.34 C 34.77 63.71 39.41 64.15 44.01 64.05 C 51.93 64.06 59.85 64.05 67.78 64.06 C 72.50 64.13 77.24 63.80 81.95 64.21 C 84.42 64.34 86.28 66.13 87.78 67.91 C 87.92 68.30 88.19 69.09 88.33 69.49 C 84.59 67.37 80.41 65.93 76.05 66.10 C 63.02 66.24 49.98 66.27 36.95 66.10 C 32.51 65.86 28.29 67.43 24.51 69.62 Z" />
</g>
<g id="#60eb5fff">
<path fill="#60eb5f" opacity="1.00" d=" M 88.33 69.49 C 89.93 79.33 88.77 89.32 89.47 99.22 C 92.70 94.39 96.52 90.00 100.40 85.69 C 100.38 97.14 100.44 108.59 100.40 120.04 C 100.42 123.77 99.44 127.43 97.79 130.76 C 94.27 135.61 88.97 139.48 82.83 139.86 C 76.09 140.17 69.33 139.94 62.58 139.96 C 60.30 139.94 58.03 139.91 55.75 139.92 C 57.84 136.29 59.99 132.69 62.30 129.19 C 68.64 129.26 74.98 128.85 81.27 128.08 C 85.45 128.07 88.77 124.18 88.42 120.07 C 88.41 103.21 88.56 86.35 88.33 69.49 Z" />
<path fill="#60eb5f" opacity="1.00" d=" M 114.81 109.95 C 118.85 108.86 123.25 109.16 127.36 109.68 C 131.19 110.68 131.72 115.02 131.40 118.35 C 125.91 122.74 117.79 122.06 111.78 119.12 C 111.24 115.85 111.09 111.40 114.81 109.95 Z" />
</g>
<g id="#4de56cff">
<path fill="#4de56c" opacity="1.00" d=" M 115.38 70.46 C 119.37 69.73 123.61 69.68 127.59 70.50 C 132.31 71.95 132.77 79.22 128.32 81.32 C 124.17 82.62 119.57 82.40 115.33 81.61 C 110.13 80.20 110.20 71.86 115.38 70.46 Z" />
</g>
<g id="#5eea61ff">
<path fill="#5eea61" opacity="1.00" d=" M 139.40 70.49 C 143.38 69.70 147.61 69.72 151.61 70.46 C 156.75 71.89 156.82 80.18 151.65 81.61 C 147.41 82.40 142.82 82.60 138.66 81.34 C 134.19 79.26 134.63 71.90 139.40 70.49 Z" />
</g>
<g id="#28da85ff">
<path fill="#28da85" opacity="1.00" d=" M 36.54 75.35 C 39.41 75.28 42.77 74.22 45.38 75.63 C 48.47 80.57 50.41 86.13 53.16 91.27 C 56.02 86.01 57.84 80.14 61.29 75.24 C 64.10 74.72 66.98 75.05 69.80 75.25 C 67.51 82.49 63.18 88.84 60.47 95.89 C 63.52 103.19 67.77 109.96 70.52 117.39 C 67.59 117.58 64.60 117.98 61.69 117.35 C 58.36 112.29 56.26 106.50 53.33 101.20 C 50.59 106.51 48.37 112.11 45.22 117.18 C 42.36 118.17 39.24 117.50 36.29 117.38 C 38.85 109.95 43.40 103.38 46.01 96.00 C 43.35 88.91 39.15 82.48 36.54 75.35 Z" />
</g>
<g id="#57e965ff">
<path fill="#57e965" opacity="1.00" d=" M 114.47 90.46 C 118.40 89.11 122.80 89.74 126.90 89.94 C 132.24 90.81 133.05 99.08 128.06 101.08 C 124.03 102.06 119.71 101.69 115.60 101.36 C 110.68 100.23 109.96 92.66 114.47 90.46 Z" />
</g>
<g id="#66ed5bff">
<path fill="#66ed5b" opacity="1.00" d=" M 139.29 90.14 C 143.38 89.44 147.69 89.49 151.79 90.11 C 156.90 91.84 156.67 100.10 151.38 101.36 C 147.49 101.79 143.50 101.81 139.62 101.34 C 134.40 100.03 134.18 91.78 139.29 90.14 Z" />
</g>
<g id="#3cd0beff">
<path fill="#3cd0be" opacity="1.00" d=" M 168.07 107.21 C 171.76 102.72 175.74 98.44 178.95 93.58 C 179.32 114.04 178.99 134.52 179.12 154.98 C 179.25 160.37 178.51 165.95 175.65 170.62 C 171.11 178.01 162.75 183.00 154.00 182.81 C 126.90 182.69 99.78 183.01 72.69 182.58 C 85.33 181.74 98.00 182.14 110.65 181.75 C 112.54 179.08 114.15 175.94 117.08 174.25 C 121.08 172.30 125.66 172.39 130.01 172.22 C 134.79 172.15 139.50 171.25 144.27 171.04 C 148.14 170.96 152.01 171.23 155.87 170.89 C 161.46 170.35 166.21 165.62 167.06 160.12 C 168.33 152.13 167.64 144.04 167.81 136.00 C 167.86 126.40 167.99 116.80 168.07 107.21 Z" />
</g>
<g id="#39df7aff">
<path fill="#39df7a" opacity="1.00" d=" M 12.55 109.52 C 16.41 105.42 20.19 101.22 23.27 96.48 C 24.32 105.31 22.92 114.30 24.79 123.04 C 25.75 126.05 28.71 127.86 31.75 128.14 C 28.48 131.00 26.01 134.62 25.22 138.95 C 21.22 137.17 17.73 134.33 15.24 130.72 C 11.45 124.29 12.74 116.61 12.55 109.52 Z" />
</g>
<g id="#6cef57ff">
<path fill="#6cef57" opacity="1.00" d=" M 139.63 109.67 C 143.49 109.09 147.51 109.10 151.37 109.65 C 154.79 110.40 155.59 114.17 155.82 117.15 C 154.16 118.81 152.59 121.11 149.99 121.14 C 144.83 121.42 138.39 122.35 135.25 117.16 C 135.50 114.20 136.23 110.45 139.63 109.67 Z" />
</g>
<g id="#00000035">
<path fill="#000000" opacity="0.21" d=" M 138.95 123.01 C 136.41 122.17 135.72 119.48 135.25 117.16 C 138.39 122.35 144.83 121.42 149.99 121.14 C 152.59 121.11 154.16 118.81 155.82 117.15 C 155.23 119.44 154.62 122.20 152.06 123.03 C 147.89 124.50 143.11 124.50 138.95 123.01 Z" />
<path fill="#000000" opacity="0.21" d=" M 111.78 119.12 C 117.79 122.06 125.91 122.74 131.40 118.35 C 130.30 120.14 129.76 122.82 127.39 123.31 C 123.56 124.37 119.43 124.35 115.60 123.32 C 113.59 122.84 112.95 120.57 111.78 119.12 Z" />
</g>
<g id="#4de66cff">
<path fill="#4de66c" opacity="1.00" d=" M 31.75 128.14 C 48.25 128.10 64.76 128.19 81.27 128.08 C 74.98 128.85 68.64 129.26 62.30 129.19 C 59.99 132.69 57.84 136.29 55.75 139.92 C 54.11 139.93 52.47 139.95 50.83 139.97 C 42.30 139.68 33.62 140.86 25.22 138.95 C 26.01 134.62 28.48 131.00 31.75 128.14 Z" />
</g>
<g id="#030c0945">
<path fill="#030c09" opacity="0.27" d=" M 15.24 130.72 C 17.73 134.33 21.22 137.17 25.22 138.95 C 33.62 140.86 42.30 139.68 50.83 139.97 C 50.96 147.04 50.55 154.12 50.94 161.19 C 50.05 154.94 50.34 148.61 49.88 142.32 C 39.92 141.52 28.44 144.72 19.90 138.05 C 17.24 136.46 16.03 133.57 15.24 130.72 Z" />
</g>
<g id="#050c0446">
<path fill="#050c04" opacity="0.27" d=" M 82.83 139.86 C 88.97 139.48 94.27 135.61 97.79 130.76 C 96.11 135.37 92.76 139.46 87.90 140.86 C 79.70 143.36 70.98 141.75 62.56 142.69 C 62.57 142.01 62.58 140.64 62.58 139.96 C 69.33 139.94 76.09 140.17 82.83 139.86 Z" />
</g>
<g id="#27b69dff">
<path fill="#27b69d" opacity="1.00" d=" M 50.83 139.97 C 52.47 139.95 54.11 139.93 55.75 139.92 C 58.03 139.91 60.30 139.94 62.58 139.96 C 62.58 140.64 62.57 142.01 62.56 142.69 C 62.68 148.46 62.28 154.25 62.78 160.00 C 63.31 164.78 66.97 168.52 71.21 170.41 C 68.73 173.50 67.12 177.14 65.59 180.76 C 60.28 178.28 55.92 174.01 53.18 168.85 C 52.03 166.43 51.32 163.83 50.94 161.19 C 50.55 154.12 50.96 147.04 50.83 139.97 Z" />
</g>
<g id="#01050540">
<path fill="#010505" opacity="0.25" d=" M 53.18 168.85 C 55.92 174.01 60.28 178.28 65.59 180.76 C 67.89 181.60 70.24 182.38 72.69 182.58 C 99.78 183.01 126.90 182.69 154.00 182.81 C 162.75 183.00 171.11 178.01 175.65 170.62 C 175.12 176.17 170.09 179.27 165.73 181.80 C 161.29 184.40 156.11 185.33 151.01 185.29 C 129.34 185.26 107.67 185.23 86.00 185.29 C 78.88 185.29 71.26 185.82 64.82 182.21 C 59.61 179.29 53.95 175.26 53.18 168.85 Z" />
</g>
<g id="#32c3adff">
<path fill="#32c3ad" opacity="1.00" d=" M 71.21 170.41 C 75.75 171.37 80.40 171.01 85.00 171.05 C 104.76 171.04 124.51 170.97 144.27 171.04 C 139.50 171.25 134.79 172.15 130.01 172.22 C 125.66 172.39 121.08 172.30 117.08 174.25 C 114.15 175.94 112.54 179.08 110.65 181.75 C 98.00 182.14 85.33 181.74 72.69 182.58 C 70.24 182.38 67.89 181.60 65.59 180.76 C 67.12 177.14 68.73 173.50 71.21 170.41 Z" />
</g>
</svg>
