<?xml version="1.0" encoding="UTF-8" ?>
<!DOCTYPE svg PUBLIC "-//W3C//DTD SVG 1.1//EN" "http://www.w3.org/Graphics/SVG/1.1/DTD/svg11.dtd">
<svg width="192pt" height="192pt" viewBox="0 0 192 192" version="1.1" xmlns="http://www.w3.org/2000/svg">
<g id="#ff741fff">
<path fill="#ff741f" opacity="1.00" d=" M 33.86 52.07 C 47.97 29.22 74.23 14.69 101.04 14.38 C 101.07 18.31 101.07 22.24 101.10 26.17 C 81.01 26.67 61.19 36.02 48.64 51.84 C 43.72 52.03 38.79 52.31 33.86 52.07 Z" />
</g>
<g id="#f69817ff">
<path fill="#f69817" opacity="1.00" d=" M 101.04 14.38 C 113.69 14.17 126.29 17.05 137.72 22.44 C 133.38 23.84 131.89 28.40 129.81 31.97 C 124.46 29.64 118.79 28.15 113.05 27.13 C 113.03 28.31 113.02 29.49 113.02 30.66 C 113.00 38.00 113.12 45.34 112.96 52.68 C 108.50 58.49 101.75 63.99 101.93 71.95 C 101.76 80.87 102.16 89.82 101.36 98.73 L 101.37 99.34 C 100.75 76.15 101.28 52.92 101.12 29.71 C 101.11 28.53 101.11 27.35 101.10 26.17 C 101.07 22.24 101.07 18.31 101.04 14.38 Z" />
</g>
<g id="#f6a724ff">
<path fill="#f6a724" opacity="1.00" d=" M 129.81 31.97 C 131.89 28.40 133.38 23.84 137.72 22.44 C 145.04 26.15 151.94 30.73 157.91 36.38 C 155.06 39.20 152.61 42.40 150.69 45.93 C 144.62 40.09 137.54 35.32 129.81 31.97 Z" />
</g>
<g id="#0000003c">
<path fill="#000000" opacity="0.24" d=" M 48.64 51.84 C 61.19 36.02 81.01 26.67 101.10 26.17 C 101.11 27.35 101.11 28.53 101.12 29.71 C 97.90 29.31 94.62 29.02 91.39 29.52 C 75.87 31.96 61.00 39.71 50.93 51.88 C 50.36 51.87 49.21 51.85 48.64 51.84 Z" />
</g>
<g id="#0000003f">
<path fill="#000000" opacity="0.25" d=" M 113.05 27.13 C 118.79 28.15 124.46 29.64 129.81 31.97 C 137.54 35.32 144.62 40.09 150.69 45.93 C 154.36 49.48 157.66 53.42 160.41 57.73 C 158.68 56.82 157.13 55.60 155.96 54.02 C 147.10 42.52 133.95 34.87 120.12 30.94 C 117.80 30.27 115.38 30.46 113.02 30.66 C 113.02 29.49 113.03 28.31 113.05 27.13 Z" />
<path fill="#000000" opacity="0.25" d=" M 101.37 99.34 L 101.36 98.73 C 102.66 100.57 104.27 102.36 106.66 102.60 C 117.35 102.63 128.05 102.62 138.74 102.60 C 149.85 102.65 160.96 102.52 172.06 102.69 C 171.87 103.74 171.69 104.80 171.52 105.85 C 163.07 104.52 154.51 105.31 146.00 105.14 C 133.65 105.03 121.29 105.29 108.95 105.09 C 105.45 105.26 101.18 103.43 101.37 99.34 Z" />
<path fill="#000000" opacity="0.25" d=" M 77.97 139.92 C 84.69 139.77 90.52 135.48 94.10 130.02 C 92.43 136.50 86.45 141.16 79.93 142.01 C 72.29 142.94 64.59 142.04 56.93 142.28 C 55.01 142.33 53.20 142.98 51.41 143.61 C 50.38 142.48 49.43 141.27 48.50 140.05 C 58.32 139.90 68.15 140.18 77.97 139.92 Z" />
<path fill="#000000" opacity="0.25" d=" M 11.20 130.77 C 13.05 133.22 15.17 135.54 17.81 137.16 C 22.53 140.27 28.39 140.09 33.81 140.07 C 43.23 155.21 57.96 166.79 74.63 172.96 C 92.33 179.34 112.22 179.46 129.93 173.07 C 144.39 167.97 157.10 158.52 166.70 146.62 C 166.00 150.62 162.91 153.45 160.22 156.22 C 154.90 161.37 148.84 165.68 142.57 169.57 C 117.90 183.87 85.54 183.81 61.19 168.82 C 52.86 163.41 44.58 157.43 38.75 149.26 C 37.03 147.05 35.55 144.55 33.25 142.87 C 29.04 141.78 24.38 142.77 20.39 140.66 C 16.32 138.63 11.63 135.79 11.20 130.77 Z" />
</g>
<g id="#f6bd36ff">
<path fill="#f6bd36" opacity="1.00" d=" M 150.69 45.93 C 152.61 42.40 155.06 39.20 157.91 36.38 C 166.71 44.56 173.64 54.72 178.16 65.85 C 179.27 68.66 180.87 72.07 178.89 74.88 C 176.68 78.63 170.41 78.36 168.69 74.31 C 166.36 68.59 163.98 62.83 160.41 57.73 C 157.66 53.42 154.36 49.48 150.69 45.93 Z" />
</g>
<g id="#cb2f3fd0">
<path fill="#cb2f3f" opacity="0.82" d=" M 33.86 52.07 C 38.79 52.31 43.72 52.03 48.64 51.84 C 49.21 51.85 50.36 51.87 50.93 51.88 C 61.01 52.59 71.19 51.32 81.22 52.69 C 74.85 52.41 68.47 52.76 62.09 52.70 C 49.99 52.55 37.87 53.40 25.79 52.37 C 28.47 52.12 31.17 52.00 33.86 52.07 Z" />
</g>
<g id="#ff364eff">
<path fill="#ff364e" opacity="1.00" d=" M 8.58 71.01 C 8.62 61.67 16.44 53.07 25.79 52.37 C 37.87 53.40 49.99 52.55 62.09 52.70 C 59.62 56.44 57.14 60.17 54.78 63.98 C 47.85 64.00 40.93 64.02 34.01 63.96 C 30.93 63.95 27.80 63.88 24.82 64.74 C 21.23 66.27 20.16 70.40 20.43 73.97 C 20.62 90.35 20.17 106.75 20.68 123.12 C 19.64 119.84 19.60 116.38 19.50 112.98 C 15.70 117.37 12.07 122.00 9.83 127.41 L 9.56 128.00 C 9.08 125.01 8.46 122.03 8.53 118.98 C 8.59 102.99 8.48 87.00 8.58 71.01 Z" />
</g>
<g id="#ff3660ff">
<path fill="#ff3660" opacity="1.00" d=" M 62.09 52.70 C 68.47 52.76 74.85 52.41 81.22 52.69 C 86.99 53.93 91.89 58.07 94.43 63.35 C 91.33 66.68 88.49 70.24 85.68 73.81 C 85.18 72.50 84.68 71.19 84.16 69.89 C 83.36 67.54 81.76 65.32 79.31 64.55 C 71.20 63.35 62.95 64.28 54.78 63.98 C 57.14 60.17 59.62 56.44 62.09 52.70 Z" />
</g>
<g id="#f6a623ff">
<path fill="#f6a623" opacity="1.00" d=" M 101.93 71.95 C 101.75 63.99 108.50 58.49 112.96 52.68 C 113.13 64.13 112.99 75.59 113.03 87.04 C 113.01 88.49 113.26 89.92 113.67 91.30 C 111.12 94.93 108.84 98.74 106.66 102.60 C 104.27 102.36 102.66 100.57 101.36 98.73 C 102.16 89.82 101.76 80.87 101.93 71.95 Z" />
</g>
<g id="#1504075f">
<path fill="#150407" opacity="0.37" d=" M 24.82 64.74 C 27.80 63.88 30.93 63.95 34.01 63.96 C 40.93 64.02 47.85 64.00 54.78 63.98 C 62.95 64.28 71.20 63.35 79.31 64.55 C 70.23 65.51 61.10 65.06 52.00 65.14 C 42.94 65.09 33.86 65.38 24.82 64.74 Z" />
</g>
<g id="#ff3674ff">
<path fill="#ff3674" opacity="1.00" d=" M 85.68 73.81 C 88.49 70.24 91.33 66.68 94.43 63.35 C 95.13 65.13 95.75 66.95 96.07 68.84 C 96.12 86.98 96.12 105.13 96.07 123.28 C 95.71 125.59 94.96 127.83 94.10 130.02 C 90.52 135.48 84.69 139.77 77.97 139.92 C 68.15 140.18 58.32 139.90 48.50 140.05 C 45.26 140.03 42.02 139.90 38.78 139.96 C 41.10 136.32 43.51 132.74 45.85 129.10 C 39.51 128.76 33.06 129.52 26.81 128.10 C 43.55 128.14 60.31 128.22 77.05 128.05 C 81.29 128.19 84.64 124.17 84.30 120.05 C 84.26 103.33 84.53 86.60 84.16 69.89 C 84.68 71.19 85.18 72.50 85.68 73.81 Z" />
</g>
<g id="#2b091448">
<path fill="#2b0914" opacity="0.28" d=" M 96.07 68.84 C 97.38 77.83 96.37 86.95 96.67 96.00 C 96.36 105.08 97.37 114.24 96.07 123.28 C 96.12 105.13 96.12 86.98 96.07 68.84 Z" />
</g>
<g id="#ff364dff">
<path fill="#ff364d" opacity="1.00" d=" M 38.24 74.30 C 47.08 74.08 56.14 73.21 64.83 75.33 C 62.56 77.47 60.57 79.90 59.11 82.66 C 55.26 82.40 51.41 82.33 47.55 82.36 C 47.59 87.77 47.52 93.17 47.62 98.58 C 44.67 102.74 41.49 106.74 38.08 110.53 C 37.43 103.37 37.92 96.17 37.78 89.00 C 37.87 84.10 37.43 79.16 38.24 74.30 Z" />
</g>
<g id="#ff3666ff">
<path fill="#ff3666" opacity="1.00" d=" M 59.11 82.66 C 60.57 79.90 62.56 77.47 64.83 75.33 C 70.54 78.30 70.57 85.40 70.49 90.99 C 70.41 95.80 70.50 101.97 65.86 104.82 C 60.26 107.74 53.69 106.53 47.63 106.86 C 47.55 111.08 47.62 115.31 47.42 119.53 C 44.54 119.97 41.12 120.92 38.47 119.50 C 37.26 116.79 37.61 113.41 38.08 110.53 C 41.49 106.74 44.67 102.74 47.62 98.58 C 51.50 98.22 55.90 99.42 59.39 97.34 C 61.67 92.92 61.04 87.16 59.11 82.66 Z" />
</g>
<g id="#f6b631ff">
<path fill="#f6b631" opacity="1.00" d=" M 113.67 91.30 C 115.15 90.07 117.27 90.89 119.03 90.65 C 127.82 90.71 136.61 90.61 145.40 90.70 C 143.34 94.75 140.99 98.65 138.74 102.60 C 128.05 102.62 117.35 102.63 106.66 102.60 C 108.84 98.74 111.12 94.93 113.67 91.30 Z" />
</g>
<g id="#f6c840ff">
<path fill="#f6c840" opacity="1.00" d=" M 145.40 90.70 C 156.28 90.66 167.16 90.63 178.04 90.69 C 180.70 90.57 183.27 92.50 183.85 95.11 C 184.26 97.74 183.95 100.41 183.84 103.06 C 179.91 102.94 175.98 102.82 172.06 102.69 C 160.96 102.52 149.85 102.65 138.74 102.60 C 140.99 98.65 143.34 94.75 145.40 90.70 Z" />
</g>
<g id="#ff9e1fff">
<path fill="#ff9e1f" opacity="1.00" d=" M 172.06 102.69 C 175.98 102.82 179.91 102.94 183.84 103.06 C 182.43 118.83 176.46 134.14 166.70 146.62 C 157.10 158.52 144.39 167.97 129.93 173.07 C 112.22 179.46 92.33 179.34 74.63 172.96 C 73.55 168.39 77.02 165.02 80.14 162.30 C 101.66 169.69 126.71 165.68 144.69 151.69 C 159.19 140.70 169.06 123.89 171.52 105.85 C 171.69 104.80 171.87 103.74 172.06 102.69 Z" />
</g>
<g id="#ff3661ff">
<path fill="#ff3661" opacity="1.00" d=" M 9.83 127.41 C 12.07 122.00 15.70 117.37 19.50 112.98 C 19.60 116.38 19.64 119.84 20.68 123.12 C 21.82 125.60 24.06 127.63 26.81 128.10 C 33.06 129.52 39.51 128.76 45.85 129.10 C 43.51 132.74 41.10 136.32 38.78 139.96 C 37.12 139.99 35.47 140.04 33.81 140.07 C 28.39 140.09 22.53 140.27 17.81 137.16 C 15.17 135.54 13.05 133.22 11.20 130.77 C 10.70 129.67 10.24 128.55 9.83 127.41 Z" />
</g>
<g id="#ff881fff">
<path fill="#ff881f" opacity="1.00" d=" M 33.81 140.07 C 35.47 140.04 37.12 139.99 38.78 139.96 C 42.02 139.90 45.26 140.03 48.50 140.05 C 49.43 141.27 50.38 142.48 51.41 143.61 C 59.22 152.12 69.21 158.60 80.14 162.30 C 77.02 165.02 73.55 168.39 74.63 172.96 C 57.96 166.79 43.23 155.21 33.81 140.07 Z" />
</g>
</svg>
