<?xml version="1.0" encoding="UTF-8" ?>
<!DOCTYPE svg PUBLIC "-//W3C//DTD SVG 1.1//EN" "http://www.w3.org/Graphics/SVG/1.1/DTD/svg11.dtd">
<svg width="192pt" height="192pt" viewBox="0 0 192 192" version="1.1" xmlns="http://www.w3.org/2000/svg">
<g id="#0c93ffff">
<path fill="#0c93ff" opacity="1.00" d=" M 22.76 48.77 C 37.27 25.83 63.04 10.45 90.19 8.95 C 86.39 13.71 81.17 17.24 78.11 22.59 C 63.64 26.27 50.24 34.14 40.28 45.29 C 27.54 59.11 20.65 77.92 20.90 96.68 C 15.88 99.40 13.04 104.50 10.16 109.19 C 6.87 88.40 11.31 66.46 22.76 48.77 Z" />
</g>
<g id="#13a2ffff">
<path fill="#13a2ff" opacity="1.00" d=" M 90.19 8.95 C 105.19 7.91 120.40 10.93 133.92 17.51 C 130.36 19.91 127.29 22.92 124.58 26.24 C 109.97 20.16 93.51 19.12 78.11 22.59 C 81.17 17.24 86.39 13.71 90.19 8.95 Z" />
</g>
<g id="#1cb5ffff">
<path fill="#1cb5ff" opacity="1.00" d=" M 124.58 26.24 C 127.29 22.92 130.36 19.91 133.92 17.51 C 149.23 25.02 162.18 37.10 170.87 51.77 C 165.91 50.15 162.95 55.36 161.33 59.16 C 155.33 48.49 146.77 39.17 136.39 32.64 C 132.68 30.12 128.73 27.96 124.58 26.24 Z" />
<path fill="#1cb5ff" opacity="1.00" d=" M 113.16 71.12 C 114.21 70.09 116.00 69.83 117.17 70.84 C 121.13 73.56 124.81 76.67 128.72 79.48 C 124.72 81.11 122.86 85.16 120.48 88.45 C 115.69 95.46 110.08 101.91 105.89 109.32 C 98.15 109.32 90.41 109.51 82.67 109.17 C 84.81 104.13 88.56 100.08 91.65 95.63 C 94.85 91.06 98.22 86.61 101.19 81.90 C 104.33 81.79 107.50 82.12 110.61 81.60 C 114.15 79.28 110.95 74.15 113.16 71.12 Z" />
</g>
<g id="#00000041">
<path fill="#000000" opacity="0.25" d=" M 78.11 22.59 C 93.51 19.12 109.97 20.16 124.58 26.24 C 128.73 27.96 132.68 30.12 136.39 32.64 C 130.78 31.38 125.86 28.29 120.41 26.61 C 102.36 21.01 82.16 21.85 65.01 30.01 C 49.23 37.26 36.56 50.42 29.03 65.98 C 26.45 72.15 24.45 78.57 23.05 85.11 C 21.45 92.36 22.06 99.81 21.93 107.17 C 21.35 103.70 20.98 100.19 20.90 96.68 C 20.65 77.92 27.54 59.11 40.28 45.29 C 50.24 34.14 63.64 26.27 78.11 22.59 Z" />
<path fill="#000000" opacity="0.25" d=" M 120.75 117.78 C 129.90 110.63 139.36 103.88 148.43 96.62 C 149.48 99.10 146.81 100.80 145.28 102.28 C 137.19 108.54 128.89 114.53 120.80 120.80 C 118.85 122.39 115.91 124.14 114.04 121.49 C 116.49 120.67 118.75 119.40 120.75 117.78 Z" />
</g>
<g id="#28ceffff">
<path fill="#28ceff" opacity="1.00" d=" M 161.33 59.16 C 162.95 55.36 165.91 50.15 170.87 51.77 C 176.98 62.53 180.95 74.49 182.22 86.82 C 183.58 102.59 180.98 118.76 174.03 133.03 C 163.97 154.15 144.98 170.83 122.68 177.95 C 109.89 182.24 96.10 183.04 82.78 181.19 C 82.98 176.33 86.43 172.86 90.10 170.14 C 108.19 171.59 126.73 166.20 141.12 155.13 C 153.72 145.55 163.24 131.94 167.67 116.73 C 173.30 97.72 171.08 76.46 161.33 59.16 Z" />
</g>
<g id="#0d97ffff">
<path fill="#0d97ff" opacity="1.00" d=" M 73.41 71.41 C 74.88 69.84 78.27 69.67 78.86 72.13 C 79.44 75.02 79.18 78.00 79.42 80.92 C 78.04 82.02 76.66 83.14 75.54 84.52 C 69.55 92.29 64.36 100.67 58.13 108.26 C 53.73 104.86 49.15 101.69 44.88 98.13 C 42.99 96.98 43.06 94.06 44.99 92.98 C 54.41 85.72 63.97 78.63 73.41 71.41 Z" />
</g>
<g id="#24c6ffff">
<path fill="#24c6ff" opacity="1.00" d=" M 120.48 88.45 C 122.86 85.16 124.72 81.11 128.72 79.48 C 134.51 83.96 140.44 88.27 146.23 92.75 C 147.59 93.59 147.89 95.23 148.43 96.62 C 139.36 103.88 129.90 110.63 120.75 117.78 C 118.75 119.40 116.49 120.67 114.04 121.49 C 111.68 118.81 112.61 115.25 112.13 112.04 C 111.95 111.42 111.60 110.19 111.42 109.57 C 109.58 109.46 107.73 109.35 105.89 109.32 C 110.08 101.91 115.69 95.46 120.48 88.45 Z" />
</g>
<g id="#14a5ffff">
<path fill="#14a5ff" opacity="1.00" d=" M 75.54 84.52 C 76.66 83.14 78.04 82.02 79.42 80.92 C 86.45 82.95 93.96 81.34 101.19 81.90 C 98.22 86.61 94.85 91.06 91.65 95.63 C 88.56 100.08 84.81 104.13 82.67 109.17 C 81.60 109.51 80.47 109.84 79.63 110.62 C 78.88 113.91 79.13 117.34 78.51 120.66 C 76.96 120.66 75.21 121.25 73.92 120.09 C 69.19 116.80 64.80 113.06 60.07 109.76 C 59.42 109.27 58.77 108.76 58.13 108.26 C 64.36 100.67 69.55 92.29 75.54 84.52 Z" />
</g>
<g id="#0000003f">
<path fill="#000000" opacity="0.25" d=" M 182.22 86.82 C 182.43 87.39 182.83 88.55 183.03 89.13 C 184.64 106.47 181.65 124.51 172.82 139.70 C 159.51 164.60 133.03 181.57 105.03 184.22 C 96.47 184.50 87.77 184.78 79.37 182.74 C 70.63 181.16 62.47 177.49 54.67 173.34 C 53.45 172.83 52.68 171.76 52.23 170.56 C 61.71 175.81 72.02 179.67 82.78 181.19 C 96.10 183.04 109.89 182.24 122.68 177.95 C 144.98 170.83 163.97 154.15 174.03 133.03 C 180.98 118.76 183.58 102.59 182.22 86.82 Z" />
</g>
<g id="#129fffff">
<path fill="#129fff" opacity="1.00" d=" M 10.16 109.19 C 13.04 104.50 15.88 99.40 20.90 96.68 C 20.98 100.19 21.35 103.70 21.93 107.17 C 23.67 118.82 28.36 129.97 35.24 139.51 C 32.25 142.16 29.43 145.00 26.75 147.97 C 18.11 136.68 12.44 123.21 10.16 109.19 Z" />
</g>
<g id="#00000039">
<path fill="#000000" opacity="0.22" d=" M 79.63 110.62 C 80.47 109.84 81.60 109.51 82.67 109.17 C 90.41 109.51 98.15 109.32 105.89 109.32 C 107.73 109.35 109.58 109.46 111.42 109.57 C 111.60 110.19 111.95 111.42 112.13 112.04 C 103.41 112.05 94.68 111.91 85.95 111.99 C 84.13 112.12 81.85 111.95 80.76 113.74 C 79.45 116.37 80.52 119.64 79.28 122.30 C 76.22 124.69 73.06 121.04 70.58 119.43 C 67.11 116.22 62.03 114.31 60.07 109.76 C 64.80 113.06 69.19 116.80 73.92 120.09 C 75.21 121.25 76.96 120.66 78.51 120.66 C 79.13 117.34 78.88 113.91 79.63 110.62 Z" />
</g>
<g id="#18aeffff">
<path fill="#18aeff" opacity="1.00" d=" M 26.75 147.97 C 29.43 145.00 32.25 142.16 35.24 139.51 C 40.72 146.89 47.45 153.36 55.16 158.37 C 52.28 160.21 49.69 162.48 47.47 165.08 C 47.63 166.00 47.79 166.93 47.96 167.85 C 39.83 162.49 32.68 155.69 26.75 147.97 Z" />
</g>
<g id="#1fbbffff">
<path fill="#1fbbff" opacity="1.00" d=" M 47.47 165.08 C 49.69 162.48 52.28 160.21 55.16 158.37 C 65.57 165.16 77.71 169.21 90.10 170.14 C 86.43 172.86 82.98 176.33 82.78 181.19 C 72.02 179.67 61.71 175.81 52.23 170.56 C 50.76 169.73 49.37 168.77 47.96 167.85 C 47.79 166.93 47.63 166.00 47.47 165.08 Z" />
</g>
</svg>
