<svg width="192" height="192" viewBox="0 0 192 192" fill="none" xmlns="http://www.w3.org/2000/svg">
<path d="M36.3357 13.7521C39.7044 12.9881 43.1806 13 46.621 13C80.8697 13.0716 115.13 12.9403 149.379 13.0716C164.455 13.2746 177.691 26.6451 177.977 41.675C178.109 77.5366 178.037 113.422 178.013 149.296C178.264 164.707 164.873 178.746 149.415 178.997C113.936 179.14 78.4686 179.045 42.9895 179.045C31.6409 179.164 20.6986 172.145 15.9799 161.854C12.7546 155.312 12.8024 147.791 13.2563 140.688C13.6386 135.448 20.818 132.988 24.5332 136.546C28.2244 139.697 26.4564 144.974 26.9462 149.164C26.8268 157.664 34.3885 165.352 42.9298 165.161C78.0266 165.173 113.124 165.173 148.22 165.161C156.762 165.328 164.288 157.64 164.18 149.152C164.24 113.744 164.24 78.3364 164.18 42.9404C164.288 34.4406 156.762 26.7167 148.196 26.9077C113.112 26.8838 78.0266 26.8838 42.9417 26.9077C35.2725 26.7645 28.2125 32.9364 27.1613 40.505C26.2414 45.0415 28.0094 50.0554 25.8711 54.3172C23.255 59.0805 15.3946 58.3642 13.5908 53.2786C12.6351 49.1004 13.0891 44.7191 13.2443 40.4812C14.0567 27.8031 23.9359 16.4381 36.3357 13.7521Z" fill="url(#paint0_linear)"/>
<path d="M117.469 46.3788C122.021 39.9954 128.946 47.2908 128.972 58.3902C129.309 65.6334 126.573 71.2613 123.603 74.3618C107.69 93.6164 91.8037 113.001 75.9171 132.412C73.5568 135.565 70.4832 137.31 67.7728 134.809C61.0421 128.817 54.5448 121.886 47.853 115.711C44.7794 112.767 40.9666 109.588 40.2663 101.98C38.6063 90.7764 45.0388 79.3643 50.3429 84.5753C57.0866 90.5158 63.6099 97.4464 70.2628 103.752C86.0197 84.7056 101.686 65.3468 117.469 46.3788Z" fill="url(#paint1_linear)"/>
<path d="M16.9834 70.5051C21.1644 68.2488 26.9462 71.6034 26.8507 76.4025C26.9582 89.0567 26.9223 101.723 26.8626 114.377C26.994 118.842 22.0962 122.244 17.9152 120.824C14.7495 119.869 12.8143 116.586 13.101 113.35C13.0771 101.389 13.0652 89.4268 13.1129 77.4649C12.8979 74.6237 14.3314 71.7108 16.9834 70.5051Z" fill="url(#paint2_linear)"/>
<defs>
<linearGradient id="paint0_linear" x1="13.0242" y1="93.5774" x2="178.082" y2="93.5774" gradientUnits="userSpaceOnUse">
<stop stop-color="#A93AFF"/>
<stop offset="1" stop-color="#FF81FF"/>
</linearGradient>
<linearGradient id="paint1_linear" x1="40.013" y1="88.6369" x2="129.015" y2="88.6369" gradientUnits="userSpaceOnUse">
<stop stop-color="#A93AFF"/>
<stop offset="1" stop-color="#FF81FF"/>
</linearGradient>
<linearGradient id="paint2_linear" x1="13.075" y1="94.7074" x2="26.922" y2="94.7074" gradientUnits="userSpaceOnUse">
<stop stop-color="#A93AFF"/>
<stop offset="1" stop-color="#FF81FF"/>
</linearGradient>
</defs>
</svg>
